<svg xmlns="http://www.w3.org/2000/svg" enable-background="new 0 0 3000 3000" viewBox="0 0 3000 3000"><linearGradient id="a" x1="1310.887" x2="1834.067" y1="197.383" y2="3461.808" gradientUnits="userSpaceOnUse"><stop offset=".008" stop-color="#595bd4" class="stopColor182b9b svgShape"/><stop offset="1" stop-color="#03042b" class="stopColor21032b svgShape"/></linearGradient><circle cx="1505.51" cy="1411.76" r="1132.19" fill="url(#a)"/><path fill="#03042b" d="M2516.5 1862.33c-44.94 20.56-94.79 30.13-143.64 35.55-46.41 5.14-93.53 6.49-140.13 3.36-18.41-1.23-37.26-2.6-54.94-8.18-34.09-10.77-63.96-31.6-93.87-50.56-27.79-17.61-63.42-42.08-98.09-38.13-28.71 3.27-54.73 20.24-77.11 37.41-52.25 40.07-94.08 91.82-145.55 132.74-24.37 19.38-52.5 33.7-80.15 47.76-27.61 14.04-56.03 26.8-85.67 35.96-48.42 14.95-101.95 18.91-146.68-8.8-59.5-36.86-84.54-110.36-105.97-172.99-27.58-80.65-48.62-163.92-85.48-241.06-18.11 46.71-40.99 91.41-70.13 132.26-29.32 41.11-64.22 77.83-101.27 112.02-37.38 34.5-76.07 69.58-118.68 97.52-38.46 25.21-80.14 45.21-124.21 58.46-82.82 24.89-171.33 23.45-254.23-.26-13.05-3.73-25.9-8.02-38.57-12.72 201.33 313.53 553.09 521.26 953.37 521.26 473.33 0 878.74-290.5 1047.88-702.89-11.54 8.42-24.17 15.48-36.88 21.29z" opacity=".35" class="color21032b svgShape"/><path fill="#ffffff" d="M2135.52 689.22c-6.48 2.18-8.25 3.96-10.44 10.44-2.19-6.48-3.96-8.25-10.44-10.44 6.48-2.19 8.25-3.96 10.44-10.44 2.19 6.48 3.96 8.25 10.44 10.44zM684.93 822.05c-8.84 2.98-11.26 5.4-14.24 14.25-2.99-8.85-5.41-11.26-14.25-14.25 8.85-2.98 11.26-5.4 14.25-14.24 2.97 8.84 5.4 11.25 14.24 14.24zM1612.45 438.35c-8.85 2.99-11.27 5.41-14.25 14.25-2.98-8.84-5.4-11.26-14.25-14.25 8.84-2.98 11.26-5.4 14.25-14.24 2.98 8.83 5.4 11.25 14.25 14.24zM1157.13 1179.11c-8.84 2.98-11.26 5.4-14.25 14.24-2.98-8.84-5.41-11.26-14.25-14.24 8.84-2.99 11.27-5.41 14.25-14.25 2.98 8.84 5.41 11.26 14.25 14.25z" class="colorfff svgShape"/><path fill="#ffffff" d="M1278.05 586.55c0-4.16-3.37-7.53-7.53-7.53-4.19 0-7.56 3.37-7.56 7.53 0 4.15 3.37 7.53 7.56 7.53 4.16-.01 7.53-3.38 7.53-7.53zM1316.82 586.55c0-4.16-3.37-7.53-7.53-7.53-4.18 0-7.55 3.37-7.55 7.53 0 4.15 3.37 7.53 7.55 7.53 4.16-.01 7.53-3.38 7.53-7.53z" opacity=".8" class="colorfff svgShape"/><path fill="#ffffff" d="M1355.59 586.55c0-4.16-3.38-7.53-7.53-7.53-4.19 0-7.56 3.37-7.56 7.53 0 4.15 3.37 7.53 7.56 7.53 4.15-.01 7.53-3.38 7.53-7.53z" opacity=".6" class="colorfff svgShape"/><path fill="#ffffff" d="M1394.35 586.55c0-4.16-3.37-7.53-7.52-7.53-4.19 0-7.56 3.37-7.56 7.53 0 4.15 3.37 7.53 7.56 7.53 4.15-.01 7.52-3.38 7.52-7.53z" opacity=".3" class="colorfff svgShape"/><path fill="#ffffff" d="M492.89 1497.12c4.16 0 7.53-3.37 7.53-7.53 0-4.19-3.37-7.56-7.53-7.56-4.15 0-7.53 3.37-7.53 7.56 0 4.15 3.37 7.53 7.53 7.53zM492.89 1535.88c4.16 0 7.53-3.37 7.53-7.53 0-4.18-3.37-7.55-7.53-7.55-4.15 0-7.53 3.37-7.53 7.55 0 4.16 3.37 7.53 7.53 7.53z" opacity=".8" class="colorfff svgShape"/><path fill="#ffffff" d="M492.89 1574.65c4.16 0 7.53-3.38 7.53-7.53 0-4.19-3.37-7.56-7.53-7.56-4.15 0-7.53 3.37-7.53 7.56 0 4.15 3.37 7.53 7.53 7.53z" opacity=".6" class="colorfff svgShape"/><path fill="#ffffff" d="M492.89 1613.41c4.16 0 7.53-3.37 7.53-7.52 0-4.19-3.37-7.56-7.53-7.56-4.15 0-7.53 3.37-7.53 7.56 0 4.15 3.37 7.52 7.53 7.52z" opacity=".3" class="colorfff svgShape"/><path fill="#ffffff" d="M2522.99 1510.94c4.15 0 7.52-3.37 7.52-7.53 0-4.19-3.37-7.56-7.52-7.56-4.16 0-7.53 3.37-7.53 7.56 0 4.16 3.37 7.53 7.53 7.53zM2522.99 1549.71c4.15 0 7.52-3.37 7.52-7.53 0-4.19-3.37-7.56-7.52-7.56-4.16 0-7.53 3.37-7.53 7.56 0 4.16 3.37 7.53 7.53 7.53z" opacity=".8" class="colorfff svgShape"/><path fill="#ffffff" d="M2522.99 1588.48c4.15 0 7.52-3.38 7.52-7.53 0-4.19-3.37-7.56-7.52-7.56-4.16 0-7.53 3.38-7.53 7.56 0 4.15 3.37 7.53 7.53 7.53z" opacity=".6" class="colorfff svgShape"/><path fill="#ffffff" d="M2522.99 1627.24c4.15 0 7.52-3.37 7.52-7.52 0-4.19-3.37-7.56-7.52-7.56-4.16 0-7.53 3.37-7.53 7.56 0 4.14 3.37 7.52 7.53 7.52z" opacity=".3" class="colorfff svgShape"/><g fill="#000000" class="color000 svgShape"><path fill="#03042b" d="M363.01 2665.02s-.78 14.08 11.12 20.39c29.55 15.66 127.64-1.09 132.46-10.56 4.82-9.46 3.13-21.48 3.13-21.48l-146.71 11.65z" class="color21032b svgShape"/><path fill="#ffd6aa" d="M462.65 2534.13c-.77 2.71-18.46 89.96-18.46 89.96l46.13 15.81 33.25-87.57-60.92-18.2z" class="colorffafaa svgShape"/><path fill="#ddb58a" d="M462.65 2534.13c-.29 1.02-2.98 14.05-6.23 29.89 11.59 3.87 22.69 8.89 33.32 15.14 4.34 2.55 13.53 8.43 8.85 14.75-4.24 5.73-13.32 4.74-18.76 1.94-6.58-3.39-11.86-8.94-17.41-13.84-2.48-2.19-5.29-4.67-8.35-6.51-4.83 23.64-9.89 48.6-9.89 48.6l46.13 15.81 33.25-87.57-60.91-18.21z" opacity=".5" class="colordd8a8a svgShape"/><path fill="#131468" d="M449.69 2605.37c.04 3.58-.18 7.3-.86 11.14-4.82 27.13-12.95 50.47-12.95 50.47s62.36 9.46 71.09-2.21c6.31-8.43 2.56-37.27-1.37-59.41h-55.91z" class="color132368 svgShape"/><path fill="#03042b" d="M479.11 2620.57c3.74-2.51 7.6-5.72 12.33-4.74 4.65.97 8.16 5.51 10.04 9.8 2.11 4.82 2.75 10.16 3.74 15.32.95 4.95 2.43 9.69 4.75 14.12 1.43-12.7-1.42-33.09-4.37-49.7h-55.91c.04 3.58-.18 7.3-.86 11.14-.64 3.58-1.33 7.08-2.06 10.49 11.13 2.3 22.59.12 32.34-6.43z" opacity=".25" class="color21032b svgShape"/><path fill="#03042b" d="M403.04 2631.34s26.51 2.21 36.45 17.03c9.94 14.83 37.05-33.12 29.22-49.84-7.83-16.72-40.97-5.05-40.97-5.05s6.33 32.5-24.7 37.86z" class="color21032b svgShape"/><path fill="#131468" d="M365.45 2673.76c16.21 13.74 71.94 16.57 83.39 2.38s-1.74-66.19-52.42-54.26c-20.89 4.91-42.33 42.25-30.97 51.88z" class="color132368 svgShape"/><path fill="#ffffff" d="M370.46 2660.51c-2.03-6.6 15.67-38.46 27.46-30.17 11.8 8.3-25.94 35.11-27.46 30.17zM404.16 2625.05c6.78-7.1 30.16 8.47 14.99 9-15.16.53-16.34-7.59-14.99-9z" opacity=".1" class="colorfff svgShape"/><linearGradient id="b" x1="732.915" x2="708.482" y1="1226.197" y2="2601.499" gradientUnits="userSpaceOnUse"><stop offset="0" stop-color="#1d1f87" class="stopColor871d5c svgShape"/><stop offset="1" stop-color="#181960" class="stopColor601843 svgShape"/></linearGradient><path fill="url(#b)" d="m596.18 1495.15-141.67 1064.7 75 2.62L982.02 1541.4z"/><path fill="#53d86a" d="M574.52 1954.19c-5.81-29.2-20-157.09 53.33-185.01s111.67-36.65 126.67 5.24-163.34 263.55-180 179.77zM534.51 2268.36c-20.69-38.52 0-151.85 38.33-157.09 38.34-5.23-8.32 212.95-38.33 157.09z" enable-background="new" opacity=".1" class="colorf4f2f3 svgShape"/><path fill="#181960" d="M579.52 1728.6c15.07-9.86 75-79.85 147.5-26.18 0 0-157.5 32.72-147.5 26.18zM537.01 2020.52s61.25 48.44 108.75 39.27c.01 0-91.24 61.52-108.75-39.27z" opacity=".8" class="color601843 svgShape"/><path fill="#ffd6aa" d="m1077.86 909.71 150.42 17.92 216.67-191.25 42.92 33.75s-158.86 272.63-195.84 293.76c-78.75 45-212.5-2.5-212.5-2.5l-1.67-151.68z" class="colorffafaa svgShape"/><path fill="#ddb58a" d="m1237.86 919.29-5.42 12.08s2.92 17.5 14.58 27.08c0 0-17.19-5.83-25.31-23.33l-13.75-10.31 20.31 2.81 9.59-8.33z" class="colordd8a8a svgShape"/><path fill="#ffffff" d="M1274.53 904.71c-1.57-2.56 95-103.34 118.34-105.84 23.33-2.49-100.01 135.84-118.34 105.84z" opacity=".2" class="colorfff svgShape"/><path fill="#ddb58a" d="M1348.48 952.66c-23.29 21.06-51.51 61.21-86.53 41.12-8.4 7.84-15.13 18.11-25.7 23.18-10.61 5.09-19.22-.42-26.2-8.49-7.88-9.12-14.01-19.82-19.09-30.7-8.18-17.52-14.58-37-16.66-56.57l-96.45-11.49 1.67 151.67s133.75 47.5 212.5 2.5c18.54-10.59 67.7-84.38 112.13-155.35-18.91 14.25-38.08 28.23-55.67 44.13z" opacity=".35" class="colordd8a8a svgShape"/><path fill="#ddb58a" d="M1183.54 1006.54c-17.55-29.95-33.09-61.18-51.85-90.42l-53.83-6.41 1.67 151.67s83.63 29.67 157.58 19.84c-21.14-22.22-38.12-48.31-53.57-74.68z" opacity=".35" class="colordd8a8a svgShape"/><path fill="#03042b" d="M1076.83 2665.02s.78 14.08-11.13 20.39c-29.55 15.66-127.64-1.09-132.46-10.56-4.82-9.46-3.13-21.48-3.13-21.48l146.72 11.65z" class="color21032b svgShape"/><path fill="#ffd6aa" d="M995.54 2541.22c0 2.82-6.74 91.75-6.74 91.75l-48.52 1.41-8.09-93.86 63.35.7z" class="colorffafaa svgShape"/><path fill="#ddb58a" d="M983.39 2583.26c-5.58.97-10.75 2.68-15.79 5.35-6.96 3.69-16.1 8.72-23.82 4.25-6.44-3.72-8.64-14.21-2.13-18.99 3.48-2.55 8.02-3.05 12.14-3.23 4.94-.22 9.9.03 14.84.02 5.41-.02 10.81-.17 16.22-.39 2.87-.12 5.75-.18 8.61-.46.02 0 .05-.01.07-.01 1.13-15.26 2.01-27.56 2.01-28.58l-63.35-.71 8.09 93.86 48.52-1.41s2.01-26.53 3.84-51.07c-3.15.26-6.32.86-9.25 1.37z" opacity=".5" class="colordd8a8a svgShape"/><path fill="#131468" d="M990.15 2605.37c-.04 3.58.18 7.3.86 11.14 4.82 27.13 12.95 50.47 12.95 50.47s-62.36 9.46-71.09-2.21c-6.31-8.43-2.56-37.27 1.37-59.41h55.91z" class="color132368 svgShape"/><path fill="#03042b" d="M946.68 2658.8c-4.63-6.1-6.06-13.22-5.45-20.94.56-7.05 2.86-15.27 8.52-19.7 6.55-5.13 15.65-2.43 20.35 4.06 3.2 4.43 5.1 9.03 9.53 12.4 4.49 3.42 10.67 6.44 16.27 4.59-1.72-6.89-3.45-14.62-4.89-22.7-.68-3.85-.9-7.57-.86-11.14h-55.91c-3.93 22.14-7.68 50.98-1.37 59.41 2.91 3.89 11.81 5.43 22.35 5.75-2.36-4.23-5.64-7.9-8.54-11.73z" opacity=".25" class="color21032b svgShape"/><path fill="#03042b" d="M1036.8 2631.34s-26.51 2.21-36.45 17.03c-9.94 14.83-37.05-33.12-29.22-49.84 7.83-16.72 40.97-5.05 40.97-5.05s-6.33 32.5 24.7 37.86z" class="color21032b svgShape"/><path fill="#131468" d="M1074.4 2673.76c-16.21 13.74-71.94 16.57-83.39 2.38s1.74-66.19 52.42-54.26c20.89 4.91 42.32 42.25 30.97 51.88z" class="color132368 svgShape"/><path fill="#ffffff" d="M998.82 2662.3c-2.03-6.6 15.67-38.46 27.46-30.17 11.79 8.29-25.94 35.11-27.46 30.17zM1032.51 2626.84c6.78-7.1 30.16 8.47 14.99 9s-16.33-7.59-14.99-9z" opacity=".1" class="colorfff svgShape"/><linearGradient id="c" x1="937.399" x2="912.76" y1="1218.968" y2="2605.814" gradientUnits="userSpaceOnUse"><stop offset="0" stop-color="#1d1f87" class="stopColor871d5c svgShape"/><stop offset="1" stop-color="#181960" class="stopColor601843 svgShape"/></linearGradient><path fill="url(#c)" d="m1088.01 1492.14-85.27 1073.08-76.82-.71-149.61-1028.95z"/><path fill="#181960" d="M875.69 2166.61c-.54-32.03-6.68-63.68-11.11-95.28-4.61-32.84-16.93-64.87-12.89-98.55 3.81-31.8 23.5-58.53 36.24-86.8 6.42-14.24 12.07-29.99 11.78-45.96-.27-14.99-5.85-29.15-8.79-43.66-2.59-12.77-4.82-26.73.9-38.94 5.27-11.24 14.24-20.31 20.6-30.87 7.8-12.93 12.69-27.44 19.84-40.73 7.23-13.46 17.6-24.99 29.61-33.95 22.28-16.62 50.72-21.77 77.56-17.92 13.72 1.97 25.97 7.26 36.09 15.95 2.05-19.93 12.49-157.76 12.49-157.76l-226.04 34.88-265.79-31.86-26.01 195.45c5.36-6.13 10.8-12.18 16.46-18.03 17.49-18.05 37.05-35.28 59.78-45.57 21.06-9.53 44.47-11.51 65.82-1.76 12.5 5.71 23.09 13.92 31.34 25.36 8.33 11.56 14.15 24.88 18.38 38.62 1.96 6.36 3.49 12.86 5.55 19.19 1.22 3.76 2.49 7.95 4.97 11.05 1.76 2.2 4.17 3.61 6.57 4.92 4.37 2.38 8.83 4.57 13.15 7.06 11.25 6.47 20.85 16.47 24.28 29.72 3.03 11.69.66 24.14-3.07 35.33-4.36 13.08-10.79 25.29-16.79 37.6-8.09 16.58-14.92 33.96-22.42 50.85-14.54 32.73-28.58 65.64-39.3 100-9.8 31.4-17.44 63.74-20.72 96.64-2.07 20.8-2.4 42.18.54 62.97l113.05-255.08 45.11 310.26c2.97-10.62 3-22.33 2.82-33.13z" opacity=".8" class="color601843 svgShape"/><path fill="#53d86a" d="M962.76 1930.96c-12.23-54.44 26.96-166.55 71.43-128.44 44.48 38.11-55.25 200.43-71.43 128.44zM974.89 2343.11c-15.25-15.97-18.87-244.18 24.26-231.48 43.13 12.71 4.05 261.12-24.26 231.48z" enable-background="new" opacity=".1" class="colorf4f2f3 svgShape"/><path fill="#181960" d="M1066.12 1693.64s-83.33 30.35-125.69 92.76c0 0-7.77-128.57 125.69-92.76zM937.83 2038.24s51.55 18 94.01 8.47c0 0-6.07 24.35-47.51 21.17-41.45-3.18-46.5-29.64-46.5-29.64zM955.63 2510.48c-7.5-36.27-19.44-71.35-26.83-107.65-3.6-17.68-6.06-35.61-6.47-53.7-.23-9.98.54-19.86 1.07-29.81.58-10.91.84-21.83.77-32.76-.13-20.4-1.52-40.75-3.46-61.04-1.96-20.53-5.29-41.11-6.36-61.71-.74-14.24 1.04-28.2 8.65-40.31 6.77-10.76 16.11-19.62 24.31-29.22-14.25-6.78-28.03-14.73-40.55-24.62-20.85-16.47-37.05-37.8-49.3-61.85-7.34-14.43-13.44-29.49-19.01-44.79l87.46 601.49 35.98.33c-.09-18.29-2.57-36.51-6.26-54.36z" opacity=".5" class="color601843 svgShape"/><path fill="#ffd6aa" d="M568.07 1081.75s-107.15 108.16-44.48 158.71c37.85 30.53 126.36-72.78 126.36-72.78l-81.88-85.93z" class="colorffafaa svgShape"/><path fill="#ddb58a" d="M568.07 1081.75s-107.15 108.16-44.48 158.71c37.85 30.53 126.36-72.78 126.36-72.78l-81.88-85.93z" enable-background="new" opacity=".25" class="colordd8a8a svgShape"/><linearGradient id="d" x1="574.198" x2="899.205" y1="799.684" y2="1707.203" gradientUnits="userSpaceOnUse"><stop offset="0" stop-color="#ffa545" class="stopColorffe245 svgShape"/><stop offset=".526" stop-color="#de7200" class="stopColorde007b svgShape"/><stop offset="1" stop-color="#e38827" class="stopColore38427 svgShape"/></linearGradient><path fill="url(#d)" d="M755.09 886.65s-168.81 95.02-220.37 204.19c0 0-2.02 78.85 73.79 79.86 75.82 1.01 146.58-284.05 146.58-284.05z"/><path fill="#17197a" d="M687.2 1053.99a381.429 381.429 0 0 0-32.13 9.63c-8.5 2.96-17.22 5.91-26.07 7.6-13.34 2.55-28.42.19-35.91-12.32-6.1-10.18-5.85-23.22-5.5-34.67.08-2.7.25-5.45.42-8.21-21.85 23.4-40.94 48.7-53.28 74.83 0 0-2.02 78.85 73.79 79.86 34.04.45 67.05-56.76 93.11-119.95-4.83.99-9.65 2.03-14.43 3.23z" enable-background="new" opacity=".25" class="color7a1752 svgShape"/><linearGradient id="e" x1="895.53" x2="1269.998" y1="619.458" y2="1665.087" gradientUnits="userSpaceOnUse"><stop offset="0" stop-color="#ffa545" class="stopColorffe245 svgShape"/><stop offset=".526" stop-color="#de7200" class="stopColorde007b svgShape"/><stop offset="1" stop-color="#e38827" class="stopColore38427 svgShape"/></linearGradient><path fill="url(#e)" d="M866.4 875.75s215.63 12.29 238.13 27.29 75.83 140.84 38.33 168.34-118.34-8.33-118.34-8.33L866.4 875.75z"/><path fill="#53d86a" d="M958.62 901.43c-9.68-10.75 126.58-7.84 138.63 18.08 12.06 25.93-116.93 6.03-138.63-18.08z" enable-background="new" opacity=".1" class="colorf4f2f3 svgShape"/><path fill="#17197a" d="M1122.98 998.45c-17.21 9.08-37.34 11.42-56.53 11.47-25.28.07-50.72-4.99-74.58-13.14-12.42-4.24-24.45-9.38-36.14-15.21l68.79 81.48s80.83 35.83 118.34 8.33c19.35-14.19 14.5-54.54 2.2-92.35-5.57 7.89-12.87 14.56-22.08 19.42z" enable-background="new" opacity=".25" class="color7a1752 svgShape"/><linearGradient id="f" x1="644.722" x2="946.549" y1="786.195" y2="1628.99" gradientUnits="userSpaceOnUse"><stop offset="0" stop-color="#ffa545" class="stopColorffe245 svgShape"/><stop offset=".526" stop-color="#de7200" class="stopColorde007b svgShape"/><stop offset="1" stop-color="#e38827" class="stopColore38427 svgShape"/></linearGradient><path fill="url(#f)" d="M823.05 869.08c-226.54-2.57-259.79 557.58-217.22 637.76 97.28 68.48 457.26 91.59 494.59-14.69 25.8-73.44-11.5-620.05-277.37-623.07z"/><path fill="#53d86a" d="M728.49 1091.72c29.45-71.31 9.92-51.39 43.65-82.22s54.56 1.81 90.28-14.51c35.71-16.32 81.35-18.14 66.47 18.14s18.33 51.37 32.74 70.73c43.65 58.65-281.1 124-233.14 7.86z" enable-background="new" opacity=".1" class="colorf4f2f3 svgShape"/><path fill="#17197a" d="m671.55 982.62 58.16-77.84s-51.07 50.17-58.16 77.84zM991.96 970.59l-67.61-70.18c0-.01 60.52 42.51 67.61 70.18z" enable-background="new" opacity=".25" class="color7a1752 svgShape"/><path fill="#17197a" d="M1021.56 1020.95c2.88 43.97.11 88.28 3.07 132.28.91 13.49-.8 26.53-3.83 39.67-3.03 13.14-7.04 26.24-8.14 39.73-2.12 25.72 10.54 48.93 22.36 70.93 12.22 22.76 19.75 47.32 18.1 73.33-1.53 24.06-10.42 46.89-22.01 67.85-20.33 36.77-47.67 74.31-89.9 87.06-18.08 5.46-37.24 6.36-56.03 6.15-21.99-.25-44.5-.96-66.23-4.45-18.18-2.92-35.48-8.95-50.36-19.9-18.08-13.31-32.89-31.66-43.64-51.17-11.54-20.94-18.05-44.12-22.05-67.54-2.17-12.69-3.97-25.58-4.94-38.41-1.11-14.64-.49-29.34 1.15-43.92 3.27-29.16 9.72-57.97 14.42-86.92 2.12-13.04 4.88-26.08 4.83-39.35-.03-6.38-.64-12.68-3.65-18.4-2.64-5.01-6.36-9.34-10.02-13.62-7.11-8.31-14.65-17.34-15.18-28.75-.58-12.32 6.75-24.22 1.81-36.35-3.17-7.79-10.72-8.44-17.63-11.54-7.55-3.39-13.64-8.83-16.66-16.59-6.29-16.22-1.55-35.47 3.04-51.5.56-1.95 1.23-3.87 1.84-5.8-78.82 170.41-85.09 448.42-56.05 503.11 97.28 68.48 457.26 91.59 494.59-14.69 16.99-48.46 6.53-302.82-78.89-471.21z" enable-background="new" opacity=".1" class="color7a1752 svgShape"/><path fill="#17197a" d="M688.57 1261.63c0 15.53-55.79-59.55-32.15-80.65s32.15 64.23 32.15 80.65zM997.71 1058.79c7.61-35.23 33.76 138.2-2.6 116.74-36.35-21.46 0-104.72 2.6-116.74M645.96 1512.14c-.61-15.45-2.75-30.81-3.29-46.27-.62-18.02-.57-36.22-.09-54.24.25-9.35.78-18.7 1.9-27.99 1.08-8.97 3.42-17.69 5.83-26.38 4.28-15.4 9.81-32.47 6.71-48.6-1.98-10.34-8.49-18.58-15.23-26.37-6.88-7.96-14.01-16.01-17.7-26.01-4.64-12.59-3.01-25.6-.23-38.41 3.31-15.26 8.09-30.18 11.1-45.51 2.62-13.36 4.17-27.74-.15-40.9-6.25 2.88-12.33 6.53-18.07 10.69-34.66 153.82-32.92 323.27-10.93 364.69 10.57 7.44 24.25 14.34 40.27 20.6.18-5.18.07-10.35-.12-15.3zM1033.98 1047.3c2.64 22.1 6.94 43.96 11.1 65.82 2.17 11.42 4.28 22.85 6.07 34.34 1.75 11.27 3.67 22.8 4.01 34.21 1.13 37.9-11.79 76.11-2.16 113.68 4.82 18.8 14.54 35.97 19.2 54.83 4.84 19.54 5.82 40.35 6.19 60.38.61 33.69.2 68.94-13.16 100.5-4.14 9.78-9.42 18.88-15.42 27.51 25.51-11.36 43.66-26.63 50.61-46.41 16.16-46 7.54-277.48-66.44-444.86zM705.9 1300.78s158.54 86.77 285.43-38.18c0 0-106.14 180.3-285.43 38.18zM741.2 1209.19s110.53 60.49 198.99-26.62c0 0-73.99 125.7-198.99 26.62zM767.37 1482.95s125.78 60.62 204.7-82.58c0 0 17.98 89.77-65.27 116.18-83.25 26.41-139.43-33.6-139.43-33.6z" enable-background="new" opacity=".25" class="color7a1752 svgShape"/><path fill="#ddb58a" d="M500.02 1306.71s-52.51-41.48-53.64-47.28c-2.64-13.55-12.42-49.97-21.56-51.63-19.96-3.62-16.68 63.22-9.52 80.94 24.71 61.15 84.72 17.97 84.72 17.97z" class="colordd8a8a svgShape"/><path fill="#d1d1ee" fill-rule="evenodd" d="M406.04 921.6h297.28v397.28H406.04z" clip-rule="evenodd" transform="rotate(-10.887 554.521 1120.171)" class="colord1e1ee svgShape"/><g opacity=".5" fill="#000000" class="color000 svgShape"><path fill="#167ffc" fill-rule="evenodd" d="M409.54 965.24h105.02v19.2H409.54z" clip-rule="evenodd" transform="rotate(-10.887 461.936 974.829)" class="color50a7e2 svgShape"/><path fill="#167ffc" fill-rule="evenodd" d="M417.23 982.04h232.06v53.54H417.23z" clip-rule="evenodd" transform="rotate(-10.887 533.115 1008.756)" class="color50a7e2 svgShape"/><path fill="#167ffc" fill-rule="evenodd" d="M463.04 1206.41H695.1v81.39H463.04z" clip-rule="evenodd" transform="rotate(-10.887 578.896 1247.02)" class="color50a7e2 svgShape"/></g><circle cx="553.53" cy="1118.62" r="60.47" fill="#167ffc" transform="rotate(-45.001 553.523 1118.633)" class="color50a7e2 svgShape"/><path fill="#d1d1ee" d="m541.41 1114.16-1.87-10.14c-1.22-6.64 3.18-13.04 9.82-14.26 6.64-1.22 13.04 3.18 14.26 9.82l1.87 10.14 8.05-1.48-1.87-10.14c-2.04-11.08-12.71-18.43-23.79-16.38-11.08 2.04-18.42 12.72-16.38 23.79l1.87 10.14 8.04-1.49z" class="colord1e1ee svgShape"/><path fill="#d1d1ee" d="m576.21 1102.11-15.39 2.84c-.11.02-.22.02-.31 0l-31.39 5.79c-2.57.47-4.27 2.96-3.8 5.53l6.32 34.28a4.74 4.74 0 0 0 5.52 3.79l46.46-8.57c2.57-.47 4.27-2.96 3.8-5.51l-6.32-34.28a4.728 4.728 0 0 0-4.89-3.87zm-12.78 36-10.13 1.87s.17-8.5.41-13.16a5.213 5.213 0 0 1-3.74-4.1 5.28 5.28 0 0 1 4.25-6.15 5.283 5.283 0 0 1 6.16 4.23 5.24 5.24 0 0 1-2.04 5.16c1.89 4.26 5.09 12.15 5.09 12.15z" class="colord1e1ee svgShape"/><path fill="#131468" d="M613 1107.65c6.06 32.85-15.67 64.38-48.5 70.43-18.18 3.35-35.97-1.8-49.23-12.67.41-.05.84-.13 1.24-.2 45.61-8.41 75.76-52.2 67.35-97.8-.07-.4-.15-.83-.25-1.23 14.88 8.51 26.04 23.29 29.39 41.47z" opacity=".1" class="color132368 svgShape"/><path fill="#131468" fill-rule="evenodd" d="m659.3 1042.35-125.24-54.82-92.83 352.41 233.07 80.37z" clip-rule="evenodd" opacity=".1" class="color132368 svgShape"/><path fill="#d1d1ee" fill-rule="evenodd" d="M499.05 1012.65h294.23v393.21H499.05z" clip-rule="evenodd" transform="rotate(20.381 646.247 1209.253)" class="colord1e1ee svgShape"/><g opacity=".5" fill="#000000" class="color000 svgShape"><path fill="#167ffc" fill-rule="evenodd" d="M632.97 986.69h19v103.94h-19z" clip-rule="evenodd" transform="rotate(-69.623 642.463 1038.675)" class="color50a7e2 svgShape"/><path fill="#167ffc" fill-rule="evenodd" d="M570.43 1077.48h229.69v52.99H570.43z" clip-rule="evenodd" transform="rotate(20.381 685.349 1103.97)" class="color50a7e2 svgShape"/><path fill="#167ffc" fill-rule="evenodd" d="M486.81 1288.83H716.5v80.55H486.81z" clip-rule="evenodd" transform="rotate(20.381 601.73 1329.111)" class="color50a7e2 svgShape"/></g><circle cx="646.03" cy="1207.29" r="59.85" fill="#167ffc" transform="rotate(-72.986 646.054 1207.33)" class="color50a7e2 svgShape"/><path fill="#d1d1ee" d="m638.06 1197.29 3.63-9.54c2.37-6.25 9.39-9.4 15.63-7.02 6.25 2.37 9.4 9.39 7.02 15.63l-3.63 9.54 7.57 2.88 3.63-9.54c3.96-10.42-1.29-22.12-11.72-26.08-10.42-3.96-22.12 1.3-26.08 11.71l-3.63 9.54 7.58 2.88z" class="colord1e1ee svgShape"/><path fill="#d1d1ee" d="m673.7 1204.97-14.47-5.5c-.1-.04-.19-.1-.26-.16l-29.53-11.22c-2.42-.92-5.13.31-6.05 2.73l-12.26 32.25c-.91 2.4.3 5.12 2.72 6.04l43.71 16.61c2.42.92 5.13-.31 6.05-2.71l12.26-32.25c.82-2.22-.14-4.69-2.17-5.79zm-29.3 23.89-9.53-3.62s4.51-7.11 7.11-10.92a5.183 5.183 0 0 1-1.06-5.39 5.226 5.226 0 0 1 6.75-3.02c2.7 1.03 4.07 4.04 3.04 6.75a5.206 5.206 0 0 1-4.38 3.32c-.6 4.56-1.93 12.88-1.93 12.88z" class="colord1e1ee svgShape"/><path fill="#131468" d="M701.98 1228.55c-11.75 30.91-46.33 46.42-77.21 34.68-17.1-6.5-29.51-20-35.15-36.01.37.17.78.32 1.16.47 42.9 16.31 90.9-5.25 107.21-48.16.14-.38.3-.78.42-1.17 8.22 14.85 10.07 33.09 3.57 50.19z" opacity=".1" class="color132368 svgShape"/><path fill="#ffd6aa" d="M483.19 1244.19c-1.59 10.4-26.54 16.29-26.54 16.29s31.55-4.35 33.85 7.28c2.14 10.82-21.34 13.94-29.12 15.31 8.94-1.24 31.8-.44 32.76 11.25.91 11.05-34.09 18.84-34.09 18.84s31.35-1.93 32.79 10.56c1.76 15.24-48.69 22.1-66.39 24.59-13.12 1.84-46.33-10.19-25.85-24.71 0 0-17.46-3.07-16.15-17.61 1.33-14.79 16.5-9.03 16.5-9.03s-15.98-3.54-14.91-18.84c.68-9.73 13.74-10.26 13.74-10.26s-12.12-8.14-2.99-18.64c13.53-15.6 88.79-20.68 86.4-5.03z" class="colorffafaa svgShape"/><path fill="#53d86a" d="M398.77 1332.82c-.99 2.87 10.2 14.42 25.64 11.92 15.44-2.51 27.7-1.01 27.24-5.22-.46-4.21-22.06-1.23-26.69-1.3-4.63-.09-23.93-11.96-26.19-5.4zM389.6 1309.98c-.93 2.44 7.55 14.1 17.52 10.44 9.96-3.67-17.17-11.38-17.52-10.44zM390.96 1282.81c-.42 2.03 2.71 11.8 13.46 9.7 10.75-2.11 14.18-2.18 16.4-4.35 2.22-2.17-15.88-3.89-19.57-1.66-3.69 2.24-9.7-6.55-10.29-3.69zM399.97 1259.01c-3.34 4.48 5.62 9.96 15.46 5.3 9.84-4.65-14.3-6.87-15.46-5.3z" enable-background="new" opacity=".2" class="colorf4f2f3 svgShape"/><path fill="#ddb58a" d="M421.75 1320.95s27.89-2.39 38.31-7.79c-.01 0-31.85 2.91-38.31 7.79zM417.89 1291.96s32.24-3.31 42.65-8.71c0 0-36.19 3.82-42.65 8.71zM414.64 1268.68s32.24-3.31 42.65-8.71c0 .01-36.19 3.83-42.65 8.71z" enable-background="new" class="colordd8a8a svgShape"/><path fill="#ddb58a" d="M483.19 1244.19c-.47 3.07-3 5.73-6.3 7.97-3.23-2.85-7.9-3.45-12.37-3.11-2.47.19-4.91.6-7.33 1.08-2.56.5-5.03 1.65-7.63 1.89-3.41.32-3.94-2.46-5.5-4.84-1.7-2.57-4.72-3.53-7.67-3.63-2.98-.09-5.96.5-8.86 1.14-2.89.63-5.5 1.81-8.34 2.57-3.23.86-4.73-1.51-7.12-3.19-1.36-.95-2.83-1.42-4.35-1.58 25.06-9.96 77.47-11.4 75.47 1.7zM492.02 1327.77c-1.78-2-4.33-3.32-6.92-4.02-3.53-.96-7.12-.76-10.73-.83-3.79-.08-7.6-.52-11.06-2.16-2.6-1.23-2.98-3.51-1.43-5.83.47-.71 1.08-1.31 1.75-1.86 8.25-.07 28.08.79 29.22 10.67.15 1.41-.16 2.76-.83 4.03zM490.49 1300.88c-1.86-6.28-9.76-9.43-15.3-11.82-4.78-2.07-9.72-3.55-14.76-4.57 2.44-.49 4.93-.79 7.34-1.03 2.45-.24 4.9-.38 7.35-.47 9.06.92 18.4 3.95 19.01 11.34.2 2.35-1.27 4.54-3.64 6.55zM475.75 1266.52c-6.15-1.32-12.73-1.08-18.91-.1-2.28.36-4.41.86-6.6 1.57-1.94.63-4.36 1.7-6.44 1.55-1.85-.14-.95-1.8-.13-2.71 1.2-1.32 2.81-2.4 4.41-3.18 2.68-1.3 5.91-1.56 8.83-1.9 3.63-.41 7.24-.78 10.7-2 .03-.01.04-.03.07-.04 9.34-.16 21.42 1.03 22.81 8.06.53 2.7-.59 4.9-2.61 6.73-2.71-4.23-7.06-6.88-12.13-7.98z" enable-background="new" opacity=".25" class="colordd8a8a svgShape"/><path fill="#ffffff" d="m478.02 1331.53.24-12.09s11.06-.2 12.1 4.51c1.04 4.71-12.34 7.58-12.34 7.58zM478.98 1301.9s-3.27-10.04-.76-11.42c2.5-1.39 10.24-.95 11.23 3.63.97 4.57-9.26 8.26-10.47 7.79zM479.14 1276.26s-4.46-6.95-1.65-11.79c0 0 10.34-2.12 11.19 3.37.86 5.47-9.54 8.42-9.54 8.42zM473.3 1250.27s-3.02-4.92-1.02-10.73c0 0 7.4-.9 8.11 4.15.71 5.07-7.09 6.58-7.09 6.58z" opacity=".5" class="colorfff svgShape"/><path fill="#ffd6aa" d="M860.62 873.72s-15.19 17.72-38.73 17.72-38.73-17.08-38.73-17.08l14.97-89.96h50.25l12.24 89.32z" class="colorffafaa svgShape"/><path fill="#ddb58a" d="M810.58 884.27c-.39-5.32-3.78-7.26-8.07-9.52-5.48-2.89-13.72-8.53-12.19-15.82 1.7-8.09 13.74-8.29 19.87-6.78 5.74 1.42 10.96 3.24 17 2.92 4.96-.26 10.07-1.31 14.67-3.19 5.91-2.42 10.66-6.34 14.21-11.36l-7.68-56.12h-50.25l-14.97 89.96s10.06 11.31 26.5 15.52c.68-1.74 1.06-3.62.91-5.61z" opacity=".25" class="colordd8a8a svgShape"/><path fill="#ddb58a" d="M792.27 848c8.68 2.59 18.85 2.15 27.69.7 15.69-2.57 27.37-13.64 33.41-27.96l-4.97-36.33h-50.25l-10.29 61.84c1.43.65 2.88 1.29 4.41 1.75z" opacity=".25" class="colordd8a8a svgShape"/><path fill="#ffd6aa" d="M900.67 694.25s13.88-58.14-1.76-79.38c-50.41-68.47-145.55-38.75-162.36-1.3-14.35 31.95-.76 64.17.19 77.49-6.25-.68-23.85-.98-14.5 19.05 10.94 23.44 14.79 29.13 20.41 25.01 9.41 45.56 31.12 91.79 80.59 91.79 48.32 0 67.01-44.26 73.59-88.92 5.64 4.18 9.49-1.48 20.46-24.98 11.25-24.12-16.62-18.76-16.62-18.76z" class="colorffafaa svgShape"/><path fill="#131444" d="M739.05 690.79s4.61 74.92 30.55 87.14c25.94 12.23 17.26-9.33 52.29-12.09 26.61-2.1 25.52 15.81 38.73 15.87 32.73.13 40.55-89.85 40.55-89.85s8.22 107.1-22.48 114.93c-21.8 5.56-30.22 39.32-60.15 35.78-29.93-3.54-35.32-30.67-53.66-38.22-41.23-17-25.83-113.56-25.83-113.56z" class="color131e44 svgShape"/><path fill="#ddb58a" d="M744.07 653.06c4.66-4.67 6.9-9.58 8.99-15.74 1.48-4.37 3.56-10.73 8.27-12.64 5.03-2.05 9.23 4.04 12.53 6.77 8.83 7.28 19.16 14.39 31.18 13.16 2.57-.26 4.54-.8 6.82.76 3.85 2.64 7.05 6.25 10.74 9.11 7.72 5.98 16.32 9.77 25.97 11.31 12.59 2.01 25.36 1.42 38.05 1.39 6.16-.02 12.34.16 18.45.94 2.09-18.28 2.51-41.45-6.17-53.25-50.41-68.47-145.55-38.75-162.36-1.3-7.69 17.13-7.34 34.31-5.22 48.64 4.79-2.13 9.07-5.47 12.75-9.15z" opacity=".25" class="colordd8a8a svgShape"/><path fill="#131444" d="M791.17 718.73c0 5.93-4.83 10.76-10.76 10.76-5.98 0-10.81-4.83-10.81-10.76 0-5.98 4.83-10.81 10.81-10.81.82 0 1.59.11 2.36.27-.66.77-1.04 1.81-1.04 2.91 0 2.58 2.09 4.72 4.72 4.72 1.48 0 2.8-.71 3.68-1.76.65 1.43 1.04 3.02 1.04 4.67zM870.07 718.73c0 5.93-4.83 10.76-10.76 10.76-5.98 0-10.81-4.83-10.81-10.76 0-5.98 4.83-10.81 10.81-10.81.82 0 1.59.11 2.36.27-.66.77-1.04 1.81-1.04 2.91 0 2.58 2.09 4.72 4.72 4.72 1.48 0 2.8-.71 3.68-1.76.65 1.43 1.04 3.02 1.04 4.67zM842.58 696.85s32.26-1.62 35.51-4.8c3.25-3.18-6.85-9.88-21.07-6.28-14.23 3.59-18.14 10.97-14.44 11.08zM795.47 696.85s-32.26-1.62-35.51-4.8c-3.25-3.18 6.85-9.88 21.07-6.28 14.22 3.59 18.13 10.97 14.44 11.08zM823.86 758.56c-2.35 0-5.43-.49-7.34-2.68-1.86-2.14-2.11-5.2-.75-9.1 3.66-10.47 3.13-23.3 3.12-23.43-.05-1.24.91-2.29 2.15-2.35 1.14.01 2.29.9 2.35 2.15.03.56.58 13.81-3.37 25.12-.44 1.27-1.05 3.57-.11 4.65 1.2 1.39 4.74 1.23 6.27.93 1.21-.25 2.4.56 2.64 1.78.24 1.22-.55 2.4-1.77 2.64-.3.06-1.57.29-3.19.29z" class="color131e44 svgShape"/><path fill="#131444" d="M742.43 617.01s35.21 1.96 47.6-11.08 25.43 52.82 56.73 43.04c31.3-9.78 38.47 71.08 64.55 57.38 26.08-13.69 68.47-82.99 27.39-102.13-41.08-19.15-4.56-71.31-67.81-93.48s-93.9 82.16-128.46 63.9c-34.56-18.26-27.39 40.43-52.82 74.34-25.43 33.91 38.47 59.34 49.56 50.86 11.08-8.49 21.51-71.09 3.26-82.83z" class="color131e44 svgShape"/><path fill="#53d86a" d="M810.19 583.52s-1.48 39.17 12.51 35.04c13.98-4.13 31.8-8.34 31.8-8.34l-14.59 24.1 29.14-13.41s-9.71 12.48-4.19 19.53c5.52 7.05 40.94.42 40.94.42s-28.32-8.36-25.87-13.53c2.45-5.17 9.25-22.2 3.32-24.37-5.93-2.18-19.21-.88-19.21-.88s-8.17-12.63-12.54-12.27c-7.87.64-19.65 26.76-27.56 15.42-7.91-11.34-13.75-21.71-13.75-21.71zM834.28 548.83c-13.38 4.51 22.72-27.89 32.76 3.35 8.64 26.88 49.67 9.05 34.26 19.78-15.41 10.73-35.8 25.14-44.3 6.03-8.5-19.1-4.8-35.19-22.72-29.16z" opacity=".1" class="colorf4f2f3 svgShape"/><path fill="#131444" d="M727.35 704.72s2.04 13.37 5.3 13.25c3.25-.12-4.45-15.17-5.3-13.25z" class="color131e44 svgShape"/><path fill="#03042b" d="M911.17 707.75s-2.04 13.37-5.3 13.25c-3.24-.12 4.46-15.17 5.3-13.25z" class="color21032b svgShape"/><path fill="#edc79f" d="M849.47 799.25c-.05 9.96-12.3 17.97-27.36 17.89-15.06-.08-27.24-8.21-27.18-18.17.05-9.96 12.27-7.54 27.33-7.46 15.06.08 27.26-2.22 27.21 7.74z" opacity=".2" class="coloredb29f svgShape"/><path fill="#ffffff" d="M847.68 781.78c-39.98 17.58-46.31-8.94-53.67 2.83-4.49 7.18 11.88 25.86 32.61 25.86 25.2-2.9 28.4-31.92 21.06-28.69z" class="colorfff svgShape"/><path fill="#ddb58a" d="M879.9 746.76c.74 5.43-5.32 10.73-13.52 11.84-8.21 1.11-15.46-2.38-16.19-7.8-.74-5.43 5.32-10.73 13.52-11.84 8.2-1.11 15.45 2.38 16.19 7.8zM757.69 744.31c-.74 5.43 5.32 10.73 13.53 11.84 8.21 1.12 15.46-2.38 16.19-7.8.74-5.43-5.32-10.73-13.53-11.84-8.21-1.12-15.46 2.37-16.19 7.8z" opacity=".25" class="colordd8a8a svgShape"/><path fill="#ffffff" d="M779.29 686.98c-17.81 0-32.26 14.44-32.26 32.26s14.45 32.26 32.26 32.26c17.82 0 32.26-14.44 32.26-32.26s-14.44-32.26-32.26-32.26zm0 58.86c-14.69 0-26.6-11.91-26.6-26.6 0-14.69 11.91-26.6 26.6-26.6 14.69 0 26.6 11.91 26.6 26.6 0 14.69-11.91 26.6-26.6 26.6zM857.07 686.98c-17.81 0-32.26 14.44-32.26 32.26s14.45 32.26 32.26 32.26c17.82 0 32.26-14.44 32.26-32.26-.01-17.82-14.45-32.26-32.26-32.26zm0 58.86c-14.69 0-26.6-11.91-26.6-26.6 0-14.69 11.91-26.6 26.6-26.6 14.69 0 26.6 11.91 26.6 26.6 0 14.69-11.91 26.6-26.6 26.6z" class="colorfff svgShape"/><path fill="#ffa545" d="M770.66 890.18c-7.59-6.16 2.99-35.36 10.53-31.8 7.54 3.56 72.62 1.65 77.04-8 4.42-9.65 14.57 21.37 15.39 29.76.82 8.4-68.56 37.98-102.96 10.04z" class="colorffe245 svgShape"/><path fill="#fe9526" d="M861.59 875.23c-1.09-2.8-4.69-15.58-3.12-17.16 1.58-1.58 4.42 20.49 3.12 17.16zM851.5 883.43c-1.28-3.28-5.51-18.29-3.66-20.15 1.85-1.86 5.18 24.05 3.66 20.15zM781.47 886.76c.74-2.91 2.74-16.03.99-17.41-1.75-1.38-1.87 20.87-.99 17.41zM807.42 890.24c.87-3.42 3.22-18.83 1.16-20.45-2.06-1.61-2.19 24.51-1.16 20.45zM794.81 890.24c.87-3.42 3.22-18.83 1.16-20.45-2.06-1.61-2.19 24.51-1.16 20.45zM837.3 889.14c-.96-3.72-3.57-20.5-1.32-22.26 2.24-1.77 2.46 26.68 1.32 22.26zM823.7 890.94c-.96-3.72-3.57-20.5-1.32-22.26 2.24-1.77 2.46 26.68 1.32 22.26z" opacity=".5" class="colore38427 svgShape"/><path fill="#fe9526" d="M818.89 896.64c-1.6-2.33-3.18-6.79-6.18-7.68-3.62-1.07-8.75 1.75-12.13 2.7-4.2 1.17-8.92 1.58-12.66-1.1-3.99-2.86-5.37-8.24-6.52-12.75-1.21-4.75-2.25-9.84-.31-14.54.63-1.53 1.51-2.91 2.46-4.23-1.03-.19-1.84-.41-2.36-.65-7.54-3.56-18.12 25.64-10.53 31.8 14 11.37 33.78 13.21 52.28 10.84-1.52-1.27-2.9-2.71-4.05-4.39z" opacity=".2" class="colore38427 svgShape"/></g><g fill="#000000" class="color000 svgShape"><path fill="#167ffc" fill-rule="evenodd" d="m2358.11 1672.85-1122.38-1.43c-73.21-.09-132.64 59.18-132.72 132.39l-.95 742.36c-.09 73.21 59.18 132.64 132.39 132.73l1122.37 1.43c73.21.09 132.64-59.19 132.72-132.4l.95-742.36c.11-73.2-59.17-132.62-132.38-132.72z" clip-rule="evenodd" class="color50a7e2 svgShape"/><path fill="#ddb58a" d="M1427.18 741.1s-24.11-37.97-35.56-30.74 18.08 57.26 25.32 63.89c7.23 6.63 8.44-21.7 10.24-33.15z" class="colordd8a8a svgShape"/><path fill="#d1d1ee" fill-rule="evenodd" d="m2005.35 739.83-728.69 4.81c-16.41.11-29.63 13.5-29.52 29.91l9.65 1462.8c.11 16.41 13.5 29.63 29.91 29.52l728.69-4.81c16.41-.11 29.63-13.5 29.52-29.91l-9.65-1462.8c-.11-16.41-13.5-29.63-29.91-29.52z" clip-rule="evenodd" class="colord1e1ee svgShape"/><path fill="#131468" fill-rule="evenodd" d="M2044.88 2232.14c.14 16.44-13.06 29.83-29.49 29.97l-728.72 4.8c-16.37.07-29.76-13.12-29.9-29.56l-4.26-644.84h192.04c21.44 0 38.83 17.38 38.83 38.83v20.29l107.35.14 450.37.61 3.78 579.76z" clip-rule="evenodd" opacity=".25" class="color132368 svgShape"/><path fill="#131468" d="M1970.18 1558.14l-502.33 3.32.6 90.82 502.33-3.31zM1454.14 1561.55l-104.51.69.6 90.82 104.51-.69zM1971.02 1684.85l-502.33 3.31.6 90.82 502.33-3.31zM1454.97 1688.25l-104.5.69.6 90.82 104.5-.69z" opacity=".1" class="color132368 svgShape"/><g opacity=".5" fill="#000000" class="color000 svgShape"><path fill="#d1d1ee" d="M1670.93 1747.64h38.47v3.99h-38.47z" transform="translate(-11.505 11.187)" class="colord1e1ee svgShape"/><path fill="#d1d1ee" d="M1718.82 1747.32h38.47v3.99h-38.47z" transform="translate(-11.502 11.503)" class="colord1e1ee svgShape"/><path fill="#d1d1ee" d="M1766.72 1747h38.47v3.99h-38.47z" transform="translate(-11.498 11.82)" class="colord1e1ee svgShape"/><path fill="#d1d1ee" d="M1623.03 1747.95h38.47v3.99h-38.47z" transform="translate(-11.508 10.871)" class="colord1e1ee svgShape"/><path fill="#d1d1ee" d="M1575.13 1748.27h38.47v3.99h-38.47z" transform="translate(-11.511 10.555)" class="colord1e1ee svgShape"/><path fill="#d1d1ee" d="M1527.23 1748.58h38.47v3.99h-38.47z" transform="translate(-11.514 10.24)" class="colord1e1ee svgShape"/><path fill="#d1d1ee" d="M1413.69 1607.63c3.29-2.71 5.38-6.82 5.34-11.41-.05-8.09-6.65-14.6-14.74-14.55-8.09.05-14.6 6.65-14.55 14.74.03 4.59 2.17 8.67 5.49 11.34-14.34 4.02-24.93 16.95-25.45 32.41l69.78-.46c-.73-15.45-11.48-28.24-25.87-32.07zM1394.26 1728.85l-.07-9.89c-.04-6.48 5.19-11.78 11.67-11.82 6.48-.04 11.78 5.19 11.82 11.67l.07 9.89 7.85-.05-.07-9.89c-.07-10.8-8.92-19.54-19.73-19.47-10.8.07-19.54 8.92-19.47 19.72l.07 9.89 7.86-.05z" class="colord1e1ee svgShape"/><path fill="#d1d1ee" d="m1429.15 1723.3-15.01.1a.88.88 0 0 1-.29-.05l-30.62.2a4.562 4.562 0 0 0-4.52 4.59l.22 33.45a4.558 4.558 0 0 0 4.58 4.51l45.32-.3a4.558 4.558 0 0 0 4.52-4.57l-.22-33.45c-.02-2.3-1.76-4.2-3.98-4.48zm-18.11 31.86-9.88.07s1.59-8 2.6-12.36a4.987 4.987 0 0 1-2.84-4.5 5.07 5.07 0 0 1 5.04-5.1 5.07 5.07 0 0 1 5.11 5.03c.01 1.98-1.13 3.7-2.79 4.53 1.05 4.34 2.76 12.33 2.76 12.33zM1523.54 1592l9.68-.06.16 23.77c.03 4.7 2.37 7.4 6.95 7.37 4.59-.03 7-2.76 6.97-7.46l-.16-23.77 9.68-.06.16 23.71c.07 10.98-7.59 16.46-16.76 16.52-9.23.06-16.45-5.32-16.52-16.3l-.16-23.72zM1578.27 1631.77c-8.55.06-15.25-4.14-15.59-12.18l10.3-.07c.3 3.05 2.24 4.51 4.95 4.49 2.83-.02 4.64-1.44 4.62-3.77-.05-7.36-19.89-3.26-19.87-17.36-.05-7.53 6.09-11.76 14.41-11.81 8.66-.06 14.52 4.21 14.96 11.79l-10.47.07c-.19-2.55-2.01-4.06-4.61-4.1-2.32-.04-4.07 1.16-4.05 3.65.05 6.9 19.66 3.66 19.75 16.96.05 6.69-5.12 12.27-14.4 12.33zM1622.84 1599.1l-14.65.1.05 8.04 12.96-.09.05 7.47-12.96.09.06 8.72 14.65-.1.05 7.75-24.33.16-.26-39.73 24.34-.16.04 7.75zM1645.33 1591.2c9.74-.06 14.64 5.51 14.69 12.41.03 4.98-2.65 9.7-8.75 11.55l9.27 15.67-10.92.07-8.36-14.94-2.32.02.1 15-9.68.06-.26-39.73 16.23-.11zm-.52 8.04-6 .04.06 9.85 6-.04c3.62-.02 5.31-1.9 5.29-5.02-.01-2.94-1.72-4.86-5.35-4.83zM1701.54 1590.83l.26 39.73-9.68.06-16.35-24.4.16 24.51-9.68.06-.26-39.73 9.68-.06 16.35 24.51-.16-24.62 9.68-.06zM1733.53 1623.33l-14.82.1-2.33 7.03-10.13.07 14.12-39.82 11.21-.07 14.63 39.63-10.24.07-2.44-7.01zm-7.55-21.97-4.77 14.58 9.79-.06-5.02-14.52zM1750.31 1590.51l11.43-.08 11.33 27.43 10.85-27.58 11.38-.07.26 39.73-9.68.06-.16-23.83-8.73 23.88-7.81.05-9.1-23.82.16 23.88-9.68.06-.25-39.71zM1826.68 1597.76l-14.65.1.05 8.04 12.96-.09.05 7.47-12.96.09.06 8.72 14.65-.1.05 7.75-24.34.16-.26-39.73 24.34-.16.05 7.75z" class="colord1e1ee svgShape"/></g><path fill="#167ffc" d="m1380.62 894.87-7.5.05.12 18.41-15.16.1-.36-54.54 22.67-.15c13.54-.09 20.47 7.52 20.54 18.04.06 9.52-6.46 18-20.31 18.09zm-1.55-12.06c4.56-.03 6.41-2.36 6.38-5.92-.02-3.63-1.9-5.94-6.46-5.91l-6.03.04.08 11.84 6.03-.05zM1430.82 858.41c13.54-.09 20.4 7.6 20.46 17.35.05 7.12-3.78 13.33-11.89 15.86l12.44 21.2-16.94.11-10.96-20.04-1.63.01.13 20.11-15.16.1-.36-54.54 23.91-.16zm-1.15 12.69-7.5.05.08 11.37 7.5-.05c4.1-.03 6.17-2.05 6.15-5.77-.03-3.39-2.13-5.62-6.23-5.6zM1458.05 858.23l15.16-.1.36 54.54-15.16.1-.36-54.54zM1518.78 857.83l16.17-.11-18.44 54.67-19.42.13-19.24-54.42 16.25-.11 12.64 39.3 12.04-39.46zM1574.47 903.11l-19.34.13-2.88 8.92-15.94.11 19.53-54.67 17.48-.12 20.17 54.41-16.02.11-3-8.89zm-9.86-29.18-5.68 17.68 11.68-.08-6-17.6zM1595.06 857.32l44.1-.29.08 12.07-14.54.1.28 42.47-15.16.1-.28-42.47-14.39.09-.09-12.07zM1679.77 868.91l-19.73.13.06 8.9 17.41-.11.08 11.53-17.41.11.06 9.83 19.73-.13.08 12.15-34.89.23-.36-54.55 34.89-.23.08 12.14zM1763.88 883.44c.1 15.78-10.88 27.38-28.29 27.5l-21.59.14-.36-54.54 21.59-.14c17.41-.11 28.54 11.03 28.65 27.04zm-29.54 14.13c8.74-.06 14.2-5.05 14.14-14.02-.06-9.05-5.59-14.04-14.33-13.99l-5.26.03.18 28.01 5.27-.03zM1805.31 901.58l-19.34.13-2.88 8.92-15.94.11 19.53-54.67 17.48-.12 20.17 54.41-16.02.11-3-8.89zm-9.87-29.17-5.68 17.68 11.68-.08-6-17.6zM1825.89 855.8l44.1-.29.08 12.07-14.54.1.28 42.47-15.16.1-.28-42.47-14.39.09-.09-12.07zM1910.44 900.89l-19.34.13-2.88 8.92-15.94.11 19.53-54.67 17.48-.12 20.17 54.41-16.02.11-3-8.89zm-9.86-29.18-5.68 17.68 11.68-.08-6-17.6z" opacity=".5" class="color50a7e2 svgShape"/><path fill="#ffffff" d="M1841.46 776.72c-17.35-20.35 117.78-31.72 142.58-8.28 24.8 23.43-114.57 41.13-142.58 8.28zM1987.43 884.83c-7.16-17.41-16.34-91.66 10.51-76.63 26.84 15.03.68 103.83-10.51 76.63z" opacity=".35" class="colorfff svgShape"/><linearGradient id="g" x1="1467.744" x2="1899.315" y1="952.049" y2="1544.003" gradientTransform="translate(-9.411 12.35)" gradientUnits="userSpaceOnUse"><stop offset=".02" stop-color="#d1d1ee" class="stopColord1e1ee svgShape"/><stop offset=".363" stop-color="#5093e2" class="stopColor50a7e2 svgShape"/><stop offset="1" stop-color="#595bd4" class="stopColor182b9b svgShape"/></linearGradient><path fill="url(#g)" d="M1643.59 1482.79c0 .06-.06.06-.06.06-.06 0-.06 0-.12-.06-204.66-105.17-195.47-368.22-195.47-368.22 119.24-15.57 188.23-86.96 192.44-91.41 0-.06 0-.06.12-.12.06.06.06.06.06.12 4.26 4.39 74.13 74.86 193.56 88.86 0 0 12.72 262.91-190.53 370.77z"/><linearGradient id="h" x1="1358.829" x2="1927.289" y1="680.519" y2="1683.972" gradientTransform="translate(-9.411 12.35)" gradientUnits="userSpaceOnUse"><stop offset=".02" stop-color="#d1d1ee" class="stopColord1e1ee svgShape"/><stop offset=".363" stop-color="#5093e2" class="stopColor50a7e2 svgShape"/><stop offset="1" stop-color="#595bd4" class="stopColor182b9b svgShape"/></linearGradient><path fill="url(#h)" d="M1643.41 1468.93c-167.48-90.4-182.09-295.67-183.17-343.75 95.75-15.4 157.88-64.51 180.34-85.1 22.72 20.3 85.49 68.59 181.38 82.71-.42 48.07-12.27 253.53-178.55 346.14z"/><path fill="#ffffff" d="M1479.76 1143.63c-12.67 24.67.06 76.66 10.73 64.15 10.66-12.52-4.03-77.21-10.73-64.15zM1490.29 1137.54c15.6 7.26 42.92-6.16 34.91-12.47-8.02-6.31-43.16 8.63-34.91 12.47z" opacity=".3" class="colorfff svgShape"/><path fill="#d1d1ee" d="m1609.01 1209.36-.17-25.46c-.11-16.68 13.37-30.33 30.04-30.44 16.68-.11 30.33 13.37 30.44 30.04l.17 25.46 20.21-.13-.17-25.46c-.18-27.82-22.96-50.3-50.79-50.12-27.82.18-50.3 22.97-50.12 50.78l.17 25.46 20.22-.13z" class="colord1e1ee svgShape"/><linearGradient id="i" x1="1590.849" x2="1712.74" y1="1157.461" y2="1381.342" gradientTransform="translate(-9.411 12.35)" gradientUnits="userSpaceOnUse"><stop offset=".02" stop-color="#d1d1ee" class="stopColord1e1ee svgShape"/><stop offset=".582" stop-color="#5093e2" class="stopColor50a7e2 svgShape"/><stop offset="1" stop-color="#595bd4" class="stopColor182b9b svgShape"/></linearGradient><path fill="url(#i)" d="m1698.82 1195.1-38.62.25c-.29 0-.51-.07-.73-.14l-78.9.52c-6.46.04-11.65 5.3-11.61 11.76l.57 86.16c.04 6.39 5.3 11.65 11.76 11.61l116.72-.77c6.46-.04 11.65-5.38 11.61-11.76l-.57-86.16c-.03-5.87-4.49-10.78-10.23-11.47zm-48.85 77.05-20.98.14s3.37-17.01 5.49-26.24a10.622 10.622 0 0 1-6.02-9.54 10.717 10.717 0 0 1 10.67-10.81c5.95-.04 10.85 4.72 10.89 10.67.03 4.21-2.42 7.86-5.96 9.62 2.24 9.2 5.91 26.16 5.91 26.16z"/><path fill="#131468" d="M1720.27 1091.97c-2.12 9.31-4.54 18.56-7.6 27.66-14.15 42.08-38.95 79.92-72.07 109.51-30.83 27.54-67.05 49.28-104.63 66.24-11.49 5.19-23.23 9.91-35.14 14.19 26.53 59.93 70.3 120.34 142.58 159.35 166.28-92.61 178.13-298.07 178.55-346.13-39.8-5.86-73.8-17.63-101.69-30.82z" opacity=".2" class="color132368 svgShape"/><circle cx="1943.24" cy="2166.92" r="39.33" fill="#131468" opacity=".1" transform="rotate(-23.83 1943.46 2167.126)" class="color132368 svgShape"/><path fill="#d1d1ee" d="m1953.99 2166.85-5.7 5.82-9.91 10-5.82-5.7 9.91-10.04-10.04-9.91 5.74-5.77z" opacity=".5" class="colord1e1ee svgShape"/><path fill="#53d86a" d="m2039.46 1407.48 2.44 369.5-790.45-349.56-2.44-369.54zM2037.74 1146.4l1.09 165.37-790.45-349.6-1.09-165.32z" enable-background="new" opacity=".1" class="colorf4f2f3 svgShape"/><g fill="#000000" class="color000 svgShape"><path fill="#131468" fill-rule="evenodd" d="M2044.93 2232.15c.07 16.44-13.12 29.83-29.56 29.9l-199.41 1.29-399.7-104.31c-15.9-4.13-25.37-20.36-21.24-36.26l360.6-1381.33 249.74-1.62c.47 0 .95 0 1.42.07l12.04 3.11c9.67 4.87 16.37 14.81 16.44 26.38l9.67 1462.77z" clip-rule="evenodd" opacity=".1" class="color132368 svgShape"/><path fill="#d1d1ee" fill-rule="evenodd" d="m2578.19 871.79-705.08-184.07c-15.88-4.15-32.12 5.37-36.26 21.25l-369.5 1415.4c-4.15 15.88 5.37 32.12 21.25 36.26l705.08 184.07c15.88 4.15 32.12-5.37 36.26-21.25l369.5-1415.4c4.15-15.88-5.37-32.11-21.25-36.26z" clip-rule="evenodd" class="colord1e1ee svgShape"/><path fill="#131468" fill-rule="evenodd" d="m2393.91 1695.26-163.97 628.2c-4.13 15.9-20.36 25.37-36.26 21.24l-705.11-184.06c-15.9-4.13-25.37-20.36-21.24-36.26l123.38-472.62 706.12.95c38.44.07 73 16.44 97.08 42.55z" clip-rule="evenodd" opacity=".1" class="color132368 svgShape"/><path fill="#131468" d="M2332.31 1653.08l-486.05-126.89-22.94 87.88 486.05 126.89zM1832.99 1522.73l-101.12-26.4-22.94 87.88 101.12 26.4zM2300.3 1775.68l-486.05-126.89-22.94 87.88 486.05 126.89zM1800.98 1645.33l-101.12-26.4-22.94 87.88 101.12 26.4z" opacity=".1" class="color132368 svgShape"/><g opacity=".5" fill="#000000" class="color000 svgShape"><path fill="#d1d1ee" d="M2010.25 1746.28h3.99v38.47h-3.99z" transform="rotate(-75.369 2012.197 1765.472)" class="colord1e1ee svgShape"/><path fill="#d1d1ee" d="M2056.6 1758.38h3.99v38.47h-3.99z" transform="rotate(-75.369 2058.536 1777.57)" class="colord1e1ee svgShape"/><path fill="#d1d1ee" d="M2102.94 1770.48h3.99v38.47h-3.99z" transform="rotate(-75.369 2104.878 1789.669)" class="colord1e1ee svgShape"/><path fill="#d1d1ee" d="M1963.91 1734.19h3.99v38.47h-3.99z" transform="rotate(-75.369 1965.848 1753.374)" class="colord1e1ee svgShape"/><path fill="#d1d1ee" d="M1917.56 1722.09h3.99v38.47h-3.99z" transform="rotate(-75.369 1919.504 1741.275)" class="colord1e1ee svgShape"/><path fill="#d1d1ee" d="M1871.22 1709.99h3.99v38.47h-3.99z" transform="rotate(-75.369 1873.166 1729.177)" class="colord1e1ee svgShape"/><path fill="#d1d1ee" d="M1781.98 1556.76c3.88-1.76 6.96-5.19 8.12-9.63 2.04-7.83-2.65-15.83-10.47-17.87s-15.83 2.64-17.87 10.47c-1.16 4.44-.15 8.94 2.37 12.37-14.89.17-28.47 9.92-32.98 24.72l67.52 17.63c3.29-15.12-3.78-30.26-16.69-37.69zM1731.82 1668.81l2.5-9.57c1.64-6.27 8.07-10.03 14.33-8.4 6.27 1.64 10.04 8.07 8.4 14.33l-2.5 9.57 7.6 1.98 2.5-9.57c2.73-10.45-3.56-21.18-14.01-23.91-10.45-2.73-21.18 3.56-23.91 14.01l-2.5 9.57 7.59 1.99z" class="colord1e1ee svgShape"/><path fill="#d1d1ee" d="m1766.96 1672.49-14.52-3.79c-.1-.03-.2-.07-.27-.12l-29.63-7.74c-2.43-.63-4.92.83-5.55 3.26l-8.45 32.36c-.63 2.41.82 4.9 3.25 5.54l43.85 11.45c2.43.63 4.92-.83 5.54-3.24l8.45-32.36a4.54 4.54 0 0 0-2.67-5.36zm-25.74 26.08-9.56-2.5s3.61-7.32 5.71-11.27a5.004 5.004 0 0 1-1.58-5.08 5.07 5.07 0 0 1 6.19-3.62c2.71.71 4.34 3.47 3.63 6.18-.5 1.92-2.05 3.28-3.87 3.66-.1 4.48-.52 12.63-.52 12.63zM1892.13 1570.12l9.36 2.44-6 23c-1.19 4.55.37 7.76 4.81 8.92 4.44 1.16 7.48-.86 8.66-5.4l6-23 9.36 2.44-5.99 22.95c-2.77 10.62-11.59 13.94-20.46 11.62-8.93-2.33-14.51-9.4-11.73-20.02l5.99-22.95zM1934.7 1622.7c-8.27-2.16-13.66-7.95-11.9-15.8l9.97 2.6c-.5 3.03.99 4.94 3.62 5.62 2.74.72 4.85-.2 5.44-2.44 1.86-7.12-18.36-8.3-14.7-21.91 1.9-7.28 8.93-9.78 16.98-7.68 8.38 2.19 12.93 7.82 11.4 15.26l-10.13-2.64c.48-2.51-.89-4.44-3.39-5.15-2.23-.64-4.23.06-4.86 2.47-1.74 6.68 18.05 8.63 14.69 21.5-1.7 6.46-8.14 10.51-17.12 8.17zM1986.2 1602.69l-14.18-3.7-2.03 7.78 12.54 3.27-1.89 7.23-12.54-3.27-2.2 8.43 14.18 3.7-1.96 7.5-23.55-6.15 10.04-38.44 23.55 6.15-1.96 7.5zM2009.98 1600.88c9.42 2.46 12.71 9.11 10.97 15.79-1.26 4.82-5.08 8.68-11.45 8.89l4.9 17.54-10.57-2.76-4.21-16.6-2.24-.59-3.79 14.51-9.37-2.45 10.04-38.44 15.72 4.11zm-2.58 7.63-5.8-1.51-2.49 9.53 5.8 1.51c3.5.91 5.62-.46 6.41-3.48.74-2.84-.42-5.13-3.92-6.05zM2064.37 1615.08l-10.04 38.44-9.36-2.44-9.47-27.8-6.19 23.71-9.37-2.45 10.04-38.44 9.37 2.45 9.44 27.91 6.22-23.82 9.36 2.44zM2086.85 1654.76l-14.34-3.74-4.07 6.19-9.8-2.56 23.95-34.81 10.84 2.83 3.87 42.07-9.91-2.59-.54-7.39zm-1.61-23.18-8.39 12.84 9.47 2.47-1.08-15.31zM2111.56 1627.4l11.06 2.89 3.84 29.43 17.62-23.83 11.01 2.87-10.04 38.44-9.36-2.44 6.02-23.05-14.61 20.81-7.56-1.97-2.62-25.37-6.03 23.11-9.37-2.45 10.04-38.44zM2183.44 1654.18l-14.18-3.7-2.03 7.78 12.54 3.27-1.89 7.23-12.54-3.27-2.2 8.43 14.18 3.7-1.96 7.5-23.55-6.15 10.04-38.44 23.55 6.15-1.96 7.5z" class="colord1e1ee svgShape"/></g><path fill="#ffffff" d="M2410.34 864.98c-11.49-24.15 121.97-.13 139.86 28.92 17.89 29.06-121.32 10.06-139.86-28.92zM2523.33 1007.2c-2.41-18.67 7.96-92.76 29.99-71.3 22.04 21.48-26.22 100.47-29.99 71.3z" opacity=".35" class="colorfff svgShape"/><linearGradient id="j" x1="1852.675" x2="2284.257" y1="884.084" y2="1476.053" gradientTransform="rotate(15.16 1719.992 1488.357)" gradientUnits="userSpaceOnUse"><stop offset=".02" stop-color="#d1d1ee" class="stopColord1e1ee svgShape"/><stop offset=".363" stop-color="#5093e2" class="stopColor50a7e2 svgShape"/><stop offset="1" stop-color="#595bd4" class="stopColor182b9b svgShape"/></linearGradient><path fill="url(#j)" d="M2037.06 1496.53c-.02.06-.08.04-.08.04-.06-.02-.06-.02-.1-.09-169.01-156.15-89.69-407.13-89.69-407.13 119.06 16.94 204.65-33.36 209.89-36.52.02-.06.02-.06.15-.09.04.08.04.08.03.13 2.93 5.37 51.37 91.98 162.69 137.46-.01.02-58.18 256.72-282.89 306.2z"/><linearGradient id="k" x1="1743.758" x2="2312.231" y1="612.548" y2="1616.026" gradientTransform="rotate(15.16 1719.992 1488.357)" gradientUnits="userSpaceOnUse"><stop offset=".02" stop-color="#d1d1ee" class="stopColord1e1ee svgShape"/><stop offset=".363" stop-color="#5093e2" class="stopColor50a7e2 svgShape"/><stop offset="1" stop-color="#595bd4" class="stopColor182b9b svgShape"/></linearGradient><path fill="url(#k)" d="M2040.59 1483.12c-137.15-131.96-96.24-333.64-84.4-380.25 96.38 10.81 169.39-19.86 196.54-33.68 16.46 25.64 63.99 88.98 152.6 128.28-13.28 46.19-79.72 240.97-264.74 285.65z"/><path fill="#d1d1ee" d="M2126.61 1257.17c15.75-4.06 28.93-16.22 33.47-33.04 6.72-24.9-8.02-50.52-32.92-57.24-24.9-6.72-50.53 8.02-57.24 32.92-4.54 16.83.75 33.97 12.32 45.4-43.95-4.1-86.48 13.71-114.45 46.13 7.57 55.49 29.42 115.77 80.22 164.69 69.54-16.81 119.22-58.81 153.84-103.62-8.38-41.18-35.88-77.01-75.24-95.24z" class="colord1e1ee svgShape"/><path fill="#131468" d="M2201.85 1352.41c-34.62 44.81-84.29 86.81-153.84 103.62-2.25-2.14-4.44-4.32-6.54-6.6 61.61-18.89 106.53-57.92 138.6-99.41-8.43-41.15-35.92-77-75.25-95.22 15.73-4.08 28.91-16.21 33.45-33.04 6.38-23.65-6.59-47.97-29.23-56.08 5.87-.78 12.03-.41 18.13 1.23 24.86 6.7 39.59 32.33 32.89 57.19-4.54 16.83-17.74 29.02-33.47 33.09 39.4 18.23 66.91 54.03 75.26 95.22z" opacity=".1" class="color132368 svgShape"/><path fill="#ffffff" d="M1970.06 1125.88c-18.81 20.38-20.48 73.88-6.85 64.68 13.63-9.21 16.81-75.46 6.85-64.68zM1981.83 1122.83c13.08 11.17 43 5.56 36.97-2.66-6.02-8.23-43.89-3.25-36.97 2.66z" opacity=".3" class="colorfff svgShape"/><path fill="#131468" d="M2215.62 1140.53c-4.53 8.4-9.34 16.67-14.73 24.61-24.91 36.76-58.93 66.57-98.77 86.21-37.08 18.28-77.8 29.52-118.55 35.8-12.45 1.92-25.03 3.32-37.66 4.26 9.51 64.85 35.5 134.77 94.68 191.72 185.01-44.69 251.46-239.46 264.74-285.66-36.77-16.31-66.37-36.76-89.71-56.94z" opacity=".2" class="color132368 svgShape"/><circle cx="2148.63" cy="2234.12" r="39.33" fill="#131468" opacity=".1" transform="rotate(-68.026 2148.607 2234.027)" class="color132368 svgShape"/><path fill="#d1d1ee" d="m2159.03 2236.83-7.01 4.15-12.16 7.09-4.15-7.02 12.17-7.13-7.13-12.17 7.04-4.09z" opacity=".5" class="colord1e1ee svgShape"/><path fill="#53d86a" d="m2438.24 1525.5-93.33 357.52-672.97-542.33 93.35-357.57zM2504.19 1272.88l-41.77 160.01-672.95-542.37 41.76-159.97z" enable-background="new" opacity=".1" class="colorf4f2f3 svgShape"/><path fill="#167ffc" d="m1943.72 865.49-7.62-1.96-4.8 18.7-15.4-3.96 14.23-55.4 23.02 5.91c13.75 3.53 18.74 13.11 16 23.8-2.49 9.67-11.37 16.52-25.43 12.91zm1.66-12.64c4.63 1.19 7.13-.68 8.05-4.29.95-3.69-.33-6.54-4.96-7.73l-6.13-1.57-3.09 12.02 6.13 1.57zM2004.4 841.96c13.75 3.53 18.65 13.17 16.1 23.07-1.86 7.23-7.4 12.5-16.3 12.9l6.94 24.82-17.21-4.42-5.75-23.25-1.65-.42-5.25 20.43-15.4-3.96 14.23-55.4 24.29 6.23zm-4.57 12.57-7.62-1.96-2.97 11.55 7.62 1.96c4.17 1.07 6.81-.43 7.78-4.2.9-3.46-.64-6.28-4.81-7.35zM2044.27 911.84c-15.71-4.04-25.42-19.09-21.14-35.75 4.28-16.66 20.02-25.09 35.73-21.06 15.79 4.06 25.35 18.99 21.08 35.65-4.28 16.67-19.95 25.2-35.67 21.16zm3.68-14.3c7.93 2.04 14.16-2.31 16.36-10.88 2.24-8.72-1.14-15.45-9.07-17.49-8.02-2.06-14.14 2.23-16.38 10.95-2.21 8.57 1.07 15.37 9.09 17.42zM2093.96 864.97l37.56 9.65-3.15 12.26-22.16-5.69-2.5 9.74 16.34 4.2-3.01 11.71-16.34-4.2-5.57 21.69-15.4-3.96 14.23-55.4zM2138.07 876.3l15.4 3.96-14.23 55.4-15.4-3.96 14.23-55.4zM2177.68 886.48l-11.2 43.61 17.2 4.42-3.03 11.79-32.6-8.38 14.23-55.4 15.4 3.96zM2233.15 913.88l-20.04-5.15-2.32 9.03 17.68 4.54-3.01 11.71-17.68-4.54-2.56 9.98 20.04 5.15-3.17 12.34-35.44-9.1 14.23-55.4 35.44 9.1-3.17 12.34zM2302.71 948.08c-4.12 16.03-18.36 24.85-36.04 20.31l-21.92-5.63 14.23-55.4 21.92 5.63c17.68 4.55 25.99 18.83 21.81 35.09zm-33.73 6.42c8.88 2.28 15.75-1.31 18.09-10.43 2.36-9.19-1.91-15.73-10.79-18.01l-5.34-1.37-7.31 28.45 5.35 1.36zM2339.89 977.57l-19.64-5.05-5.31 8.27-16.19-4.16 34.43-50.21 17.75 4.56 5.88 60.56-16.26-4.18-.66-9.79zm-2.19-32.23-10.49 16.4 11.86 3.05-1.37-19.45zM2373.06 936.67l44.79 11.51-3.15 12.26-14.77-3.8-11.08 43.14-15.4-3.96 11.08-43.14-14.61-3.75 3.14-12.26zM2446.74 1005.02l-19.64-5.05-5.31 8.27-16.19-4.16 34.43-50.21 17.75 4.56 5.88 60.56-16.26-4.18-.66-9.79zm-2.19-32.23-10.49 16.4 11.86 3.05-1.37-19.45z" opacity=".5" class="color50a7e2 svgShape"/></g><linearGradient id="l" x1="1187.901" x2="2293.143" y1="1572.685" y2="2944.841" gradientUnits="userSpaceOnUse"><stop offset=".02" stop-color="#d1d1ee" class="stopColord1e1ee svgShape"/><stop offset=".363" stop-color="#5093e2" class="stopColor50a7e2 svgShape"/><stop offset="1" stop-color="#595bd4" class="stopColor182b9b svgShape"/></linearGradient><path fill="url(#l)" fill-rule="evenodd" d="m2267.89 1712.95-813.46-1.03v-20.29c0-21.45-17.39-38.85-38.85-38.85h-226.81c-21.45 0-38.85 17.39-38.85 38.85v19.9l-4.41-.01c-73.21-.09-132.64 59.18-132.73 132.39l-.95 742.36c-.09 73.21 59.18 132.64 132.39 132.72l1122.37 1.43c73.21.09 132.64-59.19 132.72-132.4l.95-742.36c.12-73.19-59.16-132.61-132.37-132.71z" clip-rule="evenodd"/><path fill="#ffffff" fill-rule="evenodd" d="M1039.81 1855.8c-4.41-21.16 56.16-138.09 95.64-115.53 39.47 22.56-90.94 138.09-95.64 115.53zM1378 1745.8c-.14-3.39 457.88-23.78 474.8 4.42 16.91 28.19-473.86 18.13-474.8-4.42z" clip-rule="evenodd" class="colorfff svgShape"/><path fill="#131468" fill-rule="evenodd" d="m2267.89 1712.95-165.82-.21c-38.96 50.65-95.07 89.44-149.44 119.78-78.58 43.85-163.83 72.92-250.63 95.65-109.36 28.63-222.24 43.68-335.21 46.43-114.33 2.79-229.15-7.05-341.09-30.63-4.36-.92-8.71-1.86-13.06-2.82l-.7 550.19c118.88-.21 237.8-.21 356.59 5.11 130.52 5.85 261.3 17.69 389.39 44.19 60.9 12.6 121.18 28.6 179.8 49.45 53.22 18.92 106.13 40.79 152.52 73.47 23.84 16.79 45.55 35.87 65.29 56.74l111.06.14c73.21.09 132.64-59.19 132.72-132.4l.95-742.36c.12-73.21-59.16-132.63-132.37-132.73z" clip-rule="evenodd" opacity=".1" class="color132368 svgShape"/><path fill="#131468" fill-rule="evenodd" d="M2334.51 2442.72c40.68 5.42-2.6 272.52-70.08 228.4-67.48-44.12-7.78-238.78 70.08-228.4z" clip-rule="evenodd" opacity=".25" class="color132368 svgShape"/><path fill="#131468" fill-rule="evenodd" d="M2347.79 1739.87c.4 42.71.67 86.37-13.39 127.03-15.79 45.68-51.49 86.77-95.89 106.48-46.15 20.48-99.05 22.64-148.79 22.23-51.85-.43-103.62-5.74-155.48-4.96-67.96 1.01-134.6 14.23-200.71 28.96-66.82 14.88-134.58 32.05-203.19 35.87-64.69 3.6-127.9-12.37-192.02-17.49-63.51-5.08-126.67 7.38-189.83 12.6-45.22 3.73-90.98 5.1-135.96-1.37l-.44 341.88h1387.49l.7-545.4c.06-43.21-20.55-81.59-52.49-105.83z" clip-rule="evenodd" opacity=".1" class="color132368 svgShape"/><path fill="#d1893d" fill-rule="evenodd" d="M969.47 2091.37H2404.6v225.56H969.47z" clip-rule="evenodd" class="colord1c63d svgShape"/><path fill="#ffffff" fill-rule="evenodd" d="M994.85 2172.51c-13.76-21.4-11.28-62.03 6.58-63.91 17.86-1.88 1.88 77.07-6.58 63.91zM1013.65 2109.54c-.99-2.8 124.06-4.7 145.67 1.88 21.62 6.58-129.7 43.24-145.67-1.88z" clip-rule="evenodd" opacity=".25" class="colorfff svgShape"/><path fill="#fe9526" fill-rule="evenodd" d="M2404.57 2091.42v225.5H969.44v-67.18c880.15 86.59 1431.12-158.31 1431.12-158.31h4.01z" clip-rule="evenodd" opacity=".2" class="colore38427 svgShape"/><path fill="#bf7a32" fill-rule="evenodd" d="m2400.53 2091.37 92.73-25.06v226.81l-92.11 23.81z" clip-rule="evenodd" class="colorbfb232 svgShape"/><path fill="#fe9526" fill-rule="evenodd" d="M2489 2067.46c-.16 1.84-.23 3.69-.42 5.53-1.74 16.58-4.31 33.44-9.87 49.22-4.44 12.6-11.71 26.76-24.84 32.04-24.61 9.9-42.28-12.38-53.26-36.12l.55 198.81 92.1-23.81v-226.81l-4.26 1.14z" clip-rule="evenodd" opacity=".2" class="colore38427 svgShape"/><g opacity=".1" fill="#000000" class="color000 svgShape"><path fill="#131468" d="M1630.54 2324.68v-47.03c0-30.8 25.05-55.85 55.85-55.85s55.86 25.05 55.86 55.85v47.03h37.33v-47.03c0-51.37-17.53-124.53-93.18-124.53-80.31 0-93.17 73.15-93.17 124.53v47.03h37.31z" class="color132368 svgShape"/></g><path fill="#ffffff" d="M1630.54 2305.48v-47.03c0-30.8 25.05-55.85 55.85-55.85s55.86 25.05 55.86 55.85v47.03h37.33v-47.03c0-51.37-41.8-93.18-93.18-93.18-51.37 0-93.17 41.8-93.17 93.18v47.03h37.31z" class="colorfff svgShape"/><path fill="#131468" d="M1594.44 2470.09c-7.44 1.11-15.01.89-22.52.97v12.91c0 11.85 9.67 21.57 21.62 21.57h215.49c11.94 0 21.62-9.72 21.62-21.57v-159.03c.39-38.57-34.85-27.53-38.19-31.34-6.46 16.37-17.69 149.49-198.02 176.49z" opacity=".25" class="color132368 svgShape"/><path fill="#d1d1ee" d="M1796.62 2280.21h-71.37c-.49 0-.99-.1-1.38-.24h-145.6c-11.94 0-21.62 9.72-21.62 21.67v159.03c0 11.85 9.67 21.57 21.62 21.57h215.49c11.94 0 21.62-9.72 21.62-21.57v-159.03c0-10.96-8.2-20.04-18.76-21.43zm-87.11 150.89h-46.99s7.8-38.01 12.73-58.69c-8-3.9-13.38-12.04-13.38-21.47 0-13.33 10.81-24.09 24.14-24.09s24.14 10.76 24.14 24.09c0 9.43-5.48 17.57-13.43 21.47 4.94 20.68 12.79 58.69 12.79 58.69z" class="colord1e1ee svgShape"/><path fill="#131468" d="M1784.84 2333.88c-21.1 29.45-49.01 53.9-80.53 72.55 2.89 13.5 5.2 24.67 5.2 24.67h-46.99s.36-1.74.95-4.57c-27.14 10.88-55.76 17.83-84.3 20.26-7.5.64-15.01.89-22.52.97v12.91c0 11.85 9.67 21.57 21.62 21.57h215.49c11.94 0 21.62-9.72 21.62-21.57v-159.03c0-5.45-2.03-10.43-5.37-14.24-6.46 16.37-14.8 32.02-25.17 46.48z" opacity=".1" class="color132368 svgShape"/><path fill="#d1893d" d="M1665.46 2116.53h39.59v131.97h-39.59z" class="colord1c63d svgShape"/><g fill="#000000" class="color000 svgShape"><path fill="#ffd6aa" d="M1429.54 798.8c11.01-2.87 14.58-30.35 14.58-30.35s-1.17 34.42 11.59 35.6c11.87 1.1 12.62-24.5 13.23-33.02-.34 9.75 3.06 34.24 15.73 33.98 11.98-.24 16.48-38.75 16.48-38.75s1.41 33.93 15 34.09c16.59.2 18.36-54.82 19.07-74.14.52-14.31-16.11-48.69-29.44-25.06 0 0-5.24-18.44-20.73-15.42-15.76 3.08-7.88 18.74-7.88 18.74s-5.59-16.79-21.92-13.94c-10.39 1.81-9.51 15.91-9.51 15.91s-10.1-12.13-20.38-1.14c-15.27 16.31-12.38 97.81 4.18 93.5z" class="colorffafaa svgShape"/><path fill="#53d86a" d="M1515.48 698.16c2.98-1.38 16.65 9.37 15.66 26.25-.98 16.88 1.99 29.91-2.59 29.88s-3.77-23.59-4.37-28.56c-.58-4.97-15.5-24.41-8.7-27.57zM1489.9 690.83c2.52-1.28 16.01 6.56 13.17 17.68-2.84 11.13-14.13-17.19-13.17-17.68zM1460.83 695.32c2.13-.68 12.99 1.6 11.92 13.4-1.07 11.8-.76 15.49-2.85 18.12-2.09 2.63-5.95-16.64-3.95-20.86 1.99-4.23-8.13-9.71-5.12-10.66zM1436.24 707.65c4.45-4.09 11.34 4.94 7.42 16.04-3.92 11.1-8.98-14.62-7.42-16.04z" enable-background="new" opacity=".2" class="colorf4f2f3 svgShape"/><path fill="#ddb58a" d="M1505.27 724.19s.53 30.26-4.12 42.06c0 0-.41-34.57 4.12-42.06zM1473.66 723.26s.02 35.04-4.63 46.84c0 0 .1-39.35 4.63-46.84zM1448.27 722.35s.02 35.04-4.63 46.84c0 0 .1-39.34 4.63-46.84z" enable-background="new" class="colordd8a8a svgShape"/><path fill="#ddb58a" d="M1429.54 798.8c3.25-.85 5.83-3.87 7.88-7.66-3.43-3.16-4.59-8.11-4.72-12.96-.07-2.67.1-5.35.34-8.01.26-2.81 1.21-5.59 1.19-8.42-.04-3.7-3.09-3.96-5.81-5.38-2.95-1.54-4.33-4.68-4.76-7.84-.43-3.2-.12-6.47.24-9.66.36-3.18 1.33-6.12 1.83-9.25.57-3.57-2.15-4.92-4.22-7.3-1.17-1.35-1.84-2.89-2.18-4.51-7.93 28.06-3.66 84.6 10.21 80.99zM1520.41 799.01c-2.35-1.7-4.05-4.28-5.1-7-1.42-3.69-1.6-7.57-2.09-11.45-.51-4.07-1.4-8.11-3.55-11.65-1.61-2.66-4.11-2.81-6.43-.89-.71.58-1.29 1.31-1.81 2.09.84 8.89 3.97 30.11 14.72 30.24 1.55.01 2.97-.47 4.26-1.34zM1491.33 800.36c-6.96-1.3-11.22-9.45-14.42-15.15-2.75-4.91-4.89-10.06-6.55-15.36-.26 2.68-.3 5.39-.29 8.01.01 2.66.14 5.31.31 7.95 2 9.64 6.3 19.35 14.31 19.19 2.54-.05 4.74-1.87 6.64-4.64zM1452.74 788.32c-2.11-6.47-2.58-13.57-2.21-20.32.14-2.49.44-4.84.96-7.27.46-2.16 1.35-4.88.95-7.1-.36-1.97-2.04-.82-2.93.16-1.29 1.44-2.27 3.29-2.93 5.09-1.1 3.03-1.02 6.53-1.06 9.71-.04 3.95-.04 7.87-.96 11.73-.01.03-.03.05-.04.08.86 10.06 3.49 22.92 11.2 23.64 2.97.27 5.21-1.18 6.95-3.56-4.86-2.45-8.19-6.83-9.93-12.16z" enable-background="new" opacity=".25" class="colordd8a8a svgShape"/><path fill="#ffffff" d="m1522.9 783.54-12.98 1.6s1.01 11.92 6.2 12.52c5.19.59 6.78-14.12 6.78-14.12zM1491.14 787.86s-11.16-2.4-12.37.45c-1.21 2.85.11 11.12 5.15 11.67 5.03.54 7.87-10.88 7.22-12.12zM1463.58 790.88s-7.97-4.03-12.87-.46c0 0-1.13 11.36 4.86 11.66 6 .31 8.01-11.2 8.01-11.2zM1434.98 787.49s-5.63-2.7-11.65.1c0 0-.15 8.06 5.36 8.26 5.54.19 6.29-8.36 6.29-8.36z" opacity=".5" class="colorfff svgShape"/></g></g></svg>