<svg xmlns="http://www.w3.org/2000/svg" enable-background="new 0 0 3000 3000" viewBox="0 0 3000 3000"><linearGradient id="a" x1="2385.928" x2="-185.583" y1="164.257" y2="2918.799" gradientUnits="userSpaceOnUse"><stop offset=".008" stop-color="#181a9b" class="stopColor182b9b svgShape"/><stop offset="1" stop-color="#03042b" class="stopColor21032b svgShape"/></linearGradient><path fill="url(#a)" d="M2215.49 1593.06c-660.18 688.85-2004.12 513.86-1946.93-213.55 14.99-191.09 177.56-417.62 414.41-617.43 157.06-132.51 346.76-253.23 547.76-344.11 365.45-165.29 768.28-231.82 1080.1-90.87 310.84 140.52 564.84 577.11-95.34 1265.96z"/><path fill="#53d86a" d="M1815.1 725.81c-35.71 21.9-79.72 31.03-120.38 38.36-62.28 11.16-125.68 16.32-188.79 19.67-78.74 4.11-157.69 4.95-236.57 4.32-88.29-.7-176.59-3.42-264.88-7.32-91.29-3.98-182.59-9.28-273.81-15.41-15.9-1.05-31.8-2.16-47.7-3.35 157.06-132.51 346.76-253.23 547.76-344.11 47.28-3.28 97.29.42 137.46 26.01 28.52 18.2 46.8 46.8 56.42 78.81.56 1.74 2.44 3 4.25 2.86 35.99-2.23 71.7-7.11 107.68-9.76 26.92-1.95 54.68-2.16 80.34 7.18 30.06 10.95 54.47 33.2 75.32 56.77 21.13 23.78 38.71 53.21 65.28 71.56 26.01 17.92 59.35 17.99 89.9 17.85 4.89 24.69-11.49 43.8-32.28 56.56z" enable-background="new" opacity=".1" class="colorf4f2f3 svgShape"/><path fill="#ffffff" d="M2438.61 650.2c-6.92 2.33-8.82 4.23-11.16 11.16-2.34-6.93-4.23-8.82-11.16-11.16 6.92-2.34 8.82-4.23 11.16-11.16 2.34 6.92 4.24 8.81 11.16 11.16zM1287.21 560.38c-6.92 2.34-8.82 4.23-11.16 11.16-2.34-6.92-4.23-8.82-11.16-11.16 6.93-2.34 8.83-4.23 11.16-11.16 2.34 6.93 4.24 8.82 11.16 11.16zM1714.79 393.09c-9.46 3.19-12.04 5.78-15.23 15.23-3.19-9.45-5.78-12.04-15.23-15.23 9.45-3.19 12.04-5.78 15.23-15.23 3.19 9.45 5.78 12.04 15.23 15.23z" class="colorfff svgShape"/><path fill="#ffffff" d="M1161.38 816c-4.44 0-8.05 3.6-8.05 8.05 0 4.47 3.6 8.08 8.05 8.08 4.44 0 8.05-3.61 8.05-8.08-.01-4.44-3.61-8.05-8.05-8.05zM1161.38 774.57c-4.44 0-8.05 3.6-8.05 8.05 0 4.47 3.6 8.07 8.05 8.07 4.44 0 8.05-3.6 8.05-8.07-.01-4.45-3.61-8.05-8.05-8.05z" opacity=".8" class="colorfff svgShape"/><path fill="#ffffff" d="M1161.38 733.13c-4.44 0-8.05 3.61-8.05 8.05 0 4.47 3.6 8.08 8.05 8.08 4.44 0 8.05-3.61 8.05-8.08-.01-4.45-3.61-8.05-8.05-8.05z" opacity=".6" class="colorfff svgShape"/><path fill="#ffffff" d="M1161.38 691.69c-4.44 0-8.05 3.6-8.05 8.04 0 4.48 3.6 8.08 8.05 8.08 4.44 0 8.05-3.6 8.05-8.08-.01-4.43-3.61-8.04-8.05-8.04z" opacity=".3" class="colorfff svgShape"/><path fill="#ffffff" d="M2071.92 718.67c0-4.44-3.6-8.04-8.05-8.04-4.47 0-8.08 3.6-8.08 8.04 0 4.44 3.61 8.05 8.08 8.05 4.44 0 8.05-3.61 8.05-8.05zM2113.35 718.67c0-4.44-3.6-8.04-8.05-8.04-4.47 0-8.08 3.6-8.08 8.04 0 4.44 3.6 8.05 8.08 8.05 4.45 0 8.05-3.61 8.05-8.05z" opacity=".8" class="colorfff svgShape"/><path fill="#ffffff" d="M2154.79 718.67c0-4.44-3.61-8.04-8.05-8.04-4.47 0-8.08 3.6-8.08 8.04 0 4.44 3.61 8.05 8.08 8.05 4.44 0 8.05-3.61 8.05-8.05z" opacity=".6" class="colorfff svgShape"/><path fill="#ffffff" d="M2196.22 718.67c0-4.44-3.6-8.04-8.04-8.04-4.47 0-8.08 3.6-8.08 8.04 0 4.44 3.6 8.05 8.08 8.05 4.44 0 8.04-3.61 8.04-8.05z" opacity=".3" class="colorfff svgShape"/><path fill="#ffd6aa" d="M370.59 2515.27c-9.51 26.7-18.54 93.3-19.41 104.77l-88.53-8.06 9.54-105.25 98.4 8.54z" class="colorffafaa svgShape"/><path fill="#d49d63" d="m272.18 2506.74-4.97 54.84c4.65 4.53 11.67 4.32 17.71 4.81 7.93.64 15.66 2.34 23.33 4.42 7.57 2.06 16.36 3.54 23.53 6.92 3.63 1.71 7.07 4.85 5.62 9.31-1.42 4.37-6.67 5.54-10.63 6.33-12.16 2.44-25.73.94-38.01-.09-8.12-.68-16.38-1.77-24.35-.87l-1.78 19.57 88.53 8.06c.88-11.46 9.9-78.07 19.41-104.77l-98.39-8.53z" opacity=".35" class="colord47c63 svgShape"/><linearGradient id="b" x1="455.517" x2="240.475" y1="2567.593" y2="2776.68" gradientUnits="userSpaceOnUse"><stop offset=".008" stop-color="#131468" class="stopColor132368 svgShape"/><stop offset="1" stop-color="#03042b" class="stopColor21032b svgShape"/></linearGradient><path fill="url(#b)" d="m360.29 2606.01 3.78 50.78c2.48-.31 4.97-.59 7.5-.77 63.56-4.73 76.78 43.28 63.88 83.84l-54.46 9.12L262 2721.86s-38.93-7.62-9.26-107.84c7.68-25.97 107.55-8.01 107.55-8.01z"/><path fill="#03042b" d="M392.23 2656.52c-.57.17-30.02-1.69-42.72 3.65-11.64 4.9-18.97 16.69-29.89 22.97-13.97 8.04-40.5 14.97-52.31-.12-9.98-12.76-9.67-34.44-2.18-48.25 9.23-17.03 28.82-29.29 48.41-27.01 9.35 1.09 18.46 3.76 27.72 5.34 6.09 1.04 13.22 2.14 19.61.88l-.59-7.97s-99.86-17.96-107.55 8.01c-29.67 100.21 9.26 107.84 9.26 107.84l118.99 27.12 54.46-9.12c11.37-35.7 2.44-77.14-43.21-83.34z" opacity=".25" class="color21032b svgShape"/><path fill="#ffffff" d="M396.28 2665.28c9.44 3.13 30.39 17.02 26.13 29.98-4.25 12.96-17.42-3.85-41.73-6.28-24.31-2.43-43.35-4.65-26.34-15.8 17.02-11.14 31.82-11.25 41.94-7.9z" opacity=".1" class="colorfff svgShape"/><path fill="#d1d1ee" d="M315.13 2702.47c-.24.02-.49-.02-.74-.11-.9-.34-1.36-1.35-1.02-2.24 7.89-20.98 21.15-32.11 30.88-37.74 10.59-6.13 19.23-7.27 19.59-7.31.94-.15 1.83.56 1.95 1.51.12.95-.56 1.83-1.51 1.95-.33.04-33.29 4.66-47.65 42.82-.24.65-.84 1.07-1.5 1.12zM438.85 2730.63s1.4 7.74-1.91 10.89c-21.76 20.71-144.47-1.65-164.32-10.69-17.37-7.91-28.99-17.58-24.15-21.63 4.84-4.05 53.74 36.61 148.93 21.46 13.98-2.23 11.18-12.26 21.04-12.43 9.93-.16 20.41 12.4 20.41 12.4zM277.36 2652.67c.79 10.59 7.06 18.75 14.01 18.23 6.95-.51 11.95-9.52 11.16-20.1-.79-10.59-7.06-18.75-14.01-18.23-6.96.51-11.95 9.51-11.16 20.1z" class="colord1e1ee svgShape"/><path fill="#ffd6aa" d="M770.73 2503.57c-3.82 28.09 1.05 95.12 2.55 106.52l-88.3 10.32-12.31-104.96 98.06-11.88z" class="colorffafaa svgShape"/><path fill="#d49d63" d="m672.67 2515.46 6.42 54.69c5.49 3.48 12.31 1.83 18.33 1.06 7.9-1 15.8-.92 23.74-.47 7.83.45 16.74.1 24.45 1.93 3.9.93 7.91 3.29 7.41 7.95-.49 4.58-5.39 6.79-9.09 8.38-11.4 4.88-24.99 6.21-37.21 7.73-8.09 1.01-16.39 1.64-24.01 4.16l2.29 19.52 88.3-10.32c-1.51-11.4-6.37-78.44-2.55-106.52l-98.08 11.89z" opacity=".35" class="colord47c63 svgShape"/><linearGradient id="c" x1="809.937" x2="594.893" y1="2514.756" y2="2723.845" gradientTransform="rotate(-3.97 1443.584 1587.774)" gradientUnits="userSpaceOnUse"><stop offset=".008" stop-color="#131468" class="stopColor132368 svgShape"/><stop offset="1" stop-color="#03042b" class="stopColor21032b svgShape"/></linearGradient><path fill="url(#c)" d="m783.45 2601.44 7.29 50.4c2.45-.49 4.92-.94 7.43-1.3 63.08-9.13 79.6 37.85 69.55 79.2l-53.69 12.88-120.59-18.79s-39.37-4.91-16.73-106.94c5.87-26.43 106.74-15.45 106.74-15.45z"/><path fill="#03042b" d="M818.83 2649.61c-.55.21-30.06.4-42.35 6.61-11.27 5.69-17.77 17.96-28.22 24.99-13.38 8.99-39.36 17.75-52.19 3.52-10.85-12.03-12.04-33.69-5.52-47.99 8.03-17.63 26.72-31.22 46.42-30.3 9.41.44 18.68 2.47 28.03 3.41 6.15.62 13.34 1.22 19.62-.49l-1.15-7.92s-100.87-10.99-106.74 15.45c-22.64 102.03 16.73 106.94 16.73 106.94l120.59 18.79 53.69-12.88c8.84-36.4-2.95-77.12-48.91-80.13z" opacity=".25" class="color21032b svgShape"/><path fill="#ffffff" d="M823.48 2658.07c9.63 2.46 31.5 14.87 28.15 28.1-3.35 13.23-17.65-2.63-42.07-3.37-24.42-.74-43.57-1.63-27.37-13.93 16.21-12.3 30.95-13.44 41.29-10.8z" opacity=".1" class="colorfff svgShape"/><path fill="#d1d1ee" d="M745.11 2700.8c-.24.04-.5.02-.75-.06a1.74 1.74 0 0 1-1.17-2.17c6.41-21.48 18.87-33.5 28.19-39.8 10.13-6.85 18.68-8.59 19.04-8.66.92-.21 1.86.43 2.04 1.38.19.94-.43 1.86-1.37 2.05-.33.06-32.89 6.96-44.56 46.03-.21.68-.78 1.14-1.42 1.23zM870.48 2720.31s1.93 7.63-1.15 11c-20.27 22.17-144.24 8.39-164.66.75-17.87-6.69-30.14-15.53-25.59-19.9 4.54-4.38 56.15 32.8 150.06 11.07 13.79-3.19 10.31-13.01 20.13-13.86 9.88-.87 21.21 10.94 21.21 10.94zM703.97 2653.74c1.52 10.51 8.35 18.22 15.24 17.21 6.9-.99 11.26-10.32 9.74-20.83-1.52-10.51-8.34-18.22-15.24-17.21-6.91 1-11.27 10.33-9.74 20.83z" class="colord1e1ee svgShape"/><linearGradient id="d" x1="767.993" x2="628.858" y1="2492.872" y2="1126.079" gradientUnits="userSpaceOnUse"><stop offset="0" stop-color="#1d1f87" class="stopColor871d5c svgShape"/><stop offset="1" stop-color="#181960" class="stopColor601843 svgShape"/></linearGradient><path fill="url(#d)" d="M783.41 1272.78s28.95 729.01-2.27 1256.11c-2.22 37.56-102.24 48.22-110.48 9.21-93.59-443.43-165.15-1265.32-165.15-1265.32h277.9z"/><path fill="#53d86a" d="M716.19 1895.19c-42-31.5-42.96-202.54 11.25-209.7 54.21-7.16 50.12 255.73-11.25 209.7zM723.35 2334.02c-39.58-74.73-49.1-353.93 18.41-335.52 67.51 18.42 32.73 432.09-18.41 335.52z" opacity=".1" class="colorf4f2f3 svgShape"/><path fill="#08093a" d="M690.11 2557.35c-16.69-78.3-27.09-157.79-34.24-237.49-7.43-82.7-8.62-166.1-11.34-249.06-1.35-41.14-1.91-82.44-5.37-123.47-3.29-38.96-8.24-78.25-4.78-117.38 2.46-27.82 12.17-55.31 22.72-80.97 11.48-27.91 25.4-55.32 43.06-79.87 14.67-20.39 34.76-45.16 62.95-40.11 11.11 1.99 21.16 7.37 29.99 14.65-3.58-217.2-9.68-370.88-9.68-370.88h-277.9s71.56 821.88 165.15 1265.32c2 9.49 9.46 16.02 19.6 19.96-.05-.23-.11-.46-.16-.7z" opacity=".25" class="color08083a svgShape"/><path fill="#08093a" d="M671.44 1566.79c10.09-14.89 20.1-29.84 30.64-44.41 8.95-12.36 19.15-25.5 33.51-31.8 14.68-6.43 31.66-3.87 45.93 2.53 2.89 1.29 5.78 2.83 8.63 4.47-3.25-136.84-6.74-224.8-6.74-224.8h-277.9s19.66 225.8 51.85 504.51c24.99-76.19 69.43-144.6 114.08-210.5z" opacity=".25" class="color08083a svgShape"/><path fill="#08093a" d="M778.64 1904.85c-22.1 35.71-87.16 53.86-111.09 12.83 0 0-9.63 33.36 49.03 50.23 58.66 16.85 62.06-63.06 62.06-63.06z" opacity=".5" class="color08083a svgShape"/><linearGradient id="e" x1="514.071" x2="374.955" y1="2518.563" y2="1151.951" gradientUnits="userSpaceOnUse"><stop offset="0" stop-color="#1d1f87" class="stopColor871d5c svgShape"/><stop offset="1" stop-color="#181960" class="stopColor601843 svgShape"/></linearGradient><path fill="url(#e)" d="M292.15 1271.79s-10.2 732.1-41.9 1261.7c29.32 53.28 114.59 35.37 121.22 3.07 98.9-482.51 282.32-1252.05 282.32-1252.05l-361.64-12.72z"/><path fill="#53d86a" d="M419.54 1873.71c-18.75-8.44 11.25-287.44 79.79-243.45 68.53 43.98 2.04 280.27-79.79 243.45zM338.73 2350.39c-39.58-74.73 12.27-347.79 79.79-329.38 67.51 18.41-28.65 425.95-79.79 329.38z" opacity=".1" class="colorf4f2f3 svgShape"/><path fill="#08093a" d="M254.09 2488.69c4.98-47.48 10.25-94.9 16.16-142.28 6.38-51.08 13.37-102.09 21.15-152.97 3.91-25.59 8.39-51.1 12.36-76.69 3.74-24.1 9.38-47.75 14.07-71.67 4.78-24.34 8.01-49.05 5.74-73.87-2.21-24.17-7.56-47.91-10.41-71.99-2.63-22.24-3.32-44.62 3.13-66.27 5.54-18.58 14.97-35.74 25.03-52.21 10.34-16.92 21.63-33.34 30.71-51 8.48-16.5 13.76-33.95 18.29-51.87 7.61-30.12 13.2-63.6 35.24-87.13 11.09-11.84 26.39-20.25 42.35-23.28 16.16-3.07 32.33 2 46.23 10.11 23.25 13.57 42.56 35.29 57.15 58.62 47.58-205.2 82.49-351.68 82.49-351.68l-361.64-12.72s-9.89 709.44-40.43 1236.76c.89-6.63 1.69-13.26 2.38-19.86z" opacity=".25" class="color08083a svgShape"/><path fill="#08093a" d="M450.64 1447.52c36.41 11.08 69.21 31.51 92.75 61.69 18.06 23.15 30.18 50.02 39.33 77.79 41.63-179 71.07-302.49 71.07-302.49l-361.64-12.72s-.94 67.36-3.13 175.89c52-16.55 110.11-15.84 161.62-.16z" opacity=".25" class="color08083a svgShape"/><path fill="#08093a" d="M477.9 1914.05c-22.1 35.71-87.16 53.86-111.09 12.83 0 0-9.63 33.36 49.03 50.23 58.66 16.86 62.06-63.06 62.06-63.06z" opacity=".5" class="color08083a svgShape"/><linearGradient id="f" x1="576.244" x2="1110.203" y1="456.803" y2="1359.624" gradientUnits="userSpaceOnUse"><stop offset="0" stop-color="#ffa545" class="stopColorffe245 svgShape"/><stop offset=".526" stop-color="#de7200" class="stopColorde007b svgShape"/><stop offset="1" stop-color="#fe9526" class="stopColore38427 svgShape"/></linearGradient><path fill="url(#f)" d="M761.12 668.19s146.82 157.39 159.25 219.53c7.81 39.07-132.17 89.08-132.17 89.08l-27.08-308.61z"/><path fill="#17197a" d="M913.08 866.86c-7.65 1.61-15.4 2.68-23.17 3.01-15.66.68-32.51-1.68-43.45-13.96-13.62-15.29-16.45-37.8-17.92-57.38-1.48-19.6-.56-39.78-4.11-59.19-33.46-40.66-63.31-71.14-63.31-71.14l27.09 308.61s139.98-50.01 132.17-89.08c-1.23-6.1-3.77-13.15-7.3-20.87z" enable-background="new" opacity=".25" class="color7a1752 svgShape"/><path fill="#131444" d="M352.19 1388s61.11 2.95 63.24 10.27c2.14 7.32.12 11.14.12 11.14s-53.16-4.16-61.86-11c-8.7-6.84-1.5-10.41-1.5-10.41z" class="color131e44 svgShape"/><path fill="#131468" d="M365.34 1388.84c-11.49 6.12-17.14 21.71-20.79 33.71-2.15 7.25-3.69 16.48-3.77 24.75-.07 3.21-3.81 5.44-6.65 5.05-3.42-.47-5.07-3.44-5-6.65.26-20.69 7.13-43.85 23.06-57.7 2.36-2.76 12.16-5.54 13.15.84z" class="color132368 svgShape"/><path fill="#d1d1ee" d="m320.63 1601.46 8.64-20.45-6.31-2.67 23.24-54.98-30.82-13.03-63.31 149.8 8.6 22.64 22.22-9.61 5.65-13.37 6.31 2.67 5.29-12.52-6.31-2.67 2.91-6.89 6.31 2.67 6.16-14.57-5.31-5.04 2.16-5.1 7.35.19 3.47-8.2-5.27-5.14 2.71-6.4z" class="colord1e1ee svgShape"/><path fill="#595bd4" d="m314.32 1598.78-2.71 6.41 5.26 5.14-3.47 8.21-7.34-.21-2.16 5.1 5.31 5.04-6.16 14.58-6.31-2.67-2.91 6.88 6.31 2.67-5.29 12.52-6.31-2.66-5.65 13.35-22.22 9.64-.24-.64 55.46-131.24-11.61-14.29 11.1-26.29 30.82 13.03-23.25 55 6.31 2.67-8.63 20.43z" opacity=".2" class="color182b9b svgShape"/><path fill="#d1d1ee" d="m405.66 1471.02-34.96-37.28a8.166 8.166 0 0 0-6.09-2.57l-51.07.92c-3.23.07-6.13 2.01-7.38 4.99l-21.43 50.72c-1.26 2.98-.63 6.41 1.57 8.78l34.93 37.27a8.207 8.207 0 0 0 6.1 2.58l51.1-.92c3.23-.07 6.13-2.01 7.38-4.99l21.43-50.72c1.25-2.98.62-6.42-1.58-8.78zm-54.69.91c-7.1-3-10.42-11.19-7.42-18.29 3.01-7.12 11.21-10.45 18.3-7.45 7.12 3.01 10.45 11.21 7.44 18.33-3 7.09-11.2 10.42-18.32 7.41z" class="colord1e1ee svgShape"/><path fill="#595bd4" d="m405.66 1471.02-2.77-2.94c-22.05 32.19-64.4 45.53-101.73 29.75a83.544 83.544 0 0 1-16.66-9.4 8.142 8.142 0 0 0 1.78 8.14l34.93 37.27a8.207 8.207 0 0 0 6.1 2.58l51.1-.92c3.23-.07 6.13-2.01 7.38-4.99l21.43-50.72c1.27-2.97.64-6.41-1.56-8.77z" opacity=".1" class="color182b9b svgShape"/><linearGradient id="g" x1="413.896" x2="197.846" y1="1658.213" y2="2138.737" gradientTransform="rotate(7.82 2114.013 1960.734)" gradientUnits="userSpaceOnUse"><stop offset=".02" stop-color="#d1d1ee" class="stopColord1e1ee svgShape"/><stop offset=".363" stop-color="#5093e2" class="stopColor50a7e2 svgShape"/><stop offset="1" stop-color="#181a9b" class="stopColor182b9b svgShape"/></linearGradient><path fill="url(#g)" d="m380.46 1576.06-3.93-59.56-33.39 2.2 10.71 162.28 17.85 16.36 15.54-18.57-.96-14.48 6.84-.45-.9-13.56-6.83.45-.5-7.46 6.84-.45-1.04-15.78-7.01-2.13-.36-5.52 6.66-3.13-.59-8.89-7.01-2.22-.46-6.93z"/><path fill="#595bd4" d="m381.92 1598.21.45 6.94 7.01 2.22.59 8.9-6.66 3.11.37 5.52 7 2.13 1.04 15.79-6.83.45.49 7.45 6.84-.45.89 13.57-6.83.45.95 14.47-15.53 18.59-.5-.46-9.38-142.18-16.8-7.54-1.88-28.48 33.38-2.2 3.93 59.58z" opacity=".2" class="color182b9b svgShape"/><linearGradient id="h" x1="347.709" x2="133.774" y1="1605.484" y2="2081.305" gradientTransform="rotate(6.362 2287.591 2064.628)" gradientUnits="userSpaceOnUse"><stop offset=".02" stop-color="#d1d1ee" class="stopColord1e1ee svgShape"/><stop offset=".363" stop-color="#5093e2" class="stopColor50a7e2 svgShape"/><stop offset="1" stop-color="#181a9b" class="stopColor182b9b svgShape"/></linearGradient><path fill="url(#h)" d="m406.16 1443.03-47.98-17.61a8.18 8.18 0 0 0-6.6.44l-45.22 23.76c-2.85 1.51-4.57 4.55-4.36 7.77l3.63 54.94c.21 3.23 2.31 6.01 5.34 7.14l47.95 17.61c2.18.79 4.57.63 6.6-.44l45.24-23.76c2.85-1.51 4.57-4.55 4.36-7.77l-3.63-54.94a8.19 8.19 0 0 0-5.33-7.14zm-48.46 25.38c-7.69.51-14.34-5.32-14.85-13.01-.51-7.71 5.32-14.37 13.01-14.88 7.71-.51 14.37 5.32 14.88 13.03.5 7.69-5.33 14.35-13.04 14.86z"/><path fill="#595bd4" d="m406.16 1443.03-3.8-1.38c-5.25 38.66-37.09 69.6-77.54 72.27-6.53.43-12.92.1-19.1-.91a8.138 8.138 0 0 0 5.25 6.47l47.95 17.61c2.18.79 4.57.63 6.6-.44l45.24-23.76c2.85-1.51 4.57-4.55 4.36-7.77l-3.63-54.94a8.191 8.191 0 0 0-5.33-7.15z" opacity=".1" class="color182b9b svgShape"/><path fill="#d1d1ee" d="m448.25 1555.91-10.61-16.93-5.22 3.27-28.54-45.54-25.52 15.99 77.72 124.07 21.14 5.36 4.39-21.36-6.93-11.07 5.22-3.27-6.5-10.37-5.22 3.27-3.57-5.7 5.22-3.27-7.56-12.07-6.46 1.31-2.64-4.22-6.83-10.89-3.31-5.3z" class="colord1e1ee svgShape"/><path fill="#595bd4" d="m443.02 1559.18 3.32 5.31 6.82 10.88 2.65 4.22 6.45-1.3 7.57 12.07-5.23 3.27 3.57 5.7 5.23-3.27 6.5 10.37-5.23 3.27 6.93 11.07-4.38 21.36-.59-.15-68.1-108.7-16.53 1.18-13.64-21.77 25.52-15.99 28.54 45.56 5.22-3.27 10.6 16.92z" opacity=".2" class="color182b9b svgShape"/><path fill="#d1d1ee" d="m396.02 1425.83-45.54 6.51a7.381 7.381 0 0 0-5.05 3.16l-25.71 38.13a7.379 7.379 0 0 0-.14 8.02l26.32 42c1.54 2.47 4.4 3.78 7.28 3.38l45.52-6.5c2.06-.3 3.89-1.45 5.05-3.16l25.73-38.14a7.379 7.379 0 0 0 .14-8.02l-26.32-42.01c-1.54-2.46-4.4-3.77-7.28-3.37zm-27.58 40.79c-5.88 3.68-13.64 1.9-17.32-3.98-3.69-5.9-1.91-13.66 3.96-17.34 5.9-3.69 13.66-1.91 17.35 3.98 3.69 5.88 1.91 13.64-3.99 17.34z" class="colord1e1ee svgShape"/><path fill="#595bd4" d="m396.02 1425.83-3.6.52c12.34 32.89.29 71-30.63 90.37a75.63 75.63 0 0 1-15.53 7.43 7.318 7.318 0 0 0 6.92 2.89l45.52-6.5c2.06-.3 3.89-1.45 5.05-3.16l25.73-38.14a7.379 7.379 0 0 0 .14-8.02l-26.32-42.01c-1.54-2.47-4.4-3.78-7.28-3.38z" opacity=".1" class="color182b9b svgShape"/><path fill="#131468" d="M418.31 1401.19a209.75 209.75 0 0 1-6.28 26.14c-2.81 8.95-6.33 16.91-13.39 23.37-10.3 9.34-24.76 13.58-38.08 8.8-7.13-2.61-2.44-13.36 4.65-10.81 10.55 3.82 22.5-2.13 29.13-10.45 1.72-2.14 2.61-4.02 3.82-7.07 1.55-3.64 2.76-7.43 3.86-11.23 1.89-6.49 3.03-19.31 4.21-26 .56-3.53 12.91-3.87 12.08 7.25z" class="color132368 svgShape"/><linearGradient id="i" x1="287.343" x2="882.294" y1="590.075" y2="1596.023" gradientUnits="userSpaceOnUse"><stop offset="0" stop-color="#ffa545" class="stopColorffe245 svgShape"/><stop offset=".526" stop-color="#de7200" class="stopColorde007b svgShape"/><stop offset="1" stop-color="#fe9526" class="stopColore38427 svgShape"/></linearGradient><path fill="url(#i)" d="M812.24 1376.2s-549.38 121.81-528.22-97.12c29.15-301.66 251.37-647.75 393.67-643.06 242.68 8.01 102.23 489.11 134.55 740.18z"/><path fill="#17197a" d="M620.82 921.91s41.02 50.34 110.62 42.26c0 0-36.67 23.62-67.74 13.05-31.07-10.57-42.88-55.31-42.88-55.31zM491.56 1240.72s98.19 41.02 188.93 23.62c0 0-42.26 45.99-116.84 21.13-74.58-24.86-72.09-44.75-72.09-44.75z" enable-background="new" opacity=".25" class="color7a1752 svgShape"/><path fill="#17197a" d="M644.85 895.6s70.43 45.57 139.21 6.63c0 0-13.26 35.63-72.92 41.43-59.66 5.8-66.29-48.06-66.29-48.06zM646.48 676.49c20.12 15.94 46.34 30.28 72.64 30.3 21.93.02 41.37-17.49 42.08-39.1-20.83-19.17-48.06-30.51-83.52-31.68-16.67-.55-34.45 3.77-52.88 12.22 2.44 11.74 12.72 21.16 21.68 28.26zM741.44 1180.46c-.31 6.04.42 11.48 6.04 14.63 9.43 5.3 22.5 3.58 32.68 2.13 9.97-1.41 19.81-3.64 29.58-6.08 5.37-106.01 16.76-220.93 13.49-318.61-6.73 13.48-9.32 28.37-13.28 42.97-4.66 17.18-13.27 34.04-28.25 44.46-11.92 8.3-26.79 14.93-34.99 27.45-4.68 7.15-4.09 15.43-3.11 23.59.97 8.05 2.83 15.97 3.71 24.03 4.39 40.54 1.63 82.38-2.96 122.77-.86 7.55-2.52 15.06-2.91 22.66z" enable-background="new" opacity=".25" class="color7a1752 svgShape"/><path fill="#17197a" d="M699.17 1106.47c-13.05-9.07-26.84-16.9-40.2-25.47-29.52-18.93-62.61-38.39-73.26-74.23-4.99-16.78-2.06-33.68 3.06-50.03 4.19-13.38 8.99-26.54 12.8-40.04 7.82-27.72 13.68-56.37 14.95-85.21 1.02-23.18-.63-50.49-15.44-69.57-4.81 14.92-9.42 29.91-14.12 44.87-16.93 53.92-36.47 107.82-72.36 151.88-.47 1.12-.91 2.25-1.39 3.37-6.14 14.2-13.09 28.04-18.88 42.38-5.59 13.83-10.73 28.56-10.86 43.65-.05 6.26 1.01 12.61 3.7 18.3 2.74 5.8 7.29 9.56 12.88 12.56 12.32 6.62 26.42 9.35 39.68 13.4 16.13 4.93 31.87 11.4 47.73 17.14 18.43 6.66 36.99 13.07 55.9 18.24 18.59 5.09 37.66 9.02 56.95 9.96 6.58.32 13.43.61 19.97-.39 2.64-.4 6.01-1.45 6.95-2.6.26-.32.33-.88.31-1.07-.17-1.21-.21-1.33-.82-2.48-1.49-2.81-3.71-5.22-5.95-7.48-6.49-6.53-14.09-11.97-21.6-17.18z" enable-background="new" opacity=".25" class="color7a1752 svgShape"/><path fill="#17197a" d="M336.4 1231.68c-1.77-19.48-2.54-39.45.75-58.82 3.18-18.7 10.94-39 30.75-44.95 1.55-.47 3.02.75 3.76 1.94 6.29 10.08 13.75 19.4 22.05 27.89 36.72 37.58 86.55 55.25 136.26 68.26 28.35 7.42 57.2 12.85 86.29 16.35 19.15 2.31 38.2.87 57.4 2.04 16.86 1.03 35.61 4.13 44.79 19.97 9.25 15.95 6.88 36.71 4.52 54.13-2.64 19.51-8 39.87-5.88 59.67.54 5 1.78 9.88 3.54 14.59 7.55-1.15 14.76-2.3 21.59-3.43 3.21-5.73 5.88-11.77 8.42-17.8 5.19-12.34 9.47-25.2 13.8-37.87 9.23-27.02 16.62-54.76 17-83.48.15-11.45.73-22.94-.24-34.38-.92-10.94-2.88-22.87-11.64-30.44-7.38-6.38-17.58-6.62-26.77-7.85-14.79-1.99-29.6-3.8-44.4-5.69-30.74-3.93-61.5-7.82-92.33-11.02-15.23-1.58-30.47-3-45.73-4.17-13.67-1.05-27.49-1.29-41.09-3.06-36.77-4.77-74.52-22.3-89.08-58.65-8.72-21.75-7.83-45.66-3.27-68.26 2.71-13.41 6.52-26.56 10.01-39.78 3.53-13.38 6.12-26.71 7.92-40.43 2.34-17.86 3.64-36.06 2.58-54.06-.84-14.29-2.82-32.46-12.26-44.4-75.49 122.95-136.78 282.41-151.14 431.1-6.47 66.97 40.48 102.02 108.72 118.46-27.42-51.75-50.99-107.32-56.32-165.86z" enable-background="new" opacity=".25" class="color7a1752 svgShape"/><path fill="#1d1f87" d="M818.45 805.69s11.96 112.97 11.15 159.76c0 0 11.44-93.61-11.15-159.76z" class="color871d5c svgShape"/><path fill="#53d86a" d="M772.42 856.84c30.75-41.66 16.35-143.09-13.63-119.51-55.71 43.83-103.26-16.87-110.13 17.68-23.02 115.88 97.98 136.76 123.76 101.83z" opacity=".1" class="colorf4f2f3 svgShape"/><path fill="#ffd6aa" d="M734.95 587.55s10.57 80.64 10.97 87.47c.4 6.83-28.9 58.47-106.11-23.19l37.59-94.22 57.55 29.94z" class="colorffafaa svgShape"/><path fill="#ddb58a" d="m734.95 587.55-57.55-29.94-2.34 5.86c-.45 13.06-.61 26.23 1.26 39.19 1.69 11.74 5.01 23.47 11.81 33.33 3.35 4.85 7.6 9.14 12.43 12.51 5.5 3.84 11.75 6.3 16.85 10.76 7.71 6.75 10.71 16.73 5.34 25.91-2.94 5.03-7.38 8.94-12.43 12.01 25.28 2.29 35.83-18.04 35.59-22.15-.39-6.84-10.96-87.48-10.96-87.48z" enable-background="new" opacity=".25" class="colordd8a8a svgShape"/><path fill="#ddb58a" d="M684.54 595.74c9.48 18.77 22.73 37.45 41.17 48.25 5.54 3.25 11.41 5.58 17.43 7.29-3.25-26.03-8.2-63.73-8.2-63.73l-57.55-29.94-2.1 5.26c-.04 11.48 4.13 22.73 9.25 32.87z" enable-background="new" opacity=".25" class="colordd8a8a svgShape"/><path fill="#131444" d="M771.89 458.96c-24.54 13.58-16.42 41.12 32.1 87.44 23.72-25.62 32.09-78.77 16.43-93.74-15.67-14.97-27.16-5.44-48.53 6.3z" class="color131e44 svgShape"/><path fill="#ffd6aa" d="M820.29 543.88c-.29 1.94-.71 3.82-1.12 5.7 0 0 0 .06-.06.18-1.65 7.47-3.65 14.58-5.94 20.99-.18.47-.35.94-.53 1.35-20.22 53.55-91.11 71.19-128.97 24.16a2.87 2.87 0 0 1-.41-.47c-10.23-12.93-15.58-26.1-18.16-40.91-3.12-.29-6.41-1.47-9.82-3.82a54.093 54.093 0 0 1-22.04-34.86c-2.94-17.28 9.76-33.1 27.81-29.51 1.12.24 2.17.53 3.23.94.18-4.41.41-8.88.65-13.64.41-11.99 3.64-23.69 9.4-34.27 20.4-37.56 67.42-51.44 104.99-31.04 43.96 23.69 50.31 86.47 40.97 135.2z" class="colorffafaa svgShape"/><ellipse cx="706.78" cy="546.67" fill="#ddb58a" enable-background="new" opacity=".25" rx="14.67" ry="19.64" transform="rotate(-75.482 706.74 546.656)" class="colordd8a8a svgShape"/><path fill="#ddb58a" d="M820.29 543.88c-.29 1.94-.71 3.82-1.12 5.7 0 0 0 .06-.06.18-1.65 7.47-3.65 14.58-5.94 20.99-.18.47-.35.94-.53 1.35-9.93-2.94-16.34-11.23-14.34-18.81 1.94-7.7 11.7-11.82 21.99-9.41zM811.49 521.76a.76.76 0 0 0-.2-.24c-.11.03-.23.06-.3.1-.27.15-.56.26-.82.41-1.43.8-2.75 1.69-4.3 2.27-4.22 1.59-8.57.84-12.79-.34-2.15-.61-4.13-1.36-6.03-2.56-.8-.5-1.56-1.04-2.33-1.56 4.66 17.19 29.87 14.66 28.96 9.03-.41-2.47-.95-4.94-2.19-7.11zM729.68 520.45c-3.31-.35-6.58-1.55-9.57-2.79-2.46-1.02-4.5-2.48-6.69-3.78-1.06 1.7-.6 7.52.36 9.21 8.2 14.37 24.07 7.38 24.96-3.2-2.96.58-5.97.89-9.06.56z" enable-background="new" opacity=".25" class="colordd8a8a svgShape"/><path fill="#131444" d="M779.96 501.35c.18 1.75 1.95 2.82 3.55 3.55a69.712 69.712 0 0 0 26.02 6.25c1.59.07 3.23.07 4.7-.54 2.53-1.05 4.1-4.01 3.55-6.69-.45-2.2-2.12-3.99-4.06-5.1-1.94-1.11-4.16-1.65-6.34-2.15-8.13-1.88-17.14-3.43-24.45.61-1.56.86-3.15 2.3-2.97 4.07zM713.62 503.09c5.16.67 12.08-1.36 15.85-1.05 3.33.27 9.98 2.36 10.83-2.56-.17-3.28-2.8-5.93-5.68-7.15-2.3-.98-4.83-1.27-7.32-1.54-5.63-.61-14.53-1.8-18.75 3.07-1.03 1.18-1.59 2.85-1.18 4.36.85 3.19 3.25 4.48 6.25 4.87zM714.9 511.57s8.9 13.81 22.8 3.41c0 0 2.03-2.1 3.62.2 1.58 2.31-4.22 10.45-14.67 7.94-10.45-2.51-15.11-7.51-15.45-10.35-.34-2.84 3.7-1.2 3.7-1.2zM786.58 515.62s8.9 13.81 22.8 3.41c0 0 2.03-2.1 3.62.2 1.58 2.31-4.22 10.45-14.67 7.94-10.45-2.51-15.11-7.51-15.45-10.35-.34-2.84 3.7-1.2 3.7-1.2zM663.37 508.04c-.25-.64-14.59-15.88-16.29-10.61-1.7 5.27 11.48 15.91 11.48 15.91s-16.92 11.27-10.08 12.29c6.84 1.03 19.49-5.98 14.89-17.59z" class="color131e44 svgShape"/><path fill="#ddb58a" d="M699.71 610.93s29.51 18.6 63.19 8.74c0 0-37.9 17.85-63.19-8.74z" enable-background="new" class="colordd8a8a svgShape"/><path fill="#131444" d="M830.42 402.45c-12.12-55.86-49.87-70.19-81.3-46.45-23.05-25.49-71.7-24.93-84.49 27.87-49.62 9.67-21.44 49.78-19.89 51.53-13.53 16.35 7.66 56.82 32.7 80.48 38.22-41.67 41.79-60.14 26.77-72.03.64-.2 1.26-.42 1.69-.71 8.51-5.89 60.85 33.42 101.17 16.05 45.15 16.16 68.83-42.89 23.35-56.74z" class="color131e44 svgShape"/><path fill="#53d86a" d="M679.61 431.9c-.56-3.31 32.92 27.08 1.01 57.92l-.13-21.3-10.51 14.31-.9-16.62-12.76 6.04s2.86-9.5 1.3-14.57l-8.09 3.87 9.31-19.09 6.64 9.41 5.41-10.12 5.25 14.49c.01-.01 5.48-12.44 3.47-24.34zM829.61 441.74s12.77-9.21 6.95-21.91l-5.95 7.67s-1.28-18.36-10.62-25.7c0 0 1.96 18.04-3.56 21.99l-5.3-20.49-12.59 16.01s9.29-35.1-10.17-45.38c0 0 10.16 30.79-2.51 35.59-12.67 4.8-18.59-18.42-18.59-18.42s-12.76 23.47-5.42 29.41c7.33 5.94-29.41 9.17-29.41 9.17l28.72 6.09s-.62 12.21-7.48 15.45c0 0 31.47-10.15 31.93-15.57l5.17 11.66 10.4-9.61 8.98 8.01 11.11-10.95c.01 0 11.22-.09 8.34 6.98z" opacity=".1" class="colorf4f2f3 svgShape"/><path fill="#131444" d="M775.56 519.47c2.66.05 11.11 25.3 2.26 27.13-8.85 1.83-11.67-4.85-11.67-4.85s8.59-.56 9.42-.45c.84.11-3.1-21.89-.01-21.83z" class="color131e44 svgShape"/><path fill="#ffffff" d="M754.92 572.46c-5.02-2.78-28.25-19.58-24.71-3.13 3.53 16.44 14 29.88 32.51 23.33 18.51-6.55 22.5-15.86 12.79-16.61s-16.02-1.06-20.59-3.59z" class="colorfff svgShape"/><path fill="#53d86a" d="M413.74 1363.94c71.72 38.48 35.72-120.99-19.13-175.84s-47.02 140.35 19.13 175.84z" opacity=".1" class="colorf4f2f3 svgShape"/><g fill="#000000" class="color000 svgShape"><linearGradient id="j" x1="1370.787" x2="1877.337" y1="1791.615" y2="3535.684" gradientTransform="matrix(1 0 .2044 1 -307.3 0)" gradientUnits="userSpaceOnUse"><stop offset=".02" stop-color="#d1d1ee" class="stopColord1e1ee svgShape"/><stop offset=".363" stop-color="#5093e2" class="stopColor50a7e2 svgShape"/><stop offset="1" stop-color="#181a9b" class="stopColor182b9b svgShape"/></linearGradient><path fill="url(#j)" d="M1944.43 2667.16h-349.76l-131.49-643.2h349.76z"/><linearGradient id="k" x1="1370.787" x2="1877.338" y1="1791.615" y2="3535.685" gradientTransform="matrix(1 0 .2044 1 -307.3 0)" gradientUnits="userSpaceOnUse"><stop offset=".008" stop-color="#181a9b" class="stopColor182b9b svgShape"/><stop offset="1" stop-color="#03042b" class="stopColor21032b svgShape"/></linearGradient><path fill="url(#k)" d="M1812.94 2023.95h-349.76l81.77 400.02c43.32-7.72 87.25-12.67 131.22-12.09 47.74.63 101.04 7.54 139.91 37.75 11.69 9.09 34.42 26.54 22.8 43.55-9.65 14.13-33.26 17.16-48.64 19.51-10.51 1.6-21.1 2.61-31.7 3.39-15.47 1.14-30.89 3.27-46.34 4.78-34.49 3.37-69.07 5.85-103.7 7.1-14.01.51-28.06.75-42.12.81l28.29 138.38h349.76l-131.49-643.2z" opacity=".2"/><path fill="#ddb58a" d="M958.24 918.49s-19.49-35.33-30.14-29.48c-10.65 5.84 13.03 52.26 19.14 58.6 6.11 6.33 8.75-18.97 11-29.12z" class="colordd8a8a svgShape"/><linearGradient id="l" x1="1290.107" x2="2605.759" y1="214.79" y2="4744.623" gradientUnits="userSpaceOnUse"><stop offset=".02" stop-color="#d1d1ee" class="stopColord1e1ee svgShape"/><stop offset=".363" stop-color="#5093e2" class="stopColor50a7e2 svgShape"/><stop offset="1" stop-color="#181a9b" class="stopColor182b9b svgShape"/></linearGradient><path fill="url(#l)" d="m751.41 2381.91-5.76-1.72c-57.31-17.03-93.26-71.34-87.41-132.08l100.15-1037.28h-.17l4.14-45.47 11.42-113.85c6.97-72.49 69.43-129.41 142.18-129.41l1717.37-.15c36.34 0 69.38 14.34 93.03 40.38 23.77 26.16 34.94 60.64 31.43 97.1l-4.27 42.46-2.49 27.53-108.77 1126.46c-5.68 59.14-48.85 109.24-107.41 124.65l-5.18 1.36H751.41z"/><linearGradient id="m" x1="1308.709" x2="2565.722" y1="278.977" y2="4606.913" gradientUnits="userSpaceOnUse"><stop offset=".02" stop-color="#d1d1ee" class="stopColord1e1ee svgShape"/><stop offset=".363" stop-color="#5093e2" class="stopColor50a7e2 svgShape"/><stop offset="1" stop-color="#181a9b" class="stopColor182b9b svgShape"/></linearGradient><path fill="url(#m)" d="m2633.32 963.3-1717.36.15c-50.91 0-96.15 41.28-101.05 92.18l-11.42 113.85h.43l-104.53 1082.6c-4.04 42.01 20.67 77.38 58.03 88.49h1766.89c40.25-10.59 72.69-46.07 76.79-88.65l108.77-1126.46h-.26l7.02-69.98c4.89-50.91-32.4-92.18-83.31-92.18z"/><linearGradient id="n" x1="1554.266" x2="2054.666" y1="532.832" y2="2255.726" gradientTransform="matrix(1 0 -.104 1 154.952 0)" gradientUnits="userSpaceOnUse"><stop offset=".02" stop-color="#d1d1ee" class="stopColord1e1ee svgShape"/><stop offset=".363" stop-color="#5093e2" class="stopColor50a7e2 svgShape"/><stop offset="1" stop-color="#181a9b" class="stopColor182b9b svgShape"/></linearGradient><path fill="url(#n)" d="m2705.18 1169.49 11.43-114.01c4.9-50.91-32.39-92.17-83.3-92.17l-1717.36.15c-50.91 0-96.15 41.28-101.05 92.18l-11.42 113.85h1901.7z"/><path fill="#d1d1ee" d="M808.17 1125.45 699.39 2252.08c-4.04 42.01 20.68 77.38 58.03 88.49h1766.89c40.25-10.59 72.69-46.07 76.79-88.65l108.77-1126.46H808.17z" class="colord1e1ee svgShape"/><path fill="#abacdb" d="M1708.23 1295.4v-41.05c0-5.05 4.09-9.14 9.14-9.14h90.47l19.9-24.43c2.55-3.13 6.38-4.95 10.42-4.95h65.24c7.97 0 14.43 6.46 14.43 14.43v168.28h-99.09l-110.51-103.14z" class="colorabcddb svgShape"/><linearGradient id="o" x1="1650.162" x2="1984.084" y1="1009.237" y2="1524.798" gradientUnits="userSpaceOnUse"><stop offset=".02" stop-color="#d1d1ee" class="stopColord1e1ee svgShape"/><stop offset=".363" stop-color="#5093e2" class="stopColor50a7e2 svgShape"/><stop offset="1" stop-color="#181a9b" class="stopColor182b9b svgShape"/></linearGradient><path fill="url(#o)" d="M1708.23 1295.4v-41.05c0-5.05 4.09-9.14 9.14-9.14h90.47l19.9-24.43c2.55-3.13 6.38-4.95 10.42-4.95h65.24c7.97 0 14.43 6.46 14.43 14.43v168.28h-99.09l-110.51-103.14z"/><path fill="#d1d1ee" d="M1908.23 1380.62v-116.73h-223.34v48.24z" class="colord1e1ee svgShape"/><linearGradient id="p" x1="1626.68" x2="2071.909" y1="1108.336" y2="1732.146" gradientUnits="userSpaceOnUse"><stop offset=".02" stop-color="#d1d1ee" class="stopColord1e1ee svgShape"/><stop offset=".363" stop-color="#5093e2" class="stopColor50a7e2 svgShape"/><stop offset="1" stop-color="#181a9b" class="stopColor182b9b svgShape"/></linearGradient><path fill="url(#p)" d="m1709.28 1400.24-36.69-107.4c-1.98-5.8 2.33-11.84 8.47-11.84h190.46c3.81 0 7.2 2.41 8.45 6.01l37.36 107.4c2.02 5.81-2.29 11.89-8.45 11.89h-191.13c-3.83 0-7.24-2.44-8.47-6.06z"/><ellipse cx="1131.28" cy="1579.27" fill="#131468" opacity=".1" rx="256.08" ry="226.05" transform="rotate(-41.436 1131.382 1579.293)" class="color132368 svgShape"/><path fill="#ffffff" d="M1072.41 1806.17c-70.71 0-134.01-27.57-178.26-77.62-44.69-50.56-64.44-117.7-55.62-189.07 17.86-144.44 149.96-261.95 294.48-261.95 70.71 0 134.02 27.57 178.27 77.62 44.69 50.56 64.44 117.7 55.61 189.07-17.86 144.44-149.96 261.95-294.48 261.95z" class="colorfff svgShape"/><linearGradient id="q" x1="1312.662" x2="835.625" y1="1081.56" y2="2127.373" gradientUnits="userSpaceOnUse"><stop offset=".02" stop-color="#d1d1ee" class="stopColord1e1ee svgShape"/><stop offset=".363" stop-color="#5093e2" class="stopColor50a7e2 svgShape"/><stop offset="1" stop-color="#181a9b" class="stopColor182b9b svgShape"/></linearGradient><path fill="url(#q)" d="M1347.73 1541.84c-16.73 135.32-140 245.02-275.32 245.02s-231.46-109.7-214.72-245.02c16.73-135.32 140-245.02 275.32-245.02s231.45 109.7 214.72 245.02z"/><ellipse cx="1102.71" cy="1541.84" fill="#d1d1ee" rx="260.64" ry="230.34" transform="rotate(-43.229 1102.807 1541.929)" class="colord1e1ee svgShape"/><path fill="#ffffff" d="m1060.99 1515.18 5.17-41.78c3.38-27.36 28.39-49.61 55.74-49.61 27.36 0 46.86 22.25 43.48 49.61l-5.17 41.78h33.16l5.17-41.78c5.64-45.64-26.89-82.77-72.54-82.77-45.63 0-87.36 37.13-93 82.77l-5.17 41.78h33.16z" class="colorfff svgShape"/><path fill="#ffffff" d="M1211.29 1492.73h-63.4c-.44 0-.87-.09-1.2-.22h-129.34c-10.61 0-20.27 8.64-21.58 19.25l-17.47 141.26c-1.3 10.52 6.22 19.16 16.83 19.16h191.42c10.61 0 20.27-8.64 21.57-19.16l17.47-141.26c1.21-9.73-5.07-17.8-14.3-19.03zm-93.96 134.03h-41.74s11.1-33.76 17.76-52.13c-6.67-3.46-10.56-10.7-9.52-19.07 1.46-11.84 12.25-21.39 24.08-21.39 11.84 0 20.26 9.56 18.79 21.39-1.03 8.37-6.8 15.61-14.28 19.07 2.12 18.37 4.91 52.13 4.91 52.13z" class="colorfff svgShape"/><path fill="#131468" d="M1347.75 1541.84c-16.74 135.37-140.07 245.03-275.33 245.03-74.91 0-137.87-33.61-176.15-86.67 1.65.1 3.42.1 5.09.1 187.91 0 359.08-152.33 382.31-340.24.21-1.66.42-3.43.53-5.1 47.51 44.85 72.82 111.97 63.55 186.88z" opacity=".1" class="color132368 svgShape"/><path fill="#d1d1ee" d="M977.57 1050.23c-1.57 15.09-15.07 27.32-30.16 27.32s-26.04-12.23-24.48-27.32c1.57-15.09 15.07-27.32 30.16-27.32s26.05 12.24 24.48 27.32zM1076.05 1050.23c-1.57 15.09-15.07 27.32-30.16 27.32s-26.04-12.23-24.48-27.32c1.57-15.09 15.07-27.32 30.16-27.32 15.09.01 26.05 12.24 24.48 27.32zM1174.53 1050.23c-1.57 15.09-15.07 27.32-30.16 27.32s-26.04-12.23-24.48-27.32c1.57-15.09 15.07-27.32 30.16-27.32 15.09.01 26.04 12.24 24.48 27.32z" class="colord1e1ee svgShape"/><linearGradient id="r" x1="1632.239" x2="1895.669" y1="2381.637" y2="3288.635" gradientUnits="userSpaceOnUse"><stop offset=".02" stop-color="#d1d1ee" class="stopColord1e1ee svgShape"/><stop offset=".363" stop-color="#5093e2" class="stopColor50a7e2 svgShape"/><stop offset="1" stop-color="#181a9b" class="stopColor182b9b svgShape"/></linearGradient><path fill="url(#r)" d="M2087.36 2582.01h-720.27c-68.33 0-123.73 61.58-123.73 137.54h967.72c0-75.96-55.39-137.54-123.72-137.54z"/><linearGradient id="s" x1="1666.195" x2="1929.625" y1="2371.775" y2="3278.773" gradientUnits="userSpaceOnUse"><stop offset=".008" stop-color="#181a9b" class="stopColor182b9b svgShape"/><stop offset="1" stop-color="#03042b" class="stopColor21032b svgShape"/></linearGradient><path fill="url(#s)" d="M2053.85 2620.89c-13.78 26.51-48.44 31.36-74.97 35.31-78.69 11.73-158.38 6.64-237.59 5.13-38.61-.74-77.18-.93-115.79-2.12-40.09-1.24-80.26-2.44-120.35-.48-37.44 1.83-75.78 5.83-111.73 16.96-28.66 8.87-52.94 25.85-76.43 43.86h894.08c0-75.96-55.39-137.54-123.73-137.54h-29.42c3.14 13.03 2.11 27-4.07 38.88z" opacity=".1"/><linearGradient id="t" x1="873.527" x2="2608.822" y1="886.182" y2="3320.648" gradientTransform="matrix(1 0 -.0979 1 141.854 0)" gradientUnits="userSpaceOnUse"><stop offset=".02" stop-color="#d1d1ee" class="stopColord1e1ee svgShape"/><stop offset=".363" stop-color="#5093e2" class="stopColor50a7e2 svgShape"/><stop offset="1" stop-color="#181a9b" class="stopColor182b9b svgShape"/></linearGradient><path fill="url(#t)" fill-rule="evenodd" d="M1393.23 2304.98h18.68l109.41-1118.14h-18.68z" clip-rule="evenodd" opacity=".2"/><path fill="#167ffc" d="M1041.11 2109.4H802.43l5.39-51.14h238.68zM1195.69 2109.4h-128.44l5.39-51.14h128.43zM1147.94 2187.83H794.17l5.39-51.15h353.77zM1314.72 2187.83h-128.03l5.39-51.15h128.03zM2039.48 1554.93h-334.89l7.56-71.76h334.89zM2256.36 1554.93h-180.2l7.56-71.76h180.2zM2189.37 1664.97H1693l7.56-71.76h496.37zM2423.38 1664.97h-179.64l7.56-71.76h179.64zM2017.46 1816.36h-334.89l7.56-71.76h334.89zM2234.35 1816.36h-180.21l7.56-71.76h180.21zM2167.36 1926.4h-496.38l7.56-71.76h496.38zM2401.37 1926.4h-179.65l7.56-71.76h179.64zM1995.45 2077.79h-334.89l7.56-71.76h334.89zM2212.33 2077.79h-180.2l7.56-71.76h180.2zM2145.34 2187.83h-496.37l7.56-71.77h496.37zM2379.35 2187.83h-179.64l7.56-71.77h179.64z" opacity=".5" class="color50a7e2 svgShape"/><path fill="#131468" d="M2150.41 1849.76H1149.2c-77.02 0-137.08-66.71-129.01-143.31 6.95-66.02 62.62-116.13 129.01-116.13h1001.21c77.02 0 137.08 66.71 129.01 143.31-6.96 66.01-62.63 116.13-129.01 116.13z" opacity=".1" class="color132368 svgShape"/><path fill="#167ffc" d="M2140.2 1800.14H1096.28c-80.3 0-142.92-69.56-134.51-149.42 7.25-68.83 65.3-121.09 134.51-121.09H2140.2c80.3 0 142.92 69.56 134.51 149.42-7.25 68.84-65.3 121.09-134.51 121.09z" class="color50a7e2 svgShape"/><path fill="#ffffff" d="m1351.13 1607.53-17.33 84.31h33.28l-4.69 22.79h-63.05l22.02-107.1h29.77zM1425.08 1715.7c-30.38 0-50.31-22.79-43.68-55 6.62-32.21 35.89-54.84 66.27-54.84 30.54 0 50.19 22.63 43.57 54.84-6.63 32.21-35.77 55-66.16 55zm5.68-27.65c15.35 0 26.83-10.79 30.23-27.35 3.47-16.86-3.61-27.5-18.96-27.5-15.49 0-26.79 10.64-30.26 27.5-3.39 16.56 3.5 27.35 18.99 27.35zM1565.45 1606.48c26.89 0 42.85 15.49 43.17 39.8h-32.06c-2.14-8.05-8.37-12.46-17.19-12.46-13.67 0-24.82 10.64-28.19 27.04-3.4 16.56 3.37 27.19 17.04 27.19 8.82 0 16.86-4.4 22.31-12.46h32.06c-10.32 24.31-32.64 39.81-59.53 39.81-32.21 0-48.7-22.49-42.11-54.54 6.56-31.91 32.29-54.38 64.5-54.38zM1648.14 1667.69l-9.65 46.95h-29.77l22.02-107.1h29.77l-9.49 46.18 42.77-46.18h34.33l-50.02 51.96 29.98 55.14h-36.01l-23.93-46.95zM1804.66 1631.38h-38.74l-3.59 17.47h34.18l-4.65 22.64h-34.18l-3.97 19.29h38.74l-4.9 23.85h-68.51l22.02-107.1h68.51l-4.91 23.85zM1911.62 1661.01c-6.37 30.99-32.75 53.63-66.93 53.63h-42.38l22.02-107.1h42.38c34.18-.01 51.37 22.02 44.91 53.47zm-63.81 27.35c17.17 0 29.96-9.72 33.58-27.35 3.65-17.78-5.1-27.65-22.27-27.65h-10.33l-11.31 55h10.33zM2080 1654.97l3.16-25.52c2.07-16.71 17.34-30.31 34.06-30.31 16.72 0 28.63 13.6 26.56 30.31l-3.16 25.52h20.26l3.16-25.52c3.45-27.88-16.43-50.56-44.31-50.56-27.88 0-53.37 22.68-56.82 50.56l-3.16 25.52H2080z" class="colorfff svgShape"/><path fill="#ffffff" d="M2171.82 1641.26h-38.73c-.27 0-.53-.05-.73-.13h-79.01c-6.48 0-12.38 5.28-13.19 11.76l-10.67 86.3c-.79 6.43 3.8 11.7 10.28 11.7h116.94c6.48 0 12.38-5.28 13.18-11.7l10.67-86.3c.73-5.95-3.1-10.88-8.74-11.63zm-57.4 81.88h-25.5s6.78-20.62 10.85-31.85c-4.08-2.12-6.45-6.54-5.82-11.65.89-7.23 7.48-13.07 14.71-13.07s12.38 5.84 11.48 13.07c-.63 5.12-4.15 9.54-8.73 11.65 1.3 11.23 3.01 31.85 3.01 31.85z" class="colorfff svgShape"/><path fill="#ffffff" d="m1667.73 1529.61-173.33 270.55h-247.64l173.61-270.55zM1932.3 1529.61l-173.4 270.55h-179.65l173.61-270.55z" opacity=".2" class="colorfff svgShape"/></g><path fill="#d1d1ee" fill-rule="evenodd" d="M1339.39 407.02h245.89v328.61h-245.89z" clip-rule="evenodd" transform="rotate(-10.887 1462.126 571.395)" class="colord1e1ee svgShape"/><g opacity=".5" fill="#000000" class="color000 svgShape"><path fill="#167ffc" fill-rule="evenodd" d="M1342.28 443.12h86.86V459h-86.86z" clip-rule="evenodd" transform="rotate(-10.887 1385.556 451.143)" class="color50a7e2 svgShape"/><path fill="#167ffc" fill-rule="evenodd" d="M1348.65 457.01h191.95v44.29h-191.95z" clip-rule="evenodd" transform="rotate(-10.887 1444.427 479.239)" class="color50a7e2 svgShape"/><path fill="#167ffc" fill-rule="evenodd" d="M1386.54 642.59h191.95v67.32h-191.95z" clip-rule="evenodd" transform="rotate(-10.887 1482.296 676.319)" class="color50a7e2 svgShape"/></g><path fill="#167ffc" d="M1510.58 560.91c5.01 27.16-12.95 53.25-40.12 58.26-27.16 5.01-53.25-12.95-58.26-40.12-5.01-27.16 12.95-53.25 40.12-58.26 27.16-5 53.25 12.96 58.26 40.12z" class="color50a7e2 svgShape"/><path fill="#d1d1ee" d="m1451.36 566.3-1.55-8.39c-1.01-5.49 2.63-10.78 8.12-11.8 5.49-1.01 10.78 2.63 11.8 8.12l1.55 8.39 6.66-1.23-1.55-8.39c-1.69-9.16-10.52-15.24-19.68-13.55-9.16 1.69-15.24 10.52-13.55 19.68l1.55 8.39 6.65-1.22z" class="colord1e1ee svgShape"/><path fill="#d1d1ee" d="m1480.15 556.33-12.73 2.35c-.09.02-.18.02-.25 0l-25.96 4.79a3.918 3.918 0 0 0-3.14 4.57l5.23 28.36a3.926 3.926 0 0 0 4.56 3.14l38.43-7.09a3.923 3.923 0 0 0 3.15-4.56l-5.23-28.36a3.941 3.941 0 0 0-4.06-3.2zm-10.57 29.77-8.38 1.54s.14-7.03.34-10.88a4.317 4.317 0 0 1-3.09-3.39 4.372 4.372 0 0 1 3.51-5.09 4.368 4.368 0 0 1 5.1 3.5c.31 1.68-.4 3.31-1.69 4.27 1.56 3.53 4.21 10.05 4.21 10.05z" class="colord1e1ee svgShape"/><path fill="#131468" d="M1510.58 560.91c5.01 27.17-12.97 53.25-40.12 58.26-15.04 2.77-29.75-1.49-40.72-10.48.34-.04.69-.11 1.03-.17 37.72-6.96 62.66-43.17 55.71-80.9-.06-.33-.13-.69-.21-1.02 12.31 7.05 21.54 19.27 24.31 34.31z" opacity=".1" class="color132368 svgShape"/><path fill="#131468" fill-rule="evenodd" d="m2408.11 840.03-97.92-42.85-72.57 275.51 182.22 62.83z" clip-rule="evenodd" opacity=".1" class="color132368 svgShape"/><path fill="#d1d1ee" fill-rule="evenodd" d="M2282.83 816.82h230.03v307.41h-230.03z" clip-rule="evenodd" transform="rotate(20.381 2397.95 970.423)" class="colord1e1ee svgShape"/><g opacity=".5" fill="#000000" class="color000 svgShape"><path fill="#167ffc" fill-rule="evenodd" d="M2387.52 796.52h14.86v81.26h-14.86z" clip-rule="evenodd" transform="rotate(-69.623 2394.974 837.185)" class="color50a7e2 svgShape"/><path fill="#167ffc" fill-rule="evenodd" d="M2338.63 867.5h179.57v41.43h-179.57z" clip-rule="evenodd" transform="rotate(20.381 2428.521 888.115)" class="color50a7e2 svgShape"/><path fill="#167ffc" fill-rule="evenodd" d="M2273.25 1032.73h179.57v62.98h-179.57z" clip-rule="evenodd" transform="rotate(20.381 2363.156 1064.134)" class="color50a7e2 svgShape"/></g><path fill="#167ffc" d="M2441.47 985.61c-9.18 24.15-36.21 36.29-60.36 27.11-24.16-9.18-36.29-36.21-27.11-60.36s36.21-36.29 60.36-27.11 36.29 36.2 27.11 60.36z" class="color50a7e2 svgShape"/><path fill="#d1d1ee" d="m2391.51 961.17 2.83-7.46c1.86-4.88 7.34-7.35 12.22-5.49 4.88 1.86 7.35 7.34 5.49 12.22l-2.83 7.46 5.92 2.25 2.83-7.46c3.1-8.15-1.01-17.29-9.16-20.39-8.15-3.1-17.29 1.01-20.39 9.16l-2.83 7.46 5.92 2.25z" class="colord1e1ee svgShape"/><path fill="#d1d1ee" d="m2419.36 967.17-11.32-4.3a.756.756 0 0 1-.2-.12l-23.09-8.78c-1.89-.72-4.01.24-4.73 2.13l-9.58 25.22c-.71 1.88.23 4 2.13 4.72l34.17 12.99c1.89.72 4.01-.24 4.73-2.12l9.58-25.22c.66-1.73-.1-3.66-1.69-4.52zm-22.9 18.68-7.45-2.83s3.53-5.56 5.56-8.54a4.06 4.06 0 0 1-.83-4.21c.8-2.11 3.17-3.17 5.28-2.36a4.09 4.09 0 0 1 2.38 5.27 4.048 4.048 0 0 1-3.42 2.59c-.48 3.58-1.52 10.08-1.52 10.08z" class="colord1e1ee svgShape"/><path fill="#131468" d="M2441.47 985.61c-9.18 24.16-36.22 36.29-60.36 27.11-13.37-5.08-23.07-15.63-27.48-28.15.29.13.61.25.9.36 33.54 12.75 71.07-4.11 83.82-37.65.11-.3.23-.61.33-.92 6.43 11.62 7.88 25.88 2.79 39.25z" opacity=".1" class="color132368 svgShape"/><g fill="#000000" class="color000 svgShape"><path fill="#d1893d" d="m2331.28 608.84-201.22-348.51c-8-13.85-27.98-13.85-35.98 0l-201.22 348.51c-7.99 13.85 2 31.16 17.99 31.16h402.43c16.01 0 26-17.31 18-31.16z" class="colord1c63d svgShape"/><path fill="#1d1f87" d="M2113.1 570.74c-17.16 0-28.2-10.79-28.2-24.76 0-13.98 11.03-25.01 28.2-25.01 16.92 0 27.95 11.03 27.95 25.01 0 13.97-11.03 24.76-27.95 24.76zm-26.24-183.64h52.22l-5.64 116.95h-40.95l-5.63-116.95z" class="color871d5c svgShape"/><path fill="#ffffff" d="M2203.75 393.97c-43.99 24.05-88 48.07-131.87 72.35-43.86 24.27-87.57 48.79-130.98 73.85-4.23 2.44-8.42 4.96-12.65 7.41l-35.37 61.27c-5.18 8.98-2.78 19.39 3.9 25.62 20.76-8.86 41.61-17.5 62.58-25.82 49.59-19.68 99.73-37.94 150.25-55.08 50.48-17.13 101.33-33.14 152.42-48.33 2.69-.8 5.38-1.57 8.06-2.36l-63.71-110.34c-.87.47-1.75.95-2.63 1.43z" enable-background="new" opacity=".25" class="colorfff svgShape"/></g><linearGradient id="u" x1="1056.827" x2="643.331" y1="1003.5" y2="1310.735" gradientTransform="rotate(5.846 679.584 972.75)" gradientUnits="userSpaceOnUse"><stop offset=".02" stop-color="#d1d1ee" class="stopColord1e1ee svgShape"/><stop offset=".363" stop-color="#5093e2" class="stopColor50a7e2 svgShape"/><stop offset="1" stop-color="#181a9b" class="stopColor182b9b svgShape"/></linearGradient><path fill="url(#u)" d="m813.78 1159.29-13.64 16.37 5.05 4.21-36.66 44.02 24.67 20.55 99.88-119.92-1.58-23.19-23.09 2.64-8.91 10.7-5.06-4.21-8.34 10.03 5.05 4.2-4.6 5.52-5.05-4.21-9.71 11.66 3.47 6.11-3.4 4.08-8.77 10.53-4.26 5.12z"/><path fill="#595bd4" d="m818.82 1163.51 4.27-5.13 8.77-10.52 3.39-4.08-3.46-6.11 9.72-11.67 5.05 4.21 4.59-5.51-5.05-4.21 8.35-10.02 5.05 4.2 8.9-10.69 23.1-2.65.04.65-87.51 105.07 6.69 16.35-17.53 21.05-24.66-20.55 36.67-44.03-5.05-4.21 13.62-16.36z" opacity=".2" class="color182b9b svgShape"/><linearGradient id="v" x1="1079.101" x2="665.589" y1="1033.478" y2="1340.725" gradientTransform="rotate(5.846 679.584 972.75)" gradientUnits="userSpaceOnUse"><stop offset=".02" stop-color="#d1d1ee" class="stopColord1e1ee svgShape"/><stop offset=".363" stop-color="#5093e2" class="stopColor50a7e2 svgShape"/><stop offset="1" stop-color="#181a9b" class="stopColor182b9b svgShape"/></linearGradient><path fill="url(#v)" d="m699.34 1255.38 21.71 43.98a7.85 7.85 0 0 0 4.88 4.06l47.16 13.39c2.98.84 6.19-.14 8.17-2.52l33.82-40.6c1.99-2.38 2.37-5.71 1-8.5l-21.69-43.96a7.881 7.881 0 0 0-4.88-4.07l-47.18-13.4c-2.98-.84-6.19.14-8.17 2.52l-33.82 40.6a7.872 7.872 0 0 0-1 8.5zm50.47 14.41c5.68 4.73 6.45 13.18 1.72 18.87-4.75 5.7-13.2 6.47-18.88 1.74-5.7-4.75-6.47-13.2-1.72-18.9 4.73-5.69 13.18-6.46 18.88-1.71z"/><path fill="#595bd4" d="m699.34 1255.38 1.72 3.47c29.22-23.42 71.82-23.86 101.71 1.03 4.82 4.02 9.05 8.48 12.68 13.27 1.65-2.34 1.9-5.39.63-7.97l-21.69-43.96a7.881 7.881 0 0 0-4.88-4.07l-47.18-13.4c-2.98-.84-6.19.14-8.17 2.52l-33.82 40.6a7.891 7.891 0 0 0-1 8.51z" opacity=".1" class="color182b9b svgShape"/><path fill="#ffd6aa" d="M835.39 1264.93c-3.55 6.97-16.76 3.42-16.76 3.42s3.53 5.21-.86 13.43c-2.96 5.61-10.88 5.76-19.48 4.44-14.55-2.16-61.9-16.98-78.44-42.54-3.7-5.72-40.16-15.19-41.35-21.02-5.98-29.34 12.77-62.61 17.3-60.82 7.23 2.86 34.31 15.92 56.44 6.83 28.14-11.57 51.56-46.38 51.56-46.38s9.59-5.88 13.85 5.59c5.56 15.05-22.38 45.44-16.28 45.05 17.49-1.11 49.97 22.95 52.94 37.28 1.98 9.54-8.34 12.07-8.34 12.07s5.85 10.84 2.85 16.88c-4.29 8.85-14.82 8.08-14.82 8.08s5.98 8.83 1.39 17.69z" class="colorffafaa svgShape"/><path fill="#ddb58a" d="M845.63 1221.4s-5.07-10.97-14.85-13.71c0 0 9.72 12.8 14.85 13.71zM834.23 1247.71s-5.07-10.97-14.85-13.71c0 0 9.72 12.8 14.85 13.71zM819.32 1268.63s-5.07-10.97-14.85-13.71c-.01 0 9.71 12.8 14.85 13.71z" opacity=".5" class="colordd8a8a svgShape"/><path fill="#ffffff" d="m798.48 1132.79 4.41 3.26s6.54-9.97 4.53-13.08-8.94 9.82-8.94 9.82z" opacity=".5" class="colorfff svgShape"/><path fill="#ffd6aa" d="M722.17 1172.2s-134.04-71-247.13-106.63c27.46-59.76 49.54-125.65 49.54-125.65l-136.97-60.7s-87.28 161.84-66.54 228.83c26.94 87.05 350.31 113.6 365.85 113.87 85.67 1.27 35.25-49.72 35.25-49.72z" class="colorffafaa svgShape"/><path fill="#ddb58a" d="M391.86 965.84c16.05 3.44 33.3 5.04 49.72 4.67 11.86-.27 28.78-5.43 38.81 3.35 5.8 5.08 6.48 13.7 6.37 20.91-.15 10.24-2.8 20.25-6.4 29.78-3.15 8.36-6.52 15.82-13.45 21.7-5.43 4.61-11.53 8.36-16.01 13.86 8.29 3.12 18.18 1.36 27.11-1.06 26.07-57.93 46.58-119.13 46.58-119.13l-136.97-60.7s-16.25 30.15-33.06 69.78c10.43 8.86 23.75 13.93 37.3 16.84zM676.65 1217.65c-8.53-2.93-17.49-4.27-26.42-5.35-8.63-1.05-17.34-1.77-25.84-3.66-8.71-1.94-17.38-4-26.09-5.92-31.48-6.95-63.57-10.29-94.86-18.28-15.24-3.89-30.26-8.65-44.84-14.57-13.77-5.59-28.17-11.65-40.88-19.4-5.58-3.41-11.16-7.24-15.07-12.55-3.36-4.55-5.78-11.8-10.49-15.11-3.61-2.54-8.62-2.04-12.78-2.47-4.24-.44-7.97-1.93-10.59-5.44-6.71-8.99-5.78-22.29-.24-31.49 4.55-7.56 11.18-13.4 17.32-19.64-8.76.31-17.51.77-26.27.08-9.42-.74-19.32-2.55-27.01-8.43-4.57-3.49-7.45-8.38-9.31-13.68-5.66 25.47-7.55 49.06-2.2 66.33 26.21 84.69 332.93 112.11 363.88 113.79-2.59-1.69-5.29-3.18-8.31-4.21z" opacity=".35" class="colordd8a8a svgShape"/><path fill="#ddb58a" d="M407.42 1082.42s34.48-17.16 60.64-17.76l22.84-34.94-14.22 35.38 52.4 18.57-50.53-10.6c0 .01-49.39.22-71.13 9.35z" class="colordd8a8a svgShape"/><path fill="#ffffff" d="M643.59 1143.84c-26.35-28.76-172.49-86.96-183.7-53.14-11.2 33.82 225.05 98.26 183.7 53.14z" opacity=".1" class="colorfff svgShape"/><path fill="#ffffff" d="M610.83 1135.3c-16.65-18.17-108.97-54.94-116.04-33.57-7.09 21.37 142.16 62.08 116.04 33.57z" opacity=".1" class="colorfff svgShape"/><linearGradient id="w" x1="355.121" x2="835.53" y1="683.086" y2="1435.029" gradientTransform="rotate(6.831 790.89 1043.32) scale(1.0001)" gradientUnits="userSpaceOnUse"><stop offset="0" stop-color="#ffa545" class="stopColorffe245 svgShape"/><stop offset=".526" stop-color="#de7200" class="stopColorde007b svgShape"/><stop offset="1" stop-color="#fe9526" class="stopColore38427 svgShape"/></linearGradient><path fill="url(#w)" d="M592.75 668.76c29.99-12.79 1.39 193.2-62.46 291.61 0 0-161.55 7.97-168.18-33.32-6.63-41.29 82.29-195.06 230.64-258.29z"/><path fill="#1d1f87" d="M600.49 670.39s6.04 30.55 3.81 48.28c0 0 13.3-28.21-3.81-48.28zM776.64 685.08s25.79 28.82 23.56 46.56c0 0-10.85-26.26-23.56-46.56zM589.15 809.96s-38.39 106.92-59.47 148.69c-.01 0 51.02-79.31 59.47-148.69z" class="color871d5c svgShape"/><path fill="#17197a" d="M552.91 874.57c-16.99 15.76-36.57 28.62-58.31 36.76-20.59 7.71-42.46 12.5-64.4 13.9-22.99 1.47-46.71-1.18-67.91-9.4-.57 4.3-.68 8.11-.18 11.22 6.63 41.29 168.18 33.32 168.18 33.32 20.88-32.18 37.96-75.86 50.48-119.64-7.46 12.68-17.38 24.11-27.86 33.84z" enable-background="new" opacity=".25" class="color7a1752 svgShape"/><path fill="#1d1f87" d="M443.59 958.36s56.47 5.78 85.21 1.64c-.01 0-35.37 15.95-85.21-1.64z" class="color871d5c svgShape"/><path fill="#53d86a" d="M402.67 872.78c-6.86-20.75 109.86-180.82 159.65-167.14 49.79 13.67-145.49 209.97-159.65 167.14z" enable-background="new" opacity=".2" class="colorf4f2f3 svgShape"/><path fill="#ffd6aa" d="M951.37 968.69c9.82-1.92 14.44-25.86 14.44-25.86s-2.89 30.15 8.25 31.88c10.36 1.6 12.4-20.82 13.4-28.28-.83 8.54.83 30.23 11.98 30.69 10.53.43 16.56-33.13 16.56-33.13s-.6 29.87 11.33 30.74c14.55 1.07 19.09-47.13 20.75-64.06 1.23-12.54-11.51-43.62-24.49-23.59 0 0-3.6-16.47-17.37-14.66-14 1.85-7.93 16.03-7.93 16.03s-4-15.05-18.49-13.43c-9.22 1.03-9.21 13.46-9.21 13.46s-8.21-11.19-17.83-2.11c-14.3 13.49-16.17 85.21-1.39 82.32z" class="colorffafaa svgShape"/><path fill="#53d86a" d="M1032.26 884.98c2.69-1.05 14.11 9.12 12.33 23.89-1.78 14.77.13 26.37-3.89 26.09-4.01-.27-2.03-20.92-2.29-25.31-.25-4.39-12.29-22.26-6.15-24.67zM1010.19 877.16c2.28-.98 13.7 6.62 10.61 16.24-3.09 9.61-11.48-15.86-10.61-16.24zM984.43 879.53c1.91-.48 11.32 2.11 9.74 12.41s-1.51 13.56-3.48 15.75c-1.97 2.19-4.32-14.94-2.34-18.53 1.97-3.6-6.61-8.96-3.92-9.63zM962.17 889.02c4.13-3.35 9.69 4.95 5.65 14.48-4.04 9.54-7.09-13.31-5.65-14.48z" enable-background="new" opacity=".2" class="colorf4f2f3 svgShape"/><path fill="#ddb58a" d="M1021.89 907.28s-1.17 26.6-5.89 36.71c-.01 0 1.5-30.38 5.89-36.71zM994.18 904.75s-1.88 30.76-6.6 40.87c.01.01 2.22-34.53 6.6-40.87zM971.94 902.58s-1.88 30.76-6.6 40.87c.01.01 2.21-34.53 6.6-40.87z" enable-background="new" class="colordd8a8a svgShape"/><path fill="#ddb58a" d="M951.37 968.69c2.9-.57 5.32-3.08 7.33-6.3-2.84-2.96-3.59-7.37-3.44-11.63.08-2.35.38-4.69.74-7.01.38-2.45 1.37-4.84 1.5-7.33.17-3.25-2.5-3.64-4.81-5.04-2.51-1.51-3.54-4.34-3.75-7.15-.21-2.83.24-5.69.73-8.46.49-2.77 1.5-5.3 2.11-8.02.69-3.11-1.62-4.43-3.31-6.64-.96-1.25-1.46-2.64-1.67-4.07-8.5 24.2-7.81 74.07 4.57 71.65zM1031.13 973.78c-1.97-1.62-3.32-3.98-4.1-6.42-1.05-3.32-1-6.73-1.21-10.17-.23-3.6-.79-7.2-2.49-10.42-1.27-2.42-3.46-2.69-5.6-1.13-.65.47-1.2 1.08-1.7 1.73.26 7.85 1.85 26.65 11.29 27.35 1.36.11 2.63-.24 3.81-.94zM1005.53 973.4c-6.04-1.52-9.34-8.9-11.84-14.08-2.15-4.46-3.75-9.1-4.92-13.84-.37 2.34-.56 4.72-.69 7.02-.13 2.33-.17 4.67-.16 7 1.24 8.57 4.48 17.33 11.52 17.62 2.24.09 4.27-1.39 6.09-3.72zM972.29 960.74c-1.5-5.79-1.53-12.05-.84-17.96.25-2.18.65-4.22 1.23-6.33.52-1.87 1.45-4.21 1.22-6.18-.21-1.75-1.75-.83-2.58-.02-1.21 1.19-2.17 2.76-2.85 4.31-1.13 2.6-1.25 5.68-1.45 8.47-.25 3.46-.46 6.91-1.48 10.25-.01.03-.03.04-.04.07.21 8.88 1.82 20.31 8.56 21.36 2.59.4 4.63-.76 6.3-2.75-4.14-2.42-6.83-6.45-8.07-11.22z" enable-background="new" opacity=".25" class="colordd8a8a svgShape"/><path fill="#ffffff" d="m1034.15 960.33-11.48.7s.25 10.52 4.77 11.32c4.52.81 6.71-12.02 6.71-12.02zM1006.03 962.41s-9.67-2.71-10.89-.28c-1.22 2.43-.5 9.77 3.89 10.53 4.4.75 7.51-9.12 7-10.25zM981.68 963.57s-6.78-3.97-11.27-1.1c0 0-1.61 9.91 3.64 10.5 5.24.6 7.63-9.4 7.63-9.4zM956.75 959.05s-4.8-2.68-10.23-.55c0 0-.57 7.07 4.26 7.54 4.85.48 5.97-6.99 5.97-6.99z" opacity=".5" class="colorfff svgShape"/></svg>