<svg xmlns="http://www.w3.org/2000/svg" enable-background="new 0 0 3000 3000" viewBox="0 0 3000 3000"><linearGradient id="a" x1="1345.554" x2="1712.314" y1="432.29" y2="3424.013" gradientUnits="userSpaceOnUse"><stop offset=".262" stop-color="#595bd4" class="stopColor182b9b svgShape"/><stop offset="1" stop-color="#03042b" class="stopColor21032b svgShape"/></linearGradient><path fill="url(#a)" d="M399.36 757.58c-243.05 398.87-133.77 1719.52 2.95 1789.75 187.44 62.55 1790.1 89.06 2216.1 27.55 195.64-28.25 142.69-1582.31-15.62-1824.23-158.29-241.93-2095.07-170.89-2203.43 6.93z"/><linearGradient id="b" x1="1087.617" x2="1454.377" y1="463.911" y2="3455.632" gradientUnits="userSpaceOnUse"><stop offset=".02" stop-color="#d1d1ee" class="stopColord1e1ee svgShape"/><stop offset=".363" stop-color="#5093e2" class="stopColor50a7e2 svgShape"/><stop offset="1" stop-color="#595bd4" class="stopColor182b9b svgShape"/></linearGradient><path fill="url(#b)" d="M495.85 1273.34c123.33 26.67 250.41 33.3 376.28 31.07 122.8-2.17 245.22-13.3 367.24-26.77 113.19-12.5 226.8-23.59 338.57-46 120.46-24.15 243.15-60.19 346.23-129.06 48.38-32.33 91.86-72.5 124.24-121.09 3.33-4.99 2.41-4.67-3.03-3.17-3.43.95-6.86 1.87-10.3 2.78-7.54 1.99-15.11 3.89-22.69 5.71-16.48 3.94-33.05 7.49-49.69 10.67-35.55 6.79-71.42 11.94-107.46 15.3-71.12 6.61-144.11 7.14-214.42-6.83-29.88-5.94-59.82-13.97-85.79-30.39-23.89-15.1-43.66-35.5-62.62-56.22-19.96-21.81-39.51-44.35-63.33-62.11-26.59-19.81-56.37-30.78-89.38-33.41-59.79-4.78-116.73 15.4-173.37 31.33-45.44 12.78-96.26 23.82-139.89-.66-26.36-14.79-44.08-38.68-60.13-63.59-16.7-25.9-34.01-51.52-52.54-76.15-20.9-27.79-44-54.74-70.75-77.12-238.77 28.53-413.26 70.03-443.68 119.94-60.99 100.08-99.79 258.21-121.54 440.04 68.55 35.2 142.81 59.47 218.05 75.73z" opacity=".1"/><path fill="#ffffff" d="M2590.67 871.79c-7.06 2.38-8.99 4.31-11.37 11.37-2.38-7.06-4.31-8.99-11.37-11.37 7.06-2.39 8.99-4.31 11.37-11.38 2.38 7.07 4.31 9 11.37 11.38zM2373.56 1597.94c-7.06 2.38-8.99 4.31-11.37 11.37-2.38-7.06-4.31-8.99-11.38-11.37 7.06-2.38 9-4.31 11.38-11.37 2.38 7.05 4.31 8.98 11.37 11.37zM1949.15 1707.03c-9.63 3.25-12.27 5.89-15.52 15.53-3.26-9.64-5.89-12.27-15.53-15.53 9.64-3.25 12.27-5.89 15.53-15.52 3.25 9.63 5.89 12.27 15.52 15.52zM980.78 710.58c-9.64 3.25-12.27 5.88-15.52 15.52-3.25-9.63-5.89-12.27-15.53-15.52 9.64-3.25 12.27-5.89 15.53-15.53 3.24 9.64 5.88 12.27 15.52 15.53zM2579.3 1839.89c-9.63 3.25-12.27 5.88-15.52 15.52-3.25-9.63-5.89-12.27-15.53-15.52 9.63-3.25 12.27-5.89 15.53-15.53 3.25 9.64 5.88 12.28 15.52 15.53zM469.05 1000.6c-9.64 3.25-12.28 5.89-15.53 15.53-3.25-9.63-5.89-12.27-15.52-15.53 9.64-3.25 12.27-5.89 15.52-15.52 3.26 9.63 5.89 12.27 15.53 15.52z" class="colorfff svgShape"/><path fill="#ffffff" d="M2386.49 1943.71c4.53 0 8.2-3.67 8.2-8.2 0-4.56-3.67-8.23-8.2-8.23-4.53 0-8.2 3.67-8.2 8.23 0 4.52 3.67 8.2 8.2 8.2zM2386.49 1985.94c4.53 0 8.2-3.67 8.2-8.2 0-4.56-3.67-8.23-8.2-8.23-4.53 0-8.2 3.67-8.2 8.23 0 4.53 3.67 8.2 8.2 8.2z" opacity=".8" class="colorfff svgShape"/><path fill="#ffffff" d="M2386.49 2028.18c4.53 0 8.2-3.68 8.2-8.2 0-4.56-3.67-8.23-8.2-8.23-4.53 0-8.2 3.67-8.2 8.23 0 4.53 3.67 8.2 8.2 8.2z" opacity=".6" class="colorfff svgShape"/><path fill="#ffffff" d="M2386.49 2070.42c4.53 0 8.2-3.67 8.2-8.2 0-4.56-3.67-8.23-8.2-8.23-4.53 0-8.2 3.67-8.2 8.23 0 4.52 3.67 8.2 8.2 8.2z" opacity=".3" class="colorfff svgShape"/><path fill="#ffffff" d="M384 1372.9c4.53 0 8.2-3.67 8.2-8.2 0-4.56-3.67-8.23-8.2-8.23-4.53 0-8.2 3.67-8.2 8.23 0 4.53 3.68 8.2 8.2 8.2zM384 1415.14c4.53 0 8.2-3.67 8.2-8.2 0-4.56-3.67-8.23-8.2-8.23-4.53 0-8.2 3.67-8.2 8.23 0 4.52 3.68 8.2 8.2 8.2z" opacity=".8" class="colorfff svgShape"/><path fill="#ffffff" d="M384 1457.37c4.53 0 8.2-3.68 8.2-8.2 0-4.56-3.67-8.23-8.2-8.23-4.53 0-8.2 3.67-8.2 8.23 0 4.53 3.68 8.2 8.2 8.2z" opacity=".6" class="colorfff svgShape"/><path fill="#ffffff" d="M384 1499.61c4.53 0 8.2-3.67 8.2-8.2 0-4.56-3.67-8.23-8.2-8.23-4.53 0-8.2 3.67-8.2 8.23 0 4.52 3.68 8.2 8.2 8.2z" opacity=".3" class="colorfff svgShape"/><path fill="#ffffff" d="M2556.62 1052.47c4.53 0 8.2-3.67 8.2-8.2 0-4.56-3.67-8.23-8.2-8.23-4.53 0-8.2 3.67-8.2 8.23-.01 4.52 3.67 8.2 8.2 8.2zM2556.62 1094.7c4.53 0 8.2-3.67 8.2-8.2 0-4.56-3.67-8.23-8.2-8.23-4.53 0-8.2 3.67-8.2 8.23-.01 4.53 3.67 8.2 8.2 8.2z" opacity=".8" class="colorfff svgShape"/><path fill="#ffffff" d="M2556.62 1136.94c4.53 0 8.2-3.68 8.2-8.2 0-4.56-3.67-8.24-8.2-8.24-4.53 0-8.2 3.68-8.2 8.24-.01 4.52 3.67 8.2 8.2 8.2z" opacity=".6" class="colorfff svgShape"/><path fill="#ffffff" d="M2556.62 1179.17c4.53 0 8.2-3.67 8.2-8.2 0-4.56-3.67-8.23-8.2-8.23-4.53 0-8.2 3.67-8.2 8.23-.01 4.53 3.67 8.2 8.2 8.2z" opacity=".3" class="colorfff svgShape"/><path fill="#03042b" d="M2717.07 2157.83c-61.06 48.77-136.39 84.12-214.4 93.43-36.11 4.31-74.6 3.52-109.11-8.97-41.69-15.09-75.98-44.49-112.31-68.92-36.29-24.4-83.22-48.9-128.29-46.95-39.6 1.71-71.39 29.51-100.71 53.26-74.3 60.2-153.3 117.96-236.69 165.05-79.49 44.89-165.55 74.59-256.67 83.35-50.93 4.89-102.65 4.97-153.78 5.68-51.81.71-103.69.09-155.36-4.02-99.97-7.95-199.85-29.88-287.8-79.64-177.07-100.18-292.17-276.51-453.01-397.26-39.05 38.74-80.19 75.41-124.32 108.28-31.64 23.57-64.94 45.27-99.7 64.14 27.36 228.66 70.77 398.13 117.4 422.08 187.44 62.55 1790.1 89.06 2216.1 27.55 65.37-9.44 102.96-189.32 118.17-433.61-6.39 5.73-12.9 11.26-19.52 16.55z" opacity=".35" class="color21032b svgShape"/><linearGradient id="c" x1="2111.617" x2="2478.376" y1="338.377" y2="3330.099" gradientUnits="userSpaceOnUse"><stop offset=".02" stop-color="#d1d1ee" class="stopColord1e1ee svgShape"/><stop offset=".363" stop-color="#5093e2" class="stopColor50a7e2 svgShape"/><stop offset="1" stop-color="#595bd4" class="stopColor182b9b svgShape"/></linearGradient><path fill="url(#c)" d="M2220.44 657.82c-4.74 20.28-15.4 37.02-37.15 40.31-21.01 3.18-43.03-3.3-63.3-8.12-24.38-5.8-50.02-12.56-75.28-9.5-11.67 1.42-24.95 5.08-33.55 13.54-9.11 8.97-12.41 22.21-15.61 34.16-2.56 9.57-4.78 20.75-11.71 28.29-6.97 7.6-18.31 9.7-28.08 10.76-26.91 2.92-55.01-2.7-81.26 5.32-25.9 7.91-48.9 25.76-76.28 28.5-36.93 3.7-68.89-18.62-104.17-24.95-.76-.14-5.24-1.39-5.7-.58-.2.35 1.98 3.61 2.27 4.11 1.65 2.87 3.4 5.68 5.24 8.43 3.51 5.23 7.37 10.23 11.49 14.99 8.74 10.09 18.69 19.09 29.32 27.15 44.29 33.53 99.15 52 152.67 64.58 64.36 15.12 130.79 21.07 196.63 25.45 80.85 5.38 161.96 6.15 242.93 3.6 81.52-2.57 162.9-8.52 244.04-16.69 28.07-2.83 56.11-5.93 84.12-9.25-16.25-65.99-34.44-116.95-54.29-147.29-38.28-58.49-180.53-98.69-375.76-123.51-3.15 9.98-4.2 20.54-6.57 30.7z" opacity=".1"/><g fill="#000000" class="color000 svgShape"><path fill="#131468" d="M2090.43 2472h-972.97c-26.49 0-47.96-3.51-47.96-29.99v-29.77h1068.88V2442c.01 26.49-21.46 30-47.95 30z" class="color132368 svgShape"/><linearGradient id="d" x1="1363.52" x2="2075.841" y1="2170.106" y2="3085.502" gradientUnits="userSpaceOnUse"><stop offset=".02" stop-color="#d1d1ee" class="stopColord1e1ee svgShape"/><stop offset=".363" stop-color="#5093e2" class="stopColor50a7e2 svgShape"/><stop offset="1" stop-color="#595bd4" class="stopColor182b9b svgShape"/></linearGradient><path fill="url(#d)" d="M2347.04 2473.93v123.37c-378.02 18.46-965.96 15.36-1399.9-2.18v-121.19h1399.9z"/><path fill="#ffffff" d="M1943.08 2583.05c-6.89-48.23-9.72-83.17 16.2-71.29 25.93 11.88-14.04 86.41-16.2 71.29zM1973.32 2521.48c.93-27.01 199.83-49.69 218.19-5.4s-219.27 36.72-218.19 5.4z" opacity=".2" class="colorfff svgShape"/><path fill="#131468" d="M1913.56 2608.81c2.75-44.88 1.41-89.88.04-134.88H947.15v121.19c92.9 3.76 192.89 6.84 296.33 9.21-7.27-15.92-11.63-33.67-8.07-50.56 5.47-25.9 31.72-41.02 56.72-42.92 15.11-1.15 30.48 1.05 45.55 2.2 18.89 1.44 37.75 3.35 56.59 5.37 38.05 4.08 76.07 8.66 114.28 10.88 37.61 2.19 75.51 1.57 113.17 1.15 37.61-.42 75.16-2.13 112.51-6.8 17.98-2.25 35.83-5.56 53.89-7.12 13.53-1.17 28.15-2.43 41.22 2.09 17.35 6 26.98 21.52 31.39 38.56 4.44 17.16 4.6 34.6 3.9 52.09 16.41-.14 32.71-.3 48.93-.46z" opacity=".35" class="color132368 svgShape"/><path fill="#131468" d="M2114.86 2472h-716.13c-21.3 0-36.14-17.28-33.15-38.57l68.74-523.63c2.99-21.3 22.69-38.57 43.99-38.57h716.14c21.3 0 36.14 17.27 33.15 38.57l-68.74 523.63c-3 21.29-22.7 38.57-44 38.57z" class="color132368 svgShape"/><linearGradient id="e" x1="2505.134" x2="1133.569" y1="1653.789" y2="2599.827" gradientUnits="userSpaceOnUse"><stop offset=".02" stop-color="#d1d1ee" class="stopColord1e1ee svgShape"/><stop offset=".363" stop-color="#5093e2" class="stopColor50a7e2 svgShape"/><stop offset="1" stop-color="#595bd4" class="stopColor182b9b svgShape"/></linearGradient><path fill="url(#e)" d="M2170.74 1871.22h-716.13c-21.3 0-41 17.27-43.99 38.57l-68.74 487.26c-.72 5.14-.36 10.02.83 14.51h-272.16V2442h1030.7c16.81 0 30.44-13.63 30.44-30.45h-.22c1.12-2.78 2.04-5.71 2.49-8.94l69.93-492.82c2.99-21.3-11.85-38.57-33.15-38.57z"/><path fill="#d1d1ee" d="M2066.06 2414.93h-660.13c-19.63 0-33.31-15.92-30.55-35.55l63.78-451.93c2.75-19.63 20.91-35.55 40.55-35.55h660.12c19.64 0 33.32 15.92 30.56 35.55l-63.78 451.93c-2.76 19.63-20.92 35.55-40.55 35.55z" class="colord1e1ee svgShape"/><linearGradient id="f" x1="1604.946" x2="1972.786" y1="1880.201" y2="2466.179" gradientUnits="userSpaceOnUse"><stop offset=".02" stop-color="#d1d1ee" class="stopColord1e1ee svgShape"/><stop offset=".363" stop-color="#5093e2" class="stopColor50a7e2 svgShape"/><stop offset="1" stop-color="#595bd4" class="stopColor182b9b svgShape"/></linearGradient><path fill="url(#f)" fill-rule="evenodd" d="m1972.69 1980.26-282.65-.36v-7.05c0-7.45-6.04-13.5-13.5-13.5h-78.81c-7.45 0-13.5 6.04-13.5 13.5v6.91h-1.53c-25.44-.03-46.09 20.56-46.12 46l-.33 257.95c-.03 25.44 20.56 46.09 46 46.12l389.99.5c25.44.03 46.09-20.57 46.12-46l.33-257.95c.04-25.44-20.56-46.09-46-46.12z" clip-rule="evenodd"/><path fill="#d1d1ee" d="M1769.79 2059.53c-9.94 9.01-37.45 30.46-79.66 36.96.33 21.17 6.17 111.61 79.66 151.91 73.5-40.29 79.31-130.74 79.64-151.91-42.18-6.5-69.68-27.95-79.64-36.96zm-6.38 117.59-31.86-32.72 15.96-14.82 15.89 18.01 61.05-33.52-61.04 63.05z" class="colord1e1ee svgShape"/><path fill="#ffffff" fill-rule="evenodd" d="M1545.98 2029.89c-1.53-7.35 2.61-33.96 16.33-26.12s-14.7 33.96-16.33 26.12zM1570.05 1996.04c-.05-1.18 26.12-12.74 32-2.94 5.88 9.79-31.67 10.77-32 2.94z" clip-rule="evenodd" class="colorfff svgShape"/><path fill="#03042b" fill-rule="evenodd" d="M1995.84 2233.83c14.13 1.88-.9 94.69-24.35 79.36-23.45-15.33-2.7-82.97 24.35-79.36z" clip-rule="evenodd" opacity=".2" class="color21032b svgShape"/><path fill="#131468" d="M2142.52 1892.17c-20.09 36.97-47.6 70.07-78.55 98.79-55.49 51.51-121.65 91.08-189.73 123.55-67.96 32.42-139.26 58.21-211.93 77.81-86.11 23.23-175.8 37.15-265.17 32.88l-21.76 154.17c-2.76 19.63 10.92 35.55 30.55 35.55h660.13c19.63 0 37.79-15.92 40.55-35.55l63.78-451.93c2.62-18.69-9.73-33.85-27.87-35.27z" opacity=".1" class="color132368 svgShape"/></g><g fill="#000000" class="color000 svgShape"><path fill="#03042b" d="M2529.92 699.06v753.45c0 37.91-30.73 68.64-68.64 68.64H1183.02c-37.91 0-68.64-30.73-68.64-68.64V616.6c523.49-36.36 1181.61-19.55 1415.54 82.46z" opacity=".35" class="color21032b svgShape"/><path fill="#167ffc" d="M2484.52 614.1v777.93c0 37.89-30.72 68.61-68.62 68.61H1137.62c-37.89 0-68.61-30.72-68.61-68.61V614.1c0-37.9 30.72-68.61 68.61-68.61h87.86c11.18-69.25 71.23-122.13 143.63-122.13s132.46 52.88 143.64 122.13h903.15c37.9 0 68.62 30.71 68.62 68.61z" class="color50a7e2 svgShape"/><path fill="#ffffff" d="M1133.38 815.89c-47.47 42.3-33.52-225.76.82-219.27 34.34 6.48 34.34 187.95-.82 219.27z" opacity=".2" class="colorfff svgShape"/><path fill="#131468" d="M2301.7 783.07h-850.57v153.78h850.57zM1427.91 783.07h-176.96v153.78h176.96zM2301.7 997.61h-850.57v153.78h850.57zM1427.91 997.61h-176.96v153.78h176.96z" opacity=".1" class="color132368 svgShape"/><path fill="#ffffff" d="m1588.1 1068.78 14.7-12.76 9.31 16.66-17.56 6 17.56 5.7-9.91 17.41-14.1-13.06 4.04 18.61h-19.21l3.91-18.61-13.81 13.36-10.36-17.86 17.56-6.01-17.25-5.4 9.3-16.66 14.71 12.6-4.35-18.76h19.65l-4.19 18.78zM1671.54 1068.78l14.7-12.76 9.31 16.66-17.56 6 17.56 5.7-9.91 17.41-14.1-13.06 4.04 18.61h-19.21l3.91-18.61-13.81 13.36-10.36-17.86 17.56-6.01-17.25-5.4 9.3-16.66 14.71 12.6-4.35-18.76h19.65l-4.19 18.78zM1803.98 1100.78h65.15v6.76h-65.15zM1756.66 1068.78l14.7-12.76 9.31 16.66-17.56 6 17.56 5.7-9.91 17.41-14.1-13.06 4.04 18.61h-19.21l3.91-18.61-13.81 13.36-10.36-17.86 17.56-6.01-17.25-5.4 9.3-16.66 14.71 12.6-4.35-18.76h19.65l-4.19 18.78zM1358.9 860.64c5.6-4.55 9.18-11.48 9.18-19.26 0-13.7-11.1-24.8-24.8-24.8-13.7 0-24.8 11.1-24.8 24.8 0 7.77 3.58 14.71 9.18 19.26-24.32 6.65-42.39 28.43-43.46 54.6h118.16c-1.07-26.17-19.14-47.95-43.46-54.6zM1324.65 1065.66v-16.75c0-10.97 8.92-19.89 19.89-19.89s19.89 8.92 19.89 19.89v16.75h13.29v-16.75c0-18.29-14.88-33.18-33.18-33.18-18.29 0-33.18 14.89-33.18 33.18v16.75h13.29z" class="colorfff svgShape"/><path fill="#ffffff" d="M1383.79 1056.67h-25.42c-.18 0-.35-.03-.49-.09h-51.85c-4.25 0-7.7 3.46-7.7 7.72v56.63c0 4.22 3.45 7.68 7.7 7.68h76.74c4.25 0 7.7-3.46 7.7-7.68v-56.63c0-3.91-2.92-7.14-6.68-7.63zm-31.02 53.73h-16.73s2.78-13.53 4.53-20.9a8.467 8.467 0 0 1-4.76-7.65c0-4.75 3.85-8.58 8.59-8.58 4.75 0 8.59 3.83 8.59 8.58 0 3.36-1.95 6.26-4.78 7.65 1.77 7.36 4.56 20.9 4.56 20.9zM1545.07 835.41h16.39v40.25c0 7.95 3.92 12.55 11.69 12.55s11.88-4.6 11.88-12.55v-40.25h16.39v40.15c0 18.59-13.03 27.79-28.56 27.79-15.62 0-27.79-9.2-27.79-27.79v-40.15zM1637.3 903.35c-14.47 0-25.78-7.19-26.26-20.79h17.44c.48 5.17 3.74 7.67 8.33 7.67 4.8 0 7.86-2.4 7.86-6.32 0-12.46-33.64-5.75-33.45-29.61 0-12.75 10.45-19.84 24.53-19.84 14.66 0 24.53 7.28 25.2 20.13h-17.73c-.29-4.31-3.36-6.9-7.76-7-3.93-.1-6.91 1.92-6.91 6.13 0 11.69 33.25 6.42 33.25 28.94.03 11.3-8.79 20.69-24.5 20.69zM1713.12 848.53h-24.81v13.61h21.94v12.65h-21.94v14.76h24.81v13.13h-41.21v-67.27h41.21v13.12zM1751.29 835.41c16.49 0 24.73 9.49 24.73 21.18 0 8.43-4.6 16.39-14.95 19.46l15.52 26.64h-18.49l-13.99-25.39h-3.92v25.39h-16.39v-67.27h27.49zm-.96 13.6h-10.15v16.67h10.15c6.13 0 9.01-3.16 9.01-8.43.01-4.98-2.87-8.24-9.01-8.24zM1846.48 835.41v67.27h-16.39l-27.4-41.49v41.49h-16.39v-67.27h16.39l27.4 41.69v-41.69h16.39zM1900.28 890.79h-25.1l-4.03 11.88h-17.16l24.34-67.27h18.98l24.34 67.27h-17.35l-4.02-11.88zm-12.55-37.27-8.25 24.63h16.58l-8.33-24.63zM1929.06 835.41h19.36l18.88 46.57 18.68-46.57h19.26v67.27h-16.39v-40.34l-15.04 40.34h-13.23l-15.14-40.44v40.44h-16.39v-67.27zM2058.28 848.53h-24.81v13.61h21.94v12.65h-21.94v14.76h24.81v13.13h-41.21v-67.27h41.21v13.12z" class="colorfff svgShape"/><path fill="#131468" d="M2484.55 614.1v777.95c0 37.91-30.73 68.55-68.64 68.55H1137.66c-37.91 0-68.64-30.64-68.64-68.55v-158.19c895.96 203.19 1244.8-426.3 1348.98-688.31 37 1.09 66.55 31.37 66.55 68.55z" opacity=".1" class="color132368 svgShape"/><path fill="#ffffff" d="M1788.44 706.3c-87.14 0-158.04-70.9-158.04-158.04s70.89-158.04 158.04-158.04 158.04 70.9 158.04 158.04-70.9 158.04-158.04 158.04z" class="colorfff svgShape"/><linearGradient id="g" x1="1668.449" x2="2056.068" y1="396.911" y2="885.84" gradientUnits="userSpaceOnUse"><stop offset=".02" stop-color="#d1d1ee" class="stopColord1e1ee svgShape"/><stop offset=".363" stop-color="#5093e2" class="stopColor50a7e2 svgShape"/><stop offset="1" stop-color="#595bd4" class="stopColor182b9b svgShape"/></linearGradient><circle cx="1788.44" cy="548.26" r="145.51" fill="url(#g)"/><path fill="#ffffff" d="M1729.92 492.02h25.83v25.83h-25.83zM1729.92 532.8h25.83v46.48h-25.83zM1784.17 492.02H1810v17.02h-25.83zM1766.62 532.8h36.57v17.02h-36.57zM1824.13 556.83h25.83v17.02h-25.83zM1824.16 492.02h25.83v25.83h-25.83zM1759.12 492.02h17.25v6.41h-17.25zM1729.92 586.71h25.83v25.83h-25.83zM1824.16 586.71h25.83v25.83h-25.83zM1762.22 586.17h17.25v15.04h-17.25zM1841.53 522.39h8.46v8.63h-8.46zM1828.3 540.48h8.46v8.63h-8.46zM1785.89 592.17h17.25v20.37h-17.25zM1809.75 599.62h6.41v12.92h-6.41zM1809.75 586.17h6.41v8.27h-6.41zM1761.71 509.05h6.41v12.92h-6.41zM1768.73 566.57h6.41v12.92h-6.41zM1787.63 556.33h23.66v19.91h-23.66zM1807.07 532.81h6.41v12.92h-6.41zM1713 502.61h6.3v-20.99h20.99v-6.3H1713zM1719.3 601.96h-6.3v27.28h27.29v-6.3h-20.99zM1860.62 622.94h-20.98v6.3h27.28v-27.28h-6.3zM1839.64 475.32v6.3h20.98v20.99h6.3v-27.29z" class="colorfff svgShape"/><path fill="#131468" d="M1933.96 548.26c0 80.39-65.19 145.51-145.51 145.51-44.49 0-84.34-19.96-110.97-51.47.99.06 2.04.06 3.03.06 111.59 0 202.05-90.46 202.05-202.05 0-.99 0-2.04-.06-3.03 31.5 26.64 51.46 66.49 51.46 110.98z" opacity=".1" class="color132368 svgShape"/><g fill="#000000" class="color000 svgShape"><path fill="#ffffff" d="M2208.78 706.3c-87.14 0-158.04-70.9-158.04-158.04s70.9-158.04 158.04-158.04 158.04 70.9 158.04 158.04-70.9 158.04-158.04 158.04z" class="colorfff svgShape"/><linearGradient id="h" x1="2088.79" x2="2476.408" y1="396.911" y2="885.84" gradientUnits="userSpaceOnUse"><stop offset=".02" stop-color="#d1d1ee" class="stopColord1e1ee svgShape"/><stop offset=".363" stop-color="#5093e2" class="stopColor50a7e2 svgShape"/><stop offset="1" stop-color="#595bd4" class="stopColor182b9b svgShape"/></linearGradient><circle cx="2208.78" cy="548.26" r="145.51" fill="url(#h)"/><path fill="#ffffff" d="M2135.48 586.33c-1.55 0-3.02-.91-3.66-2.43-4.39-10.38-6.62-21.4-6.62-32.76 0-2.19 1.78-3.97 3.97-3.97 2.19 0 3.97 1.78 3.97 3.97 0 10.29 2.01 20.27 5.99 29.67.85 2.02-.09 4.35-2.11 5.21-.5.21-1.02.31-1.54.31zM2280.83 595.67a3.98 3.98 0 0 1-3.6-5.67 75.93 75.93 0 0 0 6.63-22.82c.27-2.18 2.27-3.72 4.44-3.45 2.18.27 3.72 2.26 3.45 4.44a83.637 83.637 0 0 1-7.32 25.21 3.97 3.97 0 0 1-3.6 2.29zM2289.58 555.11c-2.2 0-3.98-1.78-3.98-3.97 0-30.71-18.27-58.27-46.55-70.24a3.974 3.974 0 0 1-2.11-5.21 3.97 3.97 0 0 1 5.21-2.11c31.23 13.21 51.41 43.65 51.41 77.56a3.988 3.988 0 0 1-3.98 3.97zM2133.61 528.75a3.98 3.98 0 0 1-3.76-5.28c11.76-33.8 43.71-56.5 79.52-56.5 2.19 0 3.97 1.78 3.97 3.97 0 2.19-1.78 3.97-3.97 3.97-32.42 0-61.36 20.56-72.01 51.17a3.977 3.977 0 0 1-3.75 2.67z" class="colorfff svgShape"/><path fill="#ffffff" d="M2145.69 562.93c-1.98 0-3.7-1.48-3.94-3.5-.33-2.74-.5-5.53-.5-8.3 0-24.17 12.99-46.75 33.9-58.92a3.97 3.97 0 0 1 5.43 1.44c1.1 1.9.46 4.33-1.44 5.43-18.47 10.75-29.95 30.7-29.95 52.05 0 2.45.15 4.92.44 7.34a3.972 3.972 0 0 1-3.47 4.42c-.15.03-.31.04-.47.04zM2248.8 504.5c-.86 0-1.72-.27-2.44-.84-10.65-8.31-23.44-12.7-36.98-12.7-2.91 0-5.84.21-8.7.62-2.17.31-4.19-1.19-4.5-3.36s1.19-4.19 3.36-4.5c3.24-.47 6.55-.71 9.84-.71 15.33 0 29.81 4.97 41.87 14.38a3.977 3.977 0 0 1 .69 5.58 4 4 0 0 1-3.14 1.53zM2251.56 623.33c-.89 0-1.78-.3-2.51-.9a3.96 3.96 0 0 1-.55-5.59c20.65-25.18 30.56-68.87 11.41-98.4a3.984 3.984 0 0 1 1.17-5.5 3.97 3.97 0 0 1 5.49 1.17c9.78 15.08 13.53 34.85 10.56 55.68-2.71 18.96-10.91 37.95-22.49 52.08-.78.96-1.93 1.46-3.08 1.46zM2213.49 579.27c-2.13 0-3.89-1.68-3.97-3.83-.29-7.66-1.38-15.08-3.24-22.04a3.976 3.976 0 0 1 7.68-2.06c2.02 7.54 3.2 15.54 3.51 23.8a3.976 3.976 0 0 1-3.82 4.12c-.06 0-.11.01-.16.01zM2204.26 635.31c-.49 0-.99-.09-1.48-.29a3.972 3.972 0 0 1-2.21-5.17c5.27-13.17 8.57-27.3 9.52-40.86a3.96 3.96 0 0 1 4.24-3.68c2.19.15 3.84 2.06 3.68 4.25-1.02 14.37-4.5 29.32-10.07 43.25a3.958 3.958 0 0 1-3.68 2.5zM2146.63 605.05c-.36 0-.73-.05-1.1-.15a3.974 3.974 0 0 1-2.72-4.92c2.19-7.62 2.8-16.01 1.78-24.27a3.973 3.973 0 0 1 3.46-4.43 3.973 3.973 0 0 1 4.43 3.46c1.15 9.31.45 18.79-2.03 27.43a3.987 3.987 0 0 1-3.82 2.88z" class="colorfff svgShape"/><path fill="#ffffff" d="M2257.97 555.11c-2.19 0-3.97-1.78-3.97-3.97 0-14.72-7.26-28.49-19.42-36.83a3.981 3.981 0 0 1-1.03-5.53 3.97 3.97 0 0 1 5.52-1.03 52.594 52.594 0 0 1 22.87 43.38c.01 2.2-1.77 3.98-3.97 3.98zM2160.78 555.11c-2.19 0-3.97-1.78-3.97-3.97 0-28.99 23.58-52.57 52.57-52.57 1.8 0 3.62.09 5.4.27a3.976 3.976 0 0 1-.81 7.91 46.71 46.71 0 0 0-4.59-.23c-24.61 0-44.62 20.02-44.62 44.62a3.988 3.988 0 0 1-3.98 3.97zM2159.53 617.94c-.46 0-.93-.08-1.39-.25a3.983 3.983 0 0 1-2.33-5.12c3.23-8.6 4.86-17.67 4.86-26.95 0-6.07-.71-12.1-2.11-17.95-.51-2.14.8-4.28 2.94-4.79 2.13-.51 4.28.8 4.79 2.94a85.357 85.357 0 0 1 2.33 19.8c0 10.24-1.81 20.24-5.37 29.74a3.958 3.958 0 0 1-3.72 2.58zM2219.93 635.58c-1.26 0-2.51-.6-3.28-1.72a3.98 3.98 0 0 1 1.02-5.53c20.05-13.78 32.9-34.88 36.2-59.42.29-2.17 2.28-3.7 4.47-3.41 2.17.29 3.7 2.29 3.41 4.47-3.6 26.78-17.66 49.83-39.58 64.9-.68.49-1.46.71-2.24.71z" class="colorfff svgShape"/><path fill="#ffffff" d="M2180.79 540.22c-.62 0-1.25-.15-1.84-.45a3.963 3.963 0 0 1-1.68-5.36c6.27-12.01 18.57-19.47 32.11-19.47 9.04 0 17.69 3.35 24.37 9.43a3.97 3.97 0 0 1 .26 5.61 3.97 3.97 0 0 1-5.61.26 28.154 28.154 0 0 0-19.02-7.36 28.18 28.18 0 0 0-25.06 15.2 3.996 3.996 0 0 1-3.53 2.14zM2182.22 593.5c-2.19 0-3.97-1.77-3.97-3.96-.03-11.37-1.57-22.66-4.58-33.57-.58-2.11.66-4.3 2.77-4.89 2.12-.58 4.3.66 4.89 2.77 3.2 11.59 4.84 23.59 4.87 35.67a3.997 3.997 0 0 1-3.98 3.98zM2174.66 627.33c-.55 0-1.11-.11-1.64-.36a3.98 3.98 0 0 1-1.98-5.26 71.71 71.71 0 0 0 5.46-17.98 3.974 3.974 0 0 1 4.56-3.28c2.16.36 3.63 2.4 3.28 4.57a79.524 79.524 0 0 1-6.06 19.98 3.966 3.966 0 0 1-3.62 2.33zM2244.99 575.7c-.09 0-.17 0-.25-.01a3.988 3.988 0 0 1-3.72-4.22c.59-9.35-.67-18.54-3.74-27.3-.73-2.07.36-4.34 2.43-5.06 2.07-.73 4.34.36 5.06 2.44 3.43 9.77 4.83 20.01 4.17 30.43a3.955 3.955 0 0 1-3.95 3.72zM2188.66 632.61c-.54 0-1.09-.11-1.62-.34-2-.9-2.9-3.24-2.01-5.25 1.87-4.19 3.46-8.55 4.73-12.95a3.968 3.968 0 0 1 4.92-2.71c2.11.61 3.32 2.81 2.71 4.92-1.37 4.75-3.09 9.46-5.11 13.98-.64 1.47-2.1 2.35-3.62 2.35zM2196.19 606.72c-.2 0-.4-.01-.6-.04a3.981 3.981 0 0 1-3.34-4.52c.94-6.22 1.21-12.58.81-18.92a90.51 90.51 0 0 0-1.03-9.02 3.972 3.972 0 0 1 3.27-4.57c2.16-.36 4.21 1.1 4.57 3.27.54 3.24.92 6.54 1.12 9.82.44 6.9.14 13.84-.88 20.61a3.973 3.973 0 0 1-3.92 3.37z" class="colorfff svgShape"/><path fill="#ffffff" d="M2231.07 580.76c-2.19 0-3.97-1.78-3.97-3.97 0-13.33-3.7-38.52-17.72-38.52-7.1 0-12.87 5.78-12.87 12.87 0 .24.01.48.02.72a3.971 3.971 0 0 1-3.74 4.19 3.96 3.96 0 0 1-4.19-3.74c-.02-.38-.03-.77-.03-1.16 0-11.48 9.34-20.82 20.82-20.82 18.94 0 25.67 25.03 25.67 46.47a4.001 4.001 0 0 1-3.99 3.96zM2223.49 616.53c-.54 0-1.09-.11-1.62-.35-2-.89-2.91-3.24-2.01-5.25a83.284 83.284 0 0 0 6.24-21.19 3.977 3.977 0 0 1 7.86 1.21 91.508 91.508 0 0 1-6.83 23.21 3.993 3.993 0 0 1-3.64 2.37z" class="colorfff svgShape"/><path fill="#131468" d="M2354.3 548.26c0 80.39-65.19 145.51-145.51 145.51-44.49 0-84.34-19.96-110.97-51.47.99.06 2.04.06 3.03.06 111.59 0 202.05-90.46 202.05-202.05 0-.99 0-2.04-.06-3.03 31.5 26.64 51.46 66.49 51.46 110.98z" opacity=".1" class="color132368 svgShape"/></g><g fill="#000000" class="color000 svgShape"><path fill="#131468" d="M1369.11 444.86c-68.38 0-124 55.63-124 124 0 68.38 55.63 124 124 124 68.38 0 124-55.63 124-124 0-68.38-55.62-124-124-124z" opacity=".1" class="color132368 svgShape"/><path fill="#ffffff" d="M1347.32 548.26V528.3c0-13.07 10.63-23.7 23.7-23.7 13.07 0 23.7 10.63 23.7 23.7v19.96h15.84V528.3c0-21.8-17.73-39.54-39.54-39.54-21.8 0-39.54 17.74-39.54 39.54v19.96h15.84z" class="colorfff svgShape"/><path fill="#ffffff" d="M1417.79 537.54h-30.28c-.21 0-.42-.04-.59-.1h-61.78c-5.07 0-9.17 4.13-9.17 9.19v67.48c0 5.03 4.1 9.15 9.17 9.15h91.44c5.07 0 9.17-4.13 9.17-9.15v-67.48c0-4.65-3.48-8.51-7.96-9.09zm-36.96 64.02h-19.94s3.31-16.13 5.4-24.9a10.096 10.096 0 0 1-5.68-9.11c0-5.66 4.59-10.22 10.24-10.22 5.66 0 10.24 4.56 10.24 10.22 0 4-2.32 7.46-5.7 9.11 2.11 8.78 5.44 24.9 5.44 24.9z" class="colorfff svgShape"/></g></g><g fill="#000000" class="color000 svgShape"><path fill="#ffd6aa" d="M1141.66 1257.32s70.54-74.75 8.49-99.75c-82.24-33.14-91.24 9.01-109.6 18.64-13.34 7-.01 60.27-.01 60.27s-607.39 409.67-585.33 540.84c60.58 360.31 322.1-45.73 395.3-118.6 64.33-64.03 238.63-365.19 251.34-379.54 45.38-9.54 39.81-21.86 39.81-21.86z" class="colorffafaa svgShape"/><path fill="#131444" d="M1092.39 1321.13c-41.84-16.14-47.57-25.98-47.47-34.19.16-13.08 35.33-87.12 42.45-101.98 44.4-92.63 53.35-97.08 57.18-98.99 4.27-2.13 7.64-3.8 45.36 12.65 53.18 23.19 54.69 27.84 55.6 30.62 1.29 3.98 1.56 4.8-10.82 34.54-7.19 17.27-16.48 38.64-25.47 58.61-17.63 39.17-41.1 88.74-53.79 104.79-1.97 2.5-7.2 9.12-14.39 8.51-7.73-.67-29.5-7.17-48.65-14.56z" class="color131e44 svgShape"/><path fill="#131468" d="M1088.48 1312.46c-41.84-16.14-47.57-25.98-47.47-34.19.16-13.08 35.33-87.12 42.45-101.98 44.4-92.63 53.35-97.08 57.17-98.99 4.27-2.13 7.64-3.8 45.36 12.65 53.18 23.19 54.69 27.84 55.6 30.62 1.29 3.98 1.56 4.8-10.82 34.54-7.19 17.27-16.48 38.64-25.47 58.61-17.63 39.17-41.1 88.74-53.79 104.79-1.97 2.5-7.2 9.12-14.39 8.51-7.73-.67-29.5-7.17-48.64-14.56z" class="color132368 svgShape"/><path fill="#d1d1ee" d="M1144.01 1086.56c6.04-3.01 87.38 34.88 88.51 38.35 1.13 3.46-80.19 193.71-93.37 192.59-13.23-1.13-88.66-26.11-88.47-40.21.2-14.18 80.33-184.25 93.33-190.73z" class="colord1e1ee svgShape"/><linearGradient id="i" x1="1031.194" x2="1107.807" y1="1275.919" y2="1381.004" gradientTransform="rotate(24.02 1470.799 1467.322)" gradientUnits="userSpaceOnUse"><stop offset=".02" stop-color="#d1d1ee" class="stopColord1e1ee svgShape"/><stop offset=".363" stop-color="#5093e2" class="stopColor50a7e2 svgShape"/><stop offset="1" stop-color="#595bd4" class="stopColor182b9b svgShape"/></linearGradient><path fill="url(#i)" d="m1135.47 1212.88-.01.01c-.01 0-.01 0-.01-.02-23.25-30.98-.09-75.27-.09-75.27 19.93 5.31 36.59-2.29 37.61-2.77.01-.01.01-.01.03-.01v.03c.29 1.04 5.23 17.69 22.43 27.92-.01-.01-19.83 45.02-59.96 50.11z"/><linearGradient id="j" x1="1011.304" x2="1113.501" y1="1226.565" y2="1406.966" gradientTransform="rotate(24.02 1470.799 1467.322)" gradientUnits="userSpaceOnUse"><stop offset=".02" stop-color="#d1d1ee" class="stopColord1e1ee svgShape"/><stop offset=".363" stop-color="#5093e2" class="stopColor50a7e2 svgShape"/><stop offset="1" stop-color="#595bd4" class="stopColor182b9b svgShape"/></linearGradient><path fill="url(#j)" d="M1136.58 1210.54c-18.64-26.08-4-62-.18-70.3 16.24 3.76 29.99-.49 35.19-2.51 1.83 4.98 7.51 17.35 21.08 26.05-4.07 8.1-22.87 41.87-56.09 46.76z"/><path fill="#53d86a" d="M1170.06 1267.69c-14.19 28.74-26.42 50.19-30.93 49.82-2.32-.19-6.51-1.11-11.87-2.58l-40.62-123.52c12.18-25.77 25.46-52.46 36.37-72.5l47.05 148.78zM1176.84 1253.74l-46.44-147.99c6.3-10.85 11.16-17.96 13.61-19.17.28-.15.76-.21 1.4-.16l43.68 141.18a1956 1956 0 0 1-12.25 26.14z" enable-background="new" opacity=".2" class="colorf4f2f3 svgShape"/><path fill="#ffd6aa" d="M1095.47 1119.49c9.68 2.23 6.32 17.1 7.22 22.23l1.13 17.7c-14.37 29.17-28.24 6.3-28.24 6.3l-31.83 56.33s-15.42-30.58.4-53.87c15.81-23.29 41.64-50.91 51.32-48.69z" class="colorffafaa svgShape"/><path fill="#ddb58a" d="M1062.53 1156.58c1.79-3.99 4.89-9.7 9.5-10.95 3.32-.9 4.55 3.25 5.05 5.73.77 3.83 1.86 6.94 4.32 10.06 3.43 4.33 8.29 7.91 13.54 10.2-10.71 8.34-19.35-5.89-19.35-5.89l-26.94 47.67c0-.67-.02-1.34-.1-2.01-.54-4.52-3.21-8.41-3.91-12.9-.76-4.84.71-9.2 3.9-12.85 3.57-4.09 6.45-8.26 8.43-13.35 2-5.19 3.28-10.64 5.56-15.71z" enable-background="new" opacity=".25" class="colordd8a8a svgShape"/><path fill="#ffd6aa" d="M1118.14 1288.09c4.9-10.23 32.48-8.51 32.48-8.51s-33.92-5.39-32.65-18.11c1.18-11.83 26.38-7.7 34.84-6.68-9.61-1.52-32.95-9.5-30.28-21.86 2.52-11.69 41.07-8.77 41.07-8.77s-32.96-7.82-30.53-21.16c2.96-16.28 57.16-7.57 76.2-4.59 14.11 2.2 44.61 25.01 18.94 33.58 0 0 17.06 8.63 11.16 23.23-6 14.84-19.85 4.15-19.85 4.15s15.38 8.66 9.49 24.11c-3.74 9.83-17.39 6.29-17.39 6.29s9.95 12.19-2.75 20.17c-18.85 11.86-98.1-6.45-90.73-21.85z" class="colorffafaa svgShape"/><path fill="#53d86a" d="M1232.99 1223.06c1.92-2.65-6.01-18.08-22.73-20.32-16.72-2.24-28.9-7.63-29.74-3.14s22.38 8.17 27.13 9.7c4.76 1.52 20.95 19.81 25.34 13.76zM1235.31 1249.5c1.73-2.22-3.38-16.92-14.81-16.25-11.44.66 14.15 17.1 14.81 16.25zM1225.4 1277.11c1.07-1.96.9-13.03-10.86-14.22-11.75-1.19-15.31-2.19-18.28-.65-2.97 1.55 15.17 8.98 19.67 7.83s7.96 9.8 9.47 7.04zM1208.66 1298.84c4.85-3.58-2.68-12.04-14.29-10.31-11.62 1.73 12.59 11.57 14.29 10.31z" enable-background="new" opacity=".2" class="colorf4f2f3 svgShape"/><path fill="#ddb58a" d="M1205.57 1228.11s-29.53-6.26-41.96-3.95c-.01 0 33.76 6.97 41.96 3.95zM1200.47 1259.24s-34.3-6.68-46.74-4.36c.01-.01 38.55 7.38 46.74 4.36zM1196.54 1284.27s-34.3-6.68-46.74-4.36c.01-.01 38.55 7.38 46.74 4.36z" enable-background="new" class="colordd8a8a svgShape"/><path fill="#ddb58a" d="M1118.14 1288.09c1.44-3.02 4.89-4.97 9-6.26 2.45 3.95 7.07 6.03 11.79 7.08 2.6.58 5.26.91 7.91 1.18 2.8.28 5.7-.12 8.47.44 3.62.74 3.29 3.77 4.16 6.71.95 3.18 3.76 5.12 6.78 6.15 3.05 1.03 6.31 1.35 9.5 1.6 3.18.25 6.25-.14 9.41-.04 3.6.12 4.41 3.04 6.35 5.52 1.1 1.4 2.48 2.35 4 2.99-29 2.44-83.54-12.48-77.37-25.37zM1135.19 1199.08c1.21 2.63 3.43 4.78 5.88 6.32 3.34 2.09 7.11 3.01 10.81 4.22 3.89 1.27 7.68 2.91 10.74 5.69 2.3 2.09 1.97 4.56-.35 6.47-.7.58-1.53 1.01-2.39 1.37-8.54-2.51-28.73-9.6-26.81-20.15.28-1.52 1.03-2.82 2.12-3.92zM1128.35 1227.3c-.05 7.06 7.12 12.78 12.09 16.99 4.29 3.63 8.92 6.7 13.8 9.33-2.67-.25-5.34-.73-7.9-1.23-2.6-.52-5.17-1.14-7.73-1.82-9.05-3.79-17.75-9.84-16.07-17.65.54-2.48 2.73-4.29 5.81-5.62zM1132.81 1267.37c5.93 3.29 12.8 5.1 19.48 6.02 2.46.34 4.82.49 7.3.44 2.2-.04 5.03-.39 7.13.42 1.86.72.42 2.16-.71 2.84-1.65.99-3.65 1.6-5.54 1.91-3.17.51-6.59-.24-9.7-.81-3.87-.71-7.71-1.46-11.67-1.29-.03 0-.06.02-.09.02-9.69-2.76-21.78-7.77-21.02-15.46.3-2.96 2.15-4.87 4.8-6.13 1.47 5.23 5.13 9.32 10.02 12.04z" enable-background="new" opacity=".25" class="colordd8a8a svgShape"/><path fill="#ffffff" d="m1150.81 1199.58-4.03 12.4s-11.48-3.25-11.08-8.45c.41-5.18 15.11-3.95 15.11-3.95zM1140.55 1229.86s.23 11.38-2.79 12.03c-3.02.65-10.87-2.22-10.45-7.26.42-5.04 12.14-5.64 13.24-4.77zM1132.36 1256.27s2.43 8.57-1.99 12.68c0 0-11.33-1.05-10.5-6.98.84-5.92 12.49-5.7 12.49-5.7zM1130.25 1284.91s1.58 6.02-2.31 11.39c0 0-7.92-1.39-7.07-6.82.86-5.46 9.38-4.57 9.38-4.57zM1103.03 1159.15s-10.78-6.19-7.72-15.16l6.09-.82 1.63 15.98z" opacity=".5" class="colorfff svgShape"/><path fill="#ffd6aa" d="m763.54 1151.82-38.89 123.14 164.19 29.17-2.16-146.91z" class="colorffafaa svgShape"/><path fill="#ddb58a" d="m886.68 1157.22-123.14-5.4-17.73 56.16c17.2 1.7 34.53 1.79 51.75-.55 15.53-2.11 38.48-5.09 46.67 12.64 6.17 13.36-11.4 20.06-21.07 22.81-5.88 1.68-11.98 2.93-18.06 3.61-11.45 1.28-21.87-1.77-32.28-6.25-10.88-4.69-21.94-9.03-32.93-13.55l-15.24 48.27 164.19 29.16-2.16-146.9z" enable-background="new" opacity=".25" class="colordd8a8a svgShape"/><path fill="#ddb58a" d="M765.06 1153.5c42.01 22.92 86.51 45 122.69 76.79l-1.07-73.06-123.14-5.4-.34 1.09c.61.06 1.24.24 1.86.58z" enable-background="new" opacity=".25" class="colordd8a8a svgShape"/><path fill="#ffd6aa" d="M968.88 1052.32s-6.17-19.68-7.63-27.74c-1.46-8.07 7.7-8.23 9.41-14.09 1.71-5.87-8.83-12.41-22.8-19.78-13.97-7.39-36.84-79.73-41.02-79.87-44.88-1.62-224.01 39.36-226.48 87.34-.53 10.28 28.35 145.82 96.67 184.54 44.2-.84 88.31-4.16 132.47-6.1 3.31-.75 7.17-1.46 11.77-2.24 97.73-16.62 47.61-122.06 47.61-122.06z" class="colorffafaa svgShape"/><path fill="#ddb58a" d="M848.6 1179.64s72.1-4.05 82.36-7.29c0 0-49.41 18.63-82.36 7.29z" enable-background="new" class="colordd8a8a svgShape"/><path fill="#ffffff" d="M975.25 1068.45s-24.3 13.77-24.71 20.25c-.41 6.48 22.28 12.96 27.95 8.51 5.67-4.46-3.24-28.76-3.24-28.76z" class="colorfff svgShape"/><ellipse cx="918.95" cy="1038.88" fill="#ddb58a" enable-background="new" opacity=".25" rx="24.3" ry="16.81" class="colordd8a8a svgShape"/><path fill="#131444" d="M961.07 1021.06s-17.62 6.68-11.75 7.7 9.52-4.67 11.75-7.7z" class="color131e44 svgShape"/><path fill="#ddb58a" d="M838.62 996.43c6.92 6.32 11.95 14.75 17.26 22.39 2.65 3.82 5.45 7.53 8.2 11.28 1.39 1.9 4.24 7.16 6.78 7.48.51.06.89-.95 1.43-2.73.43-1.43.65-2.91.93-4.37.64-3.41 1.25-6.82 1.84-10.24 1.1-6.44 2.29-13 5.58-18.74 3.79-6.64 9.9-10.59 16.83-13.41 12.32-5.01 25.41-11.42 34.43-21.53-2.5-5.27-4.99-10.96-7.38-16.62-33.29 11.6-65.94 25.04-98.31 39.01 4.52 1.78 8.78 4.17 12.41 7.48z" enable-background="new" opacity=".25" class="colordd8a8a svgShape"/><path fill="#131444" d="M804.92 1026.32c.6-4.53 24.91 2.43 26.33 9.11 1.42 6.68-13.37 18.23-16.81 15.59-3.44-2.63 8.91-13.97 8.91-13.97s-19.44-3.03-18.43-10.73zM896.29 988.27s34.79-10.18 37.51-14.5c2.71-4.31-10.06-8.99-24.63-1.36-14.59 7.63-16.93 16.7-12.88 15.86zM936.81 993.63c2.11 5.45.06 11.32-4.55 13.1-4.6 1.78-10.06-1.18-12.17-6.64-2.11-5.46-.07-11.34 4.53-13.12 1.3-.5 2.64-.63 3.99-.4-1.45 1.12-1.99 3.35-1.17 5.44.95 2.46 3.44 3.82 5.53 3.02 1.53-.6 2.45-2.21 2.43-4 .57.79 1.04 1.64 1.41 2.6z" class="color131e44 svgShape"/><linearGradient id="k" x1="348.285" x2="887.779" y1="2470.475" y2="2470.475" gradientUnits="userSpaceOnUse"><stop offset="0" stop-color="#1d1f87" class="stopColor871d5c svgShape"/><stop offset=".944" stop-color="#181960" class="stopColor601843 svgShape"/></linearGradient><path fill="url(#k)" d="m887.78 2381.02-9.64 211.28c-80.1-3.73-153.74-7.82-218.38-12.55-127.83-9.09-220.38-20.09-257.47-32.46-17.91-9.09-35.27-39.73-51.46-86.82-5.09-63.82-1-111.82-1-111.82l537.95 32.37z"/><path fill="#03042b" d="M349.84 2348.65s-4.09 48 1 111.82c4.9 14.25 9.91 26.78 15.01 37.88 7.94 1.04 15.85 2.4 23.67 4.22 45.91 10.7 89.51 33.57 125.89 64.36 40.45 4.6 89.09 8.89 144.36 12.82 64.64 4.73 138.28 8.82 218.38 12.55l9.64-211.28-537.95-32.37z" opacity=".25" class="color21032b svgShape"/><linearGradient id="l" x1="495.666" x2="1182.341" y1="2476.839" y2="2476.839" gradientUnits="userSpaceOnUse"><stop offset="0" stop-color="#1d1f87" class="stopColor871d5c svgShape"/><stop offset=".944" stop-color="#181960" class="stopColor601843 svgShape"/></linearGradient><path fill="url(#l)" d="M1182.34 2602.85c-199.1-5.09-382.11-13-522.57-23.09l-164.1-172.74 488.66-45.09 120.55-11.09 18.46 60.09 59 191.92z"/><path fill="#03042b" d="M731.17 2560.22c26.61-12.03 56.36-16.5 85.23-19.01 34.75-3.02 69.65-2.81 104.37-6.45 24.53-2.57 48.92-6.54 72.91-12.33 23.52-5.68 46.83-12.62 68.27-24.03 26.4-14.04 49.08-33.53 72.16-52.43l-10.78-35.05-18.46-60.09-120.55 11.09-488.66 45.09 164.1 172.74c12.97.93 26.42 1.84 40.1 2.73 8.44-9.22 19.13-16.75 31.31-22.26z" opacity=".25" class="color21032b svgShape"/><linearGradient id="m" x1="433.83" x2="906.945" y1="1067.676" y2="2872.634" gradientUnits="userSpaceOnUse"><stop offset="0" stop-color="#ffa545" class="stopColorffe245 svgShape"/><stop offset=".526" stop-color="#de7200" class="stopColorde007b svgShape"/><stop offset="1" stop-color="#fe9526" class="stopColore38427 svgShape"/></linearGradient><path fill="url(#m)" d="M1146.86 2402.45c-6.34-296.84-90.22-1111.09-349.08-1140.69-385.48-44.08-454.43 740.15-477.11 1132.26 134.36 156.88 683.09 157.39 826.19 8.43z"/><path fill="#ffd6aa" d="m1581.61 1337.94-225.01 298.43s-66.19-53.43-291.43-161.18l-83.37 233.49c182.71 98.02 314.56 171.72 404.75 146.9 146.76-40.39 238.19-359.72 286.08-489.5-18.84-16.26-69.82-15.12-91.02-28.14z" class="colorffafaa svgShape"/><path fill="#ffd6aa" d="M1568.27 1346.57s-16.02-33.27-12.9-72.15c1.36-16.93 27.56-32.7 40.3-31.51 11.76 1.1 33.52 21.16 36.74 29.7 3.22 8.54 5.1 20.02-17.68 13.39-22.78-6.63-25.44-.75-25.44-.75l-21.02 61.32z" class="colorffafaa svgShape"/><path fill="#ffd6aa" d="M1650.03 1378s49.16 26.63 74.82-96.5c3.1-14.88-17.39-12.33-17.5-12.36.79-2.97-5.99-10.74-11.6-13.86-5.58-3.1-14.41-1.88-14.41-1.88s-.73-4.49-5.66-9c-10.06-9.29-23.44-2.59-23.5-2.52.04-.27.11-.53.15-.8 6.06-32.23 34.29-121.96 18.45-128.13-20.48-7.98-79.05 166.21-79.05 166.21s-19.15 33.78-24.19 66.19c-1.62 10.6 82.49 32.65 82.49 32.65z" class="colorffafaa svgShape"/><path fill="#ffffff" d="M1658.71 1127.49s11.24 5.88 12.88 3.51c1.64-2.37.94-16.71-2.47-16.4-3.42.32-10.83 9.44-10.41 12.89z" opacity=".5" class="colorfff svgShape"/><path fill="#17197a" d="M1063.83 1717.83c-22.21-5.49-44.24-11.7-66.18-18.2-15.98-4.73-31.5-9.96-47.08-15.85-12.31-4.65-26.04-10.17-39.53-9.84 1.64 9.03 3.73 17.96 6.4 26.75 12.98 42.84 36.66 82.47 46.28 126.34 4.5 20.52 8.83 41.46 9.44 62.51.59 20.49-4.29 38.98-14.24 56.83-9.33 16.73-21.71 31.63-30.33 48.77-9.24 18.38-11.92 38.7-10.53 59.09 2.89 42.52 20.29 82.44 33.11 122.58 6.31 19.75 12.42 40.21 14.13 60.96 1.63 19.79 2.12 39.83.89 59.65-2.38 38.13-11.79 79.48-41.56 105.81-13.36 11.81-29.41 20.13-45.64 27.24-18.87 8.27-38.08 15.93-57.28 23.38-44.69 17.32-90.31 32.23-136.49 45.07-12.91 3.59-25.88 7.04-38.89 10.33 196.47 15.96 417.26-20.08 500.56-106.8-3.26-151.28-26.66-436.92-83.06-684.62z" enable-background="new" opacity=".25" class="color7a1752 svgShape"/><path fill="#17197a" d="M1065.19 1723.84c-29.52-3.19-57-17.45-85.36-26.41 37.1 45.82 58.01 101.72 67.85 159.71 4.84 28.5 7.29 57.36 8.55 86.22.63 14.43.99 28.88 1.16 43.32.18 15.03-.57 30.25.96 45.22 3.28 32.18 15.32 62.53 22.1 93.99 7.42 34.4 6.39 68.77 3.04 103.58-2.82 29.27-8.86 60.25-1.49 89.25 5.68 22.39 17.37 42.82 28.59 62.81 6.71 11.95 13.39 24.02 19.1 36.5 6.21-5.01 11.99-10.19 17.18-15.59-3.22-150.04-26.26-432.3-81.68-678.6z" enable-background="new" opacity=".25" class="color7a1752 svgShape"/><linearGradient id="n" x1="845.373" x2="1318.487" y1="959.804" y2="2764.762" gradientUnits="userSpaceOnUse"><stop offset="0" stop-color="#ffa545" class="stopColorffe245 svgShape"/><stop offset=".526" stop-color="#de7200" class="stopColorde007b svgShape"/><stop offset="1" stop-color="#fe9526" class="stopColore38427 svgShape"/></linearGradient><path fill="url(#n)" d="M1220.7 1533.93c-150.82-78.5-254.66-171.18-317.61-213.4-70.8 60.75-105.65 314.17-105.65 314.17s138.46 115.85 302.24 167.17c28.69-104.23 89-164.59 121.02-267.94z"/><linearGradient id="o" x1="403.483" x2="1663.12" y1="677.21" y2="2566.663" gradientUnits="userSpaceOnUse"><stop offset="0" stop-color="#ffa545" class="stopColorffe245 svgShape"/><stop offset=".526" stop-color="#de7200" class="stopColorde007b svgShape"/><stop offset="1" stop-color="#fe9526" class="stopColore38427 svgShape"/></linearGradient><path fill="url(#o)" d="m886.68 1252.82-151.62-9.73s-11.96-24.22-22.48 35.79c-10.5 60.02 201.42 42.5 201.42 42.5l-27.32-68.56z"/><path fill="#131444" d="M874.79 828.85c4.86-85.87-82.93-61.39-129.96 15.83-104.98-64.44-78.95 4.94-156.38 102.83-33.88 42.83 1.17 101.69 53.02 122.76-11.34 121.52 77.21 144.6 150.72 120.33 75.74-25.01 62.18-79.02 60.65-84.3-15.32-9.08-30.68-18.48-44.05-30.31-17.4-15.39-33.28-40.31-14.29-60.91 6.79-7.37 15.68-12.64 25.28-16.63 19.13 3.24 22.63 36.93 37.19 49.67 14.74 12.9 5.44-38.34.11-58.96.53.25 1.03.56 1.41.99 160.54-41.32 101.33-124.45 16.3-161.3z" class="color131e44 svgShape"/><path fill="#53d86a" d="M783.98 839.01s21.06-16.11 49.5 5.47l-15.05 6.09s31.29 5.26 37.03 18.47l-16.13 8.93s24.02 4.92 49.09-3.53c25.08-8.45 37.31 34.03 36.99 35.1-.32 1.08-9.72-20.77-28.31-16.62-18.59 4.15-85.12-1.24-85.12-1.24l21.31-21.62-41.65-9.21 17.72-19.52-25.38-2.32zM756.01 1064.41s21.13 25.44 24.32 44.63l-16.4-10.21s-24.44 13.17-14.45 38.59c0 0-16.86-18.42-19.02-36.54 0 0-26.2 27.63-17.27 42.95 0 0-18.13-18.02-15.53-32.05 0 0-18.84 6.55-19.1 19.16 0 0-14.56-17.74-4.72-26.37l30.76-24.18 7.58 19.91 17.36-26.97 16.34 23.45 11.64-14.06-1.51-18.31z" opacity=".2" class="colorf4f2f3 svgShape"/><path fill="#17197a" d="M380.08 2303.82s212.25 119.9 416.4 30.78c0 0-85.87 72.91-247.9 71.29-162.02-1.61-168.5-102.07-168.5-102.07zM872.63 1833.41c-1.72-9 58.33 59.95 27.54 150.68-30.78 90.73-8.1 179.85 8.1 191.19 16.2 11.34-85.87-87.49-72.91-157.16 12.97-69.67 51.86-108.56 37.27-184.71zM884.56 1643.24s124.06 88.48 223.44 26.66c0 0-51.5 53.43-134.46 40-82.95-13.44-88.98-66.66-88.98-66.66zM533.43 1875.32s99.62 100.79 250.29 82.28c0 0-30.05 59.89-168.57 17.88-138.51-42.02-81.72-100.16-81.72-100.16z" enable-background="new" opacity=".25" class="color7a1752 svgShape"/><path fill="#53d86a" d="M526.44 1584.97c-19.51-31.46 48.61-218.73 150.68-166.89 102.08 51.85 128-30.24 136.1 68.59 8.11 98.84-207.39 226.3-286.78 98.3z" enable-background="new" opacity=".1" class="colorf4f2f3 svgShape"/><path fill="#17197a" d="M905.58 1331.13s-35.65 66.43-24.3 98.84c0 0-37.27-40.51 24.3-98.84z" enable-background="new" class="color7a1752 svgShape"/><path fill="#53d86a" d="M371.44 2129.86c-.32-41.06 38.13-288.89 93.85-288.89 55.72 0-19.06 102.65 61.59 155.44s307.95 183.31 233.16 271.29c-74.78 87.99-387.14 48.4-388.6-137.84z" enable-background="new" opacity=".1" class="colorf4f2f3 svgShape"/><path fill="#ddb58a" d="M1349.64 1630.42s31.32 39.97 30.51 77.23c0 0 21.07-58.33-30.51-77.23z" enable-background="new" class="colordd8a8a svgShape"/></g></svg>