<svg xmlns="http://www.w3.org/2000/svg" width="50" height="51" viewBox="0 0 50 51" fill="none">
  <path d="M12.0178 3.76232C6.83651 7.37717 4.94405 9.69216 2.37389 14.0505L29.822 0.969815C23.018 0.0823575 19.1606 0.168632 12.0178 3.76232Z" fill="#2563EB" style="fill:#2563EB;fill:color(display-p3 0.1451 0.3882 0.9216);fill-opacity:1;"/>
  <path d="M18.1009 13.1687C18.1009 13.1687 6.11932 19.32 0 23.8978V29.6297C15.843 19.4693 25.2453 14.6395 43.6202 8.75944L39.4659 5.52601C31.372 7.2285 18.1009 13.1687 18.1009 13.1687Z" fill="#2563EB" style="fill:#2563EB;fill:color(display-p3 0.1451 0.3882 0.9216);fill-opacity:1;"/>
  <path d="M27.4481 21.9871L2.37389 34.1859L4.30267 38.1542L29.822 26.2493L31.7507 30.3646L39.0208 18.9006L25.6677 18.4597L27.4481 21.9871Z" fill="#2563EB" style="fill:#2563EB;fill:color(display-p3 0.1451 0.3882 0.9216);fill-opacity:1;"/>
  <path d="M49.4065 23.1629C34.4713 32.3427 25.3583 36.7912 7.4184 43.4453L12.0178 46.8257C12.0178 46.8257 23.9541 42.9617 31.1573 39.477C38.8899 35.7362 50 28.16 50 28.16L49.4065 23.1629Z" fill="#2563EB" style="fill:#2563EB;fill:color(display-p3 0.1451 0.3882 0.9216);fill-opacity:1;"/>
  <path d="M46.1424 38.5951L23.1454 50.5C28.6713 50.1883 31.648 49.5855 36.6469 47.4136C41.1891 44.3879 43.1444 42.3981 46.1424 38.5951Z" fill="#2563EB" style="fill:#2563EB;fill:color(display-p3 0.1451 0.3882 0.9216);fill-opacity:1;"/>
</svg>