<svg xmlns="http://www.w3.org/2000/svg" width="24" height="24" viewBox="0 0 24 24" fill="none">
  <g clip-path="url(#clip0_4255_9077)">
    <path d="M13.0984 0H14.6528L15.6684 0.0207254L16.4974 0.0414508L16.9326 0.0621762C18.2176 0.124352 19.0881 0.331606 19.8342 0.621762C20.6218 0.932643 21.285 1.34715 21.9689 2.01036C22.6321 2.67358 23.0466 3.35751 23.3575 4.14508C23.6269 4.82902 23.8135 5.59585 23.8964 6.65285L23.9585 7.79275L23.9793 8.87047L24 10.9223V14.7772L23.9793 15.9793L23.9378 16.9741C23.8756 18.2591 23.6684 19.1295 23.3782 19.8964C23.0674 20.6839 22.6528 21.3472 21.9896 22.0311C21.3264 22.6943 20.6632 23.1088 19.8549 23.4197C19.171 23.6891 18.4041 23.8756 17.3471 23.9585L16.0622 24.0207L14.9223 24.0415L13.0777 24.0622H9.2228L8.02073 24.0415L7.02591 24C5.74093 23.9378 4.87047 23.7306 4.12435 23.4404C3.33679 23.1295 2.67357 22.715 1.98964 22.0518C1.32642 21.3886 0.911917 20.7047 0.601036 19.9171C0.331606 19.2332 0.145078 18.4663 0.0621762 17.4093L0.0207254 16.5596L0 15.7306L0 14.6528V12.7461V9.32642L0.0207254 8.31088L0.0414508 7.48186L0.0621762 7.04663C0.124352 5.78238 0.331606 4.91192 0.621762 4.14508C0.932642 3.35751 1.34715 2.6943 2.01036 2.01036C2.67357 1.34715 3.35751 0.932643 4.14508 0.621762C4.82902 0.352332 5.59585 0.165803 6.65285 0.0829016L7.50259 0.0414508L8.33161 0.0207254L9.32642 0H10.8808C10.9016 0 13.0984 0 13.0984 0ZM14.6114 2.17617H9.36788L8.45596 2.19689L7.12953 2.23834C6.79793 2.25907 6.46632 2.27979 6.13471 2.32124L5.94819 2.34197C5.82383 2.36269 5.67876 2.38342 5.5544 2.42487L5.40933 2.46632C5.36788 2.48705 5.32642 2.48705 5.28497 2.50777L5.01554 2.59067L4.89119 2.63212C4.33161 2.8601 3.93782 3.10881 3.50259 3.52332C3.08808 3.93782 2.81865 4.35233 2.6114 4.91192L2.54922 5.18135L2.50777 5.3057C2.40415 5.65803 2.30052 6.15544 2.23834 6.83938L2.21762 7.35751L2.17617 8.43523L2.15544 10.2798V14.5492L2.17617 15.8756L2.21762 16.8497C2.23834 17.2021 2.25907 17.5544 2.32124 17.9067L2.34197 18.0725C2.34197 18.0933 2.34197 18.1347 2.36269 18.1554L2.40415 18.3005L2.4456 18.4456C2.4456 18.4663 2.46632 18.487 2.46632 18.5078L2.50777 18.6321L2.54922 18.7565L2.56995 18.8187L2.65285 19.0674C2.8601 19.6269 3.12953 20.0207 3.54404 20.456C3.95855 20.8705 4.37306 21.1399 4.93264 21.3472L5.18135 21.4301L5.28497 21.4715L5.34715 21.4922L5.4715 21.5337C5.49223 21.5337 5.51295 21.5544 5.53368 21.5544L5.67876 21.5959L5.82383 21.6373L5.98964 21.658C6.30052 21.7202 6.67357 21.7617 7.12953 21.7824L8.60104 21.8446L10.5492 21.8653H14.7772L15.8549 21.8446L16.829 21.8031C17.285 21.7824 17.658 21.7409 17.9689 21.6788L18.1347 21.658L18.2798 21.6166L18.4456 21.5544L18.5078 21.5337L18.6321 21.4922L18.7565 21.4508L18.8187 21.4301L19.0674 21.3472C19.6269 21.1399 20.0207 20.8705 20.456 20.456C20.8705 20.0415 21.1399 19.6269 21.3471 19.0674L21.43 18.8187C21.5544 18.4456 21.6788 17.9275 21.7409 17.1399L21.8031 15.8756L21.8238 14.5907V12.7461V9.40933L21.8031 8.12435L21.7617 7.15026C21.7409 6.8601 21.7202 6.54922 21.6788 6.25907L21.658 6.07254C21.6373 5.98964 21.6373 5.90674 21.6166 5.82383L21.5751 5.67876C21.5544 5.63731 21.5544 5.57513 21.5337 5.53368L21.4922 5.40933L21.4715 5.34715L21.3679 5.01554L21.3471 4.95337C21.1192 4.39378 20.8705 4 20.456 3.56477C20.0414 3.12953 19.6269 2.88083 19.0674 2.67358L18.943 2.63212L18.6736 2.54922L18.6114 2.48705L18.4456 2.4456C18.114 2.36269 17.6995 2.27979 17.1399 2.23834L16.2487 2.19689L15.5233 2.17617H14.6114Z" fill="url(#paint0_linear_4255_9077)" style=""/>
    <path d="M11.9992 5.84428C15.3982 5.84428 18.1546 8.60076 18.1546 11.9997C18.1546 15.3987 15.3982 18.1552 11.9992 18.1552C8.60023 18.1552 5.84375 15.3987 5.84375 11.9997C5.84375 8.60076 8.60023 5.84428 11.9992 5.84428ZM11.9992 7.99972C9.78157 7.99972 7.99919 9.78211 7.99919 11.9997C7.99919 14.2173 9.78157 15.9997 11.9992 15.9997C14.2168 15.9997 15.9992 14.2173 15.9992 11.9997C15.9992 9.78211 14.1961 7.99972 11.9992 7.99972ZM19.8334 5.59558C19.8541 6.38314 19.2324 7.04636 18.4448 7.06708C17.6572 7.08781 16.994 6.46604 16.9733 5.67848C16.9733 5.65775 16.9733 5.6163 16.9733 5.59558C16.994 4.80801 17.6572 4.16553 18.4448 4.20698C19.2116 4.20698 19.8127 4.82874 19.8334 5.59558Z" fill="url(#paint1_linear_4255_9077)" style=""/>
  </g>
  <defs>
    <linearGradient id="paint0_linear_4255_9077" x1="4.84866" y1="24.1312" x2="18.9949" y2="0.135787" gradientUnits="userSpaceOnUse">
      <stop stop-color="#FDD074" style="stop-color:#FDD074;stop-color:color(display-p3 0.9922 0.8157 0.4549);stop-opacity:1;"/>
      <stop offset="0.25" stop-color="#F77F34" style="stop-color:#F77F34;stop-color:color(display-p3 0.9686 0.4980 0.2039);stop-opacity:1;"/>
      <stop offset="0.5" stop-color="#DD326E" style="stop-color:#DD326E;stop-color:color(display-p3 0.8667 0.1961 0.4314);stop-opacity:1;"/>
      <stop offset="0.75" stop-color="#D82B7E" style="stop-color:#D82B7E;stop-color:color(display-p3 0.8471 0.1686 0.4941);stop-opacity:1;"/>
      <stop offset="1" stop-color="#A432B1" style="stop-color:#A432B1;stop-color:color(display-p3 0.6431 0.1961 0.6941);stop-opacity:1;"/>
    </linearGradient>
    <linearGradient id="paint1_linear_4255_9077" x1="8.4007" y1="18.0839" x2="16.622" y2="4.09853" gradientUnits="userSpaceOnUse">
      <stop stop-color="#FDD074" style="stop-color:#FDD074;stop-color:color(display-p3 0.9922 0.8157 0.4549);stop-opacity:1;"/>
      <stop offset="0.25" stop-color="#F77F34" style="stop-color:#F77F34;stop-color:color(display-p3 0.9686 0.4980 0.2039);stop-opacity:1;"/>
      <stop offset="0.5" stop-color="#DD326E" style="stop-color:#DD326E;stop-color:color(display-p3 0.8667 0.1961 0.4314);stop-opacity:1;"/>
      <stop offset="0.75" stop-color="#D82B7E" style="stop-color:#D82B7E;stop-color:color(display-p3 0.8471 0.1686 0.4941);stop-opacity:1;"/>
      <stop offset="1" stop-color="#A432B1" style="stop-color:#A432B1;stop-color:color(display-p3 0.6431 0.1961 0.6941);stop-opacity:1;"/>
    </linearGradient>
    <clipPath id="clip0_4255_9077">
      <rect width="24" height="24" fill="white" style="fill:white;fill:white;fill-opacity:1;"/>
    </clipPath>
  </defs>
</svg>