<svg width="414" height="369" viewBox="0 0 414 369" fill="none" xmlns="http://www.w3.org/2000/svg">
<path d="M26.7149 310.201H17.8711" stroke="#263238" style="stroke:#263238;stroke:color(display-p3 0.1490 0.1961 0.2196);stroke-opacity:1;" stroke-width="1.1133" stroke-miterlimit="10"/>
<path d="M384.935 310.201H40.7012" stroke="#263238" style="stroke:#263238;stroke:color(display-p3 0.1490 0.1961 0.2196);stroke-opacity:1;" stroke-width="1.1133" stroke-miterlimit="10"/>
<path d="M255.431 347.182C271.601 347.182 284.708 343.576 284.708 339.128C284.708 334.68 271.601 331.074 255.431 331.074C239.262 331.074 226.154 334.68 226.154 339.128C226.154 343.576 239.262 347.182 255.431 347.182Z" fill="#263238" style="fill:#263238;fill:color(display-p3 0.1490 0.1961 0.2196);fill-opacity:1;"/>
<path d="M104.11 357.422C73.6384 357.422 69.1394 353.019 68.6962 349.464C68.5956 348.724 68.6686 347.97 68.9093 347.263C69.1501 346.556 69.5521 345.914 70.0835 345.389C78.2915 336.777 125.593 340.418 191.045 345.457C200.178 346.16 209.619 346.883 219.301 347.605C285.437 352.518 312.065 351.882 317.565 345.235C318.683 343.877 318.914 342.181 318.298 339.888C315.677 330.303 280.649 330.255 267.383 331.006C267.08 331.022 266.782 330.918 266.555 330.716C266.328 330.514 266.189 330.23 266.169 329.927C266.16 329.777 266.181 329.627 266.23 329.485C266.28 329.343 266.357 329.212 266.457 329.1C266.558 328.988 266.679 328.897 266.815 328.832C266.951 328.767 267.098 328.73 267.248 328.723C272.325 328.424 316.93 326.18 320.504 339.32C321.323 342.345 320.947 344.763 319.328 346.728C313.153 354.223 287.874 355.023 219.137 349.917C209.446 349.195 200.005 348.472 190.872 347.769C128.483 342.952 79.1971 339.166 71.7405 346.998C71.4457 347.278 71.222 347.624 71.0879 348.008C70.9539 348.392 70.9134 348.802 70.9698 349.204C71.2492 351.478 76.7501 356.564 121.065 354.792C145.853 353.828 170.756 351.102 171.007 351.073C171.297 351.062 171.581 351.16 171.801 351.35C172.021 351.539 172.161 351.805 172.193 352.093C172.224 352.382 172.146 352.672 171.972 352.904C171.798 353.137 171.543 353.295 171.257 353.347C171.007 353.347 146.027 356.083 121.162 357.075C114.765 357.306 109.1 357.422 104.11 357.422Z" fill="white" stroke="#263238" style="fill:white;fill:white;fill-opacity:1;stroke:#263238;stroke:color(display-p3 0.1490 0.1961 0.2196);stroke-opacity:1;" stroke-width="1.1133" stroke-miterlimit="10"/>
<path d="M244.547 346.198C263.6 346.198 279.046 330.753 279.046 311.7C279.046 292.647 263.6 277.201 244.547 277.201C225.494 277.201 210.049 292.647 210.049 311.7C210.049 330.753 225.494 346.198 244.547 346.198Z" fill="white" style="fill:white;fill:white;fill-opacity:1;"/>
<mask id="mask0_4255_9814" style="mask-type:luminance" maskUnits="userSpaceOnUse" x="210" y="277" width="70" height="70">
<path d="M244.543 346.202C263.596 346.202 279.042 330.757 279.042 311.704C279.042 292.651 263.596 277.205 244.543 277.205C225.49 277.205 210.045 292.651 210.045 311.704C210.045 330.757 225.49 346.202 244.543 346.202Z" fill="white" style="fill:white;fill:white;fill-opacity:1;"/>
</mask>
<g mask="url(#mask0_4255_9814)">
<path d="M244.538 346.209C250.816 346.213 256.977 344.503 262.355 341.264C267.733 338.025 272.124 333.38 275.057 327.828C277.989 322.277 279.35 316.031 278.994 309.763C278.638 303.495 276.577 297.443 273.035 292.26C272.659 307.288 264.365 329.475 221.225 337.105C227.575 342.962 235.899 346.213 244.538 346.209Z" fill="#92B1F5" style="fill:#92B1F5;fill:color(display-p3 0.5725 0.6941 0.9608);fill-opacity:1;"/>
<path opacity="0.3" d="M244.538 346.209C250.816 346.213 256.977 344.503 262.355 341.264C267.733 338.025 272.124 333.38 275.057 327.828C277.989 322.277 279.35 316.031 278.994 309.763C278.638 303.495 276.577 297.443 273.035 292.26C272.659 307.288 264.365 329.475 221.225 337.105C227.575 342.962 235.899 346.213 244.538 346.209Z" fill="white" style="fill:white;fill:white;fill-opacity:1;"/>
<path d="M261.515 325.229C255.363 319.244 247.892 314.787 239.704 312.214M261.515 325.229H263.345C267.405 321.204 270.902 316.648 273.74 311.684C257.584 294.613 241.871 296.357 241.871 296.357C241.871 296.357 257.632 294.613 273.788 311.704C274.674 310.114 275.416 308.621 276.023 307.243C269.299 297.821 257.719 291.396 251.505 290.432L250.06 290.085M261.515 325.229C247.324 325.027 236.534 322.831 228.471 319.892C228.991 298.101 236.765 283.583 240.831 277.436C242.126 277.286 243.429 277.209 244.733 277.205C245.917 277.205 247.074 277.273 248.23 277.379M250.06 290.085C247.833 289.681 245.554 289.648 243.316 289.989M250.06 290.085L254.174 278.525C252.23 277.969 250.241 277.586 248.23 277.379M248.23 277.379C245.561 281.685 238.692 295.442 238.692 322.734M269.308 318.206C255.571 304.815 240.407 304.112 240.407 304.112" stroke="#263238" style="stroke:#263238;stroke:color(display-p3 0.1490 0.1961 0.2196);stroke-opacity:1;" stroke-width="1.1133" stroke-linecap="round" stroke-linejoin="round"/>
<path d="M228.434 319.948C228.955 298.157 236.729 283.639 240.794 277.492C237.613 277.849 234.498 278.647 231.536 279.862C224.235 290.573 220.111 303.131 219.639 316.085C222.468 317.595 225.408 318.887 228.434 319.948Z" stroke="#263238" style="stroke:#263238;stroke:color(display-p3 0.1490 0.1961 0.2196);stroke-opacity:1;" stroke-width="1.1133" stroke-linecap="round" stroke-linejoin="round"/>
<path d="M231.536 279.834C225.579 282.29 220.426 286.363 216.661 291.592C212.896 296.822 210.667 303 210.227 309.429C213.063 312.037 216.227 314.265 219.639 316.057C220.111 303.102 224.235 290.545 231.536 279.834Z" stroke="#263238" style="stroke:#263238;stroke:color(display-p3 0.1490 0.1961 0.2196);stroke-opacity:1;" stroke-width="1.1133" stroke-linecap="round" stroke-linejoin="round"/>
<path d="M275.977 307.243C276.728 305.584 277.371 303.879 277.904 302.137C276.463 297.224 273.953 292.69 270.553 288.862L267.884 297.764L270.505 288.862C268.377 286.475 265.929 284.394 263.231 282.677L260.293 293.669L263.251 282.725C260.43 280.921 257.359 279.542 254.137 278.631L250.023 290.191C256.324 291.097 266.064 294.806 275.977 307.243Z" stroke="#263238" style="stroke:#263238;stroke:color(display-p3 0.1490 0.1961 0.2196);stroke-opacity:1;" stroke-width="1.1133" stroke-linecap="round" stroke-linejoin="round"/>
<path d="M246.448 338.333C250.461 335.905 254.29 333.184 257.902 330.192C259.877 328.535 263.5 325.25 263.615 325.25C263.5 325.25 270.417 317.447 272.71 313.372C272.71 313.429 273.731 311.753 273.673 311.695C273.615 311.637 274.501 310.241 274.444 310.183C275.005 309.238 275.495 308.253 275.908 307.235C276.659 305.576 277.302 303.87 277.835 302.129C278.755 305.277 279.222 308.54 279.222 311.82C279.222 312.36 279.222 312.822 279.222 313.323C264.656 333.776 253.432 342.543 246.371 346.386C245.802 346.386 245.224 346.386 244.637 346.386C241.104 346.387 237.592 345.848 234.223 344.787C238.419 342.873 242.501 340.718 246.448 338.333ZM246.448 338.333H246.698" stroke="#263238" style="stroke:#263238;stroke:color(display-p3 0.1490 0.1961 0.2196);stroke-opacity:1;" stroke-width="1.1133" stroke-linecap="round" stroke-linejoin="round"/>
<path d="M279.217 313.336C264.651 333.788 253.428 342.555 246.424 346.312C255.013 345.88 263.132 342.262 269.196 336.164C275.259 330.066 278.833 321.927 279.217 313.336Z" stroke="#263238" style="stroke:#263238;stroke:color(display-p3 0.1490 0.1961 0.2196);stroke-opacity:1;" stroke-width="1.1133" stroke-linecap="round" stroke-linejoin="round"/>
<path d="M217.682 333.373C221.956 338.747 227.735 342.724 234.281 344.799C238.477 342.885 242.559 340.73 246.506 338.344C238.279 339.866 225.408 336.09 217.682 333.373Z" stroke="#263238" style="stroke:#263238;stroke:color(display-p3 0.1490 0.1961 0.2196);stroke-opacity:1;" stroke-width="1.1133" stroke-linecap="round" stroke-linejoin="round"/>
<path d="M246.5 338.34C250.514 335.913 254.342 333.192 257.955 330.2C233.109 332.743 217.782 325.046 211.27 320.672C212.499 325.304 214.681 329.628 217.676 333.369C225.402 336.086 238.273 339.862 246.5 338.34Z" stroke="#263238" style="stroke:#263238;stroke:color(display-p3 0.1490 0.1961 0.2196);stroke-opacity:1;" stroke-width="1.1133" stroke-linecap="round" stroke-linejoin="round"/>
<path d="M261.514 325.249H263.344C261.716 326.887 259.934 328.544 257.959 330.201C233.113 332.744 217.786 325.047 211.273 320.692C210.513 317.806 210.128 314.833 210.127 311.848C210.127 311.049 210.165 310.268 210.223 309.479C212.323 311.453 216.591 315.866 228.431 319.97C236.533 322.85 247.323 325.047 261.514 325.249ZM261.514 325.249C261.648 325.374 261.783 325.499 261.908 325.634" stroke="#263238" style="stroke:#263238;stroke:color(display-p3 0.1490 0.1961 0.2196);stroke-opacity:1;" stroke-width="1.1133" stroke-linecap="round" stroke-linejoin="round"/>
</g>
<path d="M244.547 346.198C263.6 346.198 279.046 330.753 279.046 311.7C279.046 292.647 263.6 277.201 244.547 277.201C225.494 277.201 210.049 292.647 210.049 311.7C210.049 330.753 225.494 346.198 244.547 346.198Z" stroke="#263238" style="stroke:#263238;stroke:color(display-p3 0.1490 0.1961 0.2196);stroke-opacity:1;" stroke-width="1.1133" stroke-linecap="round" stroke-linejoin="round"/>
<path d="M308.082 252.75C308.082 252.75 305.722 245.091 298.844 242.336C294.027 240.409 288.564 240.93 283.603 241.787C274.374 243.396 266.32 247.066 257.592 250.197C257.592 250.197 261.33 248.82 276.657 256.296C282.302 259.041 288.757 261.18 295.212 261.035C300.385 260.92 308.343 259.436 308.082 252.75Z" fill="#92B1F5" style="fill:#92B1F5;fill:color(display-p3 0.5725 0.6941 0.9608);fill-opacity:1;"/>
<path d="M308.917 230.243C308.917 230.243 308.917 222.218 303.137 217.604C299.11 214.386 293.696 213.278 288.686 212.671C279.38 211.544 270.613 212.729 261.326 213.201C261.326 213.201 265.305 212.97 277.819 224.55C282.434 228.808 288.002 232.719 294.197 234.443C299.187 235.831 307.221 236.717 308.917 230.243Z" fill="#92B1F5" style="fill:#92B1F5;fill:color(display-p3 0.5725 0.6941 0.9608);fill-opacity:1;"/>
<path d="M324.723 260.018C324.723 260.018 318.47 254.999 318.451 247.591C318.451 242.437 320.927 237.514 323.557 233.227C328.451 225.231 334.829 219.104 340.975 212.119C340.975 212.119 338.316 215.086 339.607 232.09C340.089 238.352 339.684 245.144 337.17 251.088C335.195 255.866 330.888 262.716 324.723 260.018Z" fill="#92B1F5" style="fill:#92B1F5;fill:color(display-p3 0.5725 0.6941 0.9608);fill-opacity:1;"/>
<path d="M346.879 272.326C346.879 272.326 345.993 264.359 351.214 259.099C354.837 255.447 360.087 253.713 364.971 252.538C374.085 250.342 382.929 250.505 392.206 249.898C392.206 249.898 388.237 250.12 377.139 263.068C373.054 267.885 367.977 272.364 361.995 274.802C357.226 276.757 349.345 278.559 346.879 272.326Z" fill="#92B1F5" style="fill:#92B1F5;fill:color(display-p3 0.5725 0.6941 0.9608);fill-opacity:1;"/>
<path d="M345.46 243.931C345.46 243.931 337.512 242.842 333.697 236.493C331.038 232.081 330.643 226.571 330.691 221.542C330.788 212.178 333.119 203.633 334.805 194.49C334.805 194.49 334.044 198.402 343.889 212.322C347.512 217.457 350.633 223.488 351.596 229.885C352.28 235.019 352.097 243.102 345.46 243.931Z" fill="#92B1F5" style="fill:#92B1F5;fill:color(display-p3 0.5725 0.6941 0.9608);fill-opacity:1;"/>
<path d="M368.336 229.647C368.336 229.647 374.049 235.273 381.409 234.463C386.524 233.876 391.129 230.822 395.079 227.72C402.439 221.94 407.786 214.868 414 207.961C414 207.961 411.37 210.938 394.328 211.641C388.056 211.901 381.361 213.086 375.744 216.284C371.235 218.809 364.945 223.886 368.336 229.647Z" fill="#92B1F5" style="fill:#92B1F5;fill:color(display-p3 0.5725 0.6941 0.9608);fill-opacity:1;"/>
<path d="M361.715 224.091C361.715 224.091 369.692 224.891 374.894 219.621C378.516 215.951 380.192 210.691 381.32 205.787C383.42 196.664 383.169 187.811 383.67 178.533C383.67 178.533 383.497 182.502 370.655 193.735C365.934 197.868 361.455 202.993 359.094 208.995C357.177 213.822 355.453 221.721 361.715 224.091Z" fill="#92B1F5" style="fill:#92B1F5;fill:color(display-p3 0.5725 0.6941 0.9608);fill-opacity:1;"/>
<path d="M333.231 301.751L319.454 267.85L303.568 228.65" stroke="#263238" style="stroke:#263238;stroke:color(display-p3 0.1490 0.1961 0.2196);stroke-opacity:1;" stroke-width="1.1133" stroke-linecap="round" stroke-linejoin="round"/>
<path d="M336.404 295.917L350.171 248.779L365.007 219.646" stroke="#263238" style="stroke:#263238;stroke:color(display-p3 0.1490 0.1961 0.2196);stroke-opacity:1;" stroke-width="1.1133" stroke-linecap="round" stroke-linejoin="round"/>
<path d="M341.697 277.389L355.474 269.441" stroke="#263238" style="stroke:#263238;stroke:color(display-p3 0.1490 0.1961 0.2196);stroke-opacity:1;" stroke-width="1.1133" stroke-linecap="round" stroke-linejoin="round"/>
<path d="M350.173 248.782L343.285 233.416" stroke="#263238" style="stroke:#263238;stroke:color(display-p3 0.1490 0.1961 0.2196);stroke-opacity:1;" stroke-width="1.1133" stroke-linecap="round" stroke-linejoin="round"/>
<path d="M358.793 233.503L375.594 226.008" stroke="#263238" style="stroke:#263238;stroke:color(display-p3 0.1490 0.1961 0.2196);stroke-opacity:1;" stroke-width="1.1133" stroke-linecap="round" stroke-linejoin="round"/>
<path d="M322.102 274.206L327.93 250.902" stroke="#263238" style="stroke:#263238;stroke:color(display-p3 0.1490 0.1961 0.2196);stroke-opacity:1;" stroke-width="1.1133" stroke-linecap="round" stroke-linejoin="round"/>
<path d="M314.376 256.494L300.918 249.316" stroke="#263238" style="stroke:#263238;stroke:color(display-p3 0.1490 0.1961 0.2196);stroke-opacity:1;" stroke-width="1.1133" stroke-linecap="round" stroke-linejoin="round"/>
<path d="M340.288 318.706H328.804C326.927 318.705 325.109 318.049 323.663 316.852C322.218 315.654 321.235 313.989 320.885 312.145L316.801 290.633H352.292L348.217 312.145C347.865 313.99 346.88 315.655 345.433 316.852C343.986 318.05 342.166 318.705 340.288 318.706Z" fill="#263238" stroke="#263238" style="fill:#263238;fill:color(display-p3 0.1490 0.1961 0.2196);fill-opacity:1;stroke:#263238;stroke:color(display-p3 0.1490 0.1961 0.2196);stroke-opacity:1;" stroke-width="1.1133" stroke-linecap="round" stroke-linejoin="round"/>
<path d="M17.0742 187.544C17.0742 184.875 18.3073 182.91 21.0819 182.91C23.8564 182.91 25.1377 184.837 25.1377 187.544V196.908C25.1377 199.577 23.9046 201.542 21.0819 201.542C18.2592 201.542 17.0742 199.615 17.0742 196.908V187.544ZM18.2784 196.985C18.2784 198.979 19.0684 200.444 21.0819 200.444C23.0953 200.444 23.972 198.979 23.972 196.985V187.467C23.972 185.473 23.1628 184.008 21.0819 184.008C19.001 184.008 18.2784 185.473 18.2784 187.467V196.985Z" fill="#263238" style="fill:#263238;fill:color(display-p3 0.1490 0.1961 0.2196);fill-opacity:1;"/>
<path d="M27.0371 187.544C27.0371 184.875 28.2702 182.91 31.0448 182.91C33.8193 182.91 35.1006 184.837 35.1006 187.544V196.908C35.1006 199.577 33.8675 201.542 31.0448 201.542C28.2221 201.542 27.0371 199.615 27.0371 196.908V187.544ZM28.2413 196.985C28.2413 198.979 29.0313 200.444 31.0448 200.444C33.0582 200.444 33.9349 198.979 33.9349 196.985V187.467C33.9349 185.473 33.1257 184.008 31.0448 184.008C28.9639 184.008 28.2413 185.473 28.2413 187.467V196.985Z" fill="#263238" style="fill:#263238;fill:color(display-p3 0.1490 0.1961 0.2196);fill-opacity:1;"/>
<path d="M40.8914 183.051C43.7237 183.051 44.822 184.833 44.822 187.502V189.496C44.822 192.386 43.4829 193.831 40.5831 193.831H38.2999V201.374H37.0957V183.07L40.8914 183.051ZM40.5831 192.733C42.7026 192.733 43.6178 191.769 43.6178 189.573V187.425C43.6178 185.44 42.9338 184.149 40.8914 184.149H38.2999V192.733H40.5831Z" fill="#263238" style="fill:#263238;fill:color(display-p3 0.1490 0.1961 0.2196);fill-opacity:1;"/>
<path d="M54.3511 187.478V187.873H53.1951V187.401C53.1951 185.474 52.4629 184 50.4784 184C48.4938 184 47.752 185.416 47.752 187.343C47.752 191.784 54.3704 191.861 54.3704 196.919C54.3704 199.559 53.224 201.495 50.4205 201.495C47.6171 201.495 46.4707 199.568 46.4707 196.919V195.956H47.6268V196.977C47.6268 198.904 48.3782 200.349 50.3916 200.349C52.4051 200.349 53.1662 198.932 53.1662 196.977C53.1662 192.574 46.5478 192.497 46.5478 187.401C46.5478 184.646 47.752 182.873 50.4013 182.844C53.0506 182.815 54.3511 184.838 54.3511 187.478Z" fill="#263238" style="fill:#263238;fill:color(display-p3 0.1490 0.1961 0.2196);fill-opacity:1;"/>
<path d="M57.357 199.082V201.385H56.1816V199.082H57.357Z" fill="#263238" style="fill:#263238;fill:color(display-p3 0.1490 0.1961 0.2196);fill-opacity:1;"/>
<path d="M60.6244 199.082V201.385H59.4395V199.082H60.6244Z" fill="#263238" style="fill:#263238;fill:color(display-p3 0.1490 0.1961 0.2196);fill-opacity:1;"/>
<path d="M63.8916 199.082V201.385H62.6777V199.082H63.8916Z" fill="#263238" style="fill:#263238;fill:color(display-p3 0.1490 0.1961 0.2196);fill-opacity:1;"/>
<path d="M20.948 209.721C23.7804 209.721 24.8786 211.493 24.8786 214.162V216.156C24.8786 219.046 23.5395 220.501 20.6398 220.501H18.3662V228.035H17.1523V209.73L20.948 209.721ZM20.6398 219.354C22.7592 219.354 23.6744 218.391 23.6744 216.185V214.037C23.6744 212.052 22.9904 210.771 20.948 210.771H18.3662V219.354H20.6398Z" fill="#263238" style="fill:#263238;fill:color(display-p3 0.1490 0.1961 0.2196);fill-opacity:1;"/>
<path d="M28.0934 223.965L27.1782 228.021H26.0703L30.0683 209.717H31.8506L35.9353 228.021H34.7407L33.7773 223.965H28.0934ZM28.2764 222.915H33.6136L30.8872 211.085L28.2764 222.915Z" fill="#263238" style="fill:#263238;fill:color(display-p3 0.1490 0.1961 0.2196);fill-opacity:1;"/>
<path d="M45.5501 214.185V215.543H44.3748V214.108C44.3748 212.181 43.6233 210.649 41.6002 210.649C39.5772 210.649 38.8353 212.142 38.8353 214.108V223.635C38.8353 225.562 39.5868 227.055 41.6002 227.055C43.6137 227.055 44.3748 225.591 44.3748 223.635V219.676H41.9663V218.578H45.5501V223.549C45.5501 226.198 44.394 228.183 41.6002 228.183C38.8064 228.183 37.6504 226.198 37.6504 223.549V214.185C37.6504 211.545 38.7968 209.551 41.6002 209.551C44.4037 209.551 45.5501 211.545 45.5501 214.185Z" fill="#263238" style="fill:#263238;fill:color(display-p3 0.1490 0.1961 0.2196);fill-opacity:1;"/>
<path d="M53.7706 218.185V219.283H48.7706V226.923H54.7917V228.021H47.5664V209.717H54.7917V210.815H48.7706V218.185H53.7706Z" fill="#263238" style="fill:#263238;fill:color(display-p3 0.1490 0.1961 0.2196);fill-opacity:1;"/>
<path d="M61.9147 228.027H60.8164V209.723H62.3867L67.878 225.137V209.723H68.9762V228.027H67.6468L61.8665 211.649L61.9147 228.027Z" fill="#263238" style="fill:#263238;fill:color(display-p3 0.1490 0.1961 0.2196);fill-opacity:1;"/>
<path d="M70.9609 214.185C70.9609 211.516 72.1844 209.551 74.959 209.551C77.7335 209.551 79.0148 211.478 79.0148 214.185V223.549C79.0148 226.217 77.7913 228.183 74.959 228.183C72.1266 228.183 70.9609 226.256 70.9609 223.549V214.185ZM72.1652 223.635C72.1652 225.62 72.9455 227.084 74.959 227.084C76.9724 227.084 77.8491 225.62 77.8491 223.635V214.108C77.8491 212.113 77.0398 210.649 74.959 210.649C72.8781 210.649 72.1652 212.113 72.1652 214.108V223.635Z" fill="#263238" style="fill:#263238;fill:color(display-p3 0.1490 0.1961 0.2196);fill-opacity:1;"/>
<path d="M84.0977 228.035V210.819H80.3887V209.721H89.0591V210.819H85.3115V228.035H84.0977Z" fill="#263238" style="fill:#263238;fill:color(display-p3 0.1490 0.1961 0.2196);fill-opacity:1;"/>
<path d="M100.532 218.634V219.732H95.8019V228.027H94.5977V209.723H101.553V210.821H95.773V218.644L100.532 218.634Z" fill="#263238" style="fill:#263238;fill:color(display-p3 0.1490 0.1961 0.2196);fill-opacity:1;"/>
<path d="M103.301 214.185C103.301 211.516 104.534 209.551 107.308 209.551C110.083 209.551 111.364 211.478 111.364 214.185V223.549C111.364 226.217 110.131 228.183 107.308 228.183C104.486 228.183 103.301 226.256 103.301 223.549V214.185ZM104.505 223.635C104.505 225.62 105.295 227.084 107.308 227.084C109.322 227.084 110.199 225.62 110.199 223.635V214.108C110.199 212.113 109.389 210.649 107.308 210.649C105.228 210.649 104.505 212.113 104.505 214.108V223.635Z" fill="#263238" style="fill:#263238;fill:color(display-p3 0.1490 0.1961 0.2196);fill-opacity:1;"/>
<path d="M114.515 223.613C114.515 225.539 115.247 227.09 117.261 227.09C119.274 227.09 120.007 225.578 120.007 223.613V209.721H121.134V223.555C121.134 226.175 120.035 228.189 117.28 228.189C114.525 228.189 113.35 226.175 113.35 223.555V209.721H114.554L114.515 223.613Z" fill="#263238" style="fill:#263238;fill:color(display-p3 0.1490 0.1961 0.2196);fill-opacity:1;"/>
<path d="M124.337 228.027H123.238V209.723H124.809L130.3 225.137V209.723H131.398V228.027H130.069L124.337 211.649V228.027Z" fill="#263238" style="fill:#263238;fill:color(display-p3 0.1490 0.1961 0.2196);fill-opacity:1;"/>
<path d="M137.455 209.721C140.287 209.721 141.51 211.57 141.51 214.268V223.478C141.51 226.175 140.287 228.035 137.455 228.035H133.428V209.73L137.455 209.721ZM137.455 226.936C139.497 226.936 140.345 225.549 140.345 223.536V214.22C140.345 212.206 139.487 210.819 137.455 210.819H134.651V226.936H137.455Z" fill="#263238" style="fill:#263238;fill:color(display-p3 0.1490 0.1961 0.2196);fill-opacity:1;"/>
<path d="M183.246 273.379C161.801 273.379 148.911 254.352 144.335 237.618L144.181 237.031C143.937 236.219 143.859 235.367 143.952 234.525C144.045 233.683 144.307 232.868 144.723 232.129C145.138 231.391 145.698 230.744 146.369 230.227C147.04 229.71 147.809 229.333 148.629 229.12C149.449 228.907 150.303 228.861 151.141 228.986C151.979 229.11 152.784 229.402 153.506 229.845C154.228 230.288 154.854 230.872 155.346 231.562C155.837 232.252 156.185 233.034 156.367 233.861L156.483 234.295C159.961 247.03 169.431 261.587 184.623 260.749C187.48 260.65 190.284 259.951 192.853 258.698C195.422 257.445 197.699 255.666 199.536 253.475C207.869 243.919 211.598 223.139 210.769 212.657C210.691 211.984 210.749 211.303 210.94 210.653C211.131 210.004 211.45 209.399 211.88 208.876C212.31 208.352 212.841 207.921 213.441 207.608C214.041 207.294 214.699 207.105 215.374 207.051C216.049 206.997 216.728 207.08 217.37 207.295C218.012 207.509 218.605 207.851 219.112 208.3C219.619 208.748 220.031 209.295 220.322 209.906C220.613 210.517 220.779 211.181 220.808 211.857C221.771 223.524 220.499 248.601 209.026 261.751C206.089 265.209 202.468 268.021 198.391 270.01C194.314 272 189.869 273.124 185.336 273.311C184.633 273.359 183.93 273.379 183.246 273.379Z" fill="white" style="fill:white;fill:white;fill-opacity:1;"/>
<mask id="mask1_4255_9814" style="mask-type:luminance" maskUnits="userSpaceOnUse" x="143" y="207" width="79" height="67">
<path d="M183.242 273.369C161.797 273.369 148.907 254.342 144.331 237.608L144.177 237.021C143.933 236.209 143.855 235.357 143.948 234.515C144.042 233.673 144.304 232.858 144.719 232.12C145.134 231.381 145.694 230.734 146.365 230.217C147.036 229.7 147.805 229.323 148.625 229.11C149.445 228.897 150.299 228.851 151.137 228.976C151.975 229.1 152.78 229.393 153.502 229.835C154.225 230.278 154.85 230.862 155.342 231.552C155.834 232.242 156.181 233.024 156.363 233.851L156.479 234.285C159.957 247.021 169.427 261.577 184.619 260.739C187.476 260.64 190.28 259.941 192.849 258.688C195.419 257.435 197.695 255.656 199.532 253.466C207.866 243.909 211.594 223.129 210.765 212.647C210.687 211.975 210.745 211.293 210.936 210.643C211.127 209.994 211.447 209.389 211.876 208.866C212.306 208.343 212.837 207.911 213.437 207.598C214.038 207.284 214.695 207.095 215.37 207.041C216.045 206.988 216.724 207.07 217.366 207.285C218.008 207.499 218.601 207.841 219.108 208.29C219.615 208.739 220.027 209.285 220.318 209.896C220.61 210.507 220.775 211.171 220.804 211.848C221.767 223.514 220.495 248.591 209.022 261.741C206.085 265.199 202.464 268.011 198.387 270.001C194.31 271.99 189.865 273.114 185.332 273.302C184.629 273.35 183.926 273.369 183.242 273.369Z" fill="white" style="fill:white;fill:white;fill-opacity:1;"/>
</mask>
<g mask="url(#mask1_4255_9814)">
<path d="M215.38 207.237C214.049 207.345 212.815 207.977 211.95 208.994C211.085 210.011 210.659 211.33 210.765 212.661C211.17 217.777 210.486 225.339 208.713 232.892C211.245 232.785 213.776 233.111 216.198 233.855C215.625 241.103 213.08 248.056 208.838 253.961C199.484 266.957 185.457 271.109 174.542 269.548C169.658 268.855 164.061 266.292 159.35 263.662C165.742 269.896 174.313 273.39 183.241 273.402C183.925 273.402 184.629 273.402 185.332 273.344C189.865 273.157 194.31 272.033 198.387 270.043C202.464 268.054 206.085 265.241 209.021 261.784C220.495 248.634 221.728 223.557 220.803 211.89C220.756 211.228 220.578 210.581 220.279 209.987C219.98 209.394 219.566 208.865 219.062 208.433C218.557 208 217.972 207.672 217.34 207.466C216.708 207.261 216.042 207.183 215.38 207.237Z" fill="#92B1F5" style="fill:#92B1F5;fill:color(display-p3 0.5725 0.6941 0.9608);fill-opacity:1;"/>
<path opacity="0.5" d="M215.38 207.237C214.049 207.345 212.815 207.977 211.95 208.994C211.085 210.011 210.659 211.33 210.765 212.661C211.17 217.777 210.486 225.339 208.713 232.892C211.245 232.785 213.776 233.111 216.198 233.855C215.625 241.103 213.08 248.056 208.838 253.961C199.484 266.957 185.457 271.109 174.542 269.548C169.658 268.855 164.061 266.292 159.35 263.662C165.742 269.896 174.313 273.39 183.241 273.402C183.925 273.402 184.629 273.402 185.332 273.344C189.865 273.157 194.31 272.033 198.387 270.043C202.464 268.054 206.085 265.241 209.021 261.784C220.495 248.634 221.728 223.557 220.803 211.89C220.756 211.228 220.578 210.581 220.279 209.987C219.98 209.394 219.566 208.865 219.062 208.433C218.557 208 217.972 207.672 217.34 207.466C216.708 207.261 216.042 207.183 215.38 207.237Z" fill="white" style="fill:white;fill:white;fill-opacity:1;"/>
</g>
<path d="M183.246 273.379C161.801 273.379 148.911 254.352 144.335 237.618L144.181 237.031C143.937 236.219 143.859 235.367 143.952 234.525C144.045 233.683 144.307 232.868 144.723 232.129C145.138 231.391 145.698 230.744 146.369 230.227C147.04 229.71 147.809 229.333 148.629 229.12C149.449 228.907 150.303 228.861 151.141 228.986C151.979 229.11 152.784 229.402 153.506 229.845C154.228 230.288 154.854 230.872 155.346 231.562C155.837 232.252 156.185 233.034 156.367 233.861L156.483 234.295C159.961 247.03 169.431 261.587 184.623 260.749C187.48 260.65 190.284 259.951 192.853 258.698C195.422 257.445 197.699 255.666 199.536 253.475C207.869 243.919 211.598 223.139 210.769 212.657C210.691 211.984 210.749 211.303 210.94 210.653C211.131 210.004 211.45 209.399 211.88 208.876C212.31 208.352 212.841 207.921 213.441 207.608C214.041 207.294 214.699 207.105 215.374 207.051C216.049 206.997 216.728 207.08 217.37 207.295C218.012 207.509 218.605 207.851 219.112 208.3C219.619 208.748 220.031 209.295 220.322 209.906C220.613 210.517 220.779 211.181 220.808 211.857C221.771 223.524 220.499 248.601 209.026 261.751C206.089 265.209 202.468 268.021 198.391 270.01C194.314 272 189.869 273.124 185.336 273.311C184.633 273.359 183.93 273.379 183.246 273.379Z" stroke="#263238" style="stroke:#263238;stroke:color(display-p3 0.1490 0.1961 0.2196);stroke-opacity:1;" stroke-width="1.1133" stroke-linecap="round" stroke-linejoin="round"/>
<path d="M170.877 260.336C171.387 257.976 165.742 261.666 161.012 265.105C162.761 266.584 164.645 267.896 166.638 269.026C168.324 266.28 170.385 262.61 170.877 260.336Z" fill="#92B1F5" stroke="#263238" style="fill:#92B1F5;fill:color(display-p3 0.5725 0.6941 0.9608);fill-opacity:1;stroke:#263238;stroke:color(display-p3 0.1490 0.1961 0.2196);stroke-opacity:1;" stroke-width="1.1133" stroke-linecap="round" stroke-linejoin="round"/>
<path d="M183.246 273.373C183.93 273.373 184.633 273.373 185.336 273.315C187.383 273.2 189.417 272.913 191.415 272.458C188.756 268.989 185.095 264.404 184.045 264.057C182.841 263.652 180.519 269.558 179.229 273.142C180.562 273.297 181.903 273.374 183.246 273.373Z" fill="#92B1F5" stroke="#263238" style="fill:#92B1F5;fill:color(display-p3 0.5725 0.6941 0.9608);fill-opacity:1;stroke:#263238;stroke:color(display-p3 0.1490 0.1961 0.2196);stroke-opacity:1;" stroke-width="1.1133" stroke-linecap="round" stroke-linejoin="round"/>
<path d="M156.483 234.288L156.367 233.854C156.185 233.027 155.837 232.245 155.346 231.555C154.854 230.865 154.228 230.281 153.506 229.838C152.784 229.396 151.979 229.103 151.141 228.979C150.303 228.854 149.449 228.9 148.629 229.113C147.809 229.326 147.04 229.703 146.369 230.22C145.698 230.737 145.138 231.384 144.723 232.123C144.307 232.861 144.045 233.676 143.952 234.518C143.859 235.36 143.937 236.212 144.181 237.024L144.335 237.611C145.941 243.488 148.408 249.095 151.656 254.249L163.13 248.787C160.121 244.358 157.875 239.457 156.483 234.288Z" fill="#92B1F5" stroke="#263238" style="fill:#92B1F5;fill:color(display-p3 0.5725 0.6941 0.9608);fill-opacity:1;stroke:#263238;stroke:color(display-p3 0.1490 0.1961 0.2196);stroke-opacity:1;" stroke-width="1.1133" stroke-linecap="round" stroke-linejoin="round"/>
<path d="M209.024 261.746C209.906 260.725 210.723 259.651 211.471 258.528C207.83 257.286 202.377 255.571 200.354 255.754C197.955 255.975 201.211 263.682 202.888 267.314C205.144 265.705 207.204 263.836 209.024 261.746Z" fill="#92B1F5" stroke="#263238" style="fill:#92B1F5;fill:color(display-p3 0.5725 0.6941 0.9608);fill-opacity:1;stroke:#263238;stroke:color(display-p3 0.1490 0.1961 0.2196);stroke-opacity:1;" stroke-width="1.1133" stroke-linecap="round" stroke-linejoin="round"/>
<path d="M209.227 241.161C208.842 241.932 213.553 245.362 216.732 247.568C217.74 244.567 218.551 241.503 219.16 238.396C215.306 239.167 209.603 240.41 209.227 241.161Z" fill="#92B1F5" stroke="#263238" style="fill:#92B1F5;fill:color(display-p3 0.5725 0.6941 0.9608);fill-opacity:1;stroke:#263238;stroke:color(display-p3 0.1490 0.1961 0.2196);stroke-opacity:1;" stroke-width="1.1133" stroke-linecap="round" stroke-linejoin="round"/>
<path d="M220.718 226.911C220.93 224.166 221.036 221.545 221.045 219.137C217.731 220.958 213.801 223.482 213.801 225.139C213.801 226.796 217.481 226.998 220.718 226.911Z" fill="#92B1F5" stroke="#263238" style="fill:#92B1F5;fill:color(display-p3 0.5725 0.6941 0.9608);fill-opacity:1;stroke:#263238;stroke:color(display-p3 0.1490 0.1961 0.2196);stroke-opacity:1;" stroke-width="1.1133" stroke-linecap="round" stroke-linejoin="round"/>
<path d="M168.851 152.366C168.851 152.366 159.497 179.457 164.535 200.535C166.027 206.704 168.924 212.444 173 217.308C177.076 222.173 182.22 226.03 188.032 228.579C188.032 228.579 174.361 233.396 177.435 240.804C180.508 248.213 192.29 243.444 196.134 241.045C199.978 238.646 204.804 231.46 205.479 226.662C205.907 224.211 206.069 221.72 205.96 219.234C205.96 219.234 221.538 217.558 232.087 208.926C232.087 208.926 241.441 216.354 248.156 214.918C254.871 213.483 264.457 201.489 263.493 190.709C262.53 179.929 256.316 179.938 252.52 181.576C250.55 182.321 248.753 183.462 247.241 184.929C247.241 184.929 252.751 178.185 247.241 168.869C245.615 166.137 243.388 163.81 240.729 162.066C238.07 160.321 235.049 159.205 231.894 158.802C231.894 158.802 229.004 143.455 220.392 137.704C211.779 131.953 181.076 125.999 168.851 152.366Z" fill="white" style="fill:white;fill:white;fill-opacity:1;"/>
<mask id="mask2_4255_9814" style="mask-type:luminance" maskUnits="userSpaceOnUse" x="163" y="132" width="101" height="113">
<path d="M168.857 152.364C168.857 152.364 159.502 179.455 164.541 200.533C166.033 206.702 168.93 212.442 173.006 217.306C177.082 222.171 182.226 226.028 188.038 228.577C188.038 228.577 174.367 233.394 177.441 240.802C180.514 248.211 192.296 243.442 196.14 241.043C199.984 238.644 204.81 231.458 205.484 226.66C205.913 224.209 206.074 221.718 205.966 219.232C205.966 219.232 221.544 217.556 232.093 208.924C232.093 208.924 241.447 216.352 248.162 214.916C254.877 213.481 264.462 201.487 263.499 190.707C262.536 179.927 256.322 179.936 252.526 181.574C250.556 182.319 248.759 183.46 247.247 184.927C247.247 184.927 252.757 178.183 247.247 168.867C245.62 166.135 243.393 163.808 240.734 162.064C238.076 160.32 235.054 159.203 231.9 158.8C231.9 158.8 229.01 143.453 220.397 137.702C211.785 131.951 181.082 125.997 168.857 152.364Z" fill="white" style="fill:white;fill:white;fill-opacity:1;"/>
</mask>
<g mask="url(#mask2_4255_9814)">
<path d="M240.078 161.692C235.631 169.111 229.476 175.361 222.127 179.922C214.778 184.483 206.446 187.223 197.824 187.915C178.749 189.592 168.056 185.835 163.143 183.224C163.739 172.742 165.681 162.381 168.923 152.396C181.148 126.028 211.832 132.02 220.463 137.772C229.095 143.523 231.966 158.87 231.966 158.87C234.838 159.23 237.602 160.192 240.078 161.692ZM252.525 181.586C250.554 182.331 248.758 183.472 247.245 184.939C248.412 183.33 249.181 181.468 249.49 179.505C236.533 185.96 237.544 199.736 235.935 199.736C233.951 199.736 232.968 192.809 232.968 192.809C232.968 192.809 230.492 202.703 215.627 209.64C200.762 216.576 183.952 211.123 183.952 211.123C183.952 211.123 187.42 219.042 178.508 218.05C176.008 217.811 173.61 216.935 171.543 215.507C175.816 221.204 181.492 225.698 188.017 228.551C188.017 228.551 174.347 233.368 177.42 240.776C180.493 248.184 192.285 243.416 196.119 241.017C199.953 238.618 204.789 231.431 205.464 226.634C205.892 224.182 206.054 221.692 205.945 219.206C205.945 219.206 221.523 217.53 232.072 208.898C232.072 208.898 241.427 216.325 248.141 214.89C254.856 213.455 264.442 201.461 263.478 190.68C262.515 179.9 256.32 179.948 252.525 181.586Z" fill="#92B1F5" style="fill:#92B1F5;fill:color(display-p3 0.5725 0.6941 0.9608);fill-opacity:1;"/>
<path opacity="0.5" d="M240.078 161.692C235.631 169.111 229.476 175.361 222.127 179.922C214.778 184.483 206.446 187.223 197.824 187.915C178.749 189.592 168.056 185.835 163.143 183.224C163.739 172.742 165.681 162.381 168.923 152.396C181.148 126.028 211.832 132.02 220.463 137.772C229.095 143.523 231.966 158.87 231.966 158.87C234.838 159.23 237.602 160.192 240.078 161.692ZM252.525 181.586C250.554 182.331 248.758 183.472 247.245 184.939C248.412 183.33 249.181 181.468 249.49 179.505C236.533 185.96 237.544 199.736 235.935 199.736C233.951 199.736 232.968 192.809 232.968 192.809C232.968 192.809 230.492 202.703 215.627 209.64C200.762 216.576 183.952 211.123 183.952 211.123C183.952 211.123 187.42 219.042 178.508 218.05C176.008 217.811 173.61 216.935 171.543 215.507C175.816 221.204 181.492 225.698 188.017 228.551C188.017 228.551 174.347 233.368 177.42 240.776C180.493 248.184 192.285 243.416 196.119 241.017C199.953 238.618 204.789 231.431 205.464 226.634C205.892 224.182 206.054 221.692 205.945 219.206C205.945 219.206 221.523 217.53 232.072 208.898C232.072 208.898 241.427 216.325 248.141 214.89C254.856 213.455 264.442 201.461 263.478 190.68C262.515 179.9 256.32 179.948 252.525 181.586Z" fill="white" style="fill:white;fill:white;fill-opacity:1;"/>
<path d="M206.014 219.261C200.843 219.399 195.71 218.349 191.009 216.193C186.308 214.037 182.164 210.832 178.895 206.824" stroke="#263238" style="stroke:#263238;stroke:color(display-p3 0.1490 0.1961 0.2196);stroke-opacity:1;" stroke-width="1.1133" stroke-linecap="round" stroke-linejoin="round"/>
</g>
<path d="M168.851 152.366C168.851 152.366 159.497 179.457 164.535 200.535C166.027 206.704 168.924 212.444 173 217.308C177.076 222.173 182.22 226.03 188.032 228.579C188.032 228.579 174.361 233.396 177.435 240.804C180.508 248.213 192.29 243.444 196.134 241.045C199.978 238.646 204.804 231.46 205.479 226.662C205.907 224.211 206.069 221.72 205.96 219.234C205.96 219.234 221.538 217.558 232.087 208.926C232.087 208.926 241.441 216.354 248.156 214.918C254.871 213.483 264.457 201.489 263.493 190.709C262.53 179.929 256.316 179.938 252.52 181.576C250.55 182.321 248.753 183.462 247.241 184.929C247.241 184.929 252.751 178.185 247.241 168.869C245.615 166.137 243.388 163.81 240.729 162.066C238.07 160.321 235.049 159.205 231.894 158.802C231.894 158.802 229.004 143.455 220.392 137.704C211.779 131.953 181.076 125.999 168.851 152.366Z" stroke="#263238" style="stroke:#263238;stroke:color(display-p3 0.1490 0.1961 0.2196);stroke-opacity:1;" stroke-width="1.1133" stroke-linecap="round" stroke-linejoin="round"/>
<path d="M247.24 184.969C247.24 184.969 242.211 188.331 239.812 198.639" stroke="#263238" style="stroke:#263238;stroke:color(display-p3 0.1490 0.1961 0.2196);stroke-opacity:1;" stroke-width="1.1133" stroke-linecap="round" stroke-linejoin="round"/>
<path d="M256.48 189.384C255.892 191.137 254.284 192.188 252.896 191.715C251.509 191.243 250.873 189.442 251.461 187.689C252.049 185.935 253.657 184.885 255.045 185.357C256.432 185.829 257.077 187.631 256.48 189.384Z" fill="white" stroke="#263238" style="fill:white;fill:white;fill-opacity:1;stroke:#263238;stroke:color(display-p3 0.1490 0.1961 0.2196);stroke-opacity:1;" stroke-width="1.1133" stroke-linecap="round" stroke-linejoin="round"/>
<path d="M261.441 192.509C260.854 194.262 259.245 195.313 257.857 194.84C256.47 194.368 255.825 192.567 256.422 190.814C257.019 189.06 258.619 188.01 260.006 188.482C261.393 188.954 262.039 190.756 261.441 192.509Z" fill="white" stroke="#263238" style="fill:white;fill:white;fill-opacity:1;stroke:#263238;stroke:color(display-p3 0.1490 0.1961 0.2196);stroke-opacity:1;" stroke-width="1.1133" stroke-linecap="round" stroke-linejoin="round"/>
<path d="M262.503 197.169C262.311 197.492 262.031 197.753 261.696 197.923C261.361 198.092 260.985 198.164 260.611 198.128C260.238 198.093 259.882 197.952 259.585 197.722C259.288 197.492 259.062 197.183 258.934 196.83C258.806 196.477 258.78 196.095 258.86 195.728C258.941 195.362 259.123 195.025 259.387 194.758C259.651 194.491 259.985 194.304 260.351 194.219C260.717 194.134 261.099 194.155 261.453 194.279C261.965 194.535 262.359 194.977 262.554 195.515C262.75 196.052 262.732 196.644 262.503 197.169Z" fill="white" stroke="#263238" style="fill:white;fill:white;fill-opacity:1;stroke:#263238;stroke:color(display-p3 0.1490 0.1961 0.2196);stroke-opacity:1;" stroke-width="1.1133" stroke-linecap="round" stroke-linejoin="round"/>
<path d="M256.173 203.599C254.439 206.73 250.97 208.117 248.417 206.701C245.864 205.285 245.209 201.614 246.943 198.483C248.678 195.352 252.146 193.965 254.699 195.381C257.252 196.797 257.907 200.468 256.173 203.599Z" fill="white" stroke="#263238" style="fill:white;fill:white;fill-opacity:1;stroke:#263238;stroke:color(display-p3 0.1490 0.1961 0.2196);stroke-opacity:1;" stroke-width="1.1133" stroke-linecap="round" stroke-linejoin="round"/>
<path d="M188.029 228.604C191.259 230.107 194.93 230.364 198.337 229.326" stroke="#263238" style="stroke:#263238;stroke:color(display-p3 0.1490 0.1961 0.2196);stroke-opacity:1;" stroke-width="1.1133" stroke-linecap="round" stroke-linejoin="round"/>
<path d="M177.48 240.825C177.48 240.825 178.444 236.75 184.426 233.879" stroke="#263238" style="stroke:#263238;stroke:color(display-p3 0.1490 0.1961 0.2196);stroke-opacity:1;" stroke-width="1.1133" stroke-linecap="round" stroke-linejoin="round"/>
<path d="M183.475 244.438C183.475 244.438 185.873 238.658 189.949 236.047" stroke="#263238" style="stroke:#263238;stroke:color(display-p3 0.1490 0.1961 0.2196);stroke-opacity:1;" stroke-width="1.1133" stroke-linecap="round" stroke-linejoin="round"/>
<path d="M88.9359 178.125C87.9168 177.312 87.1045 176.269 86.5654 175.082C86.0263 173.895 85.7756 172.597 85.8338 171.295V148.453H26.9137C25.4744 148.507 24.0405 148.249 22.7103 147.697C21.38 147.145 20.1848 146.312 19.2067 145.255C17.2795 143.216 16.2221 140.507 16.2587 137.702C16.2509 135.422 16.9216 133.192 18.1855 131.295L74.6201 42.6068C78.859 36.0622 84.4915 32.79 91.5178 32.79C95.2953 32.6616 98.9837 33.9541 101.855 36.4123C104.61 38.8207 105.988 42.4012 105.988 47.1539V133.366H120.978C122.013 133.304 123.05 133.47 124.014 133.853C124.978 134.236 125.845 134.826 126.556 135.582C127.823 137.068 128.52 138.957 128.52 140.91C128.52 142.863 127.823 144.752 126.556 146.237C125.845 146.993 124.978 147.583 124.014 147.966C123.05 148.349 122.013 148.515 120.978 148.453H105.882V171.295C105.944 172.587 105.706 173.877 105.186 175.062C104.666 176.247 103.879 177.295 102.886 178.125C100.946 179.751 98.4894 180.629 95.9589 180.601C93.4006 180.621 90.9159 179.745 88.9359 178.125ZM85.7953 133.366V53.9843L36.3837 133.366H85.7953Z" fill="#263238" style="fill:#263238;fill:color(display-p3 0.1490 0.1961 0.2196);fill-opacity:1;"/>
<path d="M170.7 178.574C164.926 176.054 159.812 172.233 155.758 167.409C151.687 162.312 148.508 156.563 146.356 150.405C143.916 143.753 142.201 136.857 141.24 129.837C140.238 122.194 139.755 114.492 139.795 106.784C139.795 56.0008 157.136 30.6094 191.818 30.6094C226.499 30.6094 243.798 56.0008 243.715 106.784C243.749 114.455 243.282 122.121 242.318 129.731C241.388 136.752 239.689 143.65 237.251 150.299C235.098 156.457 231.919 162.206 227.848 167.303C223.789 172.133 218.678 175.969 212.906 178.517C206.27 181.451 199.072 182.897 191.818 182.755C184.559 182.901 177.356 181.475 170.7 178.574ZM202.068 163.999C204.97 162.761 207.604 160.971 209.823 158.729C212.071 156.336 213.918 153.597 215.295 150.617C216.815 147.46 218.043 144.171 218.966 140.791C219.937 137.108 220.645 133.361 221.085 129.577C221.605 125.402 221.952 121.578 222.126 118.103C222.299 114.629 222.382 110.855 222.376 106.784C222.376 102.513 222.293 98.5692 222.126 94.9533C221.959 91.3374 221.596 87.4582 221.037 83.3157C220.557 79.5349 219.833 75.7892 218.869 72.102C217.958 68.7557 216.729 65.504 215.199 62.3912C213.811 59.4584 211.96 56.7682 209.717 54.4241C207.511 52.227 204.892 50.4884 202.01 49.3085C195.423 46.7654 188.125 46.7654 181.538 49.3085C178.678 50.4743 176.078 52.1967 173.889 54.3759C171.663 56.7098 169.816 59.3787 168.417 62.2852C166.874 65.37 165.66 68.6088 164.795 71.9479C163.854 75.6572 163.147 79.4217 162.676 83.2194C162.117 87.4197 161.754 91.331 161.587 94.9533C161.42 98.5756 161.333 102.519 161.327 106.784C161.327 110.849 161.413 114.638 161.587 118.151C161.76 121.665 162.104 125.518 162.618 129.712C163.062 133.495 163.77 137.242 164.737 140.926C165.647 144.305 166.862 147.594 168.369 150.752C169.732 153.714 171.563 156.437 173.793 158.816C175.996 161.043 178.614 162.817 181.5 164.037C188.093 166.721 195.475 166.721 202.068 164.037V163.999Z" fill="#263238" style="fill:#263238;fill:color(display-p3 0.1490 0.1961 0.2196);fill-opacity:1;"/>
<path d="M332.981 178.123C331.962 177.31 331.149 176.267 330.61 175.08C330.071 173.893 329.82 172.595 329.879 171.293V148.451H270.959C269.519 148.505 268.085 148.247 266.755 147.695C265.425 147.143 264.23 146.31 263.252 145.253C261.324 143.214 260.267 140.505 260.304 137.7C260.296 135.42 260.967 133.19 262.23 131.293L318.665 42.6049C322.865 36.0603 328.482 32.788 335.514 32.788C339.312 32.6451 343.023 33.9385 345.909 36.4103C348.665 38.8188 350.042 42.3993 350.042 47.152V133.365H365.032C366.068 133.302 367.104 133.468 368.068 133.851C369.032 134.234 369.9 134.825 370.61 135.58C371.878 137.066 372.574 138.955 372.574 140.908C372.574 142.861 371.878 144.75 370.61 146.235C369.9 146.991 369.032 147.581 368.068 147.964C367.104 148.347 366.068 148.514 365.032 148.451H349.927V171.293C349.989 172.585 349.751 173.875 349.231 175.06C348.711 176.245 347.924 177.294 346.931 178.123C344.991 179.749 342.534 180.627 340.004 180.599C337.446 180.619 334.961 179.743 332.981 178.123ZM329.879 133.365V53.9823L280.467 133.365H329.879Z" fill="#263238" style="fill:#263238;fill:color(display-p3 0.1490 0.1961 0.2196);fill-opacity:1;"/>
<path d="M149.429 138.716C149.429 138.716 139.362 152.859 137.926 167.242C136.491 181.625 138.167 191.211 142.483 194.814C146.799 198.417 151.105 196.972 153.504 193.61C155.903 190.247 152.069 178.504 152.069 178.504C152.069 178.504 156.144 167.242 162.377 159.333C168.61 151.423 169.805 150.219 169.805 150.219C169.805 150.219 159.015 137.994 149.429 138.716Z" fill="white" style="fill:white;fill:white;fill-opacity:1;"/>
<mask id="mask3_4255_9814" style="mask-type:luminance" maskUnits="userSpaceOnUse" x="137" y="138" width="33" height="59">
<path d="M149.429 138.718C149.429 138.718 139.362 152.861 137.926 167.244C136.491 181.627 138.167 191.213 142.483 194.816C146.799 198.419 151.105 196.974 153.504 193.612C155.903 190.249 152.069 178.506 152.069 178.506C152.069 178.506 156.144 167.244 162.377 159.335C168.61 151.425 169.805 150.221 169.805 150.221C169.805 150.221 159.015 137.996 149.429 138.718Z" fill="white" style="fill:white;fill:white;fill-opacity:1;"/>
</mask>
<g mask="url(#mask3_4255_9814)">
<path d="M149.428 138.718C147.231 141.964 145.283 145.371 143.6 148.911C148.416 150.838 155.883 154.787 160.622 161.782C161.201 160.943 161.798 160.115 162.414 159.335C168.647 151.425 169.842 150.221 169.842 150.221C169.842 150.221 159.014 137.996 149.428 138.718Z" fill="#92B1F5" style="fill:#92B1F5;fill:color(display-p3 0.5725 0.6941 0.9608);fill-opacity:1;"/>
<path opacity="0.5" d="M149.428 138.718C147.231 141.964 145.283 145.371 143.6 148.911C148.416 150.838 155.883 154.787 160.622 161.782C161.201 160.943 161.798 160.115 162.414 159.335C168.647 151.425 169.842 150.221 169.842 150.221C169.842 150.221 159.014 137.996 149.428 138.718Z" fill="white" style="fill:white;fill:white;fill-opacity:1;"/>
</g>
<path d="M149.429 138.716C149.429 138.716 139.362 152.859 137.926 167.242C136.491 181.625 138.167 191.211 142.483 194.814C146.799 198.417 151.105 196.972 153.504 193.61C155.903 190.247 152.069 178.504 152.069 178.504C152.069 178.504 156.144 167.242 162.377 159.333C168.61 151.423 169.805 150.219 169.805 150.219C169.805 150.219 159.015 137.994 149.429 138.716Z" stroke="#263238" style="stroke:#263238;stroke:color(display-p3 0.1490 0.1961 0.2196);stroke-opacity:1;" stroke-width="1.1133" stroke-linecap="round" stroke-linejoin="round"/>
<path d="M142.486 194.805C141.308 191.662 140.736 188.324 140.8 184.969" stroke="#263238" style="stroke:#263238;stroke:color(display-p3 0.1490 0.1961 0.2196);stroke-opacity:1;" stroke-width="1.1133" stroke-linecap="round" stroke-linejoin="round"/>
<path d="M148.948 196.246C148.948 196.246 146.559 192.17 146.318 185.215" stroke="#263238" style="stroke:#263238;stroke:color(display-p3 0.1490 0.1961 0.2196);stroke-opacity:1;" stroke-width="1.1133" stroke-linecap="round" stroke-linejoin="round"/>
<path d="M152.552 164.354C152.552 161.83 147.735 156.898 141.04 154.721C140.14 157.068 139.396 159.472 138.814 161.917C141.416 162.362 143.942 163.17 146.319 164.316C149.913 166.272 152.552 167.235 152.552 164.354Z" fill="#92B1F5" stroke="#263238" style="fill:#92B1F5;fill:color(display-p3 0.5725 0.6941 0.9608);fill-opacity:1;stroke:#263238;stroke:color(display-p3 0.1490 0.1961 0.2196);stroke-opacity:1;" stroke-width="1.1133" stroke-linecap="round" stroke-linejoin="round"/>
<path d="M148.838 139.566C147.285 141.934 145.857 144.381 144.561 146.898C146.588 147.434 148.533 148.244 150.341 149.306C157.768 153.612 159.204 154.123 156.815 147.861C155.37 143.931 151.921 141.262 148.838 139.566Z" fill="#92B1F5" stroke="#263238" style="fill:#92B1F5;fill:color(display-p3 0.5725 0.6941 0.9608);fill-opacity:1;stroke:#263238;stroke:color(display-p3 0.1490 0.1961 0.2196);stroke-opacity:1;" stroke-width="1.1133" stroke-linecap="round" stroke-linejoin="round"/>
<path d="M228.281 131.729C228.281 131.729 239.688 144.811 242.53 158.992C245.372 173.173 244.649 182.874 240.699 186.872C236.75 190.87 232.328 189.868 229.611 186.757C226.894 183.645 229.611 171.593 229.611 171.593C229.611 171.593 224.447 160.774 217.472 153.51C210.498 146.247 209.178 145.177 209.178 145.177C209.178 145.177 218.667 131.95 228.281 131.729Z" fill="white" style="fill:white;fill:white;fill-opacity:1;"/>
<mask id="mask4_4255_9814" style="mask-type:luminance" maskUnits="userSpaceOnUse" x="209" y="131" width="36" height="59">
<path d="M228.283 131.729C228.283 131.729 239.69 144.811 242.532 158.992C245.374 173.173 244.651 182.874 240.701 186.872C236.752 190.87 232.33 189.868 229.613 186.757C226.896 183.645 229.613 171.593 229.613 171.593C229.613 171.593 224.449 160.774 217.474 153.51C210.5 146.247 209.18 145.177 209.18 145.177C209.18 145.177 218.669 131.95 228.283 131.729Z" fill="white" style="fill:white;fill:white;fill-opacity:1;"/>
</mask>
<g mask="url(#mask4_4255_9814)">
<path d="M228.279 131.729C218.645 131.95 209.127 145.216 209.127 145.216C209.127 145.216 210.437 146.295 217.422 153.549C218.728 154.925 219.956 156.372 221.102 157.884C224.747 151.727 229.955 146.642 236.198 143.145C233.901 139.113 231.251 135.292 228.279 131.729Z" fill="#92B1F5" style="fill:#92B1F5;fill:color(display-p3 0.5725 0.6941 0.9608);fill-opacity:1;"/>
<path opacity="0.5" d="M228.279 131.729C218.645 131.95 209.127 145.216 209.127 145.216C209.127 145.216 210.437 146.295 217.422 153.549C218.728 154.925 219.956 156.372 221.102 157.884C224.747 151.727 229.955 146.642 236.198 143.145C233.901 139.113 231.251 135.292 228.279 131.729Z" fill="white" style="fill:white;fill:white;fill-opacity:1;"/>
</g>
<path d="M228.281 131.729C228.281 131.729 239.688 144.811 242.53 158.992C245.372 173.173 244.649 182.874 240.699 186.872C236.75 190.87 232.328 189.868 229.611 186.757C226.894 183.645 229.611 171.593 229.611 171.593C229.611 171.593 224.447 160.774 217.472 153.51C210.498 146.247 209.178 145.177 209.178 145.177C209.178 145.177 218.667 131.95 228.281 131.729Z" stroke="#263238" style="stroke:#263238;stroke:color(display-p3 0.1490 0.1961 0.2196);stroke-opacity:1;" stroke-width="1.1133" stroke-linecap="round" stroke-linejoin="round"/>
<path d="M240.701 186.87C241.565 183.631 241.807 180.257 241.414 176.928" stroke="#263238" style="stroke:#263238;stroke:color(display-p3 0.1490 0.1961 0.2196);stroke-opacity:1;" stroke-width="1.1133" stroke-linecap="round" stroke-linejoin="round"/>
<path d="M234.396 188.93C234.396 188.93 236.391 184.643 235.948 177.697" stroke="#263238" style="stroke:#263238;stroke:color(display-p3 0.1490 0.1961 0.2196);stroke-opacity:1;" stroke-width="1.1133" stroke-linecap="round" stroke-linejoin="round"/>
<path d="M227.693 157.543C227.452 155.029 231.759 149.653 238.213 146.869C239.33 149.114 240.295 151.432 241.103 153.805C238.563 154.514 236.132 155.567 233.878 156.936C230.506 159.2 227.982 160.376 227.693 157.543Z" fill="#92B1F5" stroke="#263238" style="fill:#92B1F5;fill:color(display-p3 0.5725 0.6941 0.9608);fill-opacity:1;stroke:#263238;stroke:color(display-p3 0.1490 0.1961 0.2196);stroke-opacity:1;" stroke-width="1.1133" stroke-linecap="round" stroke-linejoin="round"/>
<path d="M228.945 132.525C230.717 134.712 232.37 136.992 233.897 139.356C231.925 140.086 230.061 141.081 228.358 142.313C221.392 147.342 220.005 147.959 221.778 141.523C222.886 137.506 226.045 134.51 228.945 132.525Z" fill="#92B1F5" stroke="#263238" style="fill:#92B1F5;fill:color(display-p3 0.5725 0.6941 0.9608);fill-opacity:1;stroke:#263238;stroke:color(display-p3 0.1490 0.1961 0.2196);stroke-opacity:1;" stroke-width="1.1133" stroke-linecap="round" stroke-linejoin="round"/>
<path d="M148.483 126.474C148.483 126.474 145.516 136.483 146.634 140.558C147.751 144.633 152.934 140.934 158.127 145.375C163.319 149.816 168.127 157.832 187.789 159.315C207.452 160.799 219.32 150.192 223.434 144.258C227.548 138.323 227.143 131.281 234.185 130.915C241.228 130.549 235.303 116.821 233.078 114.595C233.078 114.595 246.796 94.2005 246.796 89.0079C246.796 83.8153 233.819 84.9232 217.895 89.7497C217.895 89.7497 206.026 83.4396 184.514 87.1486C163.001 90.8576 156.701 97.1677 156.701 97.1677C156.701 97.1677 129.996 100.501 128.146 103.834C126.297 107.168 131.798 121.281 148.483 126.474Z" fill="white" style="fill:white;fill:white;fill-opacity:1;"/>
<mask id="mask5_4255_9814" style="mask-type:luminance" maskUnits="userSpaceOnUse" x="127" y="85" width="120" height="75">
<path d="M148.479 126.489C148.479 126.489 145.512 136.499 146.63 140.574C147.747 144.649 152.93 140.95 158.123 145.391C163.315 149.832 168.123 157.847 187.785 159.331C207.448 160.814 219.317 150.208 223.43 144.273C227.544 138.339 227.139 131.296 234.181 130.93C241.224 130.564 235.299 116.836 233.074 114.611C233.074 114.611 246.792 94.2161 246.792 89.0235C246.792 83.8309 233.815 84.9388 217.891 89.7653C217.891 89.7653 206.022 83.4552 184.51 87.1642C162.998 90.8732 156.697 97.1833 156.697 97.1833C156.697 97.1833 129.992 100.517 128.143 103.85C126.293 107.183 131.794 121.297 148.479 126.489Z" fill="white" style="fill:white;fill:white;fill-opacity:1;"/>
</mask>
<g mask="url(#mask5_4255_9814)">
<path d="M234.153 130.942C241.205 130.566 235.27 116.847 233.045 114.622C233.045 114.622 235.655 110.768 238.594 105.952C230.627 101.79 222.804 99.4777 220.723 101.819C216.243 106.848 218.681 116.481 220.723 125.903C222.766 135.325 214.606 139.342 208.903 147.492C203.199 155.643 195.059 146.674 195.059 146.674C192.169 158.494 179.982 150.749 179.982 150.749C170.618 147.859 154.732 138.533 157.988 132.011C161.244 125.489 162.063 119.381 156.36 114.092C150.657 108.803 127.911 104.401 127.911 104.401C126.717 108.418 132.487 121.578 148.489 126.558C148.489 126.558 145.522 136.568 146.639 140.643C147.757 144.718 152.94 141.019 158.133 145.46C163.325 149.901 168.132 157.916 187.795 159.4C207.457 160.883 219.326 150.277 223.44 144.342C227.554 138.408 227.101 131.308 234.153 130.942Z" fill="#92B1F5" style="fill:#92B1F5;fill:color(display-p3 0.5725 0.6941 0.9608);fill-opacity:1;"/>
<path opacity="0.5" d="M234.153 130.942C241.205 130.566 235.27 116.847 233.045 114.622C233.045 114.622 235.655 110.768 238.594 105.952C230.627 101.79 222.804 99.4777 220.723 101.819C216.243 106.848 218.681 116.481 220.723 125.903C222.766 135.325 214.606 139.342 208.903 147.492C203.199 155.643 195.059 146.674 195.059 146.674C192.169 158.494 179.982 150.749 179.982 150.749C170.618 147.859 154.732 138.533 157.988 132.011C161.244 125.489 162.063 119.381 156.36 114.092C150.657 108.803 127.911 104.401 127.911 104.401C126.717 108.418 132.487 121.578 148.489 126.558C148.489 126.558 145.522 136.568 146.639 140.643C147.757 144.718 152.94 141.019 158.133 145.46C163.325 149.901 168.132 157.916 187.795 159.4C207.457 160.883 219.326 150.277 223.44 144.342C227.554 138.408 227.101 131.308 234.153 130.942Z" fill="white" style="fill:white;fill:white;fill-opacity:1;"/>
<path d="M205.143 133.18C205.423 135.53 200.201 138.064 193.506 138.844C186.81 139.625 181.146 138.353 180.866 135.954C180.587 133.555 185.808 131.079 192.513 130.299C199.219 129.519 204.874 130.839 205.143 133.18Z" fill="#92B1F5" style="fill:#92B1F5;fill:color(display-p3 0.5725 0.6941 0.9608);fill-opacity:1;"/>
<path opacity="0.5" d="M205.143 133.18C205.423 135.53 200.201 138.064 193.506 138.844C186.81 139.625 181.146 138.353 180.866 135.954C180.587 133.555 185.808 131.079 192.513 130.299C199.219 129.519 204.874 130.839 205.143 133.18Z" fill="white" style="fill:white;fill:white;fill-opacity:1;"/>
</g>
<path d="M148.483 126.474C148.483 126.474 145.516 136.483 146.634 140.558C147.751 144.633 152.934 140.934 158.127 145.375C163.319 149.816 168.127 157.832 187.789 159.315C207.452 160.799 219.32 150.192 223.434 144.258C227.548 138.323 227.143 131.281 234.185 130.915C241.228 130.549 235.303 116.821 233.078 114.595C233.078 114.595 246.796 94.2005 246.796 89.0079C246.796 83.8153 233.819 84.9232 217.895 89.7497C217.895 89.7497 206.026 83.4396 184.514 87.1486C163.001 90.8576 156.701 97.1677 156.701 97.1677C156.701 97.1677 129.996 100.501 128.146 103.834C126.297 107.168 131.798 121.281 148.483 126.474Z" stroke="#263238" style="stroke:#263238;stroke:color(display-p3 0.1490 0.1961 0.2196);stroke-opacity:1;" stroke-width="1.1133" stroke-miterlimit="10"/>
<path d="M225.19 96.7939C215.556 103.268 218.957 109.742 223.263 113.335C225.893 115.532 230.132 115.262 233.032 114.645C233.032 114.645 246.75 94.2505 246.75 89.0579C246.76 89.0098 234.775 90.2718 225.19 96.7939Z" fill="#92B1F5" stroke="#263238" style="fill:#92B1F5;fill:color(display-p3 0.5725 0.6941 0.9608);fill-opacity:1;stroke:#263238;stroke:color(display-p3 0.1490 0.1961 0.2196);stroke-opacity:1;" stroke-width="1.1133" stroke-miterlimit="10"/>
<path d="M127.906 104.329C126.711 108.346 132.482 121.506 148.483 126.487C148.483 126.487 160.699 125.292 156.624 115.466C152.818 106.294 133.58 104.011 127.906 104.329Z" fill="#92B1F5" stroke="#263238" style="fill:#92B1F5;fill:color(display-p3 0.5725 0.6941 0.9608);fill-opacity:1;stroke:#263238;stroke:color(display-p3 0.1490 0.1961 0.2196);stroke-opacity:1;" stroke-width="1.1133" stroke-miterlimit="10"/>
<path d="M184.458 87.1686C183.196 87.3901 181.982 87.6214 180.816 87.8526C182.743 97.5827 185.913 113.787 188.745 113.787C191.577 113.787 193.745 96.022 194.67 86.0703C191.246 86.2145 187.834 86.5814 184.458 87.1686Z" fill="#92B1F5" stroke="#263238" style="fill:#92B1F5;fill:color(display-p3 0.5725 0.6941 0.9608);fill-opacity:1;stroke:#263238;stroke:color(display-p3 0.1490 0.1961 0.2196);stroke-opacity:1;" stroke-width="1.1133" stroke-miterlimit="10"/>
<path d="M173.411 110.891C176.359 109.156 175.916 96.122 175.444 89.0508C172.401 89.8067 169.406 90.7428 166.475 91.8542C167.544 98.4726 170.261 112.74 173.411 110.891Z" fill="#92B1F5" stroke="#263238" style="fill:#92B1F5;fill:color(display-p3 0.5725 0.6941 0.9608);fill-opacity:1;stroke:#263238;stroke:color(display-p3 0.1490 0.1961 0.2196);stroke-opacity:1;" stroke-width="1.1133" stroke-miterlimit="10"/>
<path d="M201.933 104.907C204.948 105.967 206.644 95.1291 207.598 86.7862C204.552 86.2898 201.473 86.0289 198.388 86.0059C198.292 92.8555 198.667 103.761 201.933 104.907Z" fill="#92B1F5" stroke="#263238" style="fill:#92B1F5;fill:color(display-p3 0.5725 0.6941 0.9608);fill-opacity:1;stroke:#263238;stroke:color(display-p3 0.1490 0.1961 0.2196);stroke-opacity:1;" stroke-width="1.1133" stroke-miterlimit="10"/>
<path d="M197.897 142.418C195.084 141.678 192.094 142.047 189.545 143.449C189.433 143.513 189.338 143.603 189.267 143.711C189.196 143.819 189.151 143.942 189.136 144.07C189.121 144.198 189.137 144.328 189.181 144.449C189.225 144.571 189.297 144.68 189.391 144.768L194.506 149.585C194.602 149.675 194.718 149.741 194.844 149.777C194.971 149.813 195.104 149.819 195.233 149.794C195.362 149.768 195.483 149.712 195.586 149.631C195.689 149.55 195.771 149.445 195.826 149.325L198.446 143.545C198.493 143.436 198.516 143.318 198.513 143.199C198.51 143.08 198.482 142.963 198.43 142.856C198.378 142.749 198.303 142.654 198.211 142.579C198.119 142.503 198.012 142.448 197.897 142.418Z" fill="#92B1F5" stroke="#263238" style="fill:#92B1F5;fill:color(display-p3 0.5725 0.6941 0.9608);fill-opacity:1;stroke:#263238;stroke:color(display-p3 0.1490 0.1961 0.2196);stroke-opacity:1;" stroke-width="1.1133" stroke-linecap="round" stroke-linejoin="round"/>
<path d="M185.736 134.378C186.44 136.238 186.16 138.068 185.11 138.463C184.06 138.858 182.634 137.683 181.921 135.833C181.208 133.983 181.497 132.143 182.548 131.748C183.598 131.353 185.023 132.529 185.736 134.378Z" fill="#263238" style="fill:#263238;fill:color(display-p3 0.1490 0.1961 0.2196);fill-opacity:1;"/>
<path d="M199.69 133.05C199.324 134.977 199.921 136.759 201.029 136.961C202.137 137.164 203.331 135.757 203.697 133.801C204.063 131.846 203.466 130.102 202.358 129.89C201.25 129.678 200.056 131.104 199.69 133.05Z" fill="#263238" style="fill:#263238;fill:color(display-p3 0.1490 0.1961 0.2196);fill-opacity:1;"/>
<path d="M195.823 149.318C195.823 149.318 188.983 158.605 182.75 149.26" stroke="#263238" style="stroke:#263238;stroke:color(display-p3 0.1490 0.1961 0.2196);stroke-opacity:1;" stroke-width="1.1133" stroke-linecap="round" stroke-linejoin="round"/>
<path d="M194.506 149.573C194.506 149.573 199.053 154.284 203.851 151.644C208.648 149.004 205.777 144.9 205.777 144.9" stroke="#263238" style="stroke:#263238;stroke:color(display-p3 0.1490 0.1961 0.2196);stroke-opacity:1;" stroke-width="1.1133" stroke-linecap="round" stroke-linejoin="round"/>
<path d="M173.646 126.957C173.646 126.957 175.323 120.964 183.232 122.4" stroke="#263238" style="stroke:#263238;stroke:color(display-p3 0.1490 0.1961 0.2196);stroke-opacity:1;" stroke-width="3.33991" stroke-linecap="round" stroke-linejoin="round"/>
<path d="M197.617 121.452C197.617 121.452 203.609 117.859 209.12 123.61" stroke="#263238" style="stroke:#263238;stroke:color(display-p3 0.1490 0.1961 0.2196);stroke-opacity:1;" stroke-width="3.33991" stroke-linecap="round" stroke-linejoin="round"/>
<path d="M169.094 143.033L174.845 144.469" stroke="#263238" style="stroke:#263238;stroke:color(display-p3 0.1490 0.1961 0.2196);stroke-opacity:1;" stroke-width="1.1133" stroke-miterlimit="10" stroke-linecap="round"/>
<path d="M174.123 146.627L169.094 147.581" stroke="#263238" style="stroke:#263238;stroke:color(display-p3 0.1490 0.1961 0.2196);stroke-opacity:1;" stroke-width="1.1133" stroke-miterlimit="10" stroke-linecap="round"/>
<path d="M175.082 149.26L171.488 151.177" stroke="#263238" style="stroke:#263238;stroke:color(display-p3 0.1490 0.1961 0.2196);stroke-opacity:1;" stroke-width="1.1133" stroke-miterlimit="10" stroke-linecap="round"/>
<path d="M211.52 140.384L216.558 139.18" stroke="#263238" style="stroke:#263238;stroke:color(display-p3 0.1490 0.1961 0.2196);stroke-opacity:1;" stroke-width="1.1133" stroke-miterlimit="10" stroke-linecap="round"/>
<path d="M212.48 142.791H215.833" stroke="#263238" style="stroke:#263238;stroke:color(display-p3 0.1490 0.1961 0.2196);stroke-opacity:1;" stroke-width="1.1133" stroke-miterlimit="10" stroke-linecap="round"/>
<path d="M213.195 145.188L217.752 146.382" stroke="#263238" style="stroke:#263238;stroke:color(display-p3 0.1490 0.1961 0.2196);stroke-opacity:1;" stroke-width="1.1133" stroke-miterlimit="10" stroke-linecap="round"/>
</svg>
