<svg width="19" height="16" viewBox="0 0 19 16" fill="none" xmlns="http://www.w3.org/2000/svg">
<path d="M17.875 2.59375C17.875 2.6875 18.4688 5.25 16.75 7.6875C15.5625 9.4375 13.5938 10.6562 10.875 11.375C10.3125 11.5312 9.90625 12.0625 9.90625 12.6562C9.90625 13.4062 10.5 14 11.25 14H11.4062C12.2188 14 12.9062 14.6875 12.9062 15.5C12.9062 15.7812 12.7188 16 12.4375 16H5.46875C5.21875 16 5 15.7812 5 15.5C5 14.6875 5.65625 14 6.5 14H6.625C7.375 14 8 13.4062 7.96875 12.6562C7.96875 12.0625 7.59375 11.5312 7 11.375C4.28125 10.6562 2.3125 9.4375 1.15625 7.6875C-0.5 5.25 0.09375 2.6875 0.09375 2.59375C0.1875 2.25 0.5 2 0.84375 2H4C3.96875 1.625 3.96875 1.28125 4 0.96875C4 0.4375 4.4375 0 5 0H12.9688C13.5312 0 13.9688 0.4375 13.9688 0.96875C14 1.28125 14 1.625 13.9688 2H17.125C17.4688 2 17.7812 2.25 17.875 2.59375ZM2.40625 6.875C3.125 7.96875 4.28125 8.8125 5.8125 9.4375C4.65625 7.625 4.1875 5.375 4 3.5H1.5C1.46875 4.25 1.53125 5.59375 2.40625 6.875ZM15.5625 6.875C16.4375 5.59375 16.5 4.25 16.4688 3.5H13.9688C13.7812 5.375 13.3125 7.625 12.1562 9.4375C13.6875 8.8125 14.8438 7.96875 15.5625 6.875Z" fill="#080808" fill-opacity="0.25" style="fill:#080808;fill:color(display-p3 0.0314 0.0314 0.0314);fill-opacity:0.25;"/>
</svg>
