<svg width="20" height="19" viewBox="0 0 20 19" fill="none" xmlns="http://www.w3.org/2000/svg">
<path d="M9.28671 1.00431C9.51122 0.313322 10.4888 0.313323 10.7133 1.0043L12.2319 5.67807C12.3992 6.1931 12.8792 6.5418 13.4207 6.5418H18.335C19.0615 6.5418 19.3636 7.47151 18.7758 7.89856L14.8001 10.7871C14.362 11.1054 14.1787 11.6696 14.346 12.1846L15.8646 16.8584C16.0891 17.5494 15.2983 18.124 14.7105 17.6969L10.7347 14.8084C10.2966 14.4901 9.70338 14.4901 9.26527 14.8084L5.28953 17.6969C4.70175 18.124 3.91088 17.5494 4.1354 16.8584L5.654 12.1846C5.82134 11.6696 5.63801 11.1054 5.19991 10.7871L1.22417 7.89856C0.636382 7.47151 0.938464 6.5418 1.66501 6.5418H6.57929C7.12082 6.5418 7.60077 6.1931 7.76811 5.67807L9.28671 1.00431Z" fill="#FFCC16" stroke="#989292" style="fill:#FFCC16;fill:color(display-p3 1.0000 0.7992 0.0875);fill-opacity:1;stroke:#989292;stroke:color(display-p3 0.5958 0.5710 0.5710);stroke-opacity:1;" stroke-width="0.5"/>
</svg>
