<svg width="29" height="27" viewBox="0 0 29 27" fill="none" xmlns="http://www.w3.org/2000/svg">
<path d="M13.5489 1.92705C13.8483 1.00574 15.1517 1.00574 15.4511 1.92705L17.8677 9.36475C18.0016 9.77677 18.3855 10.0557 18.8188 10.0557H26.6392C27.6079 10.0557 28.0107 11.2953 27.227 11.8647L20.9001 16.4615C20.5496 16.7161 20.403 17.1675 20.5369 17.5795L22.9535 25.0172C23.2529 25.9385 22.1984 26.7047 21.4147 26.1353L15.0878 21.5385C14.7373 21.2839 14.2627 21.2839 13.9122 21.5385L7.58533 26.1353C6.80162 26.7047 5.74714 25.9385 6.04649 25.0172L8.46315 17.5795C8.59702 17.1675 8.45036 16.7161 8.09987 16.4615L1.77299 11.8647C0.989277 11.2953 1.39206 10.0557 2.36078 10.0557H10.1812C10.6145 10.0557 10.9984 9.77677 11.1323 9.36474L13.5489 1.92705Z" fill="#FFCC16" fill-opacity="0.12" stroke="#FFC700" style="fill:#FFCC16;fill:color(display-p3 1.0000 0.7992 0.0875);fill-opacity:0.12;stroke:#FFC700;stroke:color(display-p3 1.0000 0.7800 0.0000);stroke-opacity:1;"/>
</svg>
