<svg xmlns="http://www.w3.org/2000/svg" width="25" height="24" viewBox="0 0 25 24" fill="none">
  <path d="M17.3928 20.45H20.9489L20.9504 14.1675C20.9504 11.0833 20.2858 8.71259 16.6816 8.71259C15.3038 8.66145 14.0095 9.37231 13.3134 10.5625H13.2656V8.99745H9.85179V20.4497H13.4078V14.7843C13.4078 13.2904 13.6912 11.8435 15.5433 11.8435C17.3691 11.8435 17.3928 13.553 17.3928 14.881V20.45Z" fill="white" style="fill:white;fill:white;fill-opacity:1;"/>
  <path d="M3.77539 5.36872C3.7756 6.50845 4.69968 7.43222 5.83938 7.43202C6.38669 7.43192 6.91154 7.2144 7.29847 6.82732C7.68541 6.44024 7.90273 5.9153 7.90263 5.36798C7.90243 4.22825 6.97835 3.30448 5.83864 3.30469C4.69893 3.30489 3.77519 4.22899 3.77539 5.36872Z" fill="white" style="fill:white;fill:white;fill-opacity:1;"/>
  <path d="M4.05765 20.45H7.61741V8.99745H4.05765V20.45Z" fill="white" style="fill:white;fill:white;fill-opacity:1;"/>
</svg>