<svg xmlns="http://www.w3.org/2000/svg" width="25" height="24" viewBox="0 0 25 24" fill="none">
  <g clip-path="url(#clip0_5313_8486)">
    <path d="M12.4951 0C5.86076 0 0.5 5.37062 0.5 11.9951C0.5 17.0794 3.65919 21.4233 8.12156 23.1707C8.01296 22.2229 7.92411 20.7618 8.16104 19.7252C8.37824 18.7873 9.56293 13.7622 9.56293 13.7622C9.56293 13.7622 9.20754 13.0416 9.20754 11.9852C9.20754 10.3167 10.175 9.07281 11.3795 9.07281C12.4062 9.07281 12.8998 9.84286 12.8998 10.761C12.8998 11.7877 12.2482 13.3278 11.9027 14.7594C11.6164 15.9539 12.5049 16.9313 13.6798 16.9313C15.8122 16.9313 17.4511 14.6804 17.4511 11.4422C17.4511 8.56932 15.3877 6.5652 12.4358 6.5652C9.01995 6.5652 7.01583 9.12216 7.01583 11.768C7.01583 12.7947 7.41073 13.9004 7.90436 14.5027C8.0031 14.6211 8.01296 14.7297 7.98334 14.8482C7.8945 15.2234 7.68716 16.0428 7.64768 16.2106C7.59831 16.4278 7.46996 16.4772 7.2429 16.3686C5.76202 15.6577 4.83402 13.4661 4.83402 11.7088C4.83402 7.92761 7.57856 4.45248 12.7616 4.45248C16.9179 4.45248 20.1561 7.41422 20.1561 11.383C20.1561 15.5195 17.5498 18.8466 13.9364 18.8466C12.7221 18.8466 11.5769 18.2147 11.1919 17.4644C11.1919 17.4644 10.5897 19.7548 10.4416 20.3176C10.175 21.3641 9.44446 22.6672 8.95083 23.4669C10.0763 23.8124 11.261 24 12.5049 24C19.1294 24 24.5 18.6294 24.5 12.0049C24.4901 5.37062 19.1195 0 12.4951 0Z" fill="white" style="fill:white;fill:white;fill-opacity:1;"/>
  </g>
  <defs>
    <clipPath id="clip0_5313_8486">
      <rect x="0.5" width="24" height="24" rx="6" fill="white" style="fill:white;fill:white;fill-opacity:1;"/>
    </clipPath>
  </defs>
</svg>