<svg xmlns="http://www.w3.org/2000/svg" width="25" height="24" viewBox="0 0 25 24" fill="none">
  <path d="M22.043 6.99451C22.0576 7.2115 22.0576 7.42848 22.0576 7.64746C22.0576 14.32 17.1045 22.0154 8.04759 22.0154V22.0114C5.37215 22.0154 2.75229 21.2294 0.5 19.7476C0.889031 19.7955 1.28001 19.8195 1.67197 19.8205C3.88915 19.8225 6.04296 19.0596 7.78726 17.6547C5.68026 17.6137 3.8326 16.2048 3.18714 14.148C3.92523 14.294 4.68574 14.264 5.41018 14.061C3.11304 13.585 1.46039 11.5152 1.46039 9.11135C1.46039 9.08935 1.46039 9.06836 1.46039 9.04736C2.14485 9.43833 2.91121 9.65531 3.69512 9.67931C1.53157 8.19642 0.864656 5.24464 2.17118 2.93682C4.67111 6.09158 8.3596 8.00944 12.3191 8.21242C11.9223 6.45855 12.4644 4.62069 13.7436 3.38778C15.7268 1.47593 18.8459 1.57392 20.7101 3.60677C21.8129 3.38378 22.8698 2.96882 23.837 2.38086C23.4694 3.54977 22.7001 4.5427 21.6725 5.17365C22.6484 5.05566 23.602 4.78768 24.5 4.37871C23.8389 5.39463 23.0063 6.27957 22.043 6.99451Z" fill="white" style="fill:white;fill:white;fill-opacity:1;"/>
</svg>