<svg width="727" height="537" viewBox="0 0 727 537" fill="none" xmlns="http://www.w3.org/2000/svg">
<path d="M654.075 499.377H605.924V499.74H654.075V499.377Z" fill="#EBEBEB" style="fill:#EBEBEB;fill:color(display-p3 0.9216 0.9216 0.9216);fill-opacity:1;"/>
<path d="M481.548 503.332H468.914V503.695H481.548V503.332Z" fill="#EBEBEB" style="fill:#EBEBEB;fill:color(display-p3 0.9216 0.9216 0.9216);fill-opacity:1;"/>
<path d="M604.469 485.883H576.57V486.246H604.469V485.883Z" fill="#EBEBEB" style="fill:#EBEBEB;fill:color(display-p3 0.9216 0.9216 0.9216);fill-opacity:1;"/>
<path d="M139.051 488.328H76.2598V488.692H139.051V488.328Z" fill="#EBEBEB" style="fill:#EBEBEB;fill:color(display-p3 0.9216 0.9216 0.9216);fill-opacity:1;"/>
<path d="M161.209 488.328H152.006V488.692H161.209V488.328Z" fill="#EBEBEB" style="fill:#EBEBEB;fill:color(display-p3 0.9216 0.9216 0.9216);fill-opacity:1;"/>
<path d="M327.318 494.463H191.123V494.826H327.318V494.463Z" fill="#EBEBEB" style="fill:#EBEBEB;fill:color(display-p3 0.9216 0.9216 0.9216);fill-opacity:1;"/>
<path d="M344.562 411.143H63.8561C61.6544 411.143 59.5429 410.269 57.9861 408.712C56.4293 407.155 55.5547 405.044 55.5547 402.842V8.22868C55.5739 6.03964 56.4569 3.94678 58.0117 2.40566C59.5664 0.864538 61.6669 -8.39237e-05 63.8561 6.10979e-09H344.562C346.763 6.10981e-09 348.875 0.874607 350.432 2.43142C351.988 3.98823 352.863 6.09971 352.863 8.30137V402.842C352.863 405.044 351.988 407.155 350.432 408.712C348.875 410.269 346.763 411.143 344.562 411.143ZM63.8561 0.290767C61.752 0.29461 59.7352 1.13216 58.2474 2.61997C56.7595 4.10779 55.922 6.1246 55.9181 8.22868V402.842C55.922 404.946 56.7595 406.963 58.2474 408.451C59.7352 409.938 61.752 410.776 63.8561 410.78H344.562C346.666 410.776 348.683 409.938 350.17 408.451C351.658 406.963 352.496 404.946 352.5 402.842V8.22868C352.496 6.1246 351.658 4.10779 350.17 2.61997C348.683 1.13216 346.666 0.29461 344.562 0.290767H63.8561Z" fill="#EBEBEB" style="fill:#EBEBEB;fill:color(display-p3 0.9216 0.9216 0.9216);fill-opacity:1;"/>
<path d="M659.03 411.143H378.296C376.095 411.139 373.986 410.264 372.43 408.708C370.874 407.152 369.998 405.042 369.994 402.842V8.22868C370.017 6.04083 370.901 3.95017 372.455 2.40986C374.009 0.869549 376.108 0.00370478 378.296 0H659.03C661.214 0.00756645 663.307 0.875568 664.856 2.41587C666.404 3.95617 667.283 6.04467 667.302 8.22868V402.842C667.303 405.039 666.432 407.146 664.881 408.702C663.331 410.258 661.227 411.136 659.03 411.143ZM378.296 0.290767C376.191 0.29461 374.175 1.13216 372.687 2.61997C371.199 4.10779 370.361 6.1246 370.358 8.22868V402.842C370.361 404.946 371.199 406.963 372.687 408.451C374.175 409.938 376.191 410.776 378.296 410.78H659.03C661.134 410.776 663.151 409.938 664.639 408.451C666.127 406.963 666.964 404.946 666.968 402.842V8.22868C666.964 6.1246 666.127 4.10779 664.639 2.61997C663.151 1.13216 661.134 0.29461 659.03 0.290767H378.296Z" fill="#EBEBEB" style="fill:#EBEBEB;fill:color(display-p3 0.9216 0.9216 0.9216);fill-opacity:1;"/>
<path d="M726.915 475.984H0V476.348H726.915V475.984Z" fill="#EBEBEB" style="fill:#EBEBEB;fill:color(display-p3 0.9216 0.9216 0.9216);fill-opacity:1;"/>
<path d="M248.457 442.547H282.143L264.435 298.327C264.009 295.312 262.528 292.546 260.255 290.52C257.982 288.494 255.063 287.34 252.019 287.264H105.037L126.583 442.547H248.457Z" fill="#F5F5F5" style="fill:#F5F5F5;fill:color(display-p3 0.9608 0.9608 0.9608);fill-opacity:1;"/>
<path d="M141.614 442.546H107.929L90.2214 298.326C90.0037 296.94 90.0933 295.523 90.4839 294.175C90.8744 292.827 91.5562 291.581 92.4812 290.526C93.4063 289.47 94.5518 288.631 95.837 288.067C97.1221 287.503 98.5154 287.229 99.9184 287.263H111.549C114.591 287.34 117.508 288.494 119.779 290.52C122.049 292.546 123.528 295.312 123.95 298.326L141.614 442.546Z" fill="#F0F0F0" style="fill:#F0F0F0;fill:color(display-p3 0.9412 0.9412 0.9412);fill-opacity:1;"/>
<path d="M154.108 442.371L148.002 372.587C147.87 371.069 147.22 369.642 146.161 368.547C145.103 367.451 143.699 366.752 142.187 366.568L139.672 366.248C137.651 365.991 135.78 365.05 134.368 363.582C132.955 362.115 132.088 360.208 131.908 358.179L130.847 345.487C130.745 344.265 130.896 343.034 131.292 341.873C131.687 340.711 132.318 339.644 133.145 338.738C133.972 337.832 134.978 337.106 136.098 336.606C137.219 336.107 138.43 335.844 139.657 335.834H83.3648C82.1278 335.833 80.9042 336.09 79.7719 336.588C78.6395 337.086 77.6233 337.814 76.7877 338.726C75.9521 339.638 75.3156 340.714 74.9187 341.886C74.5217 343.057 74.3729 344.299 74.4819 345.531L75.5868 358.252C75.761 360.283 76.627 362.192 78.0402 363.661C79.4533 365.129 81.3278 366.069 83.3503 366.321L85.8509 366.641C87.3624 366.828 88.7641 367.527 89.8224 368.622C90.8806 369.718 91.5314 371.142 91.6662 372.659L97.7723 442.443C98.0007 444.887 99.1337 447.157 100.949 448.808C102.765 450.46 105.131 451.373 107.586 451.37H163.849C161.397 451.35 159.04 450.417 157.239 448.753C155.438 447.089 154.322 444.814 154.108 442.371Z" fill="#E6E6E6" style="fill:#E6E6E6;fill:color(display-p3 0.9020 0.9020 0.9020);fill-opacity:1;"/>
<path d="M308.955 355.155C309.428 349.876 311.859 344.965 315.772 341.389C319.684 337.813 324.794 335.831 330.094 335.834H281.071C275.766 335.836 270.654 337.825 266.744 341.41C262.834 344.994 260.408 349.914 259.947 355.199L255.105 410.445H304.129L308.955 355.155Z" fill="#E6E6E6" style="fill:#E6E6E6;fill:color(display-p3 0.9020 0.9020 0.9020);fill-opacity:1;"/>
<path d="M351.82 335.834H330.012C324.705 335.832 319.59 337.82 315.676 341.405C311.763 344.99 309.336 349.912 308.874 355.199L304.047 410.445H187.392L182.55 355.199C182.088 349.905 179.654 344.976 175.732 341.39C171.809 337.804 166.683 335.821 161.368 335.834H139.561C138.341 335.856 137.139 336.127 136.029 336.632C134.919 337.137 133.924 337.865 133.106 338.77C132.289 339.675 131.665 340.738 131.275 341.893C130.885 343.049 130.736 344.272 130.838 345.488L131.943 358.209C132.122 360.237 132.99 362.144 134.402 363.612C135.814 365.079 137.686 366.02 139.706 366.277L142.221 366.597C143.734 366.782 145.137 367.48 146.196 368.576C147.254 369.672 147.904 371.098 148.036 372.616L154.143 442.4C154.357 444.855 155.484 447.141 157.3 448.807C159.117 450.473 161.491 451.398 163.956 451.399H327.657C330.122 451.398 332.497 450.473 334.313 448.807C336.13 447.141 337.256 444.855 337.471 442.4L343.577 372.616C343.712 371.099 344.362 369.674 345.421 368.579C346.479 367.484 347.881 366.784 349.392 366.597L351.893 366.277C353.915 366.025 355.79 365.086 357.203 363.617C358.616 362.149 359.482 360.239 359.656 358.209L360.761 345.488C360.864 344.254 360.709 343.012 360.306 341.842C359.902 340.672 359.259 339.598 358.418 338.69C357.577 337.782 356.556 337.059 355.42 336.567C354.284 336.076 353.058 335.826 351.82 335.834Z" fill="#F0F0F0" style="fill:#F0F0F0;fill:color(display-p3 0.9412 0.9412 0.9412);fill-opacity:1;"/>
<path d="M204.883 200.239C240.525 200.239 269.419 171.346 269.419 135.704C269.419 100.062 240.525 71.168 204.883 71.168C169.241 71.168 140.348 100.062 140.348 135.704C140.348 171.346 169.241 200.239 204.883 200.239Z" fill="#F5F5F5" style="fill:#F5F5F5;fill:color(display-p3 0.9608 0.9608 0.9608);fill-opacity:1;"/>
<path d="M204.896 190.423C235.118 190.423 259.618 165.923 259.618 135.701C259.618 105.478 235.118 80.9785 204.896 80.9785C174.674 80.9785 150.174 105.478 150.174 135.701C150.174 165.923 174.674 190.423 204.896 190.423Z" fill="#FAFAFA" style="fill:#FAFAFA;fill:color(display-p3 0.9804 0.9804 0.9804);fill-opacity:1;"/>
<path d="M204.884 80.9815C204.026 80.9815 203.168 80.9815 202.311 80.9815C216.372 81.6303 229.643 87.6729 239.365 97.8534C249.086 108.034 254.511 121.569 254.511 135.646C254.511 149.722 249.086 163.257 239.365 173.438C229.643 183.618 216.372 189.661 202.311 190.31C203.168 190.31 204.026 190.31 204.884 190.31C219.397 190.31 233.316 184.544 243.578 174.282C253.841 164.019 259.606 150.101 259.606 135.587C259.606 121.074 253.841 107.155 243.578 96.893C233.316 86.6306 219.397 80.8652 204.884 80.8652V80.9815Z" fill="#E6E6E6" style="fill:#E6E6E6;fill:color(display-p3 0.9020 0.9020 0.9020);fill-opacity:1;"/>
<path d="M204.913 190.364C206.294 190.292 207.661 190.161 209.027 190.001V139.815H256.902C257.004 138.448 257.062 137.081 257.062 135.7C257.062 134.319 257.062 132.953 256.902 131.586H209.013V81.4142C207.646 81.2398 206.28 81.1089 204.898 81.0508H200.784V131.6H150.234V139.829H200.784V190.379L204.913 190.364Z" fill="#F0F0F0" style="fill:#F0F0F0;fill:color(display-p3 0.9412 0.9412 0.9412);fill-opacity:1;"/>
<path d="M200.78 81.0352H196.666V131.585H200.78V81.0352Z" fill="#E6E6E6" style="fill:#E6E6E6;fill:color(display-p3 0.9020 0.9020 0.9020);fill-opacity:1;"/>
<path d="M200.78 139.816H196.666V190.366H200.78V139.816Z" fill="#E6E6E6" style="fill:#E6E6E6;fill:color(display-p3 0.9020 0.9020 0.9020);fill-opacity:1;"/>
<path d="M522.039 200.239C557.681 200.239 586.575 171.346 586.575 135.704C586.575 100.062 557.681 71.168 522.039 71.168C486.397 71.168 457.504 100.062 457.504 135.704C457.504 171.346 486.397 200.239 522.039 200.239Z" fill="#F5F5F5" style="fill:#F5F5F5;fill:color(display-p3 0.9608 0.9608 0.9608);fill-opacity:1;"/>
<path d="M522.031 190.423C552.253 190.423 576.753 165.923 576.753 135.701C576.753 105.478 552.253 80.9785 522.031 80.9785C491.809 80.9785 467.309 105.478 467.309 135.701C467.309 165.923 491.809 190.423 522.031 190.423Z" fill="#FAFAFA" style="fill:#FAFAFA;fill:color(display-p3 0.9804 0.9804 0.9804);fill-opacity:1;"/>
<path d="M522.026 80.9815C521.168 80.9815 520.31 80.9815 519.467 80.9815C533.528 81.6303 546.799 87.6729 556.521 97.8534C566.242 108.034 571.667 121.569 571.667 135.646C571.667 149.722 566.242 163.257 556.521 173.438C546.799 183.618 533.528 189.661 519.467 190.31C520.31 190.31 521.168 190.31 522.026 190.31C536.539 190.31 550.458 184.544 560.72 174.282C570.982 164.019 576.748 150.101 576.748 135.587C576.748 121.074 570.982 107.155 560.72 96.893C550.458 86.6306 536.539 80.8652 522.026 80.8652V80.9815Z" fill="#E6E6E6" style="fill:#E6E6E6;fill:color(display-p3 0.9020 0.9020 0.9020);fill-opacity:1;"/>
<path d="M522.06 190.364C523.514 190.292 524.823 190.161 526.175 190.001V139.815H574.049C574.151 138.448 574.224 137.081 574.224 135.7C574.224 134.319 574.151 132.953 574.049 131.586H526.146V81.4142C524.793 81.2398 523.427 81.1089 522.031 81.0508H517.917V131.6H467.367V139.829H517.917V190.379L522.06 190.364Z" fill="#F0F0F0" style="fill:#F0F0F0;fill:color(display-p3 0.9412 0.9412 0.9412);fill-opacity:1;"/>
<path d="M517.939 81.0352H513.824V131.585H517.939V81.0352Z" fill="#E6E6E6" style="fill:#E6E6E6;fill:color(display-p3 0.9020 0.9020 0.9020);fill-opacity:1;"/>
<path d="M517.939 139.816H513.824V190.366H517.939V139.816Z" fill="#E6E6E6" style="fill:#E6E6E6;fill:color(display-p3 0.9020 0.9020 0.9020);fill-opacity:1;"/>
<path d="M410.801 435.814H522.557V397.244H410.801V435.814Z" fill="#EBEBEB" style="fill:#EBEBEB;fill:color(display-p3 0.9216 0.9216 0.9216);fill-opacity:1;"/>
<path d="M410.801 474.398H522.557V435.828H410.801V474.398Z" fill="#EBEBEB" style="fill:#EBEBEB;fill:color(display-p3 0.9216 0.9216 0.9216);fill-opacity:1;"/>
<path d="M526.449 435.814H638.205V397.244H526.449V435.814Z" fill="#EBEBEB" style="fill:#EBEBEB;fill:color(display-p3 0.9216 0.9216 0.9216);fill-opacity:1;"/>
<path d="M526.449 474.398H638.205V435.828H526.449V474.398Z" fill="#EBEBEB" style="fill:#EBEBEB;fill:color(display-p3 0.9216 0.9216 0.9216);fill-opacity:1;"/>
<path d="M595.733 435.816L581.82 397.246H603.221L617.134 435.816H595.733Z" fill="#F0F0F0" style="fill:#F0F0F0;fill:color(display-p3 0.9412 0.9412 0.9412);fill-opacity:1;"/>
<path d="M571.48 397.246H576.176L590.09 435.816H585.379L571.48 397.246Z" fill="#F0F0F0" style="fill:#F0F0F0;fill:color(display-p3 0.9412 0.9412 0.9412);fill-opacity:1;"/>
<path d="M609.625 474.399L595.727 435.814H617.127L631.026 474.399H609.625Z" fill="#F0F0F0" style="fill:#F0F0F0;fill:color(display-p3 0.9412 0.9412 0.9412);fill-opacity:1;"/>
<path d="M585.363 435.814H590.074L603.972 474.399H599.276L585.363 435.814Z" fill="#F0F0F0" style="fill:#F0F0F0;fill:color(display-p3 0.9412 0.9412 0.9412);fill-opacity:1;"/>
<path d="M435.887 435.816L421.988 397.246H443.389L457.287 435.816H435.887Z" fill="#F0F0F0" style="fill:#F0F0F0;fill:color(display-p3 0.9412 0.9412 0.9412);fill-opacity:1;"/>
<path d="M411.648 397.246H416.344L430.243 435.816H425.547L411.648 397.246Z" fill="#F0F0F0" style="fill:#F0F0F0;fill:color(display-p3 0.9412 0.9412 0.9412);fill-opacity:1;"/>
<path d="M449.808 474.399L435.895 435.814H457.295L471.208 474.399H449.808Z" fill="#F0F0F0" style="fill:#F0F0F0;fill:color(display-p3 0.9412 0.9412 0.9412);fill-opacity:1;"/>
<path d="M425.531 435.814H430.227L444.14 474.399H439.43L425.531 435.814Z" fill="#F0F0F0" style="fill:#F0F0F0;fill:color(display-p3 0.9412 0.9412 0.9412);fill-opacity:1;"/>
<path d="M638.205 403.178V399.281H526.449V403.178H638.205Z" fill="#E0E0E0" style="fill:#E0E0E0;fill:color(display-p3 0.8784 0.8784 0.8784);fill-opacity:1;"/>
<path d="M638.205 441.441V437.545H526.449V441.441H638.205Z" fill="#E0E0E0" style="fill:#E0E0E0;fill:color(display-p3 0.8784 0.8784 0.8784);fill-opacity:1;"/>
<path d="M579.479 421.463C579.035 421.463 578.61 421.287 578.296 420.973C577.983 420.66 577.807 420.234 577.807 419.791C577.807 419.348 577.983 418.922 578.296 418.609C578.61 418.295 579.035 418.119 579.479 418.119H585.192C585.636 418.119 586.061 418.295 586.374 418.609C586.688 418.922 586.864 419.348 586.864 419.791C586.864 420.234 586.688 420.66 586.374 420.973C586.061 421.287 585.636 421.463 585.192 421.463H579.479Z" fill="#E0E0E0" style="fill:#E0E0E0;fill:color(display-p3 0.8784 0.8784 0.8784);fill-opacity:1;"/>
<path d="M579.462 420.883C579.228 420.905 578.993 420.878 578.77 420.803C578.548 420.729 578.343 420.609 578.17 420.451C577.996 420.293 577.858 420.1 577.763 419.885C577.668 419.671 577.619 419.439 577.619 419.204C577.619 418.969 577.668 418.737 577.763 418.523C577.858 418.308 577.996 418.115 578.17 417.957C578.343 417.799 578.548 417.679 578.77 417.605C578.993 417.53 579.228 417.503 579.462 417.525H585.176C585.594 417.564 585.983 417.758 586.266 418.068C586.549 418.379 586.706 418.784 586.706 419.204C586.706 419.624 586.549 420.029 586.266 420.34C585.983 420.65 585.594 420.844 585.176 420.883H579.462Z" fill="#F5F5F5" style="fill:#F5F5F5;fill:color(display-p3 0.9608 0.9608 0.9608);fill-opacity:1;"/>
<path d="M579.462 457.08C579.228 457.102 578.993 457.075 578.77 457.001C578.548 456.926 578.343 456.806 578.17 456.648C577.996 456.49 577.858 456.297 577.763 456.083C577.668 455.868 577.619 455.636 577.619 455.401C577.619 455.167 577.668 454.935 577.763 454.72C577.858 454.505 577.996 454.313 578.17 454.155C578.343 453.997 578.548 453.877 578.77 453.802C578.993 453.728 579.228 453.7 579.462 453.722H585.176C585.594 453.761 585.983 453.955 586.266 454.265C586.549 454.576 586.706 454.981 586.706 455.401C586.706 455.821 586.549 456.227 586.266 456.537C585.983 456.848 585.594 457.041 585.176 457.08H579.462Z" fill="#E0E0E0" style="fill:#E0E0E0;fill:color(display-p3 0.8784 0.8784 0.8784);fill-opacity:1;"/>
<path d="M579.462 456.504C579.228 456.526 578.993 456.499 578.77 456.424C578.548 456.35 578.343 456.23 578.17 456.072C577.996 455.914 577.858 455.721 577.763 455.507C577.668 455.292 577.619 455.06 577.619 454.825C577.619 454.59 577.668 454.358 577.763 454.144C577.858 453.929 577.996 453.737 578.17 453.579C578.343 453.42 578.548 453.3 578.77 453.226C578.993 453.151 579.228 453.124 579.462 453.146H585.176C585.594 453.185 585.983 453.379 586.266 453.689C586.549 454 586.706 454.405 586.706 454.825C586.706 455.245 586.549 455.65 586.266 455.961C585.983 456.272 585.594 456.465 585.176 456.504H579.462Z" fill="#F5F5F5" style="fill:#F5F5F5;fill:color(display-p3 0.9608 0.9608 0.9608);fill-opacity:1;"/>
<path d="M524.494 395.518V476.089H640.146V395.518H524.494ZM528.39 437.868H636.25V472.178H528.39V437.868ZM528.39 399.646H636.25V433.957H528.39V399.646Z" fill="#F5F5F5" style="fill:#F5F5F5;fill:color(display-p3 0.9608 0.9608 0.9608);fill-opacity:1;"/>
<path d="M522.557 403.178V399.281H410.801V403.178H522.557Z" fill="#E0E0E0" style="fill:#E0E0E0;fill:color(display-p3 0.8784 0.8784 0.8784);fill-opacity:1;"/>
<path d="M522.535 441.457V437.561H410.779V441.457H522.535Z" fill="#E0E0E0" style="fill:#E0E0E0;fill:color(display-p3 0.8784 0.8784 0.8784);fill-opacity:1;"/>
<path d="M463.766 421.463C463.322 421.463 462.897 421.287 462.583 420.973C462.27 420.66 462.094 420.234 462.094 419.791C462.094 419.348 462.27 418.922 462.583 418.609C462.897 418.295 463.322 418.119 463.766 418.119H469.581C470.024 418.119 470.45 418.295 470.763 418.609C471.077 418.922 471.253 419.348 471.253 419.791C471.253 420.234 471.077 420.66 470.763 420.973C470.45 421.287 470.024 421.463 469.581 421.463H463.766Z" fill="#E0E0E0" style="fill:#E0E0E0;fill:color(display-p3 0.8784 0.8784 0.8784);fill-opacity:1;"/>
<path d="M463.77 420.886C463.352 420.847 462.963 420.653 462.68 420.342C462.397 420.032 462.24 419.627 462.24 419.207C462.24 418.786 462.397 418.381 462.68 418.071C462.963 417.76 463.352 417.566 463.77 417.527H469.586C470.004 417.566 470.393 417.76 470.676 418.071C470.959 418.381 471.116 418.786 471.116 419.207C471.116 419.627 470.959 420.032 470.676 420.342C470.393 420.653 470.004 420.847 469.586 420.886H463.77Z" fill="#F5F5F5" style="fill:#F5F5F5;fill:color(display-p3 0.9608 0.9608 0.9608);fill-opacity:1;"/>
<path d="M463.77 457.085C463.352 457.046 462.963 456.852 462.68 456.542C462.397 456.231 462.24 455.826 462.24 455.406C462.24 454.986 462.397 454.58 462.68 454.27C462.963 453.959 463.352 453.766 463.77 453.727H469.586C470.004 453.766 470.393 453.959 470.676 454.27C470.959 454.58 471.116 454.986 471.116 455.406C471.116 455.826 470.959 456.231 470.676 456.542C470.393 456.852 470.004 457.046 469.586 457.085H463.77Z" fill="#E0E0E0" style="fill:#E0E0E0;fill:color(display-p3 0.8784 0.8784 0.8784);fill-opacity:1;"/>
<path d="M463.77 456.503C463.352 456.464 462.963 456.27 462.68 455.96C462.397 455.649 462.24 455.244 462.24 454.824C462.24 454.404 462.397 453.998 462.68 453.688C462.963 453.377 463.352 453.184 463.77 453.145H469.586C470.004 453.184 470.393 453.377 470.676 453.688C470.959 453.998 471.116 454.404 471.116 454.824C471.116 455.244 470.959 455.649 470.676 455.96C470.393 456.27 470.004 456.464 469.586 456.503H463.77Z" fill="#F5F5F5" style="fill:#F5F5F5;fill:color(display-p3 0.9608 0.9608 0.9608);fill-opacity:1;"/>
<path d="M408.822 395.518V476.089H524.489V395.518H408.822ZM412.733 437.868H520.578V472.178H412.733V437.868ZM412.733 399.646H520.578V433.957H412.733V399.646Z" fill="#F5F5F5" style="fill:#F5F5F5;fill:color(display-p3 0.9608 0.9608 0.9608);fill-opacity:1;"/>
<path d="M574.267 389.148H557.024L553.026 372.182H546.121L542.137 389.148H524.836C524.135 389.146 523.439 389.283 522.79 389.55C522.141 389.817 521.551 390.21 521.054 390.705C520.557 391.201 520.163 391.79 519.894 392.438C519.625 393.086 519.486 393.781 519.486 394.483V395.516H579.588V394.483C579.588 393.071 579.028 391.716 578.03 390.716C577.033 389.716 575.679 389.152 574.267 389.148Z" fill="#E0E0E0" style="fill:#E0E0E0;fill:color(display-p3 0.8784 0.8784 0.8784);fill-opacity:1;"/>
<path d="M626.028 281.955H473.158V380.903H626.028V281.955Z" fill="#E0E0E0" style="fill:#E0E0E0;fill:color(display-p3 0.8784 0.8784 0.8784);fill-opacity:1;"/>
<path d="M623.116 284.865H476.061V373.636H623.116V284.865Z" fill="#F5F5F5" style="fill:#F5F5F5;fill:color(display-p3 0.9608 0.9608 0.9608);fill-opacity:1;"/>
<path d="M557.11 373.636H611.207L579.208 284.865H525.111L557.11 373.636Z" fill="#FAFAFA" style="fill:#FAFAFA;fill:color(display-p3 0.9804 0.9804 0.9804);fill-opacity:1;"/>
<path d="M530.929 373.636H542.821L510.822 284.865H498.93L530.929 373.636Z" fill="#FAFAFA" style="fill:#FAFAFA;fill:color(display-p3 0.9804 0.9804 0.9804);fill-opacity:1;"/>
<path d="M321.1 476.158H168.113V449.916H325.461L321.1 476.158Z" fill="#F5F5F5" style="fill:#F5F5F5;fill:color(display-p3 0.9608 0.9608 0.9608);fill-opacity:1;"/>
<path d="M180.557 476.347H112.664L109.756 449.916H177.65L180.557 476.347Z" fill="#E0E0E0" style="fill:#E0E0E0;fill:color(display-p3 0.8784 0.8784 0.8784);fill-opacity:1;"/>
<path d="M356.453 536.04C512.133 536.04 638.337 528.672 638.337 519.582C638.337 510.493 512.133 503.125 356.453 503.125C200.774 503.125 74.5703 510.493 74.5703 519.582C74.5703 528.672 200.774 536.04 356.453 536.04Z" fill="#F5F5F5" style="fill:#F5F5F5;fill:color(display-p3 0.9608 0.9608 0.9608);fill-opacity:1;"/>
<path d="M545.447 517.515H538.484L536.957 411.27H546.974L545.447 517.515Z" fill="#263238" style="fill:#263238;fill:color(display-p3 0.1490 0.1961 0.2196);fill-opacity:1;"/>
<path opacity="0.5" d="M545.447 517.515H538.484L536.957 411.27H546.974L545.447 517.515Z" fill="white" style="fill:white;fill:white;fill-opacity:1;"/>
<path d="M483.936 517.515H476.957L475.445 411.27H485.462L483.936 517.515Z" fill="#263238" style="fill:#263238;fill:color(display-p3 0.1490 0.1961 0.2196);fill-opacity:1;"/>
<path opacity="0.5" d="M483.936 517.515H476.957L475.445 411.27H485.462L483.936 517.515Z" fill="white" style="fill:white;fill:white;fill-opacity:1;"/>
<path d="M469.66 517.515H462.696L461.17 411.27H471.187L469.66 517.515Z" fill="#263238" style="fill:#263238;fill:color(display-p3 0.1490 0.1961 0.2196);fill-opacity:1;"/>
<path opacity="0.5" d="M469.66 517.515H462.696L461.17 411.27H471.187L469.66 517.515Z" fill="white" style="fill:white;fill:white;fill-opacity:1;"/>
<path d="M408.168 517.515H401.19L399.678 411.27H409.695L408.168 517.515Z" fill="#263238" style="fill:#263238;fill:color(display-p3 0.1490 0.1961 0.2196);fill-opacity:1;"/>
<path opacity="0.5" d="M408.168 517.515H401.19L399.678 411.27H409.695L408.168 517.515Z" fill="white" style="fill:white;fill:white;fill-opacity:1;"/>
<path d="M512.02 413.712H398.985C397.761 413.712 396.549 413.471 395.419 413.002C394.288 412.534 393.261 411.848 392.395 410.982C391.53 410.117 390.844 409.09 390.375 407.959C389.907 406.828 389.666 405.616 389.666 404.393V391.977C389.67 389.508 390.653 387.141 392.401 385.397C394.148 383.652 396.516 382.672 398.985 382.672H499.067L507.688 300.647C508.274 295.843 510.573 291.412 514.161 288.165C517.75 284.918 522.389 283.073 527.227 282.969H569.229L559.197 313.586L550.038 382.164L543.598 401.325L512.02 413.712Z" fill="#407BFF" style="fill:#407BFF;fill:color(display-p3 0.2510 0.4824 1.0000);fill-opacity:1;"/>
<path opacity="0.2" d="M512.02 413.712H398.985C397.761 413.712 396.549 413.471 395.419 413.002C394.288 412.534 393.261 411.848 392.395 410.982C391.53 410.117 390.844 409.09 390.375 407.959C389.907 406.828 389.666 405.616 389.666 404.393V391.977C389.67 389.508 390.653 387.141 392.401 385.397C394.148 383.652 396.516 382.672 398.985 382.672H499.067L507.688 300.647C508.274 295.843 510.573 291.412 514.161 288.165C517.75 284.918 522.389 283.073 527.227 282.969H569.229L559.197 313.586L550.038 382.164L543.598 401.325L512.02 413.712Z" fill="black" style="fill:black;fill:black;fill-opacity:1;"/>
<path d="M572.718 282.97H564.329C559.492 283.074 554.855 284.92 551.269 288.167C547.683 291.414 545.387 295.846 544.804 300.648L536.183 382.673H474.512C472.045 382.677 469.681 383.659 467.937 385.403C466.192 387.147 465.211 389.511 465.207 391.978V404.394C465.207 406.863 466.187 409.231 467.931 410.978C469.676 412.725 472.043 413.709 474.512 413.713H549.122C551.955 413.714 554.687 412.665 556.792 410.77C558.897 408.874 560.225 406.266 560.52 403.449L570.29 310.491C574.202 310.411 577.943 308.866 580.77 306.16C583.597 303.454 585.305 299.785 585.555 295.88C585.586 294.182 585.276 292.495 584.643 290.919C584.01 289.344 583.067 287.911 581.869 286.707C580.672 285.503 579.245 284.552 577.673 283.91C576.101 283.268 574.416 282.948 572.718 282.97Z" fill="#407BFF" style="fill:#407BFF;fill:color(display-p3 0.2510 0.4824 1.0000);fill-opacity:1;"/>
<path d="M410.576 473.625L415.417 505.26L425.405 504.403L424.01 472.477L410.576 473.625Z" fill="#EBB376" style="fill:#EBB376;fill:color(display-p3 0.9216 0.7020 0.4627);fill-opacity:1;"/>
<path d="M425.766 492.031C425.766 492.031 426.246 500.202 428.209 504.272C430.172 508.343 432.89 513.751 426.246 514.348C422.321 514.696 415.459 516.325 407.943 517.052C402.752 517.546 395.643 517.052 395.396 514.304C395.105 511.12 413.511 504.447 413.438 501.379C413.365 498.312 412.537 493.02 412.537 493.02L425.766 492.031Z" fill="#263238" style="fill:#263238;fill:color(display-p3 0.1490 0.1961 0.2196);fill-opacity:1;"/>
<path opacity="0.1" d="M425.766 492.031C425.766 492.031 426.246 500.202 428.209 504.272C430.172 508.343 432.89 513.751 426.246 514.348C422.321 514.696 415.459 516.325 407.943 517.052C402.752 517.546 395.643 517.052 395.396 514.304C395.105 511.12 413.511 504.447 413.438 501.379C413.365 498.312 412.537 493.02 412.537 493.02L425.766 492.031Z" fill="white" style="fill:white;fill:white;fill-opacity:1;"/>
<path d="M475.665 323.138L472.961 345.643C472.961 345.643 396.155 352.389 391.779 371.594C387.636 389.854 410.301 482.565 410.301 482.565L425.639 481.038C425.639 481.038 427.776 409.35 421.06 383.777C421.06 383.777 479.445 383.341 498.912 383.777C507.635 383.981 530.01 383.69 524.471 358.248C518.161 329.171 511.488 323.138 511.488 323.138L511.255 310.402H476.363L475.665 323.138Z" fill="#407BFF" style="fill:#407BFF;fill:color(display-p3 0.2510 0.4824 1.0000);fill-opacity:1;"/>
<path opacity="0.2" d="M475.665 323.138L472.961 345.643C472.961 345.643 396.155 352.389 391.779 371.594C387.636 389.854 410.301 482.565 410.301 482.565L425.639 481.038C425.639 481.038 427.776 409.35 421.06 383.777C421.06 383.777 479.445 383.341 498.912 383.777C507.635 383.981 530.01 383.69 524.471 358.248C518.161 329.171 511.488 323.138 511.488 323.138L511.255 310.402H476.363L475.665 323.138Z" fill="white" style="fill:white;fill:white;fill-opacity:1;"/>
<path d="M408.812 482.959L410.091 486.725C410.212 487.063 410.441 487.353 410.744 487.547C411.046 487.742 411.405 487.831 411.763 487.801L425.153 486.565C425.528 486.532 425.879 486.368 426.144 486.102C426.41 485.837 426.574 485.486 426.607 485.111L426.854 481.215C426.865 480.984 426.827 480.753 426.742 480.539C426.656 480.324 426.526 480.13 426.359 479.97C426.192 479.81 425.993 479.688 425.775 479.612C425.557 479.536 425.325 479.507 425.095 479.528L410.178 480.895C409.943 480.919 409.715 480.995 409.513 481.117C409.31 481.24 409.137 481.406 409.006 481.603C408.875 481.801 408.79 482.025 408.756 482.259C408.723 482.494 408.742 482.733 408.812 482.959Z" fill="#407BFF" style="fill:#407BFF;fill:color(display-p3 0.2510 0.4824 1.0000);fill-opacity:1;"/>
<path opacity="0.6" d="M408.812 482.959L410.091 486.725C410.212 487.063 410.441 487.353 410.744 487.547C411.046 487.742 411.405 487.831 411.763 487.801L425.153 486.565C425.528 486.532 425.879 486.368 426.144 486.102C426.41 485.837 426.574 485.486 426.607 485.111L426.854 481.215C426.865 480.984 426.827 480.753 426.742 480.539C426.656 480.324 426.526 480.13 426.359 479.97C426.192 479.81 425.993 479.688 425.775 479.612C425.557 479.536 425.325 479.507 425.095 479.528L410.178 480.895C409.943 480.919 409.715 480.995 409.513 481.117C409.31 481.24 409.137 481.406 409.006 481.603C408.875 481.801 408.79 482.025 408.756 482.259C408.723 482.494 408.742 482.733 408.812 482.959Z" fill="white" style="fill:white;fill:white;fill-opacity:1;"/>
<path d="M440.012 472.986L442.149 504.927H452.166L453.503 472.986H440.012Z" fill="#EBB376" style="fill:#EBB376;fill:color(display-p3 0.9216 0.7020 0.4627);fill-opacity:1;"/>
<path d="M453.311 495.245C453.311 495.245 453.049 503.43 454.649 507.66C456.248 511.891 458.472 517.517 451.741 517.517C447.816 517.517 440.852 517.605 433.423 517.052C428.218 516.674 421.021 517.517 421.021 514.712C421.021 511.513 440.488 506.323 440.677 503.27C440.866 500.217 440.677 495.07 440.677 495.07L453.311 495.245Z" fill="#263238" style="fill:#263238;fill:color(display-p3 0.1490 0.1961 0.2196);fill-opacity:1;"/>
<path d="M487.691 323.139L485.234 345.644C485.234 345.644 437.461 352.143 429.799 363.584C422.138 375.026 440.136 487.611 440.136 487.611H453.497C463.034 425.096 458.076 383.691 458.076 383.691H517.989C556.152 383.691 522.19 323.139 522.19 323.139L522.336 309.764L487.022 311.799L487.691 323.139Z" fill="#407BFF" style="fill:#407BFF;fill:color(display-p3 0.2510 0.4824 1.0000);fill-opacity:1;"/>
<path opacity="0.3" d="M487.691 323.139L485.234 345.644C485.234 345.644 437.461 352.143 429.799 363.584C422.138 375.026 440.136 487.611 440.136 487.611H453.497C463.034 425.096 458.076 383.691 458.076 383.691H517.989C556.152 383.691 522.19 323.139 522.19 323.139L522.336 309.764L487.022 311.799L487.691 323.139Z" fill="white" style="fill:white;fill:white;fill-opacity:1;"/>
<path d="M437.687 485.429L438.69 489.543C438.767 489.869 438.953 490.158 439.218 490.361C439.483 490.565 439.81 490.672 440.144 490.663H453.446C453.784 490.67 454.115 490.56 454.38 490.35C454.645 490.141 454.829 489.845 454.9 489.514L455.787 485.385C455.836 485.17 455.835 484.946 455.784 484.731C455.733 484.515 455.634 484.315 455.493 484.144C455.353 483.973 455.176 483.836 454.975 483.744C454.774 483.651 454.554 483.606 454.333 483.612H439.126C438.902 483.607 438.679 483.654 438.476 483.75C438.273 483.845 438.094 483.987 437.955 484.163C437.815 484.339 437.719 484.545 437.672 484.764C437.626 484.984 437.631 485.212 437.687 485.429Z" fill="#407BFF" style="fill:#407BFF;fill:color(display-p3 0.2510 0.4824 1.0000);fill-opacity:1;"/>
<path opacity="0.6" d="M437.687 485.429L438.69 489.543C438.767 489.869 438.953 490.158 439.218 490.361C439.483 490.565 439.81 490.672 440.144 490.663H453.446C453.784 490.67 454.115 490.56 454.38 490.35C454.645 490.141 454.829 489.845 454.9 489.514L455.787 485.385C455.836 485.17 455.835 484.946 455.784 484.731C455.733 484.515 455.634 484.315 455.493 484.144C455.353 483.973 455.176 483.836 454.975 483.744C454.774 483.651 454.554 483.606 454.333 483.612H439.126C438.902 483.607 438.679 483.654 438.476 483.75C438.273 483.845 438.094 483.987 437.955 484.163C437.815 484.339 437.719 484.545 437.672 484.764C437.626 484.984 437.631 485.212 437.687 485.429Z" fill="white" style="fill:white;fill:white;fill-opacity:1;"/>
<path d="M419.087 310.305L408.27 312.413L398.094 309.433C396.684 309.242 395.248 309.415 393.925 309.937C392.601 310.459 391.434 311.311 390.534 312.413C389.06 314.174 388.257 316.398 388.266 318.694V319.086H409.186L420.541 317.56L419.087 310.305Z" fill="#EBB376" style="fill:#EBB376;fill:color(display-p3 0.9216 0.7020 0.4627);fill-opacity:1;"/>
<path d="M477.538 247.747C477.521 247.249 477.357 246.766 477.067 246.361C476.777 245.956 476.374 245.645 475.908 245.468C475.442 245.291 474.934 245.255 474.448 245.366C473.962 245.476 473.52 245.728 473.176 246.089C469.687 249.52 464.671 253.547 462.331 275.166C459.321 303.007 412.9 309.913 412.9 309.913L415.11 320.089C415.11 320.089 449.304 321.252 463.465 306.481C481.783 287.509 479.108 259.028 477.538 247.747Z" fill="#407BFF" style="fill:#407BFF;fill:color(display-p3 0.2510 0.4824 1.0000);fill-opacity:1;"/>
<path opacity="0.2" d="M477.538 247.747C477.521 247.249 477.357 246.766 477.067 246.361C476.777 245.956 476.374 245.645 475.908 245.468C475.442 245.291 474.934 245.255 474.448 245.366C473.962 245.476 473.52 245.728 473.176 246.089C469.687 249.52 464.671 253.547 462.331 275.166C459.321 303.007 412.9 309.913 412.9 309.913L415.11 320.089C415.11 320.089 449.304 321.252 463.465 306.481C481.783 287.509 479.108 259.028 477.538 247.747Z" fill="white" style="fill:white;fill:white;fill-opacity:1;"/>
<path d="M519.147 202.807C514.945 174.646 491.233 184.794 491.233 184.794C475.91 190.318 481.057 209.349 481.057 219.686C481.057 230.023 479.748 233.599 479.748 233.599C481.522 233.206 483.165 232.872 484.749 232.552L485.302 229.31L486.261 232.218C499.142 229.761 506.091 229.79 509.842 230.575C510.897 228.655 511.657 226.586 512.096 224.44C512.096 224.44 513.928 225.632 512.096 231.273C514.32 232.276 514.218 233.57 514.218 233.57C514.218 233.57 523.378 230.968 519.147 202.807Z" fill="#263238" style="fill:#263238;fill:color(display-p3 0.1490 0.1961 0.2196);fill-opacity:1;"/>
<path d="M533.708 244.475L478.302 243.821C477.008 243.801 475.749 244.242 474.75 245.065C473.751 245.888 473.078 247.039 472.85 248.313C466.308 284.485 470.771 283.205 470.771 283.205L473.563 327.474H479.756C481.568 327.476 483.325 326.85 484.727 325.702C486.129 324.554 487.091 322.956 487.447 321.179L488.072 318.068L489.715 322.43C490.273 323.91 491.265 325.188 492.563 326.093C493.86 326.999 495.402 327.49 496.984 327.503H525.261C521.975 293.513 532.748 260.714 536.499 248.459C536.646 248.01 536.687 247.533 536.617 247.066C536.548 246.6 536.371 246.155 536.1 245.768C535.829 245.382 535.472 245.064 535.057 244.839C534.641 244.615 534.18 244.49 533.708 244.475Z" fill="#407BFF" style="fill:#407BFF;fill:color(display-p3 0.2510 0.4824 1.0000);fill-opacity:1;"/>
<path opacity="0.4" d="M533.708 244.475L478.302 243.821C477.008 243.801 475.749 244.242 474.75 245.065C473.751 245.888 473.078 247.039 472.85 248.313C466.308 284.485 470.771 283.205 470.771 283.205L473.563 327.474H479.756C481.568 327.476 483.325 326.85 484.727 325.702C486.129 324.554 487.091 322.956 487.447 321.179L488.072 318.068L489.715 322.43C490.273 323.91 491.265 325.188 492.563 326.093C493.86 326.999 495.402 327.49 496.984 327.503H525.261C521.975 293.513 532.748 260.714 536.499 248.459C536.646 248.01 536.687 247.533 536.617 247.066C536.548 246.6 536.371 246.155 536.1 245.768C535.829 245.382 535.472 245.064 535.057 244.839C534.641 244.615 534.18 244.49 533.708 244.475Z" fill="white" style="fill:white;fill:white;fill-opacity:1;"/>
<path d="M411.428 309.752L413.478 320.481C413.55 320.848 413.751 321.177 414.044 321.408C414.338 321.64 414.704 321.76 415.077 321.746L417.142 321.659C417.358 321.649 417.569 321.594 417.763 321.497C417.956 321.4 418.127 321.263 418.264 321.096C418.401 320.929 418.502 320.735 418.559 320.526C418.616 320.317 418.628 320.099 418.596 319.885L416.895 308.458C416.863 308.233 416.783 308.017 416.659 307.827C416.536 307.636 416.372 307.475 416.179 307.354C415.987 307.234 415.77 307.157 415.544 307.129C415.319 307.101 415.09 307.123 414.874 307.193L412.446 307.978C412.092 308.104 411.795 308.351 411.609 308.677C411.422 309.002 411.358 309.383 411.428 309.752Z" fill="#407BFF" style="fill:#407BFF;fill:color(display-p3 0.2510 0.4824 1.0000);fill-opacity:1;"/>
<path opacity="0.6" d="M411.428 309.752L413.478 320.481C413.55 320.848 413.751 321.177 414.044 321.408C414.338 321.64 414.704 321.76 415.077 321.746L417.142 321.659C417.358 321.649 417.569 321.594 417.763 321.497C417.956 321.4 418.127 321.263 418.264 321.096C418.401 320.929 418.502 320.735 418.559 320.526C418.616 320.317 418.628 320.099 418.596 319.885L416.895 308.458C416.863 308.233 416.783 308.017 416.659 307.827C416.536 307.636 416.372 307.475 416.179 307.354C415.987 307.234 415.77 307.157 415.544 307.129C415.319 307.101 415.09 307.123 414.874 307.193L412.446 307.978C412.092 308.104 411.795 308.351 411.609 308.677C411.422 309.002 411.358 309.383 411.428 309.752Z" fill="white" style="fill:white;fill:white;fill-opacity:1;"/>
<path d="M507.366 217.58C506.552 224.995 506.291 238.457 511.815 242.877C511.815 242.877 509.707 250.364 495.503 251.76C485.414 247.311 489.165 244.839 489.165 244.839C497.117 242.15 497.888 236.189 496.085 230.65L507.366 217.58Z" fill="#EBB376" style="fill:#EBB376;fill:color(display-p3 0.9216 0.7020 0.4627);fill-opacity:1;"/>
<path opacity="0.1" d="M506.123 225.818L503.215 225.062L499.61 226.516L496.062 230.616C496.539 232.024 496.808 233.493 496.862 234.978C504.684 233.785 506.123 225.818 506.123 225.818Z" fill="black" style="fill:black;fill:black;fill-opacity:1;"/>
<path d="M512.575 201.193C512.924 213.42 513.346 218.639 507.778 225.385C499.389 235.562 484.298 233.381 480.286 221.503C476.68 210.818 476.695 192.63 488.151 186.699C490.676 185.382 493.497 184.733 496.344 184.813C499.191 184.894 501.97 185.7 504.417 187.157C506.864 188.614 508.899 190.672 510.327 193.136C511.754 195.601 512.528 198.389 512.575 201.237V201.193Z" fill="#EBB376" style="fill:#EBB376;fill:color(display-p3 0.9216 0.7020 0.4627);fill-opacity:1;"/>
<path d="M516.332 210.54C515.864 212.86 514.494 214.9 512.523 216.21C509.892 217.926 507.638 215.803 507.58 212.823C507.58 210.162 508.845 206.048 511.854 205.553C512.513 205.46 513.184 205.531 513.809 205.76C514.433 205.988 514.992 206.368 515.435 206.864C515.878 207.36 516.191 207.958 516.348 208.604C516.504 209.25 516.499 209.925 516.332 210.569V210.54Z" fill="#EBB376" style="fill:#EBB376;fill:color(display-p3 0.9216 0.7020 0.4627);fill-opacity:1;"/>
<path d="M486.406 208.713C485.738 211.047 484.76 213.282 483.498 215.357C484.032 215.674 484.629 215.87 485.247 215.93C485.865 215.99 486.489 215.914 487.074 215.706L486.406 208.713Z" fill="#D58745" style="fill:#D58745;fill:color(display-p3 0.8353 0.5294 0.2706);fill-opacity:1;"/>
<path d="M494.617 201.717C494.703 201.691 494.779 201.641 494.835 201.572C494.923 201.48 494.973 201.357 494.973 201.23C494.973 201.103 494.923 200.98 494.835 200.888C494.181 200.261 493.384 199.801 492.513 199.548C491.642 199.295 490.723 199.256 489.834 199.434C489.71 199.469 489.604 199.55 489.538 199.661C489.473 199.773 489.454 199.905 489.485 200.031C489.516 200.154 489.595 200.26 489.704 200.325C489.813 200.391 489.943 200.41 490.067 200.379C490.806 200.249 491.566 200.296 492.283 200.516C493.001 200.736 493.656 201.123 494.196 201.644C494.257 201.686 494.326 201.715 494.399 201.727C494.471 201.74 494.546 201.736 494.617 201.717Z" fill="#2E353A" style="fill:#2E353A;fill:color(display-p3 0.1804 0.2078 0.2275);fill-opacity:1;"/>
<path d="M477.551 202.806C477.466 202.79 477.387 202.756 477.318 202.705C477.268 202.665 477.226 202.616 477.195 202.56C477.164 202.504 477.144 202.442 477.137 202.378C477.131 202.315 477.137 202.25 477.155 202.189C477.174 202.128 477.204 202.071 477.245 202.021C477.805 201.304 478.529 200.731 479.356 200.352C480.184 199.972 481.09 199.797 481.999 199.841C482.125 199.859 482.239 199.925 482.318 200.025C482.397 200.125 482.433 200.252 482.421 200.378C482.406 200.503 482.343 200.617 482.245 200.696C482.147 200.775 482.023 200.812 481.897 200.8C481.146 200.777 480.4 200.932 479.72 201.253C479.04 201.574 478.446 202.051 477.987 202.646C477.934 202.709 477.867 202.757 477.79 202.785C477.713 202.813 477.631 202.82 477.551 202.806Z" fill="#2E353A" style="fill:#2E353A;fill:color(display-p3 0.1804 0.2078 0.2275);fill-opacity:1;"/>
<path d="M493.223 206.443C493.324 207.432 492.859 208.275 492.205 208.348C491.551 208.42 490.969 207.664 490.882 206.661C490.795 205.658 491.245 204.829 491.885 204.757C492.525 204.684 493.135 205.44 493.223 206.443Z" fill="#2E353A" style="fill:#2E353A;fill:color(display-p3 0.1804 0.2078 0.2275);fill-opacity:1;"/>
<path d="M482.044 207.461C482.146 208.435 481.681 209.293 481.041 209.351C480.401 209.409 479.805 208.653 479.703 207.665C479.602 206.676 480.067 205.833 480.707 205.775C481.346 205.717 481.971 206.444 482.044 207.461Z" fill="#2E353A" style="fill:#2E353A;fill:color(display-p3 0.1804 0.2078 0.2275);fill-opacity:1;"/>
<path d="M480.983 205.789L478.555 205.324C478.555 205.324 479.936 207.069 480.983 205.789Z" fill="#2E353A" style="fill:#2E353A;fill:color(display-p3 0.1804 0.2078 0.2275);fill-opacity:1;"/>
<path d="M492.188 204.77L489.76 204.305C489.76 204.305 491.141 206.049 492.188 204.77Z" fill="#2E353A" style="fill:#2E353A;fill:color(display-p3 0.1804 0.2078 0.2275);fill-opacity:1;"/>
<path d="M486.463 219.628C487.953 219.814 489.466 219.658 490.887 219.172C492.307 218.685 493.599 217.882 494.663 216.822C494.663 216.822 498.297 223.437 488.498 224.513C488.342 222.713 487.631 221.006 486.463 219.628Z" fill="#263238" style="fill:#263238;fill:color(display-p3 0.1490 0.1961 0.2196);fill-opacity:1;"/>
<path d="M487.328 219.698L488.041 221.152C488.041 221.152 492.664 221.152 495.121 217.968C495.004 217.552 494.848 217.148 494.655 216.762C493.703 217.73 492.56 218.491 491.299 218.997C490.038 219.502 488.686 219.741 487.328 219.698Z" fill="white" style="fill:white;fill:white;fill-opacity:1;"/>
<path d="M489.164 224.41C493.962 223.712 495.212 221.502 495.314 219.729C490.574 220.979 489.426 223.349 489.164 224.41Z" fill="#DE5753" style="fill:#DE5753;fill:color(display-p3 0.8706 0.3412 0.3255);fill-opacity:1;"/>
<path d="M491.235 191.465C490.351 193.105 489.093 194.513 487.562 195.574C486.031 196.635 484.27 197.32 482.424 197.571C475.824 198.72 478.179 215.947 478.179 215.947C478.179 215.947 463.917 181.172 494.971 183.643L491.235 191.465Z" fill="#263238" style="fill:#263238;fill:color(display-p3 0.1490 0.1961 0.2196);fill-opacity:1;"/>
<path d="M495.748 184.314C495.231 184.196 494.696 184.188 494.175 184.288C493.655 184.389 493.162 184.598 492.727 184.9C492.292 185.202 491.924 185.592 491.648 186.045C491.373 186.497 491.194 187.002 491.124 187.527C490.761 190.435 491.372 194.069 496.067 195.581C504.369 198.242 503.598 207.023 503.598 207.023L505.052 200.51C505.052 200.51 505.517 209.814 510.199 208.709C514.88 207.605 515.345 198.823 515.345 198.823L507.611 186.989L495.748 184.314Z" fill="#263238" style="fill:#263238;fill:color(display-p3 0.1490 0.1961 0.2196);fill-opacity:1;"/>
<path d="M490.486 242.454C490.593 242.411 490.709 242.397 490.823 242.416C490.937 242.435 491.043 242.484 491.13 242.559C491.217 242.635 491.282 242.732 491.317 242.842C491.353 242.952 491.357 243.069 491.329 243.181C490.777 245.58 490.297 250.784 496.621 250.784C502.946 250.784 508.63 245.623 511.058 243.137C511.427 242.759 511.9 242.497 512.417 242.386C512.935 242.275 513.473 242.319 513.966 242.512L515.623 243.166C515.798 243.236 515.955 243.343 516.084 243.48C516.214 243.617 516.311 243.78 516.371 243.959C516.43 244.138 516.45 244.327 516.429 244.514C516.408 244.701 516.346 244.881 516.248 245.042C513.442 249.694 503.382 264.523 495.255 252.5C495.255 252.5 490.53 259.769 487.622 253.271C486.553 250.816 486.323 248.077 486.968 245.478C487.105 244.903 487.381 244.371 487.771 243.928C488.162 243.484 488.654 243.143 489.207 242.934L490.486 242.454Z" fill="#407BFF" style="fill:#407BFF;fill:color(display-p3 0.2510 0.4824 1.0000);fill-opacity:1;"/>
<path opacity="0.6" d="M490.486 242.454C490.593 242.411 490.709 242.397 490.823 242.416C490.937 242.435 491.043 242.484 491.13 242.559C491.217 242.635 491.282 242.732 491.317 242.842C491.353 242.952 491.357 243.069 491.329 243.181C490.777 245.58 490.297 250.784 496.621 250.784C502.946 250.784 508.63 245.623 511.058 243.137C511.427 242.759 511.9 242.497 512.417 242.386C512.935 242.275 513.473 242.319 513.966 242.512L515.623 243.166C515.798 243.236 515.955 243.343 516.084 243.48C516.214 243.617 516.311 243.78 516.371 243.959C516.43 244.138 516.45 244.327 516.429 244.514C516.408 244.701 516.346 244.881 516.248 245.042C513.442 249.694 503.382 264.523 495.255 252.5C495.255 252.5 490.53 259.769 487.622 253.271C486.553 250.816 486.323 248.077 486.968 245.478C487.105 244.903 487.381 244.371 487.771 243.928C488.162 243.484 488.654 243.143 489.207 242.934L490.486 242.454Z" fill="white" style="fill:white;fill:white;fill-opacity:1;"/>
<path d="M462.036 251.25C462.232 251.099 462.457 250.99 462.697 250.929C462.937 250.869 463.187 250.859 463.431 250.899C463.675 250.939 463.908 251.029 464.115 251.164C464.323 251.298 464.501 251.473 464.638 251.679C464.775 251.885 464.868 252.117 464.912 252.361C464.955 252.604 464.948 252.854 464.891 253.095C464.834 253.335 464.727 253.562 464.579 253.759C464.431 253.957 464.243 254.123 464.028 254.245L437.728 271.691C437.532 271.821 437.311 271.91 437.08 271.955C436.849 272 436.611 271.998 436.38 271.951C435.914 271.856 435.504 271.579 435.242 271.182C434.98 270.785 434.886 270.3 434.982 269.834C435.077 269.367 435.354 268.958 435.751 268.696L462.036 251.25Z" fill="#263238" style="fill:#263238;fill:color(display-p3 0.1490 0.1961 0.2196);fill-opacity:1;"/>
<path opacity="0.6" d="M462.036 251.25C462.232 251.099 462.457 250.99 462.697 250.929C462.937 250.869 463.187 250.859 463.431 250.899C463.675 250.939 463.908 251.029 464.115 251.164C464.323 251.298 464.501 251.473 464.638 251.679C464.775 251.885 464.868 252.117 464.912 252.361C464.955 252.604 464.948 252.854 464.891 253.095C464.834 253.335 464.727 253.562 464.579 253.759C464.431 253.957 464.243 254.123 464.028 254.245L437.728 271.691C437.532 271.821 437.311 271.91 437.08 271.955C436.849 272 436.611 271.998 436.38 271.951C435.914 271.856 435.504 271.579 435.242 271.182C434.98 270.785 434.886 270.3 434.982 269.834C435.077 269.367 435.354 268.958 435.751 268.696L462.036 251.25Z" fill="white" style="fill:white;fill:white;fill-opacity:1;"/>
<path d="M435.754 268.649C434.921 269.514 434.216 270.493 433.661 271.557C433.608 271.649 433.582 271.753 433.586 271.859C433.59 271.964 433.623 272.067 433.682 272.155C433.741 272.242 433.824 272.312 433.92 272.355C434.016 272.398 434.123 272.414 434.228 272.4C435.426 272.311 436.606 272.052 437.731 271.63C437.928 271.5 438.097 271.333 438.229 271.137C438.361 270.942 438.453 270.723 438.501 270.492C438.548 270.261 438.549 270.023 438.504 269.792C438.46 269.561 438.37 269.34 438.24 269.144C438.11 268.947 437.943 268.778 437.748 268.646C437.553 268.514 437.333 268.422 437.103 268.374C436.872 268.327 436.634 268.326 436.402 268.37C436.171 268.415 435.951 268.505 435.754 268.635V268.649Z" fill="#263238" style="fill:#263238;fill:color(display-p3 0.1490 0.1961 0.2196);fill-opacity:1;"/>
<path opacity="0.8" d="M435.754 268.649C434.921 269.514 434.216 270.493 433.661 271.557C433.608 271.649 433.582 271.753 433.586 271.859C433.59 271.964 433.623 272.067 433.682 272.155C433.741 272.242 433.824 272.312 433.92 272.355C434.016 272.398 434.123 272.414 434.228 272.4C435.426 272.311 436.606 272.052 437.731 271.63C437.928 271.5 438.097 271.333 438.229 271.137C438.361 270.942 438.453 270.723 438.501 270.492C438.548 270.261 438.549 270.023 438.504 269.792C438.46 269.561 438.37 269.34 438.24 269.144C438.11 268.947 437.943 268.778 437.748 268.646C437.553 268.514 437.333 268.422 437.103 268.374C436.872 268.327 436.634 268.326 436.402 268.37C436.171 268.415 435.951 268.505 435.754 268.635V268.649Z" fill="white" style="fill:white;fill:white;fill-opacity:1;"/>
<path d="M472.072 280.266L460.601 272.226L457.955 261.221C457.71 260.158 457.172 259.185 456.4 258.414C455.629 257.643 454.657 257.104 453.594 256.859C452.216 256.546 450.772 256.746 449.53 257.42C448.289 258.094 447.336 259.197 446.848 260.523L445.961 262.907C445.723 263.554 445.6 264.238 445.598 264.928V266.949C445.598 268.402 446.143 269.802 447.124 270.874L448.694 272.59C449.115 273.047 449.606 273.434 450.148 273.738L456.952 277.533L467.696 288.262L472.072 280.266Z" fill="#EBB376" style="fill:#EBB376;fill:color(display-p3 0.9216 0.7020 0.4627);fill-opacity:1;"/>
<path d="M530.725 247.672C530.983 246.945 531.426 246.298 532.011 245.794C532.596 245.291 533.302 244.949 534.06 244.802C534.818 244.655 535.601 244.708 536.331 244.957C537.062 245.205 537.715 245.64 538.226 246.219C540.654 249.214 542.05 254.942 537.907 266.238C529.634 288.7 516.462 306.335 499.962 306.335C480.393 306.335 460.592 283.684 460.592 283.684L467.454 275.601C467.454 275.601 487.328 289.078 500.587 289.078C508.161 289.136 520.461 274.423 530.725 247.672Z" fill="#407BFF" style="fill:#407BFF;fill:color(display-p3 0.2510 0.4824 1.0000);fill-opacity:1;"/>
<path opacity="0.2" d="M530.725 247.672C530.983 246.945 531.426 246.298 532.011 245.794C532.596 245.291 533.302 244.949 534.06 244.802C534.818 244.655 535.601 244.708 536.331 244.957C537.062 245.205 537.715 245.64 538.226 246.219C540.654 249.214 542.05 254.942 537.907 266.238C529.634 288.7 516.462 306.335 499.962 306.335C480.393 306.335 460.592 283.684 460.592 283.684L467.454 275.601C467.454 275.601 487.328 289.078 500.587 289.078C508.161 289.136 520.461 274.423 530.725 247.672Z" fill="white" style="fill:white;fill:white;fill-opacity:1;"/>
<path d="M458.878 282.858L466.612 273.524C466.743 273.367 466.929 273.266 467.132 273.242C467.334 273.218 467.539 273.272 467.703 273.393L471.017 275.807C471.107 275.871 471.182 275.953 471.238 276.048C471.294 276.142 471.33 276.247 471.344 276.357C471.357 276.466 471.348 276.577 471.317 276.682C471.286 276.788 471.234 276.886 471.163 276.97L462.44 287.452C462.36 287.55 462.258 287.628 462.142 287.679C462.027 287.73 461.901 287.753 461.774 287.746C461.648 287.739 461.525 287.702 461.416 287.638C461.307 287.575 461.214 287.486 461.146 287.379L458.791 283.817C458.701 283.669 458.661 283.496 458.677 283.323C458.693 283.151 458.763 282.988 458.878 282.858Z" fill="#407BFF" style="fill:#407BFF;fill:color(display-p3 0.2510 0.4824 1.0000);fill-opacity:1;"/>
<path opacity="0.6" d="M458.878 282.858L466.612 273.524C466.743 273.367 466.929 273.266 467.132 273.242C467.334 273.218 467.539 273.272 467.703 273.393L471.017 275.807C471.107 275.871 471.182 275.953 471.238 276.048C471.294 276.142 471.33 276.247 471.344 276.357C471.357 276.466 471.348 276.577 471.317 276.682C471.286 276.788 471.234 276.886 471.163 276.97L462.44 287.452C462.36 287.55 462.258 287.628 462.142 287.679C462.027 287.73 461.901 287.753 461.774 287.746C461.648 287.739 461.525 287.702 461.416 287.638C461.307 287.575 461.214 287.486 461.146 287.379L458.791 283.817C458.701 283.669 458.661 283.496 458.677 283.323C458.693 283.151 458.763 282.988 458.878 282.858Z" fill="white" style="fill:white;fill:white;fill-opacity:1;"/>
<path d="M494.58 183.529H491.861V183.631C496.864 184.156 501.495 186.514 504.861 190.251C508.227 193.988 510.091 198.839 510.092 203.868H514.919C514.915 198.475 512.771 193.304 508.958 189.491C505.144 185.677 499.973 183.533 494.58 183.529Z" fill="#263238" style="fill:#263238;fill:color(display-p3 0.1490 0.1961 0.2196);fill-opacity:1;"/>
<path opacity="0.6" d="M494.58 183.529H491.861V183.631C496.864 184.156 501.495 186.514 504.861 190.251C508.227 193.988 510.091 198.839 510.092 203.868H514.919C514.915 198.475 512.771 193.304 508.958 189.491C505.144 185.677 499.973 183.533 494.58 183.529Z" fill="white" style="fill:white;fill:white;fill-opacity:1;"/>
<path d="M512.573 219.743C516.218 219.743 519.173 215.792 519.173 210.919C519.173 206.045 516.218 202.094 512.573 202.094C508.928 202.094 505.973 206.045 505.973 210.919C505.973 215.792 508.928 219.743 512.573 219.743Z" fill="#407BFF" style="fill:#407BFF;fill:color(display-p3 0.2510 0.4824 1.0000);fill-opacity:1;"/>
<path d="M519.95 210.917C519.95 214.857 518.757 216.732 515.588 216.732C512.419 216.732 511.227 214.886 511.227 210.917C511.227 206.948 512.433 205.102 515.588 205.102C518.743 205.102 519.95 206.962 519.95 210.917Z" fill="#263238" style="fill:#263238;fill:color(display-p3 0.1490 0.1961 0.2196);fill-opacity:1;"/>
<path opacity="0.5" d="M519.95 210.917C519.95 214.857 518.757 216.732 515.588 216.732C512.419 216.732 511.227 214.886 511.227 210.917C511.227 206.948 512.433 205.102 515.588 205.102C518.743 205.102 519.95 206.962 519.95 210.917Z" fill="white" style="fill:white;fill:white;fill-opacity:1;"/>
<path d="M516.531 216.165C518.699 216.165 520.456 213.815 520.456 210.916C520.456 208.018 518.699 205.668 516.531 205.668C514.363 205.668 512.605 208.018 512.605 210.916C512.605 213.815 514.363 216.165 516.531 216.165Z" fill="#263238" style="fill:#263238;fill:color(display-p3 0.1490 0.1961 0.2196);fill-opacity:1;"/>
<path opacity="0.7" d="M516.531 216.165C518.699 216.165 520.456 213.815 520.456 210.916C520.456 208.018 518.699 205.668 516.531 205.668C514.363 205.668 512.605 208.018 512.605 210.916C512.605 213.815 514.363 216.165 516.531 216.165Z" fill="white" style="fill:white;fill:white;fill-opacity:1;"/>
<path d="M247.261 517.52H240.297L237.244 335.355H250.314L247.261 517.52Z" fill="#263238" style="fill:#263238;fill:color(display-p3 0.1490 0.1961 0.2196);fill-opacity:1;"/>
<path opacity="0.7" d="M247.261 517.52H240.297L237.244 335.355H250.314L247.261 517.52Z" fill="white" style="fill:white;fill:white;fill-opacity:1;"/>
<path d="M324.176 517.52H317.198L314.145 335.355H327.229L324.176 517.52Z" fill="#263238" style="fill:#263238;fill:color(display-p3 0.1490 0.1961 0.2196);fill-opacity:1;"/>
<path opacity="0.7" d="M324.176 517.52H317.198L314.145 335.355H327.229L324.176 517.52Z" fill="white" style="fill:white;fill:white;fill-opacity:1;"/>
<path d="M375.262 332.307H243.777V346.554H375.262V332.307Z" fill="#263238" style="fill:#263238;fill:color(display-p3 0.1490 0.1961 0.2196);fill-opacity:1;"/>
<path opacity="0.5" d="M375.262 332.307H243.777V346.554H375.262V332.307Z" fill="white" style="fill:white;fill:white;fill-opacity:1;"/>
<path d="M452.377 332.307H375.266V346.554H452.377V332.307Z" fill="#263238" style="fill:#263238;fill:color(display-p3 0.1490 0.1961 0.2196);fill-opacity:1;"/>
<path opacity="0.5" d="M452.377 332.307H375.266V346.554H452.377V332.307Z" fill="white" style="fill:white;fill:white;fill-opacity:1;"/>
<path d="M455.666 517.52H448.688L445.635 335.355H458.705L455.666 517.52Z" fill="#263238" style="fill:#263238;fill:color(display-p3 0.1490 0.1961 0.2196);fill-opacity:1;"/>
<path opacity="0.7" d="M455.666 517.52H448.688L445.635 335.355H458.705L455.666 517.52Z" fill="white" style="fill:white;fill:white;fill-opacity:1;"/>
<path d="M462.833 323.145H360.163C358.035 323.145 356.311 324.869 356.311 326.997V331.504C356.311 333.632 358.035 335.357 360.163 335.357H462.833C464.96 335.357 466.685 333.632 466.685 331.504V326.997C466.685 324.869 464.96 323.145 462.833 323.145Z" fill="#263238" style="fill:#263238;fill:color(display-p3 0.1490 0.1961 0.2196);fill-opacity:1;"/>
<path d="M369.642 323.145H230.263C228.135 323.145 226.41 324.869 226.41 326.997V331.504C226.41 333.632 228.135 335.357 230.263 335.357H369.642C371.769 335.357 373.494 333.632 373.494 331.504V326.997C373.494 324.869 371.769 323.145 369.642 323.145Z" fill="#263238" style="fill:#263238;fill:color(display-p3 0.1490 0.1961 0.2196);fill-opacity:1;"/>
<path opacity="0.2" d="M369.642 323.145H230.263C228.135 323.145 226.41 324.869 226.41 326.997V331.504C226.41 333.632 228.135 335.357 230.263 335.357H369.642C371.769 335.357 373.494 333.632 373.494 331.504V326.997C373.494 324.869 371.769 323.145 369.642 323.145Z" fill="white" style="fill:white;fill:white;fill-opacity:1;"/>
<path d="M378.751 517.52H371.787L368.734 335.355H381.804L378.751 517.52Z" fill="#263238" style="fill:#263238;fill:color(display-p3 0.1490 0.1961 0.2196);fill-opacity:1;"/>
<path opacity="0.7" d="M378.751 517.52H371.787L368.734 335.355H381.804L378.751 517.52Z" fill="white" style="fill:white;fill:white;fill-opacity:1;"/>
<path d="M375.076 323.157C374.537 323.157 374.019 322.942 373.637 322.561C373.255 322.179 373.041 321.661 373.041 321.121C373.041 320.581 373.255 320.064 373.637 319.682C374.019 319.3 374.537 319.086 375.076 319.086H430.54C431.08 319.086 431.598 319.3 431.979 319.682C432.361 320.064 432.575 320.581 432.575 321.121C432.575 321.661 432.361 322.179 431.979 322.561C431.598 322.942 431.08 323.157 430.54 323.157H375.076Z" fill="#407BFF" style="fill:#407BFF;fill:color(display-p3 0.2510 0.4824 1.0000);fill-opacity:1;"/>
<path d="M379.851 319.642L372.466 267.101C372.311 266.144 371.826 265.272 371.096 264.635C370.366 263.998 369.436 263.636 368.468 263.611H361.402V323.146H376.842C377.288 323.171 377.734 323.093 378.145 322.918C378.556 322.743 378.921 322.476 379.212 322.137C379.503 321.798 379.712 321.397 379.823 320.964C379.934 320.531 379.944 320.079 379.851 319.642Z" fill="#407BFF" style="fill:#407BFF;fill:color(display-p3 0.2510 0.4824 1.0000);fill-opacity:1;"/>
<path d="M373.789 323.144H311.114C310.145 323.118 309.216 322.754 308.488 322.114C307.76 321.473 307.28 320.598 307.131 319.641L299.745 267.099C299.655 266.663 299.667 266.212 299.779 265.781C299.891 265.351 300.101 264.951 300.391 264.614C300.682 264.277 301.046 264.011 301.456 263.837C301.866 263.663 302.31 263.585 302.755 263.61H365.458C366.426 263.637 367.354 264.001 368.084 264.637C368.813 265.274 369.298 266.144 369.456 267.099L376.842 319.641C376.935 320.081 376.925 320.538 376.812 320.974C376.699 321.411 376.486 321.815 376.19 322.154C375.894 322.494 375.523 322.76 375.106 322.932C374.689 323.104 374.238 323.177 373.789 323.144Z" fill="#407BFF" style="fill:#407BFF;fill:color(display-p3 0.2510 0.4824 1.0000);fill-opacity:1;"/>
<path opacity="0.7" d="M373.789 323.144H311.114C310.145 323.118 309.216 322.754 308.488 322.114C307.76 321.473 307.28 320.598 307.131 319.641L299.745 267.099C299.655 266.663 299.667 266.212 299.779 265.781C299.891 265.351 300.101 264.951 300.391 264.614C300.682 264.277 301.046 264.011 301.456 263.837C301.866 263.663 302.31 263.585 302.755 263.61H365.458C366.426 263.637 367.354 264.001 368.084 264.637C368.813 265.274 369.298 266.144 369.456 267.099L376.842 319.641C376.935 320.081 376.925 320.538 376.812 320.974C376.699 321.411 376.486 321.815 376.19 322.154C375.894 322.494 375.523 322.76 375.106 322.932C374.689 323.104 374.238 323.177 373.789 323.144Z" fill="white" style="fill:white;fill:white;fill-opacity:1;"/>
<path opacity="0.7" d="M341.307 291.947C341.378 292.345 341.36 292.753 341.254 293.143C341.148 293.532 340.956 293.893 340.693 294.2C340.43 294.506 340.102 294.75 339.733 294.914C339.364 295.077 338.963 295.157 338.559 295.146C337.675 295.117 336.828 294.783 336.162 294.2C335.497 293.616 335.054 292.82 334.91 291.947C334.839 291.55 334.857 291.142 334.963 290.752C335.069 290.362 335.261 290.001 335.524 289.695C335.787 289.389 336.115 289.145 336.484 288.981C336.853 288.818 337.254 288.738 337.658 288.749C338.544 288.772 339.394 289.104 340.06 289.689C340.727 290.273 341.168 291.072 341.307 291.947Z" fill="white" style="fill:white;fill:white;fill-opacity:1;"/>
<path d="M287.487 292.889H263.267C262.882 292.889 262.502 292.974 262.153 293.137C261.805 293.3 261.496 293.537 261.25 293.833C261.003 294.128 260.824 294.474 260.725 294.846C260.627 295.218 260.611 295.607 260.679 295.985V296.203C259.47 295.903 258.202 295.943 257.015 296.32C252.654 297.628 252.523 301.524 253.831 305.9C255.14 310.277 257.379 313.46 261.755 312.152C262.459 311.937 263.129 311.623 263.746 311.221C264.614 313.269 266.021 315.043 267.817 316.354V319.552H282.85V316.354C285.381 314.519 287.11 311.781 287.676 308.706L290.032 295.985C290.099 295.61 290.084 295.225 289.988 294.856C289.892 294.487 289.717 294.144 289.475 293.849C289.233 293.555 288.93 293.316 288.587 293.15C288.244 292.985 287.869 292.895 287.487 292.889ZM261.188 309.375C258.28 310.233 256.826 308.139 255.983 305.261C255.14 302.382 255.212 299.838 258.076 298.98C259.131 298.632 260.281 298.715 261.275 299.213L262.976 308.401C262.458 308.853 261.848 309.185 261.188 309.375Z" fill="#407BFF" style="fill:#407BFF;fill:color(display-p3 0.2510 0.4824 1.0000);fill-opacity:1;"/>
<path opacity="0.5" d="M287.487 292.889H263.267C262.882 292.889 262.502 292.974 262.153 293.137C261.805 293.3 261.496 293.537 261.25 293.833C261.003 294.128 260.824 294.474 260.725 294.846C260.627 295.218 260.611 295.607 260.679 295.985V296.203C259.47 295.903 258.202 295.943 257.015 296.32C252.654 297.628 252.523 301.524 253.831 305.9C255.14 310.277 257.379 313.46 261.755 312.152C262.459 311.937 263.129 311.623 263.746 311.221C264.614 313.269 266.021 315.043 267.817 316.354V319.552H282.85V316.354C285.381 314.519 287.11 311.781 287.676 308.706L290.032 295.985C290.099 295.61 290.084 295.225 289.988 294.856C289.892 294.487 289.717 294.144 289.475 293.849C289.233 293.555 288.93 293.316 288.587 293.15C288.244 292.985 287.869 292.895 287.487 292.889ZM261.188 309.375C258.28 310.233 256.826 308.139 255.983 305.261C255.14 302.382 255.212 299.838 258.076 298.98C259.131 298.632 260.281 298.715 261.275 299.213L262.976 308.401C262.458 308.853 261.848 309.185 261.188 309.375Z" fill="white" style="fill:white;fill:white;fill-opacity:1;"/>
<path d="M283.487 323.319H267.219C266.204 323.322 265.205 323.072 264.311 322.592L258.787 319.568C258.573 319.447 258.404 319.258 258.308 319.032C258.212 318.806 258.193 318.554 258.254 318.315C258.315 318.077 258.453 317.866 258.647 317.714C258.84 317.562 259.079 317.478 259.325 317.475H291.309C291.555 317.478 291.793 317.562 291.987 317.714C292.18 317.866 292.318 318.077 292.379 318.315C292.441 318.554 292.422 318.806 292.325 319.032C292.229 319.258 292.061 319.447 291.847 319.568L286.322 322.592C285.45 323.061 284.477 323.31 283.487 323.319Z" fill="#407BFF" style="fill:#407BFF;fill:color(display-p3 0.2510 0.4824 1.0000);fill-opacity:1;"/>
<path opacity="0.4" d="M283.487 323.319H267.219C266.204 323.322 265.205 323.072 264.311 322.592L258.787 319.568C258.573 319.447 258.404 319.258 258.308 319.032C258.212 318.806 258.193 318.554 258.254 318.315C258.315 318.077 258.453 317.866 258.647 317.714C258.84 317.562 259.079 317.478 259.325 317.475H291.309C291.555 317.478 291.793 317.562 291.987 317.714C292.18 317.866 292.318 318.077 292.379 318.315C292.441 318.554 292.422 318.806 292.325 319.032C292.229 319.258 292.061 319.447 291.847 319.568L286.322 322.592C285.45 323.061 284.477 323.31 283.487 323.319Z" fill="white" style="fill:white;fill:white;fill-opacity:1;"/>
<path d="M391.918 119.633H295.747C291.54 119.633 288.129 123.044 288.129 127.251V203.708C288.129 207.915 291.54 211.326 295.747 211.326H391.918C396.125 211.326 399.536 207.915 399.536 203.708V127.251C399.536 123.044 396.125 119.633 391.918 119.633Z" fill="#407BFF" style="fill:#407BFF;fill:color(display-p3 0.2510 0.4824 1.0000);fill-opacity:1;"/>
<path opacity="0.6" d="M391.918 119.633H295.747C291.54 119.633 288.129 123.044 288.129 127.251V203.708C288.129 207.915 291.54 211.326 295.747 211.326H391.918C396.125 211.326 399.536 207.915 399.536 203.708V127.251C399.536 123.044 396.125 119.633 391.918 119.633Z" fill="white" style="fill:white;fill:white;fill-opacity:1;"/>
<path d="M339.967 136.846C339.967 136.846 331.68 132.6 327.464 141.934C323.248 151.268 312.591 145.656 317.069 164.57C321.547 183.485 302.414 177.059 311.617 190.87C320.82 204.681 334.878 195.231 342.584 195.479C350.289 195.726 365.176 200.567 368.753 191.96C372.329 183.354 366.209 180.461 366.078 175.794C365.947 171.127 373.696 159.947 367.415 154.888C355.93 145.583 360.451 131.626 339.967 136.846Z" fill="#2E353A" style="fill:#2E353A;fill:color(display-p3 0.1804 0.2078 0.2275);fill-opacity:1;"/>
<path d="M342.566 184.959C352.539 184.959 360.623 174.616 360.623 161.857C360.623 149.099 352.539 138.756 342.566 138.756C332.594 138.756 324.51 149.099 324.51 161.857C324.51 174.616 332.594 184.959 342.566 184.959Z" fill="#B97964" style="fill:#B97964;fill:color(display-p3 0.7255 0.4745 0.3922);fill-opacity:1;"/>
<path d="M343.792 162.902C344.224 165.029 344.954 167.085 345.958 169.008C345.463 169.254 344.92 169.387 344.367 169.4C343.814 169.412 343.266 169.304 342.76 169.081L343.792 162.902Z" fill="#A24E3F" style="fill:#A24E3F;fill:color(display-p3 0.6353 0.3059 0.2471);fill-opacity:1;"/>
<path d="M335.838 162.975C335.838 163.818 336.172 164.53 336.725 164.574C337.277 164.617 337.757 163.949 337.815 163.12C337.873 162.291 337.466 161.579 336.928 161.55C336.39 161.521 335.838 162.146 335.838 162.975Z" fill="#2E353A" style="fill:#2E353A;fill:color(display-p3 0.1804 0.2078 0.2275);fill-opacity:1;"/>
<path d="M332.827 160.025C332.75 160.04 332.671 160.04 332.594 160.025C332.508 159.929 332.461 159.805 332.461 159.676C332.461 159.548 332.508 159.423 332.594 159.327C333.099 158.726 333.739 158.252 334.461 157.944C335.184 157.636 335.969 157.502 336.752 157.554C336.882 157.575 336.999 157.646 337.077 157.752C337.156 157.858 337.191 157.99 337.174 158.121C337.167 158.185 337.147 158.248 337.115 158.304C337.083 158.361 337.04 158.411 336.988 158.45C336.936 158.489 336.877 158.518 336.814 158.534C336.751 158.55 336.685 158.553 336.621 158.542C336 158.508 335.379 158.622 334.81 158.875C334.242 159.128 333.741 159.512 333.35 159.996C333.274 160.048 333.185 160.078 333.093 160.083C333 160.088 332.908 160.068 332.827 160.025Z" fill="#2E353A" style="fill:#2E353A;fill:color(display-p3 0.1804 0.2078 0.2275);fill-opacity:1;"/>
<path d="M350.919 162.975C350.919 163.818 350.57 164.53 350.018 164.574C349.465 164.617 348.986 163.949 348.927 163.12C348.869 162.291 349.276 161.579 349.829 161.55C350.381 161.521 350.861 162.146 350.919 162.975Z" fill="#2E353A" style="fill:#2E353A;fill:color(display-p3 0.1804 0.2078 0.2275);fill-opacity:1;"/>
<path d="M353.915 160.026C353.997 160.04 354.081 160.04 354.162 160.026C354.248 159.93 354.296 159.806 354.296 159.677C354.296 159.548 354.248 159.424 354.162 159.328C353.658 158.726 353.018 158.251 352.296 157.943C351.573 157.635 350.788 157.501 350.004 157.554C349.876 157.579 349.761 157.651 349.683 157.756C349.605 157.861 349.57 157.991 349.583 158.121C349.592 158.186 349.613 158.249 349.647 158.306C349.68 158.363 349.725 158.412 349.778 158.451C349.83 158.491 349.891 158.519 349.954 158.535C350.018 158.55 350.085 158.553 350.15 158.543C350.771 158.511 351.391 158.626 351.959 158.878C352.528 159.131 353.028 159.514 353.421 159.997C353.492 160.048 353.576 160.077 353.664 160.082C353.751 160.088 353.838 160.068 353.915 160.026Z" fill="#2E353A" style="fill:#2E353A;fill:color(display-p3 0.1804 0.2078 0.2275);fill-opacity:1;"/>
<path d="M343.809 175.796C344.296 175.793 344.782 175.749 345.262 175.665C345.331 175.651 345.391 175.612 345.431 175.555C345.472 175.498 345.489 175.429 345.481 175.36C345.475 175.325 345.463 175.292 345.445 175.262C345.426 175.232 345.402 175.207 345.374 175.186C345.345 175.166 345.313 175.151 345.279 175.144C345.245 175.136 345.21 175.135 345.175 175.142C344.074 175.35 342.939 175.301 341.859 174.999C340.78 174.696 339.785 174.148 338.953 173.397C338.902 173.349 338.834 173.322 338.764 173.322C338.694 173.322 338.626 173.349 338.575 173.397C338.549 173.421 338.529 173.451 338.515 173.483C338.501 173.516 338.494 173.551 338.494 173.586C338.494 173.621 338.501 173.656 338.515 173.689C338.529 173.721 338.549 173.751 338.575 173.775C339.99 175.104 341.868 175.829 343.809 175.796Z" fill="#2E353A" style="fill:#2E353A;fill:color(display-p3 0.1804 0.2078 0.2275);fill-opacity:1;"/>
<path d="M340.88 200.06C348.162 199.961 355.308 198.069 361.684 194.55C359.368 194.115 357.018 193.891 354.662 193.881C350.861 195.972 346.568 197.006 342.232 196.876C334.41 196.876 330.194 193.881 330.194 193.881C328.459 193.879 326.726 193.981 325.004 194.186C327.286 196.44 332.273 200.06 340.88 200.06Z" fill="#577AFB" style="fill:#577AFB;fill:color(display-p3 0.3412 0.4784 0.9843);fill-opacity:1;"/>
<path d="M352.625 196.468L355.925 194.374C354.228 194.124 352.616 193.466 351.229 192.455C346.97 189.271 349.281 181.145 349.281 181.145H337.054C336.764 186.015 336.894 190.318 334.147 192.339C332.525 193.589 330.552 194.301 328.506 194.374L332.867 196.977C332.591 197.587 335.775 198.736 335.775 198.736L347.915 199.419L350.241 197.965C350.241 197.965 353.294 197.384 352.625 196.468Z" fill="#B97964" style="fill:#B97964;fill:color(display-p3 0.7255 0.4745 0.3922);fill-opacity:1;"/>
<path d="M330.209 193.882C330.209 193.882 334.425 196.877 342.246 196.877C346.583 197.007 350.875 195.973 354.677 193.882C354.677 193.882 378.912 193.402 378.912 211.328H308.881C308.881 211.328 305.741 193.882 330.209 193.882Z" fill="#407BFF" style="fill:#407BFF;fill:color(display-p3 0.2510 0.4824 1.0000);fill-opacity:1;"/>
<path d="M323.521 157.478C323.521 157.478 324.321 165.241 326.865 164.979C329.41 164.718 327.621 152.738 332.419 151.895C337.217 151.052 339.95 149.99 340.139 146.981C340.328 143.972 347.771 146.08 346.768 142.256C349.327 143.382 351.37 145.426 352.496 147.984C354.575 152.433 355.157 150.165 356.683 153.262C358.21 156.358 359.591 165.488 362.033 158.815C364.476 152.142 358.21 146.53 358.21 146.53L352.671 139.988L347.495 138.81L343.061 137.895H337.115L333.131 138.81L327.447 144.902L323.958 150.892L323.521 157.478Z" fill="#2E353A" style="fill:#2E353A;fill:color(display-p3 0.1804 0.2078 0.2275);fill-opacity:1;"/>
<path d="M326.583 163.001C327.95 165.647 327.688 168.686 326.002 169.791C324.315 170.896 321.829 169.616 320.477 166.97C319.125 164.324 319.372 161.286 321.059 160.181C322.745 159.076 325.231 160.355 326.583 163.001Z" fill="#B97964" style="fill:#B97964;fill:color(display-p3 0.7255 0.4745 0.3922);fill-opacity:1;"/>
<path d="M357.554 163.001C356.187 165.647 356.463 168.686 358.15 169.791C359.836 170.896 362.308 169.616 363.674 166.97C365.041 164.324 364.779 161.286 363.078 160.181C361.377 159.076 358.92 160.355 357.554 163.001Z" fill="#B97964" style="fill:#B97964;fill:color(display-p3 0.7255 0.4745 0.3922);fill-opacity:1;"/>
<path d="M323.996 165.025C323.632 165.118 323.318 165.349 323.12 165.669C322.922 165.989 322.856 166.373 322.935 166.741L323.677 171.495C323.698 171.62 323.768 171.732 323.872 171.805C323.975 171.879 324.104 171.909 324.229 171.887C324.354 171.866 324.466 171.796 324.54 171.692C324.613 171.589 324.643 171.46 324.622 171.335L324.098 168.035H324.403C324.754 167.923 325.052 167.69 325.246 167.378C325.439 167.065 325.515 166.694 325.459 166.331C325.403 165.968 325.219 165.637 324.94 165.397C324.661 165.158 324.306 165.026 323.938 165.025H323.996Z" fill="white" style="fill:white;fill:white;fill-opacity:1;"/>
<path d="M361.025 165.025C361.39 165.119 361.704 165.349 361.902 165.669C362.1 165.989 362.166 166.373 362.086 166.741L361.33 171.495C361.309 171.62 361.239 171.732 361.135 171.805C361.032 171.879 360.903 171.909 360.778 171.888C360.652 171.866 360.539 171.796 360.463 171.693C360.387 171.59 360.354 171.462 360.371 171.335L360.894 168.035H360.56C360.208 167.923 359.909 167.689 359.715 167.375C359.522 167.061 359.447 166.688 359.506 166.324C359.564 165.96 359.75 165.628 360.032 165.39C360.313 165.152 360.671 165.023 361.04 165.025H361.025Z" fill="white" style="fill:white;fill:white;fill-opacity:1;"/>
<path d="M398.048 132.719C405.283 132.719 411.147 126.855 411.147 119.62C411.147 112.386 405.283 106.521 398.048 106.521C390.814 106.521 384.949 112.386 384.949 119.62C384.949 126.855 390.814 132.719 398.048 132.719Z" fill="#407BFF" style="fill:#407BFF;fill:color(display-p3 0.2510 0.4824 1.0000);fill-opacity:1;"/>
<path d="M390.501 127.164C390.296 126.959 390.182 126.682 390.182 126.393C390.182 126.104 390.296 125.827 390.501 125.622L404.05 112.073C404.255 111.869 404.532 111.754 404.821 111.754C405.11 111.754 405.387 111.869 405.591 112.073C405.796 112.277 405.91 112.554 405.91 112.843C405.91 113.132 405.796 113.409 405.591 113.614L392.056 127.164C391.847 127.365 391.569 127.478 391.278 127.478C390.988 127.478 390.709 127.365 390.501 127.164Z" fill="white" style="fill:white;fill:white;fill-opacity:1;"/>
<path d="M402.378 127.429H398.555V124.521C399.674 124.403 400.71 123.873 401.461 123.036C402.213 122.198 402.628 121.111 402.625 119.985V118.444C402.625 118.412 402.619 118.38 402.606 118.35C402.594 118.32 402.576 118.293 402.553 118.27C402.53 118.247 402.503 118.228 402.473 118.216C402.443 118.204 402.411 118.197 402.378 118.197H401.767C401.701 118.197 401.636 118.223 401.587 118.269C401.539 118.315 401.51 118.378 401.506 118.444C401.506 118.478 401.513 118.511 401.526 118.542C401.539 118.573 401.559 118.601 401.583 118.625C401.608 118.648 401.637 118.666 401.668 118.677C401.7 118.689 401.734 118.694 401.767 118.692H402.131V119.985C402.131 121.065 401.702 122.101 400.939 122.864C400.175 123.627 399.14 124.056 398.06 124.056C396.981 124.056 395.945 123.627 395.182 122.864C394.418 122.101 393.989 121.065 393.989 119.985V118.692H394.367C394.433 118.692 394.496 118.666 394.542 118.619C394.589 118.573 394.615 118.51 394.615 118.444C394.611 118.38 394.584 118.319 394.538 118.274C394.493 118.228 394.432 118.201 394.367 118.197H393.742C393.678 118.201 393.617 118.228 393.571 118.274C393.526 118.319 393.499 118.38 393.495 118.444V119.985C393.496 121.11 393.911 122.195 394.663 123.032C395.414 123.869 396.448 124.4 397.566 124.521V127.429H393.742C393.61 127.433 393.484 127.488 393.392 127.583C393.3 127.678 393.248 127.805 393.248 127.938V128.432H402.872V127.938C402.872 127.805 402.821 127.678 402.729 127.583C402.636 127.488 402.511 127.433 402.378 127.429Z" fill="white" style="fill:white;fill:white;fill-opacity:1;"/>
<path d="M394.986 120.045C395.039 120.824 395.387 121.554 395.957 122.086C396.528 122.619 397.28 122.916 398.061 122.916C398.841 122.916 399.593 122.619 400.164 122.086C400.735 121.554 401.082 120.824 401.136 120.045V113.895C401.165 113.474 401.107 113.051 400.965 112.652C400.824 112.254 400.602 111.889 400.314 111.58C400.025 111.272 399.676 111.025 399.289 110.857C398.901 110.688 398.483 110.602 398.061 110.602C397.638 110.602 397.22 110.688 396.832 110.857C396.445 111.025 396.096 111.272 395.808 111.58C395.519 111.889 395.298 112.254 395.156 112.652C395.015 113.051 394.957 113.474 394.986 113.895V120.045Z" fill="white" style="fill:white;fill:white;fill-opacity:1;"/>
<path d="M262.244 154.57H118.257C114.049 154.57 110.639 157.981 110.639 162.188V269.699C110.639 273.906 114.049 277.317 118.257 277.317H262.244C266.451 277.317 269.862 273.906 269.862 269.699V162.188C269.862 157.981 266.451 154.57 262.244 154.57Z" fill="#407BFF" style="fill:#407BFF;fill:color(display-p3 0.2510 0.4824 1.0000);fill-opacity:1;"/>
<path d="M180.591 164.895C180.591 164.895 173.205 162.641 171.563 178.488C169.92 194.335 158.58 199.612 170.618 205.428C182.655 211.243 194.286 204.875 199.011 205.428C203.736 205.98 212.27 202.883 211.732 195.062C211.194 187.24 197.281 164.531 197.281 164.531L180.591 164.895Z" fill="#263238" style="fill:#263238;fill:color(display-p3 0.1490 0.1961 0.2196);fill-opacity:1;"/>
<path d="M240.796 234.644C238.194 243.367 230.721 266.483 225.008 265.684C217.986 264.724 213.145 239.515 213.145 239.515L215.078 208.984C215.078 208.984 222.827 208.984 226.229 248.005L234.429 230.356L240.796 234.644Z" fill="#263238" style="fill:#263238;fill:color(display-p3 0.1490 0.1961 0.2196);fill-opacity:1;"/>
<path d="M235.125 230.622L238.033 224.283L242.598 220.547L245.069 217.886C245.697 217.208 246.524 216.747 247.43 216.57C248.337 216.392 249.277 216.507 250.114 216.898L251.568 217.581C252.417 217.974 253.118 218.631 253.565 219.453C254.013 220.275 254.184 221.219 254.054 222.146L253.283 227.671L240.926 231.669C240.926 231.669 240.577 232.904 239.981 234.911L235.125 230.622Z" fill="#EEC1BB" style="fill:#EEC1BB;fill:color(display-p3 0.9333 0.7569 0.7333);fill-opacity:1;"/>
<path d="M233.95 228.395L242.615 234.326L241.946 237.612L232.365 230.808L233.95 228.395Z" fill="#263238" style="fill:#263238;fill:color(display-p3 0.1490 0.1961 0.2196);fill-opacity:1;"/>
<path opacity="0.2" d="M233.95 228.395L242.615 234.326L241.946 237.612L232.365 230.808L233.95 228.395Z" fill="white" style="fill:white;fill:white;fill-opacity:1;"/>
<path d="M167.931 277.315C167.931 277.315 166.608 242.671 156.184 211.893C175.474 207.378 195.422 206.393 215.064 208.985C215.064 208.985 219.905 231.04 214.09 277.315H167.931Z" fill="#263238" style="fill:#263238;fill:color(display-p3 0.1490 0.1961 0.2196);fill-opacity:1;"/>
<path opacity="0.2" d="M167.931 277.315C167.931 277.315 166.608 242.671 156.184 211.893C175.474 207.378 195.422 206.393 215.064 208.985C215.064 208.985 219.905 231.04 214.09 277.315H167.931Z" fill="white" style="fill:white;fill:white;fill-opacity:1;"/>
<path d="M175.296 257.952C177.055 257.283 178.087 256.862 178.087 256.862L185.909 253.227L191.724 247.702C192.085 247.356 192.366 246.934 192.546 246.468C192.726 246.001 192.802 245.5 192.767 245.001C192.732 244.501 192.589 244.016 192.345 243.578C192.102 243.141 191.766 242.762 191.361 242.469L187.683 239.881C187.31 239.614 186.887 239.425 186.439 239.324C185.992 239.223 185.529 239.213 185.078 239.295C184.626 239.376 184.196 239.547 183.812 239.797C183.428 240.048 183.098 240.373 182.841 240.753L176.27 250.537C176.27 250.537 174.816 250.959 172.461 251.541L175.296 257.952Z" fill="#EEC1BB" style="fill:#EEC1BB;fill:color(display-p3 0.9333 0.7569 0.7333);fill-opacity:1;"/>
<path d="M175.438 258.853C166.919 262.066 141.389 270.862 133.713 263.942C124.452 255.582 156.189 211.895 156.189 211.895C164.665 221.475 161.612 231.376 161.612 231.376C161.612 231.376 145.286 248.604 146.827 252.849C148.179 256.643 164.956 252.849 172.632 250.944L175.438 258.853Z" fill="#263238" style="fill:#263238;fill:color(display-p3 0.1490 0.1961 0.2196);fill-opacity:1;"/>
<path d="M173.631 249.896L177.266 259.099L174.358 260.8L170.607 249.896H173.631Z" fill="#263238" style="fill:#263238;fill:color(display-p3 0.1490 0.1961 0.2196);fill-opacity:1;"/>
<path opacity="0.2" d="M173.631 249.896L177.266 259.099L174.358 260.8L170.607 249.896H173.631Z" fill="white" style="fill:white;fill:white;fill-opacity:1;"/>
<path d="M195.773 207.62H193.069C192.656 204.863 192.91 202.046 193.81 199.406L183.197 188.59C183.735 193.533 183.968 202.896 181.656 208.042C180.202 208.144 178.85 208.26 177.527 208.391C178.196 210.339 180.755 215.297 189.565 215.297C198.375 215.297 196.747 209.729 195.773 207.62Z" fill="#EEC1BB" style="fill:#EEC1BB;fill:color(display-p3 0.9333 0.7569 0.7333);fill-opacity:1;"/>
<path opacity="0.1" d="M185.194 192.561L183.973 195.832C185.881 199.551 189.043 202.476 192.899 204.09C193.026 202.5 193.333 200.929 193.815 199.408L186.779 192.227L185.194 192.561Z" fill="black" style="fill:black;fill:black;fill-opacity:1;"/>
<path d="M177.789 180.494C180.362 190.293 181.234 194.509 187.253 198.609C196.296 204.802 207.781 199.51 208.203 189.13C208.595 179.781 204.336 165.316 193.839 163.281C191.531 162.833 189.147 162.981 186.912 163.71C184.677 164.439 182.664 165.725 181.064 167.447C179.464 169.17 178.329 171.271 177.766 173.554C177.203 175.837 177.231 178.225 177.847 180.494H177.789Z" fill="#EEC1BB" style="fill:#EEC1BB;fill:color(display-p3 0.9333 0.7569 0.7333);fill-opacity:1;"/>
<path d="M176.985 188.796C177.438 189.657 178.057 190.42 178.805 191.041C179.554 191.663 180.417 192.13 181.347 192.416C183.833 193.172 185.127 190.962 184.473 188.578C183.891 186.441 181.899 183.475 179.37 183.766C178.494 183.899 177.707 184.372 177.179 185.083C176.65 185.793 176.424 186.684 176.549 187.56C176.613 187.997 176.761 188.416 176.985 188.796Z" fill="#EEC1BB" style="fill:#EEC1BB;fill:color(display-p3 0.9333 0.7569 0.7333);fill-opacity:1;"/>
<path d="M200.393 180.361C201.468 182.065 202.774 183.611 204.274 184.955C203.926 185.335 203.497 185.633 203.019 185.826C202.542 186.02 202.027 186.105 201.512 186.075L200.393 180.361Z" fill="#D58745" style="fill:#D58745;fill:color(display-p3 0.8353 0.5294 0.2706);fill-opacity:1;"/>
<path d="M191.638 176.683C191.571 176.698 191.502 176.698 191.435 176.683C191.345 176.626 191.281 176.537 191.257 176.433C191.233 176.33 191.249 176.222 191.304 176.131C191.677 175.476 192.202 174.92 192.834 174.511C193.467 174.101 194.188 173.849 194.938 173.775C195.045 173.775 195.148 173.816 195.227 173.888C195.305 173.961 195.353 174.061 195.36 174.168C195.364 174.274 195.327 174.377 195.256 174.455C195.186 174.534 195.087 174.582 194.982 174.59C194.363 174.656 193.768 174.868 193.248 175.21C192.727 175.551 192.295 176.011 191.987 176.552C191.947 176.605 191.893 176.645 191.832 176.668C191.77 176.691 191.703 176.696 191.638 176.683Z" fill="#2E353A" style="fill:#2E353A;fill:color(display-p3 0.1804 0.2078 0.2275);fill-opacity:1;"/>
<path d="M201.275 172.498C201.228 172.449 201.193 172.39 201.173 172.324C201.158 172.273 201.153 172.22 201.158 172.168C201.164 172.115 201.18 172.064 201.206 172.018C201.232 171.972 201.267 171.931 201.309 171.899C201.35 171.867 201.398 171.843 201.45 171.83C202.171 171.606 202.935 171.558 203.678 171.69C204.422 171.821 205.123 172.128 205.724 172.586C205.774 172.617 205.817 172.658 205.849 172.707C205.882 172.756 205.903 172.811 205.912 172.869C205.922 172.928 205.918 172.987 205.902 173.043C205.886 173.1 205.858 173.152 205.819 173.197C205.781 173.242 205.734 173.278 205.68 173.302C205.627 173.327 205.568 173.339 205.51 173.339C205.451 173.339 205.393 173.326 205.339 173.302C205.286 173.277 205.239 173.241 205.2 173.196C204.701 172.824 204.119 172.577 203.505 172.476C202.89 172.375 202.26 172.422 201.668 172.615C201.598 172.63 201.525 172.628 201.456 172.607C201.388 172.587 201.325 172.55 201.275 172.498Z" fill="#2E353A" style="fill:#2E353A;fill:color(display-p3 0.1804 0.2078 0.2275);fill-opacity:1;"/>
<path d="M194.396 180.141C194.556 180.955 195.108 181.595 195.646 181.421C196.184 181.246 196.475 180.577 196.301 179.763C196.126 178.949 195.588 178.397 195.065 178.498C194.541 178.6 194.236 179.327 194.396 180.141Z" fill="#2E353A" style="fill:#2E353A;fill:color(display-p3 0.1804 0.2078 0.2275);fill-opacity:1;"/>
<path d="M203.52 178.355C203.665 179.154 204.232 179.721 204.756 179.62C205.279 179.518 205.584 178.791 205.424 177.977C205.264 177.163 204.712 176.596 204.189 176.697C203.665 176.799 203.374 177.541 203.52 178.355Z" fill="#2E353A" style="fill:#2E353A;fill:color(display-p3 0.1804 0.2078 0.2275);fill-opacity:1;"/>
<path d="M203.998 176.786L205.83 175.855C205.83 175.855 205.132 177.556 203.998 176.786Z" fill="#2E353A" style="fill:#2E353A;fill:color(display-p3 0.1804 0.2078 0.2275);fill-opacity:1;"/>
<path d="M194.807 178.589L196.624 177.658C196.624 177.658 195.984 179.359 194.807 178.589Z" fill="#2E353A" style="fill:#2E353A;fill:color(display-p3 0.1804 0.2078 0.2275);fill-opacity:1;"/>
<path d="M202.388 188.664C200.128 188.536 197.861 188.604 195.613 188.868C196.041 189.649 196.709 190.271 197.518 190.643C198.327 191.015 199.234 191.116 200.106 190.932C202.65 190.699 202.388 188.664 202.388 188.664Z" fill="#2E353A" style="fill:#2E353A;fill:color(display-p3 0.1804 0.2078 0.2275);fill-opacity:1;"/>
<path d="M198.824 189.968C199.814 189.823 200.824 189.97 201.732 190.39C201.28 190.713 200.745 190.899 200.191 190.928C199.201 191.073 198.191 190.926 197.283 190.506C197.735 190.184 198.27 189.997 198.824 189.968Z" fill="#DE5753" style="fill:#DE5753;fill:color(display-p3 0.8706 0.3412 0.3255);fill-opacity:1;"/>
<path d="M202.152 188.648C202.116 188.823 202.031 188.984 201.908 189.112C201.784 189.241 201.627 189.332 201.454 189.375C200.002 189.488 198.544 189.488 197.093 189.375C196.863 189.381 196.636 189.333 196.428 189.235C196.221 189.136 196.04 188.99 195.9 188.808C197.978 188.605 200.067 188.552 202.152 188.648Z" fill="white" style="fill:white;fill:white;fill-opacity:1;"/>
<path d="M180.583 188.154C180.583 188.154 184.944 184.49 183.97 176.683C182.996 168.876 192.882 176.16 194.859 169.618C196.837 163.076 205.356 176.349 209.543 168.353C213.73 160.357 194.627 158.409 192.722 160.72C190.818 163.032 164.707 159.266 180.583 188.154Z" fill="#263238" style="fill:#263238;fill:color(display-p3 0.1490 0.1961 0.2196);fill-opacity:1;"/>
<path d="M257.008 253.021H123.474C121.563 253.021 120.014 254.571 120.014 256.482V263.053C120.014 264.964 121.563 266.513 123.474 266.513H257.008C258.919 266.513 260.468 264.964 260.468 263.053V256.482C260.468 254.571 258.919 253.021 257.008 253.021Z" fill="white" style="fill:white;fill:white;fill-opacity:1;"/>
<path d="M137.604 263.141V256.41L141.82 259.783L137.604 263.141Z" fill="#263238" style="fill:#263238;fill:color(display-p3 0.1490 0.1961 0.2196);fill-opacity:1;"/>
<path d="M148.604 261.764L150.45 259.816L148.604 257.854V261.764Z" fill="#263238" style="fill:#263238;fill:color(display-p3 0.1490 0.1961 0.2196);fill-opacity:1;"/>
<path d="M150.457 257.926V259.816V261.706H151.286V257.926H150.457Z" fill="#263238" style="fill:#263238;fill:color(display-p3 0.1490 0.1961 0.2196);fill-opacity:1;"/>
<path d="M130.803 257.854L128.971 259.816L130.803 261.764V257.854Z" fill="#263238" style="fill:#263238;fill:color(display-p3 0.1490 0.1961 0.2196);fill-opacity:1;"/>
<path d="M128.972 261.706V259.816V257.926H128.129V261.706H128.972Z" fill="#263238" style="fill:#263238;fill:color(display-p3 0.1490 0.1961 0.2196);fill-opacity:1;"/>
<path d="M253.961 258.826H164.158V260.803H253.961V258.826Z" fill="#263238" style="fill:#263238;fill:color(display-p3 0.1490 0.1961 0.2196);fill-opacity:1;"/>
<path d="M206.702 255.35H203.504V264.189H206.702V255.35Z" fill="#407BFF" style="fill:#407BFF;fill:color(display-p3 0.2510 0.4824 1.0000);fill-opacity:1;"/>
<path d="M485.275 151.946C489.593 133.652 478.263 115.321 459.969 111.003C441.675 106.686 423.345 118.016 419.027 136.31C414.709 154.603 426.039 172.934 444.333 177.252C462.627 181.569 480.957 170.239 485.275 151.946Z" fill="#407BFF" style="fill:#407BFF;fill:color(display-p3 0.2510 0.4824 1.0000);fill-opacity:1;"/>
<path opacity="0.7" d="M485.275 151.946C489.593 133.652 478.263 115.321 459.969 111.003C441.675 106.686 423.345 118.016 419.027 136.31C414.709 154.603 426.039 172.934 444.333 177.252C462.627 181.569 480.957 170.239 485.275 151.946Z" fill="white" style="fill:white;fill:white;fill-opacity:1;"/>
<g opacity="0.8">
<path d="M445.293 155.706C447.135 153.917 449.602 152.917 452.169 152.917C454.737 152.917 457.204 153.917 459.046 155.706C460.892 157.407 463.684 154.644 461.823 152.929C459.23 150.431 455.77 149.035 452.169 149.035C448.569 149.035 445.109 150.431 442.516 152.929C440.655 154.644 443.432 157.407 445.293 155.706Z" fill="#407BFF" style="fill:#407BFF;fill:color(display-p3 0.2510 0.4824 1.0000);fill-opacity:1;"/>
<path d="M450.834 161.245C451.188 160.894 451.666 160.697 452.164 160.697C452.663 160.697 453.141 160.894 453.495 161.245C455.355 162.96 458.132 160.184 456.271 158.468C455.169 157.405 453.696 156.811 452.164 156.811C450.632 156.811 449.16 157.405 448.057 158.468C446.196 160.184 448.988 162.96 450.834 161.245Z" fill="#407BFF" style="fill:#407BFF;fill:color(display-p3 0.2510 0.4824 1.0000);fill-opacity:1;"/>
<path d="M438 148.407C441.797 144.726 446.879 142.667 452.168 142.667C457.457 142.667 462.538 144.726 466.335 148.407C468.196 150.108 470.973 147.346 469.112 145.63C464.562 141.243 458.488 138.791 452.168 138.791C445.847 138.791 439.773 141.243 435.223 145.63C433.362 147.346 436.154 150.123 438 148.407Z" fill="#407BFF" style="fill:#407BFF;fill:color(display-p3 0.2510 0.4824 1.0000);fill-opacity:1;"/>
<path d="M431.361 141.748C436.943 136.34 444.409 133.317 452.18 133.317C459.951 133.317 467.418 136.34 472.999 141.748C474.845 143.478 477.622 140.715 475.776 138.971C469.447 132.847 460.986 129.424 452.18 129.424C443.374 129.424 434.913 132.847 428.584 138.971C426.738 140.715 429.515 143.478 431.361 141.748Z" fill="#407BFF" style="fill:#407BFF;fill:color(display-p3 0.2510 0.4824 1.0000);fill-opacity:1;"/>
</g>
<path d="M181.141 358.151C200.476 358.151 216.149 342.478 216.149 323.143C216.149 303.808 200.476 288.135 181.141 288.135C161.807 288.135 146.133 303.808 146.133 323.143C146.133 342.478 161.807 358.151 181.141 358.151Z" fill="#407BFF" style="fill:#407BFF;fill:color(display-p3 0.2510 0.4824 1.0000);fill-opacity:1;"/>
<path opacity="0.7" d="M181.141 358.151C200.476 358.151 216.149 342.478 216.149 323.143C216.149 303.808 200.476 288.135 181.141 288.135C161.807 288.135 146.133 303.808 146.133 323.143C146.133 342.478 161.807 358.151 181.141 358.151Z" fill="white" style="fill:white;fill:white;fill-opacity:1;"/>
<path d="M173.527 312.004V321.032L162.652 313.08V333.201L173.527 325.234V334.277H199.623V312.004H173.527Z" fill="#407BFF" style="fill:#407BFF;fill:color(display-p3 0.2510 0.4824 1.0000);fill-opacity:1;"/>
<path d="M595.371 193.123C599.214 176.838 589.128 160.52 572.843 156.676C556.557 152.832 540.239 162.918 536.395 179.204C532.552 195.489 542.638 211.807 558.923 215.651C575.209 219.495 591.527 209.409 595.371 193.123Z" fill="#407BFF" style="fill:#407BFF;fill:color(display-p3 0.2510 0.4824 1.0000);fill-opacity:1;"/>
<path opacity="0.7" d="M595.371 193.123C599.214 176.838 589.128 160.52 572.843 156.676C556.557 152.832 540.239 162.918 536.395 179.204C532.552 195.489 542.638 211.807 558.923 215.651C575.209 219.495 591.527 209.409 595.371 193.123Z" fill="white" style="fill:white;fill:white;fill-opacity:1;"/>
<path d="M574.728 202.082H566.994V196.267C569.275 196.01 571.382 194.922 572.913 193.212C574.444 191.501 575.292 189.287 575.295 186.991V183.851C575.291 183.719 575.236 183.593 575.141 183.501C575.046 183.408 574.919 183.357 574.786 183.357H573.521C573.448 183.344 573.373 183.348 573.302 183.367C573.23 183.387 573.164 183.422 573.107 183.47C573.051 183.517 573.005 183.577 572.974 183.644C572.943 183.711 572.927 183.784 572.927 183.858C572.927 183.933 572.943 184.006 572.974 184.073C573.005 184.14 573.051 184.2 573.107 184.247C573.164 184.295 573.23 184.33 573.302 184.349C573.373 184.369 573.448 184.372 573.521 184.36H574.263V186.991C574.263 189.193 573.388 191.305 571.831 192.861C570.274 194.418 568.163 195.293 565.961 195.293C563.76 195.293 561.648 194.418 560.091 192.861C558.535 191.305 557.66 189.193 557.66 186.991V184.36H558.416C558.489 184.372 558.564 184.369 558.635 184.349C558.707 184.33 558.773 184.295 558.83 184.247C558.886 184.2 558.932 184.14 558.963 184.073C558.994 184.006 559.011 183.933 559.011 183.858C559.011 183.784 558.994 183.711 558.963 183.644C558.932 183.577 558.886 183.517 558.83 183.47C558.773 183.422 558.707 183.387 558.635 183.367C558.564 183.348 558.489 183.344 558.416 183.357H557.151C557.085 183.355 557.019 183.366 556.957 183.39C556.896 183.414 556.84 183.45 556.792 183.496C556.745 183.543 556.707 183.598 556.681 183.659C556.656 183.72 556.642 183.785 556.642 183.851V186.991C556.643 189.288 557.489 191.504 559.021 193.215C560.553 194.926 562.661 196.013 564.944 196.267V202.082H557.108C556.838 202.082 556.579 202.189 556.388 202.38C556.197 202.571 556.09 202.83 556.09 203.1V204.118H575.717V203.1C575.717 202.835 575.613 202.58 575.429 202.39C575.244 202.2 574.993 202.09 574.728 202.082Z" fill="#407BFF" style="fill:#407BFF;fill:color(display-p3 0.2510 0.4824 1.0000);fill-opacity:1;"/>
<path d="M565.917 193.359C567.583 193.359 569.18 192.697 570.358 191.519C571.536 190.341 572.198 188.744 572.198 187.078H559.637C559.635 187.903 559.796 188.721 560.111 189.484C560.426 190.247 560.888 190.94 561.472 191.523C562.056 192.107 562.749 192.57 563.512 192.885C564.274 193.199 565.092 193.361 565.917 193.359Z" fill="#407BFF" style="fill:#407BFF;fill:color(display-p3 0.2510 0.4824 1.0000);fill-opacity:1;"/>
<path d="M572.198 174.458C572.198 172.793 571.536 171.195 570.358 170.017C569.18 168.839 567.583 168.178 565.917 168.178C564.252 168.178 562.654 168.839 561.476 170.017C560.298 171.195 559.637 172.793 559.637 174.458V185.885H572.198V174.458Z" fill="#407BFF" style="fill:#407BFF;fill:color(display-p3 0.2510 0.4824 1.0000);fill-opacity:1;"/>
</svg>
