<svg xmlns="http://www.w3.org/2000/svg" width="28" height="28" viewBox="0 0 28 28" fill="none">
  <path d="M13.9997 2.33398C9.48467 2.33398 5.83301 5.98565 5.83301 10.5007C5.83301 16.6257 13.9997 25.6673 13.9997 25.6673C13.9997 25.6673 22.1663 16.6257 22.1663 10.5007C22.1663 5.98565 18.5147 2.33398 13.9997 2.33398ZM8.16634 10.5007C8.16634 7.28065 10.7797 4.66732 13.9997 4.66732C17.2197 4.66732 19.833 7.28065 19.833 10.5007C19.833 13.8607 16.473 18.889 13.9997 22.0273C11.573 18.9123 8.16634 13.8257 8.16634 10.5007Z" fill="#2563EB" style="fill:#2563EB;fill:color(display-p3 0.1451 0.3882 0.9216);fill-opacity:1;"/>
  <path d="M13.9997 13.4173C15.6105 13.4173 16.9163 12.1115 16.9163 10.5007C16.9163 8.88982 15.6105 7.58398 13.9997 7.58398C12.3888 7.58398 11.083 8.88982 11.083 10.5007C11.083 12.1115 12.3888 13.4173 13.9997 13.4173Z" fill="#2563EB" style="fill:#2563EB;fill:color(display-p3 0.1451 0.3882 0.9216);fill-opacity:1;"/>
</svg>