<svg xmlns="http://www.w3.org/2000/svg" width="28" height="28" viewBox="0 0 28 28" fill="none">
  <path d="M18.667 1.16602H9.33366C7.72366 1.16602 6.41699 2.47268 6.41699 4.08268V23.916C6.41699 25.526 7.72366 26.8327 9.33366 26.8327H18.667C20.277 26.8327 21.5837 25.526 21.5837 23.916V4.08268C21.5837 2.47268 20.277 1.16602 18.667 1.16602ZM14.0003 25.666C13.032 25.666 12.2503 24.8844 12.2503 23.916C12.2503 22.9477 13.032 22.166 14.0003 22.166C14.9687 22.166 15.7503 22.9477 15.7503 23.916C15.7503 24.8844 14.9687 25.666 14.0003 25.666ZM19.2503 20.9994H8.75033V4.66602H19.2503V20.9994Z" fill="#2563EB" style="fill:#2563EB;fill:color(display-p3 0.1451 0.3882 0.9216);fill-opacity:1;"/>
</svg>